<svg xmlns="http://www.w3.org/2000/svg" xmlns:xlink="http://www.w3.org/1999/xlink" width="1000" zoomAndPan="magnify" viewBox="0 0 750 749.999995" height="1000" preserveAspectRatio="xMidYMid meet" version="1.0"><path fill="#ffffff" d="M 629.347656 120.652344 C 560.667969 51.96875 465.703125 11.269531 347.203125 -0.285156 L 344.304688 29.242188 C 455.808594 40.140625 544.628906 77.980469 608.324219 141.675781 C 672.019531 205.371094 709.859375 294.191406 720.757812 405.695312 L 750.285156 402.796875 C 738.730469 284.296875 698.03125 189.332031 629.347656 120.652344 " fill-opacity="1" fill-rule="nonzero"/><path fill="#ffffff" d="M 509.496094 407.359375 L 538.871094 403.183594 C 530.480469 344.472656 510.925781 299.40625 480.738281 269.261719 C 450.59375 239.074219 405.527344 219.519531 346.816406 211.128906 L 342.640625 240.503906 C 394.820312 247.964844 434.203125 264.699219 459.753906 290.246094 C 485.300781 315.796875 502.035156 355.179688 509.496094 407.359375 " fill-opacity="1" fill-rule="nonzero"/><path fill="#ffffff" d="M 346.933594 105.152344 L 343.570312 134.640625 C 425.429688 144.035156 489.511719 171.398438 534.078125 215.921875 C 578.601562 260.488281 605.964844 324.570312 615.359375 406.429688 L 644.847656 403.066406 C 634.683594 314.367188 604.457031 244.332031 555.0625 194.9375 C 505.667969 145.542969 435.632812 115.316406 346.933594 105.152344 " fill-opacity="1" fill-rule="nonzero"/><path fill="#ffffff" d="M 550.929688 509.898438 C 527.660156 486.589844 489.859375 486.589844 466.59375 509.898438 L 421.796875 554.652344 C 414.339844 562.113281 402.898438 563.621094 393.621094 558.558594 C 352.574219 536.21875 313.5 507.269531 278.136719 471.863281 C 242.730469 436.5 213.78125 397.425781 191.441406 356.378906 C 186.378906 347.101562 187.886719 335.660156 195.347656 328.203125 L 240.101562 283.40625 C 263.410156 260.140625 263.410156 222.339844 240.101562 199.070312 L 170.144531 129.078125 C 146.839844 105.769531 109.078125 105.769531 85.773438 129.078125 L 34.910156 179.941406 C 10.480469 204.328125 0.355469 239.65625 8.316406 273.242188 C 33.75 380.765625 90.449219 485.507812 177.449219 572.550781 C 264.492188 659.550781 369.234375 716.25 476.757812 741.683594 C 510.34375 749.644531 545.671875 739.519531 570.058594 715.089844 L 620.921875 664.226562 C 644.230469 640.921875 644.230469 603.160156 620.921875 579.855469 L 550.929688 509.898438 " fill-opacity="1" fill-rule="nonzero"/></svg>