<svg xmlns="http://www.w3.org/2000/svg" xmlns:xlink="http://www.w3.org/1999/xlink" width="1000" zoomAndPan="magnify" viewBox="0 0 750 749.999995" height="1000" preserveAspectRatio="xMidYMid meet" version="1.0"><defs><clipPath id="6048eae2cc"><path d="M 341.574219 318.296875 L 465.335938 318.296875 L 465.335938 447.859375 L 341.574219 447.859375 Z M 341.574219 318.296875 " clip-rule="nonzero"/></clipPath><clipPath id="fd0a61cbd5"><path d="M 465.335938 447.558594 L 341.574219 447.558594 L 341.574219 318.296875 Z M 465.335938 447.558594 " clip-rule="nonzero"/></clipPath><clipPath id="ba3cb260c2"><path d="M 0.574219 0.296875 L 124.335938 0.296875 L 124.335938 129.601562 L 0.574219 129.601562 Z M 0.574219 0.296875 " clip-rule="nonzero"/></clipPath><clipPath id="1f17a4160c"><path d="M 124.335938 129.558594 L 0.574219 129.558594 L 0.574219 0.296875 Z M 124.335938 129.558594 " clip-rule="nonzero"/></clipPath><clipPath id="a178eedb4e"><rect x="0" width="125" y="0" height="130"/></clipPath><clipPath id="17640e19e1"><path d="M 7.085938 0 L 742.835938 0 L 742.835938 750 L 7.085938 750 Z M 7.085938 0 " clip-rule="nonzero"/></clipPath><clipPath id="bc0611c2a4"><path d="M 116 15 L 735.558594 15 L 735.558594 735 L 116 735 Z M 116 15 " clip-rule="nonzero"/></clipPath><clipPath id="57b0ffdcd9"><path d="M 0.15625 0 L 651 0 L 651 750 L 0.15625 750 Z M 0.15625 0 " clip-rule="nonzero"/></clipPath><clipPath id="a422567060"><rect x="0" width="736" y="0" height="750"/></clipPath></defs><g clip-path="url(#6048eae2cc)"><g clip-path="url(#fd0a61cbd5)"><g transform="matrix(1, 0, 0, 1, 341, 318)"><g clip-path="url(#a178eedb4e)"><g clip-path="url(#ba3cb260c2)"><g clip-path="url(#1f17a4160c)"><path fill="#134787" d="M 0.574219 0.296875 L 124.335938 0.296875 L 124.335938 129.375 L 0.574219 129.375 Z M 0.574219 0.296875 " fill-opacity="1" fill-rule="nonzero"/></g></g></g></g></g></g><g clip-path="url(#17640e19e1)"><g transform="matrix(1, 0, 0, 1, 7, -0.000000000000042435)"><g clip-path="url(#a422567060)"><g clip-path="url(#bc0611c2a4)"><path fill="#38b6ff" d="M 735.46875 15.941406 L 116.90625 379.761719 L 735.46875 734.488281 L 594.023438 375.214844 L 735.46875 15.941406 " fill-opacity="1" fill-rule="nonzero"/></g><g clip-path="url(#57b0ffdcd9)"><path fill="#000000" d="M 642.710938 29.578125 C 599.914062 54.75 557.125 79.921875 514.328125 105.089844 C 427.535156 156.140625 340.742188 207.1875 253.964844 258.230469 C 185.578125 298.453125 117.207031 338.671875 48.832031 378.878906 C 40.601562 383.710938 32.371094 388.5625 24.140625 393.398438 L 24.140625 366.113281 C 67.394531 390.917969 110.632812 415.703125 153.871094 440.503906 C 241.25 490.617188 328.628906 540.726562 416.003906 590.835938 C 484.015625 629.84375 552.023438 668.832031 620.03125 707.835938 C 627.59375 712.164062 635.152344 716.507812 642.710938 720.835938 C 634.972656 726.792969 627.238281 732.734375 619.503906 738.6875 C 592.757812 670.742188 566.003906 602.8125 539.257812 534.882812 C 523.003906 493.570312 506.746094 452.273438 490.476562 410.964844 C 486.636719 401.183594 482.78125 391.421875 478.941406 381.660156 C 476.320312 374.992188 478.515625 369.84375 480.917969 363.761719 C 512.496094 283.570312 544.0625 203.363281 575.625 123.191406 C 590.25 86.035156 604.875 48.886719 619.503906 11.738281 C 622.65625 3.734375 629.960938 -1.765625 638.933594 0.703125 C 646.574219 2.808594 653.128906 12.113281 649.96875 20.136719 C 623.222656 88.074219 596.480469 156.003906 569.734375 223.929688 C 549.339844 275.761719 528.925781 327.578125 508.53125 379.394531 L 508.53125 371.003906 C 535.277344 438.9375 562.023438 506.867188 588.765625 574.8125 C 609.164062 626.628906 629.566406 678.445312 649.96875 730.277344 C 655.300781 743.816406 637.816406 754.449219 626.765625 748.113281 C 583.523438 723.328125 540.285156 698.523438 497.046875 673.722656 C 409.667969 623.613281 322.277344 573.515625 234.898438 523.40625 C 166.890625 484.402344 98.878906 445.398438 30.886719 406.390625 C 23.320312 402.0625 15.769531 397.734375 8.199219 393.390625 C -2.132812 387.464844 -1.957031 372.078125 8.199219 366.109375 C 50.996094 340.941406 93.792969 315.777344 136.589844 290.59375 C 223.382812 239.550781 310.160156 188.507812 396.953125 137.460938 C 465.324219 97.242188 533.714844 57.027344 602.085938 16.804688 C 610.3125 11.964844 618.539062 7.128906 626.765625 2.289062 C 644.363281 -8.058594 660.253906 19.253906 642.710938 29.574219 " fill-opacity="1" fill-rule="nonzero"/></g></g></g></g></svg>