<svg xmlns="http://www.w3.org/2000/svg" xmlns:xlink="http://www.w3.org/1999/xlink" width="1000" zoomAndPan="magnify" viewBox="0 0 750 749.999995" height="1000" preserveAspectRatio="xMidYMid meet" version="1.0"><defs><clipPath id="202eb59d95"><path d="M 341.574219 318.296875 L 465.335938 318.296875 L 465.335938 447.859375 L 341.574219 447.859375 Z M 341.574219 318.296875 " clip-rule="nonzero"/></clipPath><clipPath id="d07394e5d0"><path d="M 465.335938 447.558594 L 341.574219 447.558594 L 341.574219 318.296875 Z M 465.335938 447.558594 " clip-rule="nonzero"/></clipPath><clipPath id="23d2054d87"><path d="M 0.574219 0.296875 L 124.335938 0.296875 L 124.335938 129.601562 L 0.574219 129.601562 Z M 0.574219 0.296875 " clip-rule="nonzero"/></clipPath><clipPath id="1c9c07490d"><path d="M 124.335938 129.558594 L 0.574219 129.558594 L 0.574219 0.296875 Z M 124.335938 129.558594 " clip-rule="nonzero"/></clipPath><clipPath id="f205c44e9b"><rect x="0" width="125" y="0" height="130"/></clipPath><clipPath id="3790126a0d"><path d="M 7.085938 15 L 627 15 L 627 735 L 7.085938 735 Z M 7.085938 15 " clip-rule="nonzero"/></clipPath><clipPath id="ad4999c577"><path d="M 92 0 L 742.835938 0 L 742.835938 750 L 92 750 Z M 92 0 " clip-rule="nonzero"/></clipPath></defs><g clip-path="url(#202eb59d95)"><g clip-path="url(#d07394e5d0)"><g transform="matrix(1, 0, 0, 1, 341, 318)"><g clip-path="url(#f205c44e9b)"><g clip-path="url(#23d2054d87)"><g clip-path="url(#1c9c07490d)"><path fill="#134787" d="M 0.574219 0.296875 L 124.335938 0.296875 L 124.335938 129.375 L 0.574219 129.375 Z M 0.574219 0.296875 " fill-opacity="1" fill-rule="nonzero"/></g></g></g></g></g></g><g clip-path="url(#3790126a0d)"><path fill="#e80606" d="M 7.523438 15.941406 L 626.085938 379.761719 L 7.523438 734.488281 L 148.96875 375.214844 L 7.523438 15.941406 " fill-opacity="1" fill-rule="nonzero"/></g><g clip-path="url(#ad4999c577)"><path fill="#000000" d="M 100.28125 29.578125 C 143.074219 54.75 185.863281 79.921875 228.660156 105.089844 C 315.453125 156.140625 402.246094 207.1875 489.023438 258.230469 C 557.414062 298.453125 625.785156 338.671875 694.15625 378.878906 C 702.386719 383.710938 710.621094 388.5625 718.851562 393.398438 L 718.851562 366.113281 C 675.59375 390.917969 632.355469 415.703125 589.117188 440.503906 C 501.742188 490.617188 414.363281 540.726562 326.984375 590.835938 C 258.976562 629.84375 190.964844 668.832031 122.957031 707.835938 C 115.398438 712.164062 107.839844 716.507812 100.28125 720.835938 C 108.015625 726.792969 115.75 732.734375 123.488281 738.6875 C 150.234375 670.742188 176.984375 602.8125 203.730469 534.882812 C 219.988281 493.570312 236.242188 452.273438 252.515625 410.964844 C 256.355469 401.183594 260.207031 391.421875 264.046875 381.660156 C 266.667969 374.992188 264.472656 369.84375 262.074219 363.761719 C 230.492188 283.570312 198.929688 203.363281 167.363281 123.191406 C 152.738281 86.035156 138.113281 48.886719 123.488281 11.738281 C 120.335938 3.734375 113.027344 -1.765625 104.054688 0.703125 C 96.417969 2.808594 89.863281 12.113281 93.023438 20.136719 C 119.769531 88.074219 146.511719 156.003906 173.257812 223.929688 C 193.652344 275.761719 214.0625 327.578125 234.457031 379.394531 L 234.457031 371.003906 C 207.710938 438.9375 180.964844 506.867188 154.226562 574.8125 C 133.824219 626.628906 113.421875 678.445312 93.023438 730.277344 C 87.691406 743.816406 105.171875 754.449219 116.226562 748.113281 C 159.464844 723.328125 202.703125 698.523438 245.941406 673.722656 C 333.320312 623.613281 420.714844 573.515625 508.089844 523.40625 C 576.101562 484.402344 644.109375 445.398438 712.105469 406.390625 C 719.671875 402.0625 727.222656 397.734375 734.789062 393.390625 C 745.121094 387.464844 744.949219 372.078125 734.789062 366.109375 C 691.992188 340.941406 649.199219 315.777344 606.402344 290.59375 C 519.609375 239.550781 432.832031 188.507812 346.039062 137.460938 C 277.664062 97.242188 209.277344 57.027344 140.902344 16.804688 C 132.675781 11.964844 124.453125 7.128906 116.226562 2.289062 C 98.625 -8.058594 82.734375 19.253906 100.28125 29.574219 " fill-opacity="1" fill-rule="nonzero"/></g></svg>