<svg xmlns="http://www.w3.org/2000/svg" xmlns:xlink="http://www.w3.org/1999/xlink" width="1000" zoomAndPan="magnify" viewBox="0 0 750 749.999995" height="1000" preserveAspectRatio="xMidYMid meet" version="1.0"><defs><clipPath id="6fd449ecf3"><path d="M 284.664062 258.855469 L 465.335938 258.855469 L 465.335938 447.996094 L 284.664062 447.996094 Z M 284.664062 258.855469 " clip-rule="nonzero"/></clipPath><clipPath id="1f57abb950"><path d="M 465.335938 447.558594 L 284.664062 447.558594 L 284.664062 258.855469 Z M 465.335938 447.558594 " clip-rule="nonzero"/></clipPath><clipPath id="72b06682d2"><path d="M 0.664062 0.855469 L 181.335938 0.855469 L 181.335938 189.601562 L 0.664062 189.601562 Z M 0.664062 0.855469 " clip-rule="nonzero"/></clipPath><clipPath id="ac1822c55c"><path d="M 181.335938 189.558594 L 0.664062 189.558594 L 0.664062 0.855469 Z M 181.335938 189.558594 " clip-rule="nonzero"/></clipPath><clipPath id="ab1b3c8543"><rect x="0" width="182" y="0" height="190"/></clipPath></defs><g clip-path="url(#6fd449ecf3)"><g clip-path="url(#1f57abb950)"><g transform="matrix(1, 0, 0, 1, 284, 258)"><g clip-path="url(#ab1b3c8543)"><g clip-path="url(#72b06682d2)"><g clip-path="url(#ac1822c55c)"><path fill="#134787" d="M 0.664062 0.855469 L 181.335938 0.855469 L 181.335938 189.292969 L 0.664062 189.292969 Z M 0.664062 0.855469 " fill-opacity="1" fill-rule="nonzero"/></g></g></g></g></g></g><path fill="#042754" d="M 0.453125 16.332031 L 634.199219 389.085938 L 0.453125 752.515625 L 145.371094 384.421875 L 0.453125 16.332031 " fill-opacity="1" fill-rule="nonzero"/><path fill="#000000" d="M 95.484375 30.304688 C 139.332031 56.09375 183.171875 81.882812 227.019531 107.671875 C 315.941406 159.972656 404.867188 212.273438 493.773438 264.570312 C 563.839844 305.777344 633.890625 346.984375 703.941406 388.179688 C 712.375 393.132812 720.808594 398.101562 729.242188 403.054688 L 729.242188 375.101562 C 684.925781 400.511719 640.625 425.90625 596.324219 451.320312 C 506.800781 502.660156 417.28125 554 327.757812 605.339844 C 258.078125 645.300781 188.398438 685.25 118.71875 725.210938 C 110.976562 729.644531 103.230469 734.097656 95.484375 738.53125 C 103.414062 744.632812 111.335938 750.71875 119.265625 756.820312 C 146.667969 687.207031 174.074219 617.609375 201.476562 548.011719 C 218.132812 505.6875 234.789062 463.375 251.457031 421.050781 C 255.390625 411.03125 259.339844 401.03125 263.273438 391.027344 C 265.960938 384.195312 263.710938 378.921875 261.25 372.6875 C 228.894531 290.53125 196.558594 208.355469 164.21875 126.214844 C 149.234375 88.148438 134.25 50.085938 119.265625 12.027344 C 116.035156 3.824219 108.546875 -1.808594 99.355469 0.722656 C 91.527344 2.875 84.8125 12.410156 88.050781 20.628906 C 115.453125 90.234375 142.851562 159.832031 170.253906 229.425781 C 191.152344 282.53125 212.0625 335.617188 232.957031 388.707031 L 232.957031 380.113281 C 205.554688 449.710938 178.152344 519.308594 150.757812 588.921875 C 129.855469 642.011719 108.953125 695.101562 88.050781 748.203125 C 82.589844 762.074219 100.5 772.96875 111.824219 766.476562 C 156.125 741.082031 200.425781 715.671875 244.726562 690.261719 C 334.246094 638.917969 423.785156 587.59375 513.308594 536.253906 C 582.988281 496.292969 652.667969 456.332031 722.328125 416.367188 C 730.082031 411.933594 737.820312 407.5 745.570312 403.046875 C 756.15625 396.976562 755.980469 381.214844 745.570312 375.09375 C 701.726562 349.3125 657.878906 323.527344 614.03125 297.726562 C 525.109375 245.433594 436.199219 193.136719 347.277344 140.835938 C 277.226562 99.628906 207.160156 58.425781 137.109375 17.21875 C 128.679688 12.257812 120.25 7.304688 111.824219 2.347656 C 93.792969 -8.257812 77.511719 19.726562 95.484375 30.296875 " fill-opacity="1" fill-rule="nonzero"/></svg>