<svg xmlns="http://www.w3.org/2000/svg" xmlns:xlink="http://www.w3.org/1999/xlink" width="1000" zoomAndPan="magnify" viewBox="0 0 750 749.999995" height="1000" preserveAspectRatio="xMidYMid meet" version="1.0"><defs><clipPath id="87bdd5b382"><path d="M 341.574219 318.296875 L 465.335938 318.296875 L 465.335938 447.859375 L 341.574219 447.859375 Z M 341.574219 318.296875 " clip-rule="nonzero"/></clipPath><clipPath id="c4fc801c7c"><path d="M 465.335938 447.558594 L 341.574219 447.558594 L 341.574219 318.296875 Z M 465.335938 447.558594 " clip-rule="nonzero"/></clipPath><clipPath id="84d397c1e7"><path d="M 0.574219 0.296875 L 124.335938 0.296875 L 124.335938 129.601562 L 0.574219 129.601562 Z M 0.574219 0.296875 " clip-rule="nonzero"/></clipPath><clipPath id="0917d1be95"><path d="M 124.335938 129.558594 L 0.574219 129.558594 L 0.574219 0.296875 Z M 124.335938 129.558594 " clip-rule="nonzero"/></clipPath><clipPath id="d5396c37cc"><rect x="0" width="125" y="0" height="130"/></clipPath><clipPath id="712d4be8da"><path d="M 14.171875 0 L 749.921875 0 L 749.921875 750 L 14.171875 750 Z M 14.171875 0 " clip-rule="nonzero"/></clipPath><clipPath id="2bd09db60e"><path d="M 116 15 L 735.761719 15 L 735.761719 735 L 116 735 Z M 116 15 " clip-rule="nonzero"/></clipPath><clipPath id="ddadce8a90"><path d="M 0.242188 0 L 652 0 L 652 750 L 0.242188 750 Z M 0.242188 0 " clip-rule="nonzero"/></clipPath><clipPath id="6eacb24d0d"><rect x="0" width="736" y="0" height="750"/></clipPath></defs><g clip-path="url(#87bdd5b382)"><g clip-path="url(#c4fc801c7c)"><g transform="matrix(1, 0, 0, 1, 341, 318)"><g clip-path="url(#d5396c37cc)"><g clip-path="url(#84d397c1e7)"><g clip-path="url(#0917d1be95)"><path fill="#134787" d="M 0.574219 0.296875 L 124.335938 0.296875 L 124.335938 129.375 L 0.574219 129.375 Z M 0.574219 0.296875 " fill-opacity="1" fill-rule="nonzero"/></g></g></g></g></g></g><g clip-path="url(#712d4be8da)"><g transform="matrix(1, 0, 0, 1, 14, -0.000000000000042435)"><g clip-path="url(#6eacb24d0d)"><g clip-path="url(#2bd09db60e)"><path fill="#042754" d="M 735.550781 15.941406 L 116.988281 379.761719 L 735.550781 734.488281 L 594.105469 375.214844 L 735.550781 15.941406 " fill-opacity="1" fill-rule="nonzero"/></g><g clip-path="url(#ddadce8a90)"><path fill="#000000" d="M 642.796875 29.578125 C 600 54.75 557.210938 79.921875 514.414062 105.089844 C 427.621094 156.140625 340.828125 207.1875 254.050781 258.230469 C 185.664062 298.453125 117.289062 338.671875 48.917969 378.878906 C 40.6875 383.710938 32.457031 388.5625 24.226562 393.398438 L 24.226562 366.113281 C 67.480469 390.917969 110.71875 415.703125 153.957031 440.503906 C 241.335938 490.617188 328.710938 540.726562 416.089844 590.835938 C 484.097656 629.84375 552.109375 668.832031 620.117188 707.835938 C 627.675781 712.164062 635.238281 716.507812 642.796875 720.835938 C 635.058594 726.792969 627.324219 732.734375 619.585938 738.6875 C 592.839844 670.742188 566.089844 602.8125 539.34375 534.882812 C 523.089844 493.570312 506.832031 452.273438 490.558594 410.964844 C 486.722656 401.183594 482.867188 391.421875 479.027344 381.660156 C 476.40625 374.992188 478.601562 369.84375 481.003906 363.761719 C 512.582031 283.570312 544.144531 203.363281 575.710938 123.191406 C 590.335938 86.035156 604.960938 48.886719 619.585938 11.738281 C 622.742188 3.734375 630.046875 -1.765625 639.019531 0.703125 C 646.660156 2.808594 653.210938 12.113281 650.054688 20.136719 C 623.308594 88.074219 596.5625 156.003906 569.816406 223.929688 C 549.421875 275.761719 529.011719 327.578125 508.617188 379.394531 L 508.617188 371.003906 C 535.363281 438.9375 562.109375 506.867188 588.847656 574.8125 C 609.25 626.628906 629.652344 678.445312 650.054688 730.277344 C 655.386719 743.816406 637.902344 754.449219 626.847656 748.113281 C 583.609375 723.328125 540.371094 698.523438 497.132812 673.722656 C 409.753906 623.613281 322.359375 573.515625 234.984375 523.40625 C 166.972656 484.402344 98.964844 445.398438 30.972656 406.390625 C 23.402344 402.0625 15.851562 397.734375 8.285156 393.390625 C -2.046875 387.464844 -1.871094 372.078125 8.285156 366.109375 C 51.082031 340.941406 93.878906 315.777344 136.675781 290.59375 C 223.46875 239.550781 310.246094 188.507812 397.039062 137.460938 C 465.410156 97.242188 533.800781 57.027344 602.171875 16.804688 C 610.398438 11.964844 618.625 7.128906 626.847656 2.289062 C 644.449219 -8.058594 660.339844 19.253906 642.796875 29.574219 " fill-opacity="1" fill-rule="nonzero"/></g></g></g></g></svg>