<svg xmlns="http://www.w3.org/2000/svg" xmlns:xlink="http://www.w3.org/1999/xlink" width="1000" zoomAndPan="magnify" viewBox="0 0 750 749.999995" height="1000" preserveAspectRatio="xMidYMid meet" version="1.0"><defs><clipPath id="5391c0c022"><path d="M 246.777344 508.824219 L 253.527344 508.824219 L 253.527344 517.824219 L 246.777344 517.824219 Z M 246.777344 508.824219 " clip-rule="nonzero"/></clipPath><clipPath id="c8b22bb0a1"><path d="M 247 514 L 252 514 L 252 517.824219 L 247 517.824219 Z M 247 514 " clip-rule="nonzero"/></clipPath><clipPath id="7493cc9f04"><path d="M 252 513 L 253.527344 513 L 253.527344 516 L 252 516 Z M 252 513 " clip-rule="nonzero"/></clipPath><clipPath id="f36fd05e72"><path d="M 250 517 L 251 517 L 251 517.824219 L 250 517.824219 Z M 250 517 " clip-rule="nonzero"/></clipPath><clipPath id="19d7b0d4c1"><path d="M 249 516 L 251 516 L 251 517.824219 L 249 517.824219 Z M 249 516 " clip-rule="nonzero"/></clipPath><clipPath id="0236db7735"><path d="M 249 516 L 250 516 L 250 517.824219 L 249 517.824219 Z M 249 516 " clip-rule="nonzero"/></clipPath><clipPath id="014c54c54e"><path d="M 248 516 L 250 516 L 250 517.824219 L 248 517.824219 Z M 248 516 " clip-rule="nonzero"/></clipPath><clipPath id="49c57bbf1d"><path d="M 246.777344 508.824219 L 253.527344 508.824219 L 253.527344 517.824219 L 246.777344 517.824219 Z M 246.777344 508.824219 " clip-rule="nonzero"/></clipPath><clipPath id="2bcf75c3b6"><path d="M 31 2 L 719.4375 2 L 719.4375 750 L 31 750 Z M 31 2 " clip-rule="nonzero"/></clipPath></defs><g clip-path="url(#5391c0c022)"><path fill="#000000" d="M 252.640625 513.363281 C 252.902344 513.648438 253.105469 513.960938 253.25 514.308594 C 253.398438 514.65625 253.484375 515.035156 253.515625 515.445312 C 253.519531 515.511719 253.484375 515.570312 253.433594 515.59375 L 253.003906 515.839844 C 252.949219 515.871094 252.882812 515.859375 252.839844 515.8125 L 252.792969 515.757812 L 252.136719 516.0625 C 252.136719 516.070312 252.136719 516.078125 252.136719 516.089844 C 252.132812 516.160156 252.113281 516.234375 252.078125 516.296875 C 252.074219 516.300781 252.074219 516.304688 252.070312 516.308594 C 252.011719 516.414062 251.914062 516.480469 251.8125 516.503906 C 251.796875 516.507812 251.785156 516.511719 251.769531 516.511719 C 251.773438 516.597656 251.75 516.6875 251.707031 516.765625 C 251.644531 516.871094 251.550781 516.9375 251.445312 516.960938 C 251.4375 516.964844 251.429688 516.964844 251.417969 516.96875 C 251.417969 517.042969 251.398438 517.121094 251.359375 517.1875 C 251.304688 517.28125 251.21875 517.34375 251.125 517.363281 C 251.09375 517.371094 251.058594 517.375 251.027344 517.375 C 251.019531 517.421875 251.003906 517.464844 250.980469 517.507812 C 250.976562 517.515625 250.976562 517.519531 250.972656 517.527344 C 250.914062 517.621094 250.828125 517.679688 250.738281 517.703125 C 250.644531 517.722656 250.542969 517.707031 250.457031 517.648438 L 250.382812 517.597656 C 250.328125 517.695312 250.242188 517.761719 250.144531 517.789062 C 250.042969 517.820312 249.929688 517.8125 249.832031 517.75 C 249.769531 517.710938 249.71875 517.660156 249.683594 517.597656 C 249.65625 517.613281 249.628906 517.625 249.597656 517.636719 C 249.503906 517.664062 249.398438 517.65625 249.304688 517.597656 C 249.238281 517.558594 249.1875 517.5 249.15625 517.433594 C 249.140625 517.441406 249.125 517.445312 249.109375 517.449219 C 249.007812 517.480469 248.894531 517.472656 248.796875 517.410156 C 248.695312 517.351562 248.628906 517.25 248.601562 517.140625 C 248.585938 517.078125 248.582031 517.007812 248.589844 516.941406 C 248.539062 516.9375 248.484375 516.917969 248.433594 516.886719 C 248.335938 516.828125 248.269531 516.730469 248.238281 516.617188 C 248.210938 516.507812 248.21875 516.386719 248.273438 516.28125 L 248.242188 516.246094 L 248.0625 516.058594 L 247.820312 515.929688 L 247.511719 515.761719 L 247.46875 515.8125 C 247.425781 515.859375 247.359375 515.871094 247.304688 515.839844 L 246.875 515.59375 C 246.820312 515.570312 246.789062 515.511719 246.792969 515.445312 C 246.851562 514.625 247.144531 513.929688 247.667969 513.363281 C 247.710938 513.316406 247.78125 513.300781 247.835938 513.335938 L 248.339844 513.652344 C 248.398438 513.691406 248.425781 513.765625 248.402344 513.832031 L 248.394531 513.847656 C 248.480469 513.914062 248.574219 513.957031 248.675781 513.984375 C 248.808594 514.019531 248.953125 514.023438 249.117188 514 C 249.273438 513.933594 249.429688 513.902344 249.578125 513.910156 C 249.738281 513.914062 249.890625 513.960938 250.035156 514.046875 C 250.039062 514.046875 250.042969 514.050781 250.046875 514.050781 L 250.152344 514.121094 L 250.261719 514.050781 C 250.265625 514.050781 250.269531 514.046875 250.273438 514.046875 C 250.417969 513.960938 250.570312 513.914062 250.730469 513.910156 C 250.878906 513.902344 251.035156 513.933594 251.191406 514 C 251.355469 514.023438 251.5 514.019531 251.632812 513.984375 C 251.734375 513.957031 251.828125 513.914062 251.910156 513.847656 L 251.90625 513.832031 C 251.882812 513.765625 251.90625 513.691406 251.964844 513.652344 L 252.472656 513.335938 C 252.527344 513.300781 252.597656 513.316406 252.640625 513.363281 Z M 249.90625 512.761719 C 249.984375 512.804688 250.066406 512.824219 250.15625 512.824219 C 250.246094 512.824219 250.332031 512.804688 250.410156 512.761719 L 250.921875 513.726562 C 250.941406 513.765625 250.96875 513.792969 251 513.808594 C 251.03125 513.828125 251.066406 513.839844 251.105469 513.835938 C 251.140625 513.835938 251.175781 513.824219 251.207031 513.800781 C 251.238281 513.78125 251.261719 513.75 251.277344 513.710938 L 251.46875 513.269531 L 251.914062 513.3125 C 251.953125 513.316406 251.988281 513.308594 252.019531 513.289062 C 252.054688 513.273438 252.082031 513.246094 252.101562 513.210938 C 252.121094 513.175781 252.132812 513.140625 252.132812 513.097656 C 252.132812 513.066406 252.125 513.03125 252.113281 513 C 252.109375 512.996094 252.109375 512.988281 252.105469 512.984375 L 251.59375 512.019531 C 251.605469 511.984375 251.613281 511.949219 251.621094 511.914062 C 251.644531 511.792969 251.636719 511.664062 251.59375 511.546875 C 251.578125 511.503906 251.570312 511.472656 251.574219 511.457031 C 251.578125 511.445312 251.59375 511.433594 251.628906 511.421875 C 251.738281 511.371094 251.832031 511.289062 251.898438 511.183594 C 251.964844 511.082031 252 510.957031 252 510.824219 C 252 510.691406 251.964844 510.566406 251.898438 510.464844 C 251.835938 510.359375 251.742188 510.277344 251.636719 510.230469 C 251.632812 510.230469 251.628906 510.226562 251.628906 510.226562 C 251.59375 510.210938 251.578125 510.199219 251.574219 510.191406 C 251.570312 510.171875 251.578125 510.140625 251.59375 510.097656 C 251.636719 509.984375 251.644531 509.855469 251.621094 509.734375 C 251.597656 509.613281 251.546875 509.5 251.460938 509.410156 C 251.375 509.316406 251.265625 509.253906 251.152344 509.230469 C 251.039062 509.207031 250.917969 509.222656 250.808594 509.273438 C 250.773438 509.289062 250.753906 509.292969 250.746094 509.289062 C 250.734375 509.277344 250.71875 509.25 250.699219 509.210938 C 250.65625 509.09375 250.578125 508.996094 250.480469 508.929688 C 250.386719 508.859375 250.277344 508.820312 250.15625 508.820312 C 250.039062 508.820312 249.925781 508.859375 249.832031 508.929688 C 249.738281 508.996094 249.660156 509.09375 249.613281 509.210938 C 249.597656 509.25 249.582031 509.277344 249.566406 509.289062 C 249.558594 509.292969 249.539062 509.289062 249.507812 509.273438 C 249.398438 509.222656 249.277344 509.207031 249.160156 509.230469 C 249.046875 509.253906 248.941406 509.316406 248.855469 509.410156 C 248.769531 509.5 248.714844 509.613281 248.695312 509.734375 C 248.671875 509.855469 248.679688 509.984375 248.722656 510.097656 C 248.738281 510.140625 248.746094 510.171875 248.738281 510.191406 C 248.738281 510.199219 248.71875 510.210938 248.6875 510.226562 C 248.578125 510.273438 248.484375 510.359375 248.417969 510.464844 C 248.351562 510.566406 248.3125 510.691406 248.3125 510.824219 C 248.3125 510.957031 248.351562 511.082031 248.417969 511.183594 C 248.480469 511.285156 248.574219 511.367188 248.679688 511.417969 C 248.683594 511.417969 248.683594 511.417969 248.6875 511.421875 C 248.71875 511.433594 248.738281 511.445312 248.738281 511.457031 C 248.746094 511.472656 248.738281 511.503906 248.722656 511.546875 C 248.679688 511.664062 248.671875 511.792969 248.695312 511.914062 C 248.699219 511.949219 248.710938 511.984375 248.722656 512.019531 L 248.210938 512.984375 C 248.191406 513.019531 248.179688 513.058594 248.183594 513.097656 C 248.183594 513.136719 248.195312 513.175781 248.214844 513.210938 C 248.234375 513.246094 248.261719 513.273438 248.292969 513.289062 C 248.328125 513.308594 248.363281 513.316406 248.398438 513.3125 L 248.847656 513.269531 L 249.039062 513.710938 C 249.054688 513.75 249.078125 513.777344 249.109375 513.800781 C 249.136719 513.824219 249.171875 513.835938 249.210938 513.835938 C 249.25 513.839844 249.285156 513.828125 249.316406 513.808594 C 249.347656 513.792969 249.375 513.765625 249.394531 513.726562 Z M 249.90625 512.761719 " fill-opacity="1" fill-rule="evenodd"/></g><path fill="#f5dccd" d="M 252.679688 515.488281 C 252.640625 514.925781 252.460938 514.445312 252.074219 514.089844 C 251.800781 514.296875 251.480469 514.347656 251.136719 514.289062 C 251.125 514.289062 251.113281 514.285156 251.101562 514.28125 C 250.875 514.175781 250.613281 514.175781 250.402344 514.308594 L 249.304688 515.027344 C 249.296875 515.085938 249.320312 515.121094 249.367188 515.164062 C 249.386719 515.179688 249.40625 515.195312 249.429688 515.210938 C 249.496094 515.226562 249.558594 515.230469 249.621094 515.21875 L 249.722656 515.246094 L 249.820312 515.140625 C 250.1875 514.914062 250.574219 514.832031 250.957031 515.039062 C 250.964844 515.042969 250.972656 515.050781 250.976562 515.054688 L 252.019531 515.789062 Z M 252.679688 515.488281 " fill-opacity="1" fill-rule="evenodd"/><g clip-path="url(#c8b22bb0a1)"><path fill="#f5dccd" d="M 248.199219 515.804688 Z M 251.132812 516.546875 Z M 251.476562 516.605469 Z M 251.433594 516.394531 Z M 251.175781 516.214844 Z M 251.394531 516.015625 Z M 251.582031 516.144531 Z M 251.15625 515.535156 L 250.832031 515.304688 C 250.722656 515.238281 250.550781 515.207031 250.425781 515.222656 C 250.253906 515.238281 250.121094 515.273438 250.003906 515.339844 C 249.890625 515.398438 249.796875 515.492188 249.660156 515.515625 C 249.558594 515.53125 249.453125 515.523438 249.347656 515.496094 L 249.183594 515.382812 C 249.039062 515.25 248.996094 515.078125 249.054688 514.886719 L 249.058594 514.875 L 249.0625 514.867188 L 249.066406 514.863281 L 249.070312 514.855469 L 249.070312 514.851562 L 249.074219 514.84375 L 249.082031 514.835938 L 249.085938 514.828125 L 249.09375 514.824219 L 249.117188 514.800781 L 249.886719 514.296875 C 249.667969 514.179688 249.433594 514.175781 249.207031 514.28125 C 249.195312 514.285156 249.183594 514.289062 249.171875 514.289062 C 248.828125 514.347656 248.507812 514.296875 248.234375 514.089844 C 247.847656 514.445312 247.667969 514.929688 247.628906 515.492188 L 248.199219 515.804688 L 248.414062 516.015625 C 248.484375 515.875 248.539062 515.765625 248.703125 515.71875 C 248.917969 515.652344 249.136719 515.777344 249.207031 516.003906 C 249.410156 515.953125 249.617188 516.078125 249.6875 516.292969 C 249.878906 516.25 250.070312 516.367188 250.132812 516.570312 C 250.226562 516.550781 250.324219 516.566406 250.414062 516.621094 C 250.46875 516.652344 250.511719 516.695312 250.546875 516.746094 L 250.894531 516.992188 L 250.996094 517.0625 C 251.058594 517.105469 251.164062 517.046875 251.140625 516.945312 C 251.128906 516.882812 251.066406 516.851562 251 516.808594 L 250.5 516.460938 C 250.347656 516.355469 250.492188 516.105469 250.644531 516.210938 L 251.132812 516.546875 L 251.289062 516.65625 C 251.34375 516.695312 251.433594 516.675781 251.476562 516.605469 C 251.515625 516.535156 251.496094 516.445312 251.433594 516.398438 L 251.175781 516.214844 L 250.988281 516.085938 C 250.835938 515.980469 250.984375 515.730469 251.136719 515.835938 L 251.394531 516.015625 L 251.582031 516.148438 C 251.640625 516.1875 251.683594 516.230469 251.753906 516.214844 C 251.871094 516.1875 251.871094 516.046875 251.859375 516.03125 Z M 251.15625 515.535156 " fill-opacity="1" fill-rule="evenodd"/></g><path fill="#8ac9fe" d="M 247.351562 515.515625 C 247.390625 514.839844 247.613281 514.257812 248.085938 513.835938 L 247.792969 513.652344 C 247.378906 514.128906 247.140625 514.703125 247.074219 515.375 L 247.34375 515.527344 Z M 247.351562 515.515625 " fill-opacity="1" fill-rule="evenodd"/><g clip-path="url(#7493cc9f04)"><path fill="#8ac9fe" d="M 252.222656 513.835938 C 252.695312 514.257812 252.917969 514.839844 252.957031 515.515625 L 252.964844 515.527344 L 253.234375 515.375 C 253.167969 514.710938 252.933594 514.136719 252.515625 513.652344 Z M 252.222656 513.835938 " fill-opacity="1" fill-rule="evenodd"/></g><g clip-path="url(#f36fd05e72)"><path fill="#f5dccd" d="M 250.742188 517.363281 Z M 250.730469 517.230469 L 250.707031 517.199219 L 250.609375 517.140625 L 250.574219 517.230469 L 250.519531 517.335938 C 250.558594 517.367188 250.589844 517.40625 250.625 517.417969 C 250.644531 517.421875 250.664062 517.414062 250.679688 517.410156 L 250.71875 517.410156 L 250.742188 517.363281 C 250.769531 517.320312 250.757812 517.253906 250.730469 517.230469 Z M 250.730469 517.230469 " fill-opacity="1" fill-rule="evenodd"/></g><g clip-path="url(#19d7b0d4c1)"><path fill="#f5dccd" d="M 250.152344 517.433594 L 250.335938 517.085938 L 250.34375 517.058594 C 250.398438 516.890625 250.175781 516.773438 250.089844 516.9375 L 249.910156 517.285156 C 249.824219 517.457031 250.066406 517.605469 250.152344 517.433594 Z M 250.152344 517.433594 " fill-opacity="1" fill-rule="evenodd"/></g><g clip-path="url(#0236db7735)"><path fill="#f5dccd" d="M 249.59375 517.289062 L 249.867188 516.765625 C 249.9375 516.625 249.742188 516.503906 249.667969 516.644531 L 249.5625 516.847656 L 249.394531 517.171875 C 249.320312 517.3125 249.519531 517.433594 249.59375 517.289062 Z M 249.59375 517.289062 " fill-opacity="1" fill-rule="evenodd"/></g><g clip-path="url(#014c54c54e)"><path fill="#f5dccd" d="M 249.117188 517.09375 L 249.421875 516.511719 C 249.476562 516.40625 249.382812 516.257812 249.261719 516.296875 C 249.226562 516.308594 249.195312 516.332031 249.175781 516.367188 L 248.875 516.945312 C 248.816406 517.0625 248.914062 517.199219 249.035156 517.164062 C 249.070312 517.152344 249.101562 517.128906 249.117188 517.09375 Z M 249.117188 517.09375 " fill-opacity="1" fill-rule="evenodd"/></g><path fill="#f5dccd" d="M 248.761719 516.597656 C 248.695312 516.707031 248.523438 516.679688 248.488281 516.542969 C 248.464844 516.457031 248.511719 516.390625 248.550781 516.316406 L 248.679688 516.0625 L 248.757812 515.992188 L 248.761719 515.992188 C 248.898438 515.9375 249.023438 516.09375 248.953125 516.230469 Z M 248.761719 516.597656 " fill-opacity="1" fill-rule="evenodd"/><path fill="#fe646f" d="M 250.625 512.574219 L 251.089844 513.449219 L 251.230469 513.117188 L 251.105469 512.878906 C 251.015625 512.707031 251.25 512.558594 251.339844 512.730469 L 251.46875 512.972656 L 251.800781 513.003906 L 251.414062 512.28125 C 251.246094 512.433594 251.007812 512.46875 250.808594 512.375 C 250.695312 512.324219 250.746094 512.40625 250.625 512.574219 Z M 250.625 512.574219 " fill-opacity="1" fill-rule="evenodd"/><path fill="#fe646f" d="M 249.226562 513.449219 L 249.691406 512.574219 C 249.566406 512.40625 249.617188 512.324219 249.507812 512.375 C 249.304688 512.46875 249.070312 512.433594 248.898438 512.28125 L 248.515625 513.003906 L 248.84375 512.972656 L 248.972656 512.730469 C 249.0625 512.558594 249.300781 512.707031 249.210938 512.878906 L 249.082031 513.117188 Z M 249.226562 513.449219 " fill-opacity="1" fill-rule="evenodd"/><path fill="#8ac9fe" d="M 251.527344 511.144531 Z M 248.789062 510.503906 Z M 249.863281 512.320312 C 249.976562 512.59375 250.339844 512.59375 250.449219 512.320312 C 250.539062 512.097656 250.699219 512 250.914062 512.101562 C 251.175781 512.222656 251.441406 511.945312 251.335938 511.65625 C 251.257812 511.433594 251.304688 511.242188 251.527344 511.144531 C 251.800781 511.023438 251.785156 510.609375 251.527344 510.503906 C 251.304688 510.410156 251.257812 510.214844 251.335938 509.992188 C 251.441406 509.703125 251.175781 509.425781 250.914062 509.546875 C 250.699219 509.648438 250.539062 509.546875 250.449219 509.328125 C 250.339844 509.050781 249.976562 509.050781 249.863281 509.328125 C 249.777344 509.546875 249.617188 509.648438 249.398438 509.546875 C 249.140625 509.425781 248.875 509.703125 248.976562 509.992188 C 249.058594 510.214844 249.007812 510.40625 248.789062 510.503906 C 248.515625 510.625 248.53125 511.035156 248.789062 511.144531 C 249.007812 511.238281 249.058594 511.433594 248.976562 511.65625 C 248.941406 511.75 248.949219 511.859375 248.992188 511.949219 C 249.085938 512.113281 249.246094 512.171875 249.398438 512.101562 C 249.617188 512 249.777344 512.097656 249.863281 512.320312 Z M 251.277344 510.824219 C 251.277344 511.492188 250.773438 512.039062 250.15625 512.039062 C 249.539062 512.039062 249.039062 511.492188 249.039062 510.824219 C 249.039062 510.152344 249.539062 509.609375 250.15625 509.609375 C 250.773438 509.609375 251.277344 510.152344 251.277344 510.824219 Z M 251.277344 510.824219 " fill-opacity="1" fill-rule="evenodd"/><path fill="#eaeef1" d="M 249.3125 510.824219 C 249.3125 511.636719 250.222656 512.046875 250.753906 511.472656 C 251.082031 511.113281 251.082031 510.535156 250.753906 510.175781 C 250.222656 509.601562 249.3125 510.011719 249.3125 510.824219 Z M 250.183594 511.203125 Z M 249.972656 511.210938 L 249.730469 510.90625 C 249.679688 510.84375 249.6875 510.75 249.746094 510.695312 C 249.804688 510.640625 249.890625 510.648438 249.9375 510.710938 L 250.070312 510.878906 L 250.371094 510.441406 C 250.417969 510.378906 250.503906 510.363281 250.5625 510.414062 C 250.625 510.464844 250.636719 510.558594 250.589844 510.621094 L 250.183594 511.203125 C 250.132812 511.277344 250.027344 511.285156 249.972656 511.210938 Z M 249.972656 511.210938 " fill-opacity="1" fill-rule="evenodd"/><g clip-path="url(#49c57bbf1d)"><path fill="#000000" d="M 252.640625 513.363281 C 252.902344 513.648438 253.105469 513.960938 253.25 514.308594 C 253.398438 514.65625 253.484375 515.035156 253.515625 515.445312 C 253.519531 515.511719 253.484375 515.570312 253.433594 515.59375 L 253.003906 515.839844 C 252.949219 515.871094 252.882812 515.859375 252.839844 515.8125 L 252.792969 515.757812 L 252.136719 516.0625 C 252.136719 516.070312 252.136719 516.078125 252.136719 516.089844 C 252.132812 516.160156 252.113281 516.234375 252.078125 516.296875 C 252.074219 516.300781 252.074219 516.304688 252.070312 516.308594 C 252.011719 516.414062 251.914062 516.480469 251.8125 516.503906 C 251.796875 516.507812 251.785156 516.511719 251.769531 516.511719 C 251.773438 516.597656 251.75 516.6875 251.707031 516.765625 C 251.644531 516.871094 251.550781 516.9375 251.445312 516.960938 C 251.4375 516.964844 251.429688 516.964844 251.417969 516.96875 C 251.417969 517.042969 251.398438 517.121094 251.359375 517.1875 C 251.304688 517.28125 251.21875 517.34375 251.125 517.363281 C 251.09375 517.371094 251.058594 517.375 251.027344 517.375 C 251.019531 517.421875 251.003906 517.464844 250.980469 517.507812 C 250.976562 517.515625 250.976562 517.519531 250.972656 517.527344 C 250.914062 517.621094 250.828125 517.679688 250.738281 517.703125 C 250.644531 517.722656 250.542969 517.707031 250.457031 517.648438 L 250.382812 517.597656 C 250.328125 517.695312 250.242188 517.761719 250.144531 517.789062 C 250.042969 517.820312 249.929688 517.8125 249.832031 517.75 C 249.769531 517.710938 249.71875 517.660156 249.683594 517.597656 C 249.65625 517.613281 249.628906 517.625 249.597656 517.636719 C 249.503906 517.664062 249.398438 517.65625 249.304688 517.597656 C 249.238281 517.558594 249.1875 517.5 249.15625 517.433594 C 249.140625 517.441406 249.125 517.445312 249.109375 517.449219 C 249.007812 517.480469 248.894531 517.472656 248.796875 517.410156 C 248.695312 517.351562 248.628906 517.25 248.601562 517.140625 C 248.585938 517.078125 248.582031 517.007812 248.589844 516.941406 C 248.539062 516.9375 248.484375 516.917969 248.433594 516.886719 C 248.335938 516.828125 248.269531 516.730469 248.238281 516.617188 C 248.210938 516.507812 248.21875 516.386719 248.273438 516.28125 L 248.242188 516.246094 L 248.0625 516.058594 L 247.820312 515.929688 L 247.511719 515.761719 L 247.46875 515.8125 C 247.425781 515.859375 247.359375 515.871094 247.304688 515.839844 L 246.875 515.59375 C 246.820312 515.570312 246.789062 515.511719 246.792969 515.445312 C 246.851562 514.625 247.144531 513.929688 247.667969 513.363281 C 247.710938 513.316406 247.78125 513.300781 247.835938 513.335938 L 248.339844 513.652344 C 248.398438 513.691406 248.425781 513.765625 248.402344 513.832031 L 248.394531 513.847656 C 248.480469 513.914062 248.574219 513.957031 248.675781 513.984375 C 248.808594 514.019531 248.953125 514.023438 249.117188 514 C 249.273438 513.933594 249.429688 513.902344 249.578125 513.910156 C 249.738281 513.914062 249.890625 513.960938 250.035156 514.046875 C 250.039062 514.046875 250.042969 514.050781 250.046875 514.050781 L 250.152344 514.121094 L 250.261719 514.050781 C 250.265625 514.050781 250.269531 514.046875 250.273438 514.046875 C 250.417969 513.960938 250.570312 513.914062 250.730469 513.910156 C 250.878906 513.902344 251.035156 513.933594 251.191406 514 C 251.355469 514.023438 251.5 514.019531 251.632812 513.984375 C 251.734375 513.957031 251.828125 513.914062 251.910156 513.847656 L 251.90625 513.832031 C 251.882812 513.765625 251.90625 513.691406 251.964844 513.652344 L 252.472656 513.335938 C 252.527344 513.300781 252.597656 513.316406 252.640625 513.363281 Z M 248.992188 511.949219 C 248.996094 511.953125 248.996094 511.957031 249 511.960938 C 249.011719 511.980469 249.023438 512.003906 249.042969 512.023438 C 249.042969 512.023438 249.046875 512.027344 249.046875 512.027344 C 249.09375 512.078125 249.152344 512.109375 249.210938 512.121094 C 249.273438 512.136719 249.339844 512.128906 249.398438 512.101562 C 249.515625 512.046875 249.609375 512.050781 249.691406 512.097656 C 249.769531 512.140625 249.824219 512.214844 249.863281 512.320312 C 249.882812 512.363281 249.910156 512.40625 249.945312 512.4375 C 249.949219 512.441406 249.953125 512.445312 249.957031 512.449219 C 249.964844 512.457031 249.972656 512.464844 249.984375 512.472656 C 250.03125 512.507812 250.09375 512.527344 250.15625 512.527344 C 250.222656 512.527344 250.28125 512.507812 250.332031 512.472656 C 250.339844 512.464844 250.351562 512.457031 250.359375 512.449219 C 250.363281 512.445312 250.367188 512.441406 250.371094 512.4375 C 250.40625 512.40625 250.433594 512.363281 250.449219 512.320312 C 250.492188 512.214844 250.546875 512.140625 250.621094 512.097656 C 250.707031 512.050781 250.800781 512.046875 250.914062 512.101562 C 250.972656 512.128906 251.039062 512.136719 251.101562 512.121094 C 251.164062 512.109375 251.21875 512.078125 251.265625 512.027344 C 251.3125 511.980469 251.339844 511.917969 251.351562 511.855469 C 251.367188 511.789062 251.359375 511.71875 251.335938 511.65625 C 251.300781 511.550781 251.289062 511.457031 251.316406 511.367188 C 251.34375 511.269531 251.410156 511.195312 251.527344 511.144531 C 251.585938 511.121094 251.636719 511.074219 251.671875 511.015625 C 251.707031 510.960938 251.726562 510.894531 251.726562 510.824219 C 251.726562 510.75 251.707031 510.683594 251.671875 510.628906 C 251.636719 510.574219 251.589844 510.53125 251.53125 510.503906 L 251.527344 510.503906 C 251.410156 510.453125 251.34375 510.378906 251.316406 510.28125 C 251.289062 510.191406 251.300781 510.09375 251.335938 509.992188 C 251.359375 509.925781 251.367188 509.859375 251.351562 509.792969 C 251.339844 509.730469 251.3125 509.667969 251.265625 509.617188 C 251.21875 509.570312 251.164062 509.535156 251.101562 509.523438 C 251.039062 509.511719 250.972656 509.519531 250.914062 509.546875 C 250.800781 509.597656 250.707031 509.597656 250.621094 509.550781 C 250.546875 509.507812 250.492188 509.429688 250.449219 509.328125 C 250.425781 509.265625 250.382812 509.214844 250.332031 509.175781 C 250.28125 509.140625 250.222656 509.121094 250.15625 509.121094 C 250.09375 509.121094 250.03125 509.140625 249.984375 509.175781 C 249.933594 509.214844 249.890625 509.265625 249.863281 509.328125 C 249.824219 509.429688 249.769531 509.507812 249.691406 509.550781 C 249.609375 509.597656 249.515625 509.597656 249.398438 509.546875 C 249.339844 509.519531 249.273438 509.511719 249.210938 509.523438 C 249.152344 509.535156 249.09375 509.570312 249.046875 509.617188 C 249.003906 509.667969 248.972656 509.730469 248.960938 509.792969 C 248.949219 509.859375 248.953125 509.925781 248.976562 509.992188 C 249.015625 510.09375 249.027344 510.191406 249 510.28125 C 248.972656 510.378906 248.90625 510.453125 248.789062 510.503906 C 248.730469 510.527344 248.679688 510.574219 248.644531 510.628906 C 248.609375 510.683594 248.589844 510.75 248.589844 510.824219 C 248.589844 510.894531 248.609375 510.960938 248.644531 511.015625 C 248.675781 511.074219 248.726562 511.117188 248.78125 511.140625 L 248.789062 511.144531 C 248.90625 511.195312 248.972656 511.269531 249 511.367188 C 249.027344 511.457031 249.015625 511.550781 248.976562 511.65625 C 248.953125 511.71875 248.949219 511.789062 248.960938 511.855469 C 248.96875 511.886719 248.976562 511.917969 248.992188 511.949219 Z M 248.898438 512.28125 L 248.515625 513.003906 L 248.84375 512.972656 L 248.972656 512.730469 C 249.011719 512.660156 249.09375 512.632812 249.160156 512.675781 C 249.226562 512.714844 249.25 512.804688 249.210938 512.878906 L 249.082031 513.117188 L 249.226562 513.449219 L 249.691406 512.574219 C 249.660156 512.535156 249.632812 512.488281 249.613281 512.4375 C 249.597656 512.394531 249.582031 512.367188 249.566406 512.359375 C 249.558594 512.355469 249.539062 512.359375 249.507812 512.375 C 249.398438 512.425781 249.277344 512.4375 249.160156 512.414062 C 249.066406 512.394531 248.976562 512.351562 248.898438 512.28125 Z M 249.90625 512.761719 C 249.984375 512.804688 250.066406 512.824219 250.15625 512.824219 C 250.246094 512.824219 250.332031 512.804688 250.410156 512.761719 L 250.921875 513.726562 C 250.941406 513.765625 250.96875 513.792969 251 513.808594 C 251.03125 513.828125 251.066406 513.839844 251.105469 513.835938 C 251.140625 513.835938 251.175781 513.824219 251.207031 513.800781 C 251.238281 513.78125 251.261719 513.75 251.277344 513.710938 L 251.46875 513.269531 L 251.914062 513.3125 C 251.953125 513.316406 251.988281 513.308594 252.019531 513.289062 C 252.054688 513.273438 252.082031 513.246094 252.101562 513.210938 C 252.121094 513.175781 252.132812 513.140625 252.132812 513.097656 C 252.132812 513.066406 252.125 513.03125 252.113281 513 C 252.109375 512.996094 252.109375 512.988281 252.105469 512.984375 L 251.59375 512.019531 C 251.605469 511.984375 251.613281 511.949219 251.621094 511.914062 C 251.644531 511.792969 251.636719 511.664062 251.59375 511.546875 C 251.578125 511.503906 251.570312 511.472656 251.574219 511.457031 C 251.578125 511.445312 251.59375 511.433594 251.628906 511.421875 C 251.738281 511.371094 251.832031 511.289062 251.898438 511.183594 C 251.964844 511.082031 252 510.957031 252 510.824219 C 252 510.691406 251.964844 510.566406 251.898438 510.464844 C 251.835938 510.359375 251.742188 510.277344 251.636719 510.230469 C 251.632812 510.230469 251.628906 510.226562 251.628906 510.226562 C 251.59375 510.210938 251.578125 510.199219 251.574219 510.191406 C 251.570312 510.171875 251.578125 510.140625 251.59375 510.097656 C 251.636719 509.984375 251.644531 509.855469 251.621094 509.734375 C 251.597656 509.613281 251.546875 509.5 251.460938 509.410156 C 251.375 509.316406 251.265625 509.253906 251.152344 509.230469 C 251.039062 509.207031 250.917969 509.222656 250.808594 509.273438 C 250.773438 509.289062 250.753906 509.292969 250.746094 509.289062 C 250.734375 509.277344 250.71875 509.25 250.699219 509.210938 C 250.65625 509.09375 250.578125 508.996094 250.480469 508.929688 C 250.386719 508.859375 250.277344 508.820312 250.15625 508.820312 C 250.039062 508.820312 249.925781 508.859375 249.832031 508.929688 C 249.738281 508.996094 249.660156 509.09375 249.613281 509.210938 C 249.597656 509.25 249.582031 509.277344 249.566406 509.289062 C 249.558594 509.292969 249.539062 509.289062 249.507812 509.273438 C 249.398438 509.222656 249.277344 509.207031 249.160156 509.230469 C 249.046875 509.253906 248.941406 509.316406 248.855469 509.410156 C 248.769531 509.5 248.714844 509.613281 248.695312 509.734375 C 248.671875 509.855469 248.679688 509.984375 248.722656 510.097656 C 248.738281 510.140625 248.746094 510.171875 248.738281 510.191406 C 248.738281 510.199219 248.71875 510.210938 248.6875 510.226562 C 248.578125 510.273438 248.484375 510.359375 248.417969 510.464844 C 248.351562 510.566406 248.3125 510.691406 248.3125 510.824219 C 248.3125 510.957031 248.351562 511.082031 248.417969 511.183594 C 248.480469 511.285156 248.574219 511.367188 248.679688 511.417969 C 248.683594 511.417969 248.683594 511.417969 248.6875 511.421875 C 248.71875 511.433594 248.738281 511.445312 248.738281 511.457031 C 248.746094 511.472656 248.738281 511.503906 248.722656 511.546875 C 248.679688 511.664062 248.671875 511.792969 248.695312 511.914062 C 248.699219 511.949219 248.710938 511.984375 248.722656 512.019531 L 248.210938 512.984375 C 248.191406 513.019531 248.179688 513.058594 248.183594 513.097656 C 248.183594 513.136719 248.195312 513.175781 248.214844 513.210938 C 248.234375 513.246094 248.261719 513.273438 248.292969 513.289062 C 248.328125 513.308594 248.363281 513.316406 248.398438 513.3125 L 248.847656 513.269531 L 249.039062 513.710938 C 249.054688 513.75 249.078125 513.777344 249.109375 513.800781 C 249.136719 513.824219 249.171875 513.835938 249.210938 513.835938 C 249.25 513.839844 249.285156 513.828125 249.316406 513.808594 C 249.347656 513.792969 249.375 513.765625 249.394531 513.726562 Z M 250.625 512.574219 L 251.089844 513.449219 L 251.230469 513.117188 L 251.105469 512.878906 C 251.066406 512.804688 251.089844 512.714844 251.15625 512.675781 C 251.21875 512.632812 251.304688 512.660156 251.339844 512.730469 L 251.46875 512.972656 L 251.800781 513.003906 L 251.414062 512.28125 C 251.339844 512.351562 251.25 512.394531 251.152344 512.414062 C 251.039062 512.4375 250.917969 512.425781 250.808594 512.375 C 250.773438 512.359375 250.753906 512.355469 250.746094 512.359375 C 250.734375 512.367188 250.71875 512.394531 250.699219 512.4375 C 250.679688 512.488281 250.65625 512.535156 250.625 512.574219 Z M 250.15625 509.609375 C 250.464844 509.609375 250.746094 509.746094 250.949219 509.964844 C 251.152344 510.183594 251.277344 510.488281 251.277344 510.824219 C 251.277344 511.160156 251.152344 511.460938 250.949219 511.683594 C 250.746094 511.902344 250.464844 512.039062 250.15625 512.039062 C 249.847656 512.039062 249.570312 511.902344 249.367188 511.683594 C 249.164062 511.460938 249.039062 511.160156 249.039062 510.824219 C 249.039062 510.488281 249.164062 510.183594 249.367188 509.964844 C 249.570312 509.746094 249.847656 509.609375 250.15625 509.609375 Z M 250.753906 510.175781 C 250.90625 510.339844 251 510.570312 251 510.824219 C 251 511.078125 250.90625 511.304688 250.753906 511.472656 C 250.601562 511.636719 250.390625 511.738281 250.15625 511.738281 C 249.925781 511.738281 249.714844 511.636719 249.5625 511.472656 C 249.410156 511.304688 249.3125 511.078125 249.3125 510.824219 C 249.3125 510.570312 249.410156 510.339844 249.5625 510.175781 C 249.714844 510.011719 249.925781 509.90625 250.15625 509.90625 C 250.390625 509.90625 250.601562 510.011719 250.753906 510.175781 Z M 249.730469 510.90625 C 249.679688 510.84375 249.6875 510.75 249.746094 510.695312 C 249.804688 510.640625 249.890625 510.648438 249.9375 510.710938 L 250.070312 510.878906 L 250.371094 510.441406 C 250.417969 510.378906 250.503906 510.363281 250.5625 510.414062 C 250.625 510.464844 250.636719 510.558594 250.589844 510.621094 L 250.183594 511.203125 C 250.179688 511.210938 250.171875 511.21875 250.164062 511.226562 C 250.105469 511.28125 250.019531 511.273438 249.972656 511.210938 Z M 252.957031 515.515625 L 252.964844 515.527344 L 253.234375 515.375 C 253.199219 515.035156 253.125 514.71875 253 514.429688 C 252.882812 514.148438 252.722656 513.890625 252.515625 513.652344 L 252.222656 513.835938 C 252.441406 514.03125 252.613281 514.265625 252.738281 514.542969 C 252.863281 514.824219 252.9375 515.152344 252.957031 515.515625 Z M 250.976562 515.054688 L 251.882812 515.695312 L 252.019531 515.789062 L 252.679688 515.488281 C 252.660156 515.179688 252.59375 514.90625 252.488281 514.671875 C 252.390625 514.445312 252.25 514.25 252.074219 514.089844 C 251.960938 514.175781 251.835938 514.238281 251.695312 514.273438 C 251.527344 514.320312 251.339844 514.324219 251.136719 514.289062 C 251.125 514.289062 251.113281 514.285156 251.101562 514.28125 C 250.976562 514.226562 250.855469 514.203125 250.738281 514.207031 C 250.625 514.210938 250.511719 514.246094 250.402344 514.308594 L 250.226562 514.421875 L 250.222656 514.425781 L 249.472656 514.914062 L 249.304688 515.027344 C 249.304688 515.035156 249.304688 515.042969 249.304688 515.050781 L 249.304688 515.058594 C 249.304688 515.066406 249.304688 515.070312 249.308594 515.074219 C 249.3125 515.101562 249.332031 515.132812 249.363281 515.160156 C 249.363281 515.160156 249.367188 515.164062 249.367188 515.164062 C 249.386719 515.179688 249.40625 515.195312 249.429688 515.210938 C 249.496094 515.226562 249.558594 515.230469 249.621094 515.21875 C 249.6875 515.210938 249.75 515.183594 249.8125 515.144531 L 249.820312 515.140625 C 250.019531 515.015625 250.210938 514.945312 250.398438 514.925781 L 250.402344 514.925781 C 250.597656 514.90625 250.78125 514.945312 250.957031 515.039062 C 250.964844 515.042969 250.972656 515.050781 250.976562 515.054688 Z M 251.15625 515.535156 L 250.832031 515.304688 C 250.703125 515.234375 250.566406 515.207031 250.425781 515.222656 C 250.277344 515.234375 250.121094 515.292969 249.957031 515.398438 L 249.953125 515.398438 C 249.859375 515.460938 249.761719 515.5 249.660156 515.515625 C 249.558594 515.53125 249.453125 515.523438 249.347656 515.496094 C 249.339844 515.492188 249.328125 515.488281 249.316406 515.480469 C 249.269531 515.453125 249.226562 515.421875 249.191406 515.390625 C 249.1875 515.390625 249.1875 515.386719 249.183594 515.382812 C 249.109375 515.316406 249.0625 515.238281 249.042969 515.152344 C 249.039062 515.144531 249.039062 515.136719 249.035156 515.125 L 249.035156 515.117188 C 249.023438 515.054688 249.027344 514.992188 249.042969 514.929688 L 249.046875 514.925781 L 249.046875 514.914062 L 249.050781 514.910156 L 249.050781 514.902344 L 249.054688 514.898438 L 249.054688 514.886719 L 249.058594 514.882812 L 249.058594 514.875 L 249.0625 514.875 L 249.0625 514.863281 L 249.066406 514.863281 L 249.066406 514.855469 L 249.070312 514.855469 L 249.070312 514.851562 L 249.074219 514.847656 L 249.074219 514.84375 L 249.078125 514.839844 L 249.078125 514.835938 L 249.082031 514.835938 L 249.082031 514.832031 L 249.085938 514.832031 L 249.085938 514.828125 L 249.089844 514.828125 L 249.089844 514.824219 L 249.09375 514.824219 L 249.09375 514.820312 L 249.097656 514.816406 L 249.101562 514.816406 L 249.101562 514.8125 L 249.105469 514.8125 L 249.105469 514.808594 L 249.109375 514.808594 L 249.109375 514.804688 L 249.113281 514.804688 L 249.117188 514.800781 L 249.886719 514.296875 C 249.785156 514.242188 249.675781 514.210938 249.570312 514.207031 C 249.453125 514.203125 249.332031 514.226562 249.207031 514.28125 C 249.195312 514.285156 249.183594 514.289062 249.171875 514.289062 C 248.96875 514.324219 248.78125 514.320312 248.609375 514.273438 C 248.472656 514.238281 248.347656 514.175781 248.234375 514.089844 C 248.058594 514.25 247.917969 514.445312 247.816406 514.671875 C 247.710938 514.910156 247.648438 515.183594 247.628906 515.492188 L 247.941406 515.664062 L 248.199219 515.800781 L 248.199219 515.804688 C 248.210938 515.808594 248.222656 515.816406 248.234375 515.828125 L 248.414062 516.015625 L 248.453125 515.9375 C 248.453125 515.929688 248.457031 515.925781 248.460938 515.921875 L 248.46875 515.90625 L 248.46875 515.902344 L 248.472656 515.902344 L 248.472656 515.898438 L 248.476562 515.894531 L 248.476562 515.890625 L 248.480469 515.890625 L 248.480469 515.886719 L 248.484375 515.882812 L 248.484375 515.878906 L 248.488281 515.878906 L 248.488281 515.875 L 248.496094 515.867188 L 248.496094 515.863281 L 248.5 515.863281 C 248.554688 515.789062 248.625 515.742188 248.703125 515.71875 C 248.804688 515.6875 248.914062 515.695312 249.007812 515.753906 C 249.015625 515.753906 249.019531 515.757812 249.027344 515.761719 C 249.113281 515.820312 249.175781 515.90625 249.207031 516.003906 C 249.300781 515.980469 249.40625 515.992188 249.5 516.050781 C 249.589844 516.105469 249.65625 516.195312 249.6875 516.292969 C 249.777344 516.273438 249.871094 516.285156 249.957031 516.335938 L 249.957031 516.339844 C 250.042969 516.390625 250.105469 516.476562 250.132812 516.570312 C 250.226562 516.550781 250.324219 516.566406 250.414062 516.621094 C 250.46875 516.652344 250.511719 516.695312 250.546875 516.746094 L 250.851562 516.960938 C 250.855469 516.960938 250.859375 516.960938 250.859375 516.964844 C 250.875 516.972656 250.886719 516.984375 250.894531 516.992188 L 250.984375 517.054688 C 250.988281 517.054688 250.992188 517.058594 250.996094 517.0625 C 251.019531 517.074219 251.042969 517.078125 251.066406 517.074219 C 251.089844 517.066406 251.109375 517.054688 251.125 517.03125 C 251.128906 517.027344 251.128906 517.023438 251.132812 517.019531 C 251.144531 516.996094 251.148438 516.96875 251.140625 516.945312 C 251.136719 516.917969 251.121094 516.894531 251.097656 516.875 L 251 516.808594 L 250.863281 516.710938 C 250.859375 516.710938 250.855469 516.707031 250.855469 516.707031 C 250.796875 516.664062 250.730469 516.621094 250.664062 516.574219 C 250.640625 516.558594 250.726562 516.617188 250.5 516.460938 C 250.433594 516.414062 250.417969 516.324219 250.457031 516.253906 C 250.496094 516.1875 250.582031 516.164062 250.644531 516.210938 C 250.761719 516.289062 250.675781 516.230469 250.8125 516.324219 C 250.898438 516.382812 250.988281 516.445312 251.113281 516.53125 L 251.117188 516.539062 L 251.132812 516.546875 L 251.148438 516.558594 L 251.28125 516.652344 L 251.289062 516.65625 C 251.320312 516.675781 251.355469 516.679688 251.386719 516.671875 C 251.421875 516.664062 251.453125 516.640625 251.476562 516.605469 C 251.496094 516.570312 251.5 516.53125 251.492188 516.492188 C 251.484375 516.453125 251.464844 516.417969 251.433594 516.398438 L 251.433594 516.394531 L 251.433594 516.398438 L 251.253906 516.269531 C 251.25 516.269531 251.246094 516.269531 251.246094 516.265625 L 251.191406 516.230469 C 251.183594 516.222656 251.179688 516.21875 251.175781 516.214844 L 251.164062 516.207031 L 250.988281 516.085938 C 250.921875 516.039062 250.90625 515.949219 250.945312 515.878906 C 250.988281 515.8125 251.070312 515.789062 251.136719 515.835938 L 251.316406 515.960938 C 251.320312 515.960938 251.320312 515.964844 251.324219 515.964844 L 251.367188 515.996094 C 251.371094 516 251.375 516 251.375 516.003906 C 251.386719 516.007812 251.390625 516.011719 251.394531 516.015625 L 251.40625 516.023438 L 251.582031 516.144531 L 251.582031 516.148438 L 251.648438 516.195312 C 251.679688 516.214844 251.71875 516.222656 251.753906 516.214844 C 251.789062 516.207031 251.820312 516.183594 251.839844 516.148438 L 251.84375 516.144531 C 251.855469 516.121094 251.863281 516.097656 251.863281 516.074219 C 251.863281 516.058594 251.863281 516.046875 251.859375 516.03125 Z M 248.566406 516.328125 L 248.515625 516.421875 C 248.496094 516.460938 248.492188 516.5 248.503906 516.539062 C 248.511719 516.574219 248.535156 516.609375 248.566406 516.628906 L 248.570312 516.628906 C 248.601562 516.648438 248.640625 516.652344 248.675781 516.640625 C 248.703125 516.632812 248.726562 516.613281 248.746094 516.589844 L 248.816406 516.453125 C 248.820312 516.445312 248.824219 516.441406 248.828125 516.433594 C 248.828125 516.429688 248.832031 516.425781 248.832031 516.421875 L 248.9375 516.222656 C 248.957031 516.1875 248.960938 516.144531 248.949219 516.109375 C 248.941406 516.070312 248.917969 516.039062 248.890625 516.019531 C 248.886719 516.019531 248.882812 516.015625 248.878906 516.015625 C 248.855469 516 248.828125 515.996094 248.804688 516 L 248.800781 516 C 248.789062 516 248.78125 516.003906 248.769531 516.007812 L 248.761719 516.007812 L 248.761719 516.011719 L 248.753906 516.011719 L 248.753906 516.015625 L 248.75 516.015625 C 248.734375 516.027344 248.71875 516.039062 248.707031 516.050781 L 248.707031 516.054688 L 248.703125 516.058594 L 248.703125 516.0625 L 248.699219 516.066406 L 248.699219 516.070312 L 248.695312 516.070312 L 248.695312 516.074219 Z M 249.175781 516.367188 L 248.996094 516.714844 C 248.992188 516.726562 248.984375 516.738281 248.976562 516.75 L 248.875 516.945312 C 248.859375 516.980469 248.855469 517.023438 248.863281 517.058594 C 248.875 517.09375 248.894531 517.128906 248.925781 517.148438 C 248.929688 517.148438 248.929688 517.152344 248.933594 517.152344 C 248.964844 517.171875 249.003906 517.175781 249.035156 517.164062 C 249.070312 517.152344 249.101562 517.128906 249.117188 517.09375 L 249.222656 516.890625 C 249.226562 516.882812 249.230469 516.878906 249.234375 516.875 L 249.234375 516.871094 L 249.238281 516.863281 L 249.320312 516.707031 L 249.414062 516.523438 C 249.417969 516.519531 249.417969 516.515625 249.421875 516.511719 C 249.4375 516.476562 249.441406 516.4375 249.429688 516.402344 C 249.421875 516.363281 249.402344 516.332031 249.371094 516.3125 C 249.367188 516.3125 249.363281 516.308594 249.359375 516.308594 C 249.328125 516.289062 249.292969 516.285156 249.261719 516.296875 C 249.226562 516.308594 249.195312 516.332031 249.175781 516.367188 Z M 247.351562 515.515625 C 247.371094 515.152344 247.445312 514.824219 247.570312 514.542969 C 247.695312 514.265625 247.867188 514.03125 248.085938 513.835938 L 247.792969 513.652344 C 247.378906 514.128906 247.140625 514.703125 247.074219 515.375 L 247.34375 515.527344 Z M 249.5625 516.847656 L 249.558594 516.851562 L 249.476562 517.007812 L 249.394531 517.171875 C 249.378906 517.199219 249.378906 517.234375 249.386719 517.265625 C 249.390625 517.292969 249.410156 517.320312 249.433594 517.335938 C 249.4375 517.335938 249.441406 517.339844 249.441406 517.339844 C 249.46875 517.355469 249.5 517.355469 249.523438 517.347656 C 249.554688 517.339844 249.578125 517.320312 249.59375 517.289062 L 249.6875 517.105469 C 249.691406 517.101562 249.695312 517.09375 249.699219 517.089844 L 249.703125 517.082031 L 249.851562 516.792969 L 249.867188 516.765625 C 249.882812 516.738281 249.882812 516.703125 249.875 516.671875 C 249.867188 516.644531 249.851562 516.617188 249.828125 516.601562 C 249.824219 516.597656 249.820312 516.597656 249.816406 516.59375 C 249.792969 516.582031 249.761719 516.578125 249.734375 516.585938 C 249.707031 516.59375 249.683594 516.617188 249.667969 516.644531 L 249.574219 516.828125 C 249.570312 516.835938 249.566406 516.839844 249.5625 516.847656 Z M 250.089844 516.9375 L 249.941406 517.226562 L 249.910156 517.285156 C 249.894531 517.320312 249.890625 517.363281 249.898438 517.402344 C 249.910156 517.4375 249.933594 517.472656 249.964844 517.492188 C 250 517.511719 250.035156 517.515625 250.070312 517.503906 C 250.105469 517.492188 250.136719 517.46875 250.152344 517.433594 L 250.222656 517.296875 L 250.226562 517.292969 L 250.335938 517.085938 L 250.335938 517.078125 L 250.339844 517.078125 L 250.339844 517.074219 C 250.339844 517.070312 250.34375 517.066406 250.34375 517.0625 L 250.34375 517.058594 C 250.34375 517.058594 250.347656 517.054688 250.347656 517.050781 C 250.347656 517.046875 250.347656 517.042969 250.347656 517.039062 C 250.351562 517.023438 250.351562 517.007812 250.351562 516.992188 L 250.351562 516.988281 C 250.347656 516.980469 250.347656 516.976562 250.347656 516.96875 C 250.335938 516.933594 250.3125 516.898438 250.28125 516.878906 C 250.246094 516.859375 250.210938 516.855469 250.175781 516.867188 C 250.140625 516.875 250.109375 516.902344 250.089844 516.9375 Z M 250.574219 517.230469 L 250.519531 517.335938 L 250.605469 517.398438 C 250.613281 517.402344 250.625 517.410156 250.636719 517.410156 C 250.648438 517.414062 250.664062 517.414062 250.679688 517.410156 C 250.703125 517.40625 250.726562 517.390625 250.742188 517.363281 L 250.742188 517.359375 L 250.746094 517.355469 C 250.757812 517.332031 250.761719 517.308594 250.753906 517.28125 C 250.75 517.261719 250.742188 517.246094 250.730469 517.230469 C 250.722656 517.226562 250.714844 517.21875 250.710938 517.214844 L 250.707031 517.210938 L 250.609375 517.140625 L 250.609375 517.144531 L 250.605469 517.144531 L 250.605469 517.15625 L 250.601562 517.15625 L 250.601562 517.167969 L 250.597656 517.171875 L 250.597656 517.179688 L 250.59375 517.179688 L 250.59375 517.1875 L 250.589844 517.195312 L 250.589844 517.199219 L 250.585938 517.199219 L 250.585938 517.207031 L 250.582031 517.207031 L 250.582031 517.210938 L 250.578125 517.222656 L 250.574219 517.226562 Z M 250.574219 517.230469 " fill-opacity="1" fill-rule="evenodd"/></g><g clip-path="url(#2bcf75c3b6)"><path fill="#ffffff" d="M 196.050781 672.785156 C 195.203125 677.402344 193.367188 686.761719 184.453125 697.898438 C 178.3125 705.570312 176.511719 708.015625 168.726562 714.257812 C 164.355469 717.757812 158.4375 721.105469 152.808594 723.050781 C 156.132812 720.796875 154.609375 721.714844 157.039062 718.929688 C 158.726562 716.992188 158.121094 715.898438 159.492188 714.230469 C 161.441406 711.863281 160.339844 703.582031 159.125 700.71875 C 159.082031 700.625 159.039062 700.53125 159.046875 700.445312 C 159.160156 699.375 158.265625 697.332031 157.933594 696.207031 C 157.8125 695.816406 157.832031 695.371094 157.710938 694.980469 C 155.492188 688.585938 150.933594 681.691406 146.1875 676.914062 L 142.273438 673.542969 C 141.285156 672.675781 140.449219 671.679688 139.453125 670.835938 C 139.121094 670.523438 138.636719 670.367188 138.269531 670.078125 L 134.277344 666.84375 C 132.363281 666 133.246094 665.9375 132.152344 665.421875 C 131.496094 665.117188 130.824219 664.894531 130.210938 664.546875 C 129.394531 664.070312 128.75 663.347656 127.71875 663.203125 L 120.457031 659.234375 C 114.417969 656.582031 116.332031 657.234375 110.375 655.789062 C 109.394531 655.550781 104.628906 654.359375 103.90625 654.636719 C 103.457031 654.8125 103.824219 654.078125 102.570312 654.289062 C 102.085938 654.371094 96.167969 653.539062 93.90625 654 C 95.914062 643.386719 98.929688 636.273438 106.050781 627.914062 C 111.351562 621.695312 118.183594 616.625 125.710938 613.464844 C 125.445312 618.191406 128.34375 627.4375 130.152344 632.015625 C 131.917969 636.046875 131.746094 635.410156 134.339844 639.242188 C 138.449219 645.308594 139.1875 645.398438 144.050781 649.804688 C 145.039062 650.664062 145.863281 651.660156 146.851562 652.511719 C 147.191406 652.808594 147.675781 652.960938 148.042969 653.25 C 153.714844 657.792969 152.542969 656.96875 158.582031 660.144531 L 165.855469 664.101562 C 172.320312 666.949219 169.867188 665.984375 175.941406 667.546875 C 176.980469 667.816406 181.582031 668.941406 182.410156 668.679688 C 182.847656 668.542969 182.519531 669.246094 183.730469 669.046875 C 184.941406 668.847656 190.765625 670.277344 194.089844 668.808594 L 196.75 667.613281 Z M 149.175781 724.273438 C 148.859375 724.359375 148.5625 724.46875 148.257812 724.5625 L 152.503906 723.148438 Z M 151.507812 610.519531 L 147.542969 610.140625 C 147.4375 610.699219 148.332031 611.015625 148.875 611.382812 L 149.34375 612.609375 C 150.578125 613.820312 152.246094 617.433594 152.671875 619.253906 L 157.632812 627.425781 L 163.300781 633.816406 C 163.53125 634.703125 164.605469 634.683594 165.054688 635.324219 C 165.328125 635.714844 165.738281 635.9375 166.128906 636.191406 C 171.660156 639.902344 168.699219 637.957031 173.746094 642.226562 L 177.328125 644.832031 C 180.132812 647.214844 187.824219 649.609375 191.652344 650.378906 C 191.863281 650.421875 192.042969 650.589844 192.253906 650.652344 C 192.785156 650.800781 193.179688 650.128906 193.523438 651.410156 C 193.660156 651.910156 195.175781 652.0625 195.644531 652.160156 C 194.871094 648.453125 193.390625 643.777344 191.710938 640.457031 C 186.972656 631.449219 185.238281 628.59375 177.304688 621.410156 C 172.460938 617.027344 164.261719 612.988281 158.011719 611.835938 C 154.429688 611.171875 156.445312 610.96875 151.507812 610.519531 Z M 217.40625 652.785156 C 216.148438 643.816406 215.285156 641.214844 212.675781 633.320312 C 211.742188 630.503906 207.476562 622.105469 205.957031 619.671875 C 199.167969 608.753906 187.992188 598.703125 176.605469 592.785156 C 164.761719 586.628906 154.195312 584.949219 141.363281 585.375 C 136.132812 585.695312 136.789062 585.308594 131.019531 586.460938 C 118.558594 588.957031 119.050781 588.78125 107.464844 594.191406 C 104.175781 595.726562 97.46875 600.371094 94.640625 602.742188 C 87.523438 608.714844 79.113281 619.441406 75.117188 627.996094 C 68.496094 642.144531 66.789062 653.128906 67.515625 668.019531 C 67.871094 675.3125 70.929688 686.847656 74.742188 693.5625 L 80.5625 702.734375 C 84.964844 709.3125 86.769531 708.65625 89.480469 712.207031 L 97.445312 717.996094 C 100.316406 719.757812 106.179688 724.222656 109.726562 725.484375 C 112.582031 726.460938 124.925781 730.96875 127.378906 730.453125 C 132.019531 729.480469 135.847656 730.539062 137.199219 729.476562 C 138.5 728.453125 140.058594 729.152344 140.449219 728.683594 C 141.132812 727.886719 142.144531 727.75 143.15625 727.433594 C 140.796875 726.269531 141.0625 725.5625 140.332031 725.039062 C 137.566406 723.070312 138.640625 722.796875 137.785156 722.386719 C 136.730469 721.839844 135.777344 720.929688 134.738281 720.386719 C 129.238281 717.410156 119.957031 712.328125 116.210938 707.925781 L 106.566406 697.960938 C 101.769531 692.164062 100.085938 688.996094 96.78125 682.324219 C 95.476562 679.695312 94.78125 675.699219 93.996094 672.691406 C 94.015625 672.691406 94.03125 672.675781 94.039062 672.691406 C 101.449219 674.429688 106.480469 676.34375 112.566406 681.101562 C 116.089844 684.070312 115.058594 683.609375 118.992188 686.429688 L 123.019531 689.507812 C 123.539062 690.480469 131.359375 697.476562 133.9375 705.023438 C 135.457031 709.464844 136.425781 709.585938 137.078125 711.117188 C 137.214844 711.390625 137.113281 711.722656 137.429688 711.945312 C 137.988281 712.328125 138.867188 712.632812 138.773438 713.203125 C 138.773438 713.238281 138.800781 713.246094 138.851562 713.261719 C 139.722656 713.523438 139.039062 714.160156 140 714.488281 C 140.824219 714.769531 140.523438 716.886719 141.980469 718.394531 C 143.121094 719.574219 142 720.816406 143.148438 721.238281 C 145.53125 722.109375 144.3125 722.90625 145.792969 723.230469 C 146.914062 723.476562 146.308594 723.863281 146.789062 723.949219 C 147.632812 724.085938 147.828125 724.332031 148.195312 724.574219 C 142.984375 726.207031 146.851562 726.015625 147.324219 726.675781 C 146.460938 728.40625 145.960938 727.765625 147.28125 728.429688 C 146.234375 728.683594 143.886719 729.082031 143.15625 729.753906 C 144.355469 730.75 148.769531 731.898438 150.296875 731.847656 L 160.804688 730.171875 C 162.90625 729.765625 162.34375 731.035156 164.3125 730.273438 L 173.605469 726.164062 C 179.179688 724.550781 184.414062 721.230469 189.121094 717.898438 L 195.988281 711.957031 C 197.105469 710.800781 198.625 711.21875 200.542969 708.195312 L 204.015625 703.734375 C 210.273438 695.011719 214.914062 683.765625 216.703125 673.082031 C 217.808594 666.507812 217.933594 663.980469 217.671875 657.34375 C 217.601562 655.824219 217.660156 654.292969 217.40625 652.785156 Z M 675.519531 162.050781 C 674.582031 162.996094 673.5 164.015625 672.609375 164.699219 C 666.46875 169.390625 661.898438 175.320312 656.464844 180.910156 C 626.222656 212.011719 596.375 243.964844 566.089844 274.960938 C 564.492188 276.597656 563.570312 278.464844 563.136719 280.867188 L 555.671875 324.921875 C 554.601562 331.175781 558.804688 336.980469 565.042969 338.042969 L 593.699219 343.023438 C 596.832031 344.257812 595.585938 346.921875 594.847656 349.203125 C 586.863281 373.929688 579.242188 391.511719 565.648438 414.691406 L 571.757812 374.222656 C 572.886719 366.398438 566.941406 359.261719 559.042969 358.9375 L 527.121094 357.449219 C 522.03125 357.21875 517.011719 359.90625 514.539062 364.757812 C 504.476562 384.6875 494.136719 406.1875 483.816406 425.804688 C 477.417969 437.992188 471.808594 450.476562 465.128906 462.589844 C 460.128906 471.660156 433.5625 525.191406 432.34375 526.109375 C 431.53125 526.726562 428.804688 526.011719 429.144531 523.8125 L 487.519531 342.363281 C 489.367188 336.679688 491.042969 330.898438 492.949219 325.265625 L 512.730469 264.542969 C 514.152344 260.15625 513.066406 255.183594 509.582031 251.726562 C 493.4375 235.714844 476.710938 219.953125 460.066406 204.449219 C 456.535156 201.164062 452.109375 201.410156 446.964844 201.136719 C 441.722656 200.847656 436.472656 200.289062 431.222656 200.21875 C 422.421875 200.066406 413.773438 200.261719 404.675781 199.410156 C 402.199219 199.222656 395.625 199.691406 392.574219 198.765625 C 387.910156 197.347656 384.679688 194.84375 385.195312 189.691406 C 385.636719 185.246094 389.332031 181.601562 394.300781 181.472656 L 422.199219 180.753906 C 428.828125 180.46875 445.402344 179.996094 452.726562 180.601562 C 457.050781 180.960938 467.414062 183.402344 471.722656 185.121094 C 479.089844 188.0625 490.8125 196.085938 495.832031 197.675781 C 497.714844 198.261719 499.550781 199.207031 501.566406 200.382812 C 501.761719 201.121094 501.941406 201.863281 502.136719 202.601562 C 503.609375 207.734375 506.003906 210.660156 508.972656 214.902344 C 512.417969 219.828125 512.960938 217.980469 515.066406 220.824219 C 515.125 220.902344 515.203125 220.960938 515.296875 220.996094 C 516.773438 221.535156 517.539062 223.253906 519.347656 223.640625 L 526.027344 227.691406 C 529.058594 229.671875 532.785156 229.652344 534.921875 230.671875 C 535.910156 231.144531 538.816406 232.050781 539.925781 231.589844 C 544.113281 229.859375 545.144531 231.386719 546.25 230.03125 C 547.117188 228.96875 548.015625 229.660156 548.273438 229.1875 C 548.714844 228.371094 549.320312 228.21875 549.933594 227.886719 C 548.46875 226.742188 548.703125 226.054688 548.257812 225.546875 C 546.621094 223.671875 547.820312 223.480469 545.183594 221.128906 C 543.007812 219.207031 536.695312 213.910156 536.011719 211.929688 C 535.515625 210.5 530.242188 205.195312 527.652344 199.050781 C 526.105469 195.382812 527.148438 198.339844 526.164062 193.996094 C 524.851562 188.210938 526.679688 179.558594 529.761719 174.632812 C 532.957031 169.535156 539.355469 163.554688 545.796875 162.855469 C 546.78125 162.75 548.007812 161.832031 552.640625 162.277344 C 554.460938 162.453125 555.3125 162.203125 556.589844 162.839844 L 560.113281 163.46875 L 565.523438 166.105469 C 572.113281 170.980469 572.621094 173.207031 575.660156 179.136719 C 577.472656 182.671875 578.417969 189.960938 577.484375 193.800781 L 577.261719 195.757812 C 576.746094 196.304688 576.832031 197.019531 576.523438 198.234375 C 575.472656 202.335938 570.757812 208.878906 568.078125 212.703125 C 565.097656 216.953125 560.058594 221.816406 555.277344 223.96875 C 548.574219 226.988281 552.386719 226.386719 552.445312 227.203125 C 552.5 228.019531 551.410156 228.359375 552.460938 228.941406 C 551.511719 229.320312 550.382812 229.554688 549.933594 230.207031 C 550.742188 231.195312 553.203125 232.417969 554.460938 232.421875 C 556.847656 232.429688 561.292969 230.878906 562.15625 231.699219 C 563.386719 232.871094 566.851562 229.582031 569.355469 229.113281 C 576.351562 227.800781 584.074219 220.394531 584.757812 220.101562 C 586.691406 219.8125 587.066406 218.257812 588.050781 217.019531 C 588.519531 216.457031 589.066406 215.957031 589.507812 215.378906 C 590.808594 213.480469 592 211.496094 593.054688 209.417969 C 593.34375 209.257812 593.652344 209.078125 593.949219 208.890625 C 604.898438 202.050781 630.597656 176.277344 635.761719 173.886719 C 638.953125 172.410156 651.117188 160.417969 654.433594 157.351562 C 658.316406 153.789062 662.265625 150.035156 666.246094 146.808594 L 678.960938 136.167969 C 682.640625 132.929688 686.609375 133.25 689.949219 136.679688 C 693.617188 140.445312 692.921875 144.414062 689.558594 147.777344 Z M 415.710938 357.789062 C 424.667969 370.808594 433.601562 383.832031 442.546875 396.851562 C 444.53125 390.628906 446.53125 384.417969 448.503906 378.222656 C 448.445312 377.675781 448.367188 377.117188 448.28125 376.554688 C 447.054688 368.609375 444.035156 360.074219 441.507812 352.195312 C 437.15625 338.628906 430.546875 325.359375 424.265625 312.246094 L 376.757812 323.949219 C 372.769531 324.859375 368.9375 325.566406 365.097656 326.308594 C 364.574219 326.558594 356.519531 334.675781 347.769531 336.761719 C 344.886719 337.445312 340.445312 341.054688 338.96875 339.953125 C 338 339.226562 332.125 340.988281 329.53125 341.023438 C 328.078125 341.042969 325.0625 339.867188 323.957031 338.863281 C 324.53125 338.179688 326.257812 337.84375 327.132812 337.558594 C 326.121094 337.101562 326.546875 337.304688 327.148438 335.824219 C 326.835938 335.269531 324.835938 335.261719 326.136719 334.503906 C 330.476562 331.972656 333.960938 332.640625 342.742188 324.945312 C 348.652344 319.765625 358.097656 307.472656 360.15625 300.273438 C 361.367188 296.179688 361.636719 294.863281 362.09375 290.25 C 362.46875 284.242188 361.050781 276.539062 358.238281 271.382812 C 354.394531 264.328125 353.425781 261.964844 345.523438 256.0625 C 339.054688 251.835938 333.972656 251.542969 333.242188 251.21875 C 330.742188 250.113281 323.085938 250.222656 320.539062 250.4375 C 319.722656 250.53125 318.953125 250.9375 318.152344 251.023438 C 308.769531 252.445312 300.164062 259.449219 295.226562 267.261719 C 290.527344 274.695312 288.167969 286.132812 290.21875 294.863281 C 291.871094 301.875 291.148438 299.363281 294.542969 305.984375 C 297.222656 311.210938 304.085938 317.75 304.859375 319.160156 C 306.378906 321.929688 314.511719 327.398438 317.753906 329.652344 C 321.164062 332.03125 319.828125 332.445312 321.828125 334.171875 C 322.425781 334.683594 322.148438 335.375 323.957031 336.53125 C 323.183594 336.851562 322.417969 336.996094 321.890625 337.816406 C 321.597656 338.25 320.398438 337.617188 319.378906 338.632812 C 318.171875 339.835938 316.113281 338.59375 311.660156 339.96875 C 310.328125 340.378906 306.824219 339.277344 305.539062 338.726562 C 300.582031 336.605469 300.339844 338.355469 292.164062 333.347656 L 288.078125 330.574219 C 284.449219 328.425781 287 330.507812 283.167969 327.296875 L 281.617188 326.214844 C 280.679688 324.859375 278.222656 323.253906 276.742188 321.941406 L 274.390625 318.871094 C 265.941406 322.0625 256.886719 324.921875 247.882812 327.800781 C 239.820312 330.378906 231.769531 332.964844 223.738281 335.578125 L 223.011719 336.175781 C 222.96875 336.0625 222.953125 335.960938 222.917969 335.851562 L 139.140625 363 L 130.691406 365.734375 C 122.375 369.15625 123.234375 382.386719 133.261719 383.46875 C 135.199219 383.679688 154.25 381.429688 156.691406 381.1875 L 257.804688 371.664062 C 262.476562 371.222656 266.632812 374.492188 267.386719 379.035156 L 270.339844 398.882812 C 270.425781 400.089844 270.636719 401.476562 270.886719 402.703125 C 272.792969 412.59375 273.941406 422.726562 275.523438 432.703125 C 276.414062 438.558594 277.328125 444.421875 278.210938 450.285156 C 278.59375 452.753906 277.957031 455.136719 276.628906 457.019531 L 226.757812 527.792969 C 214.507812 545.203125 216.261719 564.246094 225.792969 582.457031 L 253.710938 634.867188 C 255.519531 638.367188 259.671875 638.546875 263.0625 636.8125 C 267.03125 634.78125 269.074219 632.464844 268.253906 627.230469 L 259.871094 595.980469 L 251.070312 564.660156 C 250.015625 560.789062 251.226562 556.832031 253.886719 554.167969 L 283.011719 524.882812 L 300.519531 507.699219 C 306.746094 501.472656 318.027344 504.328125 319.601562 514.140625 L 321.039062 524.804688 L 329.640625 594.507812 C 330.417969 600.691406 331.371094 606.847656 332.101562 613.019531 C 334.253906 630.558594 336.414062 648.097656 338.558594 665.621094 L 344.960938 714.898438 C 346.847656 723.652344 351.90625 723.257812 358.277344 723.257812 C 359.0625 719.714844 358.679688 714.332031 358.585938 709.757812 L 355.359375 563.195312 L 353.972656 472.753906 L 355.105469 455.460938 C 356.355469 436.570312 357.164062 415.734375 358.902344 397.179688 C 359.386719 392 358.6875 387.464844 363.691406 383.273438 C 374.925781 373.914062 386.179688 364.550781 397.414062 355.214844 C 402.191406 350.550781 411.890625 351.523438 415.710938 357.789062 Z M 359.066406 723.09375 C 359.066406 723.109375 359.066406 723.109375 359.066406 723.109375 C 359.046875 723.09375 359.066406 723.09375 359.066406 723.09375 Z M 193.132812 397.710938 C 190.425781 401.242188 189.421875 404.929688 187.074219 407.722656 C 183.554688 411.902344 176.828125 432.582031 175.183594 438.503906 C 175.125 438.734375 175.066406 438.953125 174.960938 439.167969 L 165.25 469.183594 L 163.984375 454.171875 C 163.714844 453.214844 164.480469 453.453125 163.863281 450.671875 L 162.289062 431.582031 C 161.277344 423.835938 158.144531 411.742188 155.617188 404.273438 C 155.148438 402.851562 154.734375 401.429688 154.332031 400.011719 C 162.273438 400.082031 169.523438 398.855469 177.464844 398.238281 L 193.617188 397.011719 C 193.457031 397.242188 193.304688 397.480469 193.132812 397.710938 Z M 159.863281 277.675781 L 159.863281 272.511719 C 159.253906 259.101562 152.59375 244.191406 144.308594 234.027344 C 131.472656 218.289062 104.902344 197.328125 88.9375 182.273438 C 87.890625 181.285156 86.699219 180.46875 85.625 179.5 L 67.660156 163.097656 C 64.8125 160.75 58.101562 155.628906 56.011719 152.253906 C 50.488281 143.355469 60.683594 138.007812 66.691406 141.59375 L 92.28125 156.5625 C 93.308594 156.964844 92.953125 157.523438 96.042969 158.96875 L 114.222656 169.640625 C 124.460938 175.71875 136.941406 180.738281 148.15625 184.917969 C 149.925781 188.96875 151.339844 190.53125 153.789062 194.074219 C 157.046875 198.800781 157.996094 197.265625 159.726562 199.792969 C 159.777344 199.871094 159.863281 199.914062 159.941406 199.949219 C 161.542969 200.585938 162.054688 202.109375 163.890625 202.5 L 170.359375 206.398438 C 173.292969 208.320312 176.980469 208.265625 178.996094 209.242188 C 179.980469 209.71875 182.722656 210.585938 183.832031 210.117188 C 187.996094 208.359375 188.859375 209.90625 189.941406 208.535156 C 190.789062 207.460938 191.660156 208.15625 191.890625 207.683594 C 192.316406 206.851562 192.910156 206.714844 193.5 206.375 C 191.617188 204.824219 191.371094 201.835938 188.960938 199.640625 C 186.855469 197.722656 180.996094 192.582031 180.339844 190.628906 C 179.886719 189.269531 175.027344 184.164062 172.554688 178.382812 C 171.09375 174.96875 172.085938 177.660156 171.191406 173.632812 C 169.976562 168.171875 171.6875 160.03125 174.578125 155.445312 C 177.535156 150.757812 183.667969 144.871094 189.609375 144.3125 C 190.238281 144.253906 191.6875 143.332031 196.050781 143.753906 C 197.777344 143.917969 198.699219 143.683594 199.769531 144.273438 L 203.117188 144.851562 L 208.222656 147.308594 C 214.695312 152.09375 214.886719 154.054688 217.824219 159.613281 C 219.53125 162.847656 220.457031 169.921875 219.59375 173.476562 C 219.230469 174.976562 219.6875 175.058594 219.382812 175.34375 L 218.691406 177.683594 C 217.617188 181.917969 210.417969 192.503906 207.109375 196 C 200.914062 202.542969 197.929688 202.269531 195.140625 204.390625 C 193.855469 205.367188 196.539062 204.8125 195.703125 206.507812 C 195.460938 207 195.160156 206.894531 195.933594 207.445312 C 195.011719 207.835938 193.925781 208.046875 193.5 208.695312 C 194.277344 209.683594 196.65625 210.925781 197.867188 210.933594 C 200.113281 210.953125 204.476562 209.425781 205.320312 210.234375 C 206.566406 211.425781 209.777344 208.222656 212.273438 207.75 C 219.253906 206.433594 226.535156 199.375 227.234375 199.078125 C 229.132812 198.828125 229.472656 197.304688 230.4375 196.101562 C 230.886719 195.554688 231.421875 195.070312 231.847656 194.519531 L 236 187.316406 L 249.378906 182.507812 C 251.890625 181.378906 254.375 180.195312 257.046875 179.511719 C 262.195312 178.171875 280.820312 167.496094 286.953125 163.851562 L 297.234375 157.453125 L 324.308594 141.351562 L 339.320312 131.886719 C 343.105469 129.417969 347.625 133.292969 347.226562 136.03125 C 346.976562 137.75 346.855469 139.953125 343.992188 142.40625 C 340.683594 145.222656 337.296875 147.964844 333.890625 150.679688 C 332.699219 151.632812 331.636719 152.761719 330.460938 153.75 L 310.453125 170.261719 C 308.714844 171.851562 307.023438 173.476562 305.238281 175.007812 L 276.027344 199.113281 C 262.421875 210.136719 245.339844 222.757812 237.863281 239.042969 C 236.605469 241.707031 235.21875 244.363281 234.683594 247.273438 C 234.480469 248.601562 233.75 248.570312 233.140625 252.21875 L 227.492188 273.964844 C 223.492188 289.320312 221.738281 310.175781 220.035156 326.6875 C 217.65625 327.273438 214.550781 328.214844 212.488281 328.226562 C 208.242188 328.25 177.238281 338.273438 168.097656 340.355469 C 163.519531 341.394531 158.929688 342.550781 154.351562 343.691406 L 157.664062 327.425781 C 157.933594 324.855469 158.164062 322.269531 158.90625 319.777344 C 160.949219 312.636719 160.191406 286.050781 159.863281 277.675781 Z M 270.75 317.644531 C 273.964844 316.085938 272.132812 316.65625 269.328125 317.039062 C 270.367188 316.707031 271.398438 316.359375 272.425781 316.027344 L 273.925781 318.109375 C 272.171875 318.511719 270.324219 319.003906 269.132812 318.921875 C 269.6875 318.476562 270.214844 318.050781 270.75 317.644531 Z M 719.035156 160.078125 C 718.980469 157.265625 717.417969 156.875 717.417969 156.832031 L 715.417969 154.859375 C 714.152344 154.085938 711.253906 154.570312 708.601562 153.964844 L 705.953125 153.832031 C 714.503906 138.347656 702.359375 119.402344 685.785156 119.082031 C 679.257812 118.953125 673.992188 121.378906 669.511719 125.796875 L 656.777344 138.339844 L 652.835938 131.78125 C 650.589844 129.40625 651.148438 129.125 650.386719 128.316406 C 647.167969 124.898438 642.082031 122.023438 637.867188 120.058594 L 635.234375 118.433594 C 626.785156 113.609375 618.832031 110.261719 609.03125 106.542969 L 599.363281 102.917969 C 598.878906 102.6875 598.289062 102.671875 597.789062 102.460938 L 592.214844 100.117188 C 589.78125 99.515625 590.816406 99.347656 589.414062 98.988281 C 580.886719 96.789062 573.515625 92.082031 565.488281 89.378906 L 555.394531 85.789062 C 554.851562 85.808594 555.410156 85.222656 553.898438 85.0625 C 552.792969 84.949219 545.683594 81.429688 541.753906 81.25 L 535.992188 81.121094 C 538.183594 72.183594 538.9375 67.847656 537.175781 57.929688 C 536.476562 53.980469 534.867188 49.917969 533.269531 46.230469 C 528.683594 35.628906 519.546875 27.03125 509.007812 22.398438 L 477.390625 9.207031 C 476.414062 9.03125 476.894531 8.414062 474.136719 7.683594 C 470.347656 6.679688 465.652344 2.949219 455.3125 2.273438 C 426.960938 0.414062 416.128906 30.683594 418.777344 30.46875 C 419.355469 30.347656 419.382812 29.644531 420.070312 29.683594 C 421.183594 31.222656 420.652344 31.054688 421.53125 30.652344 L 421.226562 33.617188 L 421.242188 33.632812 L 425.488281 31.0625 C 426.378906 29.988281 429.007812 25.800781 430.453125 26.253906 C 431.863281 26.699219 433.535156 22.777344 435.839844 22.355469 C 438.582031 21.855469 439.195312 21.054688 445.117188 20.253906 C 445.71875 20.144531 446.316406 19.890625 446.9375 20 C 447.957031 20.160156 449.90625 19.839844 450.425781 20.355469 C 451.691406 21.605469 452.730469 20.890625 453.816406 21.113281 L 458.351562 22.382812 C 459.214844 22.625 500.464844 42.503906 502.667969 44.164062 C 508.820312 48.800781 512.453125 54.070312 513.3125 61.941406 C 513.78125 66.214844 513.269531 71.539062 511.738281 75.5 C 511.269531 76.710938 508.589844 81.378906 507.277344 82.09375 C 505.261719 83.195312 503.121094 87.632812 491.796875 89.277344 C 484.734375 90.304688 478.640625 86.714844 472.171875 83.761719 L 459.558594 78.101562 L 439.933594 69.269531 C 433.746094 67.167969 435.261719 66.597656 433.535156 65.957031 C 432.398438 65.539062 430.683594 64.910156 430.164062 63.828125 C 430.015625 63.523438 429.589844 64.011719 428.527344 62.371094 C 427.632812 60.988281 426.503906 61.894531 424.238281 56.628906 L 421.609375 49.710938 C 421.082031 47.703125 421.816406 44.589844 421.082031 43.480469 C 419.164062 40.589844 420.933594 38.65625 419.863281 37.25 C 419.007812 36.117188 420.109375 35.289062 419.746094 34.859375 C 419.125 34.117188 419.242188 33.378906 419.183594 32.527344 C 417.527344 33.804688 416.863281 33.421875 416.253906 33.792969 C 413.941406 35.203125 413.671875 34.519531 413.089844 35.089844 C 410.574219 37.550781 409.761719 38.542969 408.347656 42.050781 C 404.722656 51.054688 406.160156 52.429688 405.921875 60.605469 C 405.75 66.546875 410.304688 74.789062 414.171875 79.601562 C 419.710938 86.496094 424.679688 89.464844 432.164062 92.933594 C 432.394531 93.039062 432.613281 93.132812 432.808594 93.265625 L 460.214844 106.996094 C 468.023438 110.46875 475.875 114.371094 484.519531 115.105469 C 497.121094 116.175781 509.726562 112.574219 519.515625 104.535156 C 522.984375 101.683594 527.855469 97.175781 530.113281 93.164062 L 534.347656 96.277344 C 534.410156 96.316406 537.027344 97.625 537.117188 98.226562 C 537.324219 99.667969 538.070312 99.191406 538.894531 99.664062 C 539.21875 99.84375 539.472656 100.117188 539.789062 100.285156 L 562.9375 112.378906 L 578.605469 121.242188 L 586.996094 124.6875 C 588.144531 125.402344 589.644531 125.335938 590.691406 126.304688 L 601.285156 131.234375 C 602.28125 131.65625 603.34375 131.914062 604.324219 132.339844 L 628.699219 143.089844 L 632.070312 143.9375 C 632.570312 144.101562 632.945312 144.492188 633.523438 144.484375 C 634.476562 144.433594 635.566406 144.082031 636.273438 144.679688 C 636.304688 144.707031 636.367188 144.707031 636.410156 144.679688 C 637.269531 144.246094 637.769531 145.375 638.9375 144.894531 C 639.886719 144.5 642.679688 146.46875 645.632812 146.511719 L 647.855469 147.113281 L 597.6875 196.738281 C 598.285156 193.425781 598.679688 191.71875 598.714844 188.179688 C 598.777344 181.621094 597.644531 175.574219 595.480469 169.429688 L 591.21875 160.390625 C 585.730469 151.300781 575.757812 142.9375 565.429688 139.558594 C 558.9375 137.433594 552.75 137.1875 546.15625 137.695312 L 535.160156 139.695312 C 527.886719 141.992188 521.578125 145.761719 515.941406 150.851562 C 512.472656 153.980469 507.121094 161.386719 505.074219 165.804688 C 500.976562 174.636719 499.59375 182.601562 500.078125 192.050781 C 493.09375 185.984375 479.488281 175.558594 471.140625 171.511719 C 460.117188 166.171875 450.695312 165.59375 439.148438 164.96875 C 424.707031 164.183594 408.605469 164.027344 394.6875 162.628906 C 383.820312 161.535156 371.890625 169.105469 367.25 179.878906 C 359.242188 198.460938 371.875 219.167969 393.945312 220.957031 L 446.800781 225.144531 C 455.855469 234.140625 465.003906 243.050781 474.101562 252.003906 L 486.09375 264.210938 L 459.0625 345.964844 C 451.667969 328.132812 443.90625 316.136719 435.199219 299.84375 C 433.449219 296.570312 429.75 295.027344 425.988281 296.125 C 419.671875 297.972656 400.589844 303.875 395.054688 306.398438 C 388.882812 309.207031 382.246094 311.792969 375.308594 314.226562 C 380.023438 305.851562 382.914062 296.179688 383.042969 286.542969 C 383.152344 278.515625 381.695312 271.351562 379.035156 263.871094 L 373.808594 253.003906 C 366.871094 241.691406 355.140625 232.316406 342.601562 228.066406 C 332.578125 224.667969 321.863281 224.921875 311.769531 227.011719 C 305.1875 228.371094 307.203125 227.734375 300.628906 230.226562 C 287.820312 235.085938 275.644531 247.160156 269.871094 259.582031 C 265.113281 269.8125 263.902344 276.207031 263.777344 287.019531 C 263.6875 294.667969 265.578125 304.882812 269.640625 311.65625 C 270.046875 312.355469 270.457031 313.027344 270.847656 313.691406 C 256.753906 316.152344 242.40625 320.835938 228.96875 324.386719 C 229.402344 323.171875 230.414062 319.792969 231.234375 319.390625 C 232.917969 318.5625 232.730469 312.148438 234.519531 308.53125 L 240.363281 293.101562 C 240.917969 291.46875 242.839844 284.90625 243.632812 284.148438 C 245.355469 282.496094 245.230469 280.347656 245.949219 278.191406 C 254.871094 250.507812 253.074219 244.757812 277.898438 225.980469 L 322.550781 192.335938 L 339.53125 178.242188 C 341.285156 176.746094 343.023438 175.222656 344.882812 173.84375 C 347.964844 171.578125 350.511719 168.660156 353.789062 166.601562 C 357.007812 164.582031 363.210938 159.039062 365.746094 155.859375 C 376.699219 142.117188 375.480469 122.601562 360.597656 111.484375 C 349.867188 103.472656 336.429688 103.183594 325.074219 110.066406 L 308.171875 120.847656 C 306.765625 121.742188 305.445312 122.78125 304.015625 123.613281 L 279.925781 139.085938 L 272.019531 144.847656 C 270.828125 145.671875 269.472656 146.292969 268.375 147.289062 C 266.546875 148.964844 264.945312 150.90625 262.65625 152.054688 C 262.554688 152.113281 262.445312 152.207031 262.378906 152.308594 C 261.238281 153.90625 258.679688 154.550781 257.09375 156.667969 C 256.296875 157.726562 248.75 162.703125 247.902344 163.226562 C 244.925781 165.078125 243.328125 166.585938 240.753906 168.734375 C 240.992188 165.875 240.441406 159.511719 239.570312 156.632812 L 237.664062 149.976562 L 233.535156 141.210938 C 228.074219 132.132812 218.601562 124.351562 208.550781 120.960938 C 202.257812 118.839844 196.214844 118.691406 189.84375 119.167969 L 179.179688 121.097656 C 172.195312 123.253906 165.914062 127.066406 160.523438 131.941406 C 156.992188 135.136719 152.0625 142.15625 149.980469 146.445312 C 146.066406 154.503906 145.113281 160.664062 145.113281 169.167969 L 128.90625 157.542969 C 127.613281 156.621094 128.371094 155.664062 125.128906 154.09375 L 111.988281 145.585938 C 107.160156 142.441406 78.75 123.320312 75.101562 121.660156 C 66.203125 117.617188 58.316406 117.300781 49.128906 121.082031 C 38.277344 125.546875 30.875 136.839844 31.332031 148.742188 C 31.894531 163.429688 40.347656 171.339844 49.824219 180.28125 L 58.105469 188.027344 C 61.253906 190.914062 64.628906 193.378906 67.800781 196.640625 C 70.3125 199.210938 73.382812 201.160156 75.699219 203.960938 L 98.515625 225.429688 C 100.644531 227.378906 102.882812 229.199219 105.019531 231.148438 C 114.003906 239.4375 123.015625 247.636719 129.144531 257.863281 C 131.921875 262.503906 131.476562 262.515625 133.289062 267.710938 C 134.859375 272.214844 134.65625 277.605469 135.296875 282.359375 L 136.34375 291.480469 C 136.464844 292.835938 136.316406 294.230469 136.652344 295.59375 C 137.179688 297.855469 138.054688 300.070312 137.917969 302.46875 C 137.902344 302.570312 137.929688 302.714844 137.996094 302.816406 C 138.753906 304.191406 138.125 306.949219 139.128906 309.140625 C 139.660156 310.304688 140.183594 318.707031 140.21875 319.675781 C 140.390625 324.761719 141.929688 328.617188 141.894531 332.511719 C 141.882812 334 141.984375 338.320312 142.726562 339.589844 C 144.347656 342.355469 144.207031 343.691406 144.753906 346.136719 C 141.609375 346.949219 127.316406 350.347656 124.71875 351.445312 C 104.527344 360 103.324219 386.007812 121.085938 397.105469 C 129.359375 402.277344 136.511719 400.898438 145.417969 400.195312 C 145.347656 401.421875 145.480469 403.246094 144.828125 403.71875 C 143.503906 404.6875 145.667969 409.160156 145.085938 412.035156 C 144.207031 416.367188 144.535156 430.378906 143.996094 431.15625 C 142.847656 432.8125 143.648438 434.078125 143.648438 435.847656 C 143.648438 436.601562 143.542969 437.34375 143.550781 438.101562 L 144.617188 487.167969 L 144.617188 518.640625 L 145.417969 541.632812 C 146.605469 556.542969 168.089844 558.292969 171.511719 543.523438 L 176.039062 526.570312 L 182.929688 503.042969 C 183.519531 500.867188 183.960938 498.644531 184.546875 496.464844 L 193.152344 466.480469 C 193.484375 465.296875 193.65625 464.070312 194.0625 462.925781 L 199.75 442.695312 L 201.121094 435.648438 C 201.359375 434.59375 201.859375 433.621094 201.910156 432.515625 C 201.996094 430.675781 201.738281 428.769531 202.496094 427.042969 C 202.53125 426.957031 202.53125 426.847656 202.515625 426.761719 C 202.195312 425.121094 203.484375 423.808594 203.066406 421.734375 L 204.777344 413.621094 C 205.984375 409.660156 205.5 406.417969 206.53125 403.605469 C 208.496094 398.246094 207.324219 398.558594 207.171875 395.832031 L 249.207031 392.25 L 257.050781 448.695312 L 209.683594 514.625 C 195.054688 535.007812 192.445312 558.03125 201.316406 582.007812 C 203.359375 587.5625 206.296875 593.148438 208.535156 597.503906 L 233.121094 644.769531 C 243.386719 664.496094 267.019531 665.1875 282.226562 651.402344 C 290.878906 643.558594 293.257812 631.015625 290.59375 620.210938 L 276.40625 565.972656 L 298.457031 544.378906 L 304.476562 592.074219 C 306.167969 607.527344 308.679688 622.769531 310.117188 638.328125 C 310.941406 647.484375 312.285156 656.847656 313.394531 666.117188 L 319.394531 716.363281 C 320.296875 723.886719 322.050781 729.863281 327.097656 736.140625 C 335.21875 746.253906 346.183594 749.625 358.328125 749.109375 C 376.734375 748.328125 385.152344 735.390625 384.667969 717.476562 L 380.515625 514.359375 C 380.378906 507.617188 380.074219 500.84375 380.03125 494.121094 C 379.9375 486.785156 379.859375 479.464844 379.777344 472.128906 C 380.089844 466.554688 380.390625 460.957031 380.710938 455.363281 C 381.628906 436.519531 382.898438 417.671875 383.867188 398.828125 L 403.339844 381.984375 C 406.257812 386.109375 409.09375 390.316406 412.160156 394.308594 C 418.246094 402.167969 424.464844 409.667969 430.21875 418.257812 L 434.21875 422.808594 L 407.230469 507.210938 C 404.449219 515.992188 401.4375 522.726562 404.386719 532.285156 C 411.097656 553.996094 443.183594 561.613281 456.363281 535.746094 L 475.121094 497.976562 C 482.140625 484.003906 489.230469 470.0625 496.355469 456.121094 C 498.863281 451.21875 501.179688 446.214844 503.65625 441.285156 L 533.367188 382.480469 L 545.859375 383.117188 L 535.542969 457.757812 L 535.058594 458.359375 L 535.433594 458.523438 C 534.605469 464.367188 532.820312 470.121094 538.292969 474.539062 C 542.785156 478.148438 549.367188 477.457031 552.972656 472.964844 C 554.324219 471.3125 555.636719 469.636719 556.957031 467.960938 L 557.425781 468.171875 L 557.578125 467.160156 C 567.554688 454.320312 576.777344 440.863281 584.898438 426.726562 C 599.121094 402.074219 608.460938 379.988281 616.40625 352.828125 C 620.53125 338.726562 611.152344 323.867188 596.617188 321.621094 C 590.40625 320.652344 584.203125 319.6875 578.007812 318.734375 L 583.097656 287.027344 C 584.628906 285.382812 586.152344 283.75 587.683594 282.097656 C 593.742188 275.5 600.1875 269.1875 605.964844 262.410156 C 606.6875 261.570312 607.53125 260.640625 608.339844 259.925781 C 612.394531 256.28125 619.03125 248.578125 623.410156 243.917969 C 646.171875 219.71875 669.378906 195.148438 691.777344 170.625 L 694.3125 172.648438 C 694.773438 172.777344 696.746094 175.917969 697.582031 176.265625 C 698.792969 176.773438 699.953125 176.425781 699.984375 176.855469 C 703.25 178.425781 702.976562 177.820312 705.183594 178.820312 C 705.277344 178.871094 705.453125 178.75 705.511719 178.855469 C 706.210938 180.042969 707.605469 179.042969 708.46875 179.140625 C 709.910156 177.699219 709.644531 178.472656 710.117188 177.816406 C 710.585938 177.164062 710.847656 177.988281 711.820312 177.109375 C 712.515625 176.480469 712.457031 177.46875 713.003906 176.632812 L 715.957031 172.621094 C 716.878906 170.707031 718.765625 164.679688 718.765625 162.265625 Z M 719.035156 160.078125 " fill-opacity="1" fill-rule="evenodd"/></g></svg>