<svg xmlns="http://www.w3.org/2000/svg" xmlns:xlink="http://www.w3.org/1999/xlink" width="1000" zoomAndPan="magnify" viewBox="0 0 750 749.999995" height="1000" preserveAspectRatio="xMidYMid meet" version="1.0"><defs><clipPath id="db23f21c2b"><path d="M 246.777344 508.824219 L 253.527344 508.824219 L 253.527344 517.824219 L 246.777344 517.824219 Z M 246.777344 508.824219 " clip-rule="nonzero"/></clipPath><clipPath id="bc94f04544"><path d="M 247 514 L 252 514 L 252 517.824219 L 247 517.824219 Z M 247 514 " clip-rule="nonzero"/></clipPath><clipPath id="03eae5c009"><path d="M 252 513 L 253.527344 513 L 253.527344 516 L 252 516 Z M 252 513 " clip-rule="nonzero"/></clipPath><clipPath id="ab29adf9e7"><path d="M 250 517 L 251 517 L 251 517.824219 L 250 517.824219 Z M 250 517 " clip-rule="nonzero"/></clipPath><clipPath id="40c964f58b"><path d="M 249 516 L 251 516 L 251 517.824219 L 249 517.824219 Z M 249 516 " clip-rule="nonzero"/></clipPath><clipPath id="5f997c05fa"><path d="M 249 516 L 250 516 L 250 517.824219 L 249 517.824219 Z M 249 516 " clip-rule="nonzero"/></clipPath><clipPath id="bcd735218b"><path d="M 248 516 L 250 516 L 250 517.824219 L 248 517.824219 Z M 248 516 " clip-rule="nonzero"/></clipPath><clipPath id="23b1f2227c"><path d="M 246.777344 508.824219 L 253.527344 508.824219 L 253.527344 517.824219 L 246.777344 517.824219 Z M 246.777344 508.824219 " clip-rule="nonzero"/></clipPath></defs><g clip-path="url(#db23f21c2b)"><path fill="#000000" d="M 252.640625 513.363281 C 252.902344 513.648438 253.105469 513.960938 253.25 514.308594 C 253.398438 514.65625 253.484375 515.035156 253.515625 515.445312 C 253.519531 515.511719 253.484375 515.570312 253.433594 515.59375 L 253.003906 515.839844 C 252.949219 515.871094 252.882812 515.859375 252.839844 515.8125 L 252.792969 515.757812 L 252.136719 516.0625 C 252.136719 516.070312 252.136719 516.078125 252.136719 516.089844 C 252.132812 516.160156 252.113281 516.234375 252.078125 516.296875 C 252.074219 516.300781 252.074219 516.304688 252.070312 516.308594 C 252.011719 516.414062 251.914062 516.480469 251.8125 516.503906 C 251.796875 516.507812 251.785156 516.511719 251.769531 516.511719 C 251.773438 516.597656 251.75 516.6875 251.707031 516.765625 C 251.644531 516.871094 251.550781 516.9375 251.445312 516.960938 C 251.4375 516.964844 251.429688 516.964844 251.417969 516.96875 C 251.417969 517.042969 251.398438 517.121094 251.359375 517.1875 C 251.304688 517.28125 251.21875 517.34375 251.125 517.363281 C 251.09375 517.371094 251.058594 517.375 251.027344 517.375 C 251.019531 517.421875 251.003906 517.464844 250.980469 517.507812 C 250.976562 517.515625 250.976562 517.519531 250.972656 517.527344 C 250.914062 517.621094 250.828125 517.679688 250.738281 517.703125 C 250.644531 517.722656 250.542969 517.707031 250.457031 517.648438 L 250.382812 517.597656 C 250.328125 517.695312 250.242188 517.761719 250.144531 517.789062 C 250.042969 517.820312 249.929688 517.8125 249.832031 517.75 C 249.769531 517.710938 249.71875 517.660156 249.683594 517.597656 C 249.65625 517.613281 249.628906 517.625 249.597656 517.636719 C 249.503906 517.664062 249.398438 517.65625 249.304688 517.597656 C 249.238281 517.558594 249.1875 517.5 249.15625 517.433594 C 249.140625 517.441406 249.125 517.445312 249.109375 517.449219 C 249.007812 517.480469 248.894531 517.472656 248.796875 517.410156 C 248.695312 517.351562 248.628906 517.25 248.601562 517.140625 C 248.585938 517.078125 248.582031 517.007812 248.589844 516.941406 C 248.539062 516.9375 248.484375 516.917969 248.433594 516.886719 C 248.335938 516.828125 248.269531 516.730469 248.238281 516.617188 C 248.210938 516.507812 248.21875 516.386719 248.273438 516.28125 L 248.242188 516.246094 L 248.0625 516.058594 L 247.820312 515.929688 L 247.511719 515.761719 L 247.46875 515.8125 C 247.425781 515.859375 247.359375 515.871094 247.304688 515.839844 L 246.875 515.59375 C 246.820312 515.570312 246.789062 515.511719 246.792969 515.445312 C 246.851562 514.625 247.144531 513.929688 247.667969 513.363281 C 247.710938 513.316406 247.78125 513.300781 247.835938 513.335938 L 248.339844 513.652344 C 248.398438 513.691406 248.425781 513.765625 248.402344 513.832031 L 248.394531 513.847656 C 248.480469 513.914062 248.574219 513.957031 248.675781 513.984375 C 248.808594 514.019531 248.953125 514.023438 249.117188 514 C 249.273438 513.933594 249.429688 513.902344 249.578125 513.910156 C 249.738281 513.914062 249.890625 513.960938 250.035156 514.046875 C 250.039062 514.046875 250.042969 514.050781 250.046875 514.050781 L 250.152344 514.121094 L 250.261719 514.050781 C 250.265625 514.050781 250.269531 514.046875 250.273438 514.046875 C 250.417969 513.960938 250.570312 513.914062 250.730469 513.910156 C 250.878906 513.902344 251.035156 513.933594 251.191406 514 C 251.355469 514.023438 251.5 514.019531 251.632812 513.984375 C 251.734375 513.957031 251.828125 513.914062 251.910156 513.847656 L 251.90625 513.832031 C 251.882812 513.765625 251.90625 513.691406 251.964844 513.652344 L 252.472656 513.335938 C 252.527344 513.300781 252.597656 513.316406 252.640625 513.363281 Z M 249.90625 512.761719 C 249.984375 512.804688 250.066406 512.824219 250.15625 512.824219 C 250.246094 512.824219 250.332031 512.804688 250.410156 512.761719 L 250.921875 513.726562 C 250.941406 513.765625 250.96875 513.792969 251 513.808594 C 251.03125 513.828125 251.066406 513.839844 251.105469 513.835938 C 251.140625 513.835938 251.175781 513.824219 251.207031 513.800781 C 251.238281 513.78125 251.261719 513.75 251.277344 513.710938 L 251.46875 513.269531 L 251.914062 513.3125 C 251.953125 513.316406 251.988281 513.308594 252.019531 513.289062 C 252.054688 513.273438 252.082031 513.246094 252.101562 513.210938 C 252.121094 513.175781 252.132812 513.140625 252.132812 513.097656 C 252.132812 513.066406 252.125 513.03125 252.113281 513 C 252.109375 512.996094 252.109375 512.988281 252.105469 512.984375 L 251.59375 512.019531 C 251.605469 511.984375 251.613281 511.949219 251.621094 511.914062 C 251.644531 511.792969 251.636719 511.664062 251.59375 511.546875 C 251.578125 511.503906 251.570312 511.472656 251.574219 511.457031 C 251.578125 511.445312 251.59375 511.433594 251.628906 511.421875 C 251.738281 511.371094 251.832031 511.289062 251.898438 511.183594 C 251.964844 511.082031 252 510.957031 252 510.824219 C 252 510.691406 251.964844 510.566406 251.898438 510.464844 C 251.835938 510.359375 251.742188 510.277344 251.636719 510.230469 C 251.632812 510.230469 251.628906 510.226562 251.628906 510.226562 C 251.59375 510.210938 251.578125 510.199219 251.574219 510.191406 C 251.570312 510.171875 251.578125 510.140625 251.59375 510.097656 C 251.636719 509.984375 251.644531 509.855469 251.621094 509.734375 C 251.597656 509.613281 251.546875 509.5 251.460938 509.410156 C 251.375 509.316406 251.265625 509.253906 251.152344 509.230469 C 251.039062 509.207031 250.917969 509.222656 250.808594 509.273438 C 250.773438 509.289062 250.753906 509.292969 250.746094 509.289062 C 250.734375 509.277344 250.71875 509.25 250.699219 509.210938 C 250.65625 509.09375 250.578125 508.996094 250.480469 508.929688 C 250.386719 508.859375 250.277344 508.820312 250.15625 508.820312 C 250.039062 508.820312 249.925781 508.859375 249.832031 508.929688 C 249.738281 508.996094 249.660156 509.09375 249.613281 509.210938 C 249.597656 509.25 249.582031 509.277344 249.566406 509.289062 C 249.558594 509.292969 249.539062 509.289062 249.507812 509.273438 C 249.398438 509.222656 249.277344 509.207031 249.160156 509.230469 C 249.046875 509.253906 248.941406 509.316406 248.855469 509.410156 C 248.769531 509.5 248.714844 509.613281 248.695312 509.734375 C 248.671875 509.855469 248.679688 509.984375 248.722656 510.097656 C 248.738281 510.140625 248.746094 510.171875 248.738281 510.191406 C 248.738281 510.199219 248.71875 510.210938 248.6875 510.226562 C 248.578125 510.273438 248.484375 510.359375 248.417969 510.464844 C 248.351562 510.566406 248.3125 510.691406 248.3125 510.824219 C 248.3125 510.957031 248.351562 511.082031 248.417969 511.183594 C 248.480469 511.285156 248.574219 511.367188 248.679688 511.417969 C 248.683594 511.417969 248.683594 511.417969 248.6875 511.421875 C 248.71875 511.433594 248.738281 511.445312 248.738281 511.457031 C 248.746094 511.472656 248.738281 511.503906 248.722656 511.546875 C 248.679688 511.664062 248.671875 511.792969 248.695312 511.914062 C 248.699219 511.949219 248.710938 511.984375 248.722656 512.019531 L 248.210938 512.984375 C 248.191406 513.019531 248.179688 513.058594 248.183594 513.097656 C 248.183594 513.136719 248.195312 513.175781 248.214844 513.210938 C 248.234375 513.246094 248.261719 513.273438 248.292969 513.289062 C 248.328125 513.308594 248.363281 513.316406 248.398438 513.3125 L 248.847656 513.269531 L 249.039062 513.710938 C 249.054688 513.75 249.078125 513.777344 249.109375 513.800781 C 249.136719 513.824219 249.171875 513.835938 249.210938 513.835938 C 249.25 513.839844 249.285156 513.828125 249.316406 513.808594 C 249.347656 513.792969 249.375 513.765625 249.394531 513.726562 Z M 249.90625 512.761719 " fill-opacity="1" fill-rule="evenodd"/></g><path fill="#f5dccd" d="M 252.679688 515.488281 C 252.640625 514.925781 252.460938 514.445312 252.074219 514.089844 C 251.800781 514.296875 251.480469 514.347656 251.136719 514.289062 C 251.125 514.289062 251.113281 514.285156 251.101562 514.28125 C 250.875 514.175781 250.613281 514.175781 250.402344 514.308594 L 249.304688 515.027344 C 249.296875 515.085938 249.320312 515.121094 249.367188 515.164062 C 249.386719 515.179688 249.40625 515.195312 249.429688 515.210938 C 249.496094 515.226562 249.558594 515.230469 249.621094 515.21875 L 249.722656 515.246094 L 249.820312 515.140625 C 250.1875 514.914062 250.574219 514.832031 250.957031 515.039062 C 250.964844 515.042969 250.972656 515.050781 250.976562 515.054688 L 252.019531 515.789062 Z M 252.679688 515.488281 " fill-opacity="1" fill-rule="evenodd"/><g clip-path="url(#bc94f04544)"><path fill="#f5dccd" d="M 248.199219 515.804688 Z M 251.132812 516.546875 Z M 251.476562 516.605469 Z M 251.433594 516.394531 Z M 251.175781 516.214844 Z M 251.394531 516.015625 Z M 251.582031 516.144531 Z M 251.15625 515.535156 L 250.832031 515.304688 C 250.722656 515.238281 250.550781 515.207031 250.425781 515.222656 C 250.253906 515.238281 250.121094 515.273438 250.003906 515.339844 C 249.890625 515.398438 249.796875 515.492188 249.660156 515.515625 C 249.558594 515.53125 249.453125 515.523438 249.347656 515.496094 L 249.183594 515.382812 C 249.039062 515.25 248.996094 515.078125 249.054688 514.886719 L 249.058594 514.875 L 249.0625 514.867188 L 249.066406 514.863281 L 249.070312 514.855469 L 249.070312 514.851562 L 249.074219 514.84375 L 249.082031 514.835938 L 249.085938 514.828125 L 249.09375 514.824219 L 249.117188 514.800781 L 249.886719 514.296875 C 249.667969 514.179688 249.433594 514.175781 249.207031 514.28125 C 249.195312 514.285156 249.183594 514.289062 249.171875 514.289062 C 248.828125 514.347656 248.507812 514.296875 248.234375 514.089844 C 247.847656 514.445312 247.667969 514.929688 247.628906 515.492188 L 248.199219 515.804688 L 248.414062 516.015625 C 248.484375 515.875 248.539062 515.765625 248.703125 515.71875 C 248.917969 515.652344 249.136719 515.777344 249.207031 516.003906 C 249.410156 515.953125 249.617188 516.078125 249.6875 516.292969 C 249.878906 516.25 250.070312 516.367188 250.132812 516.570312 C 250.226562 516.550781 250.324219 516.566406 250.414062 516.621094 C 250.46875 516.652344 250.511719 516.695312 250.546875 516.746094 L 250.894531 516.992188 L 250.996094 517.0625 C 251.058594 517.105469 251.164062 517.046875 251.140625 516.945312 C 251.128906 516.882812 251.066406 516.851562 251 516.808594 L 250.5 516.460938 C 250.347656 516.355469 250.492188 516.105469 250.644531 516.210938 L 251.132812 516.546875 L 251.289062 516.65625 C 251.34375 516.695312 251.433594 516.675781 251.476562 516.605469 C 251.515625 516.535156 251.496094 516.445312 251.433594 516.398438 L 251.175781 516.214844 L 250.988281 516.085938 C 250.835938 515.980469 250.984375 515.730469 251.136719 515.835938 L 251.394531 516.015625 L 251.582031 516.148438 C 251.640625 516.1875 251.683594 516.230469 251.753906 516.214844 C 251.871094 516.1875 251.871094 516.046875 251.859375 516.03125 Z M 251.15625 515.535156 " fill-opacity="1" fill-rule="evenodd"/></g><path fill="#8ac9fe" d="M 247.351562 515.515625 C 247.390625 514.839844 247.613281 514.257812 248.085938 513.835938 L 247.792969 513.652344 C 247.378906 514.128906 247.140625 514.703125 247.074219 515.375 L 247.34375 515.527344 Z M 247.351562 515.515625 " fill-opacity="1" fill-rule="evenodd"/><g clip-path="url(#03eae5c009)"><path fill="#8ac9fe" d="M 252.222656 513.835938 C 252.695312 514.257812 252.917969 514.839844 252.957031 515.515625 L 252.964844 515.527344 L 253.234375 515.375 C 253.167969 514.710938 252.933594 514.136719 252.515625 513.652344 Z M 252.222656 513.835938 " fill-opacity="1" fill-rule="evenodd"/></g><g clip-path="url(#ab29adf9e7)"><path fill="#f5dccd" d="M 250.742188 517.363281 Z M 250.730469 517.230469 L 250.707031 517.199219 L 250.609375 517.140625 L 250.574219 517.230469 L 250.519531 517.335938 C 250.558594 517.367188 250.589844 517.40625 250.625 517.417969 C 250.644531 517.421875 250.664062 517.414062 250.679688 517.410156 L 250.71875 517.410156 L 250.742188 517.363281 C 250.769531 517.320312 250.757812 517.253906 250.730469 517.230469 Z M 250.730469 517.230469 " fill-opacity="1" fill-rule="evenodd"/></g><g clip-path="url(#40c964f58b)"><path fill="#f5dccd" d="M 250.152344 517.433594 L 250.335938 517.085938 L 250.34375 517.058594 C 250.398438 516.890625 250.175781 516.773438 250.089844 516.9375 L 249.910156 517.285156 C 249.824219 517.457031 250.066406 517.605469 250.152344 517.433594 Z M 250.152344 517.433594 " fill-opacity="1" fill-rule="evenodd"/></g><g clip-path="url(#5f997c05fa)"><path fill="#f5dccd" d="M 249.59375 517.289062 L 249.867188 516.765625 C 249.9375 516.625 249.742188 516.503906 249.667969 516.644531 L 249.5625 516.847656 L 249.394531 517.171875 C 249.320312 517.3125 249.519531 517.433594 249.59375 517.289062 Z M 249.59375 517.289062 " fill-opacity="1" fill-rule="evenodd"/></g><g clip-path="url(#bcd735218b)"><path fill="#f5dccd" d="M 249.117188 517.09375 L 249.421875 516.511719 C 249.476562 516.40625 249.382812 516.257812 249.261719 516.296875 C 249.226562 516.308594 249.195312 516.332031 249.175781 516.367188 L 248.875 516.945312 C 248.816406 517.0625 248.914062 517.199219 249.035156 517.164062 C 249.070312 517.152344 249.101562 517.128906 249.117188 517.09375 Z M 249.117188 517.09375 " fill-opacity="1" fill-rule="evenodd"/></g><path fill="#f5dccd" d="M 248.761719 516.597656 C 248.695312 516.707031 248.523438 516.679688 248.488281 516.542969 C 248.464844 516.457031 248.511719 516.390625 248.550781 516.316406 L 248.679688 516.0625 L 248.757812 515.992188 L 248.761719 515.992188 C 248.898438 515.9375 249.023438 516.09375 248.953125 516.230469 Z M 248.761719 516.597656 " fill-opacity="1" fill-rule="evenodd"/><path fill="#fe646f" d="M 250.625 512.574219 L 251.089844 513.449219 L 251.230469 513.117188 L 251.105469 512.878906 C 251.015625 512.707031 251.25 512.558594 251.339844 512.730469 L 251.46875 512.972656 L 251.800781 513.003906 L 251.414062 512.28125 C 251.246094 512.433594 251.007812 512.46875 250.808594 512.375 C 250.695312 512.324219 250.746094 512.40625 250.625 512.574219 Z M 250.625 512.574219 " fill-opacity="1" fill-rule="evenodd"/><path fill="#fe646f" d="M 249.226562 513.449219 L 249.691406 512.574219 C 249.566406 512.40625 249.617188 512.324219 249.507812 512.375 C 249.304688 512.46875 249.070312 512.433594 248.898438 512.28125 L 248.515625 513.003906 L 248.84375 512.972656 L 248.972656 512.730469 C 249.0625 512.558594 249.300781 512.707031 249.210938 512.878906 L 249.082031 513.117188 Z M 249.226562 513.449219 " fill-opacity="1" fill-rule="evenodd"/><path fill="#8ac9fe" d="M 251.527344 511.144531 Z M 248.789062 510.503906 Z M 249.863281 512.320312 C 249.976562 512.59375 250.339844 512.59375 250.449219 512.320312 C 250.539062 512.097656 250.699219 512 250.914062 512.101562 C 251.175781 512.222656 251.441406 511.945312 251.335938 511.65625 C 251.257812 511.433594 251.304688 511.242188 251.527344 511.144531 C 251.800781 511.023438 251.785156 510.609375 251.527344 510.503906 C 251.304688 510.410156 251.257812 510.214844 251.335938 509.992188 C 251.441406 509.703125 251.175781 509.425781 250.914062 509.546875 C 250.699219 509.648438 250.539062 509.546875 250.449219 509.328125 C 250.339844 509.050781 249.976562 509.050781 249.863281 509.328125 C 249.777344 509.546875 249.617188 509.648438 249.398438 509.546875 C 249.140625 509.425781 248.875 509.703125 248.976562 509.992188 C 249.058594 510.214844 249.007812 510.40625 248.789062 510.503906 C 248.515625 510.625 248.53125 511.035156 248.789062 511.144531 C 249.007812 511.238281 249.058594 511.433594 248.976562 511.65625 C 248.941406 511.75 248.949219 511.859375 248.992188 511.949219 C 249.085938 512.113281 249.246094 512.171875 249.398438 512.101562 C 249.617188 512 249.777344 512.097656 249.863281 512.320312 Z M 251.277344 510.824219 C 251.277344 511.492188 250.773438 512.039062 250.15625 512.039062 C 249.539062 512.039062 249.039062 511.492188 249.039062 510.824219 C 249.039062 510.152344 249.539062 509.609375 250.15625 509.609375 C 250.773438 509.609375 251.277344 510.152344 251.277344 510.824219 Z M 251.277344 510.824219 " fill-opacity="1" fill-rule="evenodd"/><path fill="#eaeef1" d="M 249.3125 510.824219 C 249.3125 511.636719 250.222656 512.046875 250.753906 511.472656 C 251.082031 511.113281 251.082031 510.535156 250.753906 510.175781 C 250.222656 509.601562 249.3125 510.011719 249.3125 510.824219 Z M 250.183594 511.203125 Z M 249.972656 511.210938 L 249.730469 510.90625 C 249.679688 510.84375 249.6875 510.75 249.746094 510.695312 C 249.804688 510.640625 249.890625 510.648438 249.9375 510.710938 L 250.070312 510.878906 L 250.371094 510.441406 C 250.417969 510.378906 250.503906 510.363281 250.5625 510.414062 C 250.625 510.464844 250.636719 510.558594 250.589844 510.621094 L 250.183594 511.203125 C 250.132812 511.277344 250.027344 511.285156 249.972656 511.210938 Z M 249.972656 511.210938 " fill-opacity="1" fill-rule="evenodd"/><g clip-path="url(#23b1f2227c)"><path fill="#000000" d="M 252.640625 513.363281 C 252.902344 513.648438 253.105469 513.960938 253.25 514.308594 C 253.398438 514.65625 253.484375 515.035156 253.515625 515.445312 C 253.519531 515.511719 253.484375 515.570312 253.433594 515.59375 L 253.003906 515.839844 C 252.949219 515.871094 252.882812 515.859375 252.839844 515.8125 L 252.792969 515.757812 L 252.136719 516.0625 C 252.136719 516.070312 252.136719 516.078125 252.136719 516.089844 C 252.132812 516.160156 252.113281 516.234375 252.078125 516.296875 C 252.074219 516.300781 252.074219 516.304688 252.070312 516.308594 C 252.011719 516.414062 251.914062 516.480469 251.8125 516.503906 C 251.796875 516.507812 251.785156 516.511719 251.769531 516.511719 C 251.773438 516.597656 251.75 516.6875 251.707031 516.765625 C 251.644531 516.871094 251.550781 516.9375 251.445312 516.960938 C 251.4375 516.964844 251.429688 516.964844 251.417969 516.96875 C 251.417969 517.042969 251.398438 517.121094 251.359375 517.1875 C 251.304688 517.28125 251.21875 517.34375 251.125 517.363281 C 251.09375 517.371094 251.058594 517.375 251.027344 517.375 C 251.019531 517.421875 251.003906 517.464844 250.980469 517.507812 C 250.976562 517.515625 250.976562 517.519531 250.972656 517.527344 C 250.914062 517.621094 250.828125 517.679688 250.738281 517.703125 C 250.644531 517.722656 250.542969 517.707031 250.457031 517.648438 L 250.382812 517.597656 C 250.328125 517.695312 250.242188 517.761719 250.144531 517.789062 C 250.042969 517.820312 249.929688 517.8125 249.832031 517.75 C 249.769531 517.710938 249.71875 517.660156 249.683594 517.597656 C 249.65625 517.613281 249.628906 517.625 249.597656 517.636719 C 249.503906 517.664062 249.398438 517.65625 249.304688 517.597656 C 249.238281 517.558594 249.1875 517.5 249.15625 517.433594 C 249.140625 517.441406 249.125 517.445312 249.109375 517.449219 C 249.007812 517.480469 248.894531 517.472656 248.796875 517.410156 C 248.695312 517.351562 248.628906 517.25 248.601562 517.140625 C 248.585938 517.078125 248.582031 517.007812 248.589844 516.941406 C 248.539062 516.9375 248.484375 516.917969 248.433594 516.886719 C 248.335938 516.828125 248.269531 516.730469 248.238281 516.617188 C 248.210938 516.507812 248.21875 516.386719 248.273438 516.28125 L 248.242188 516.246094 L 248.0625 516.058594 L 247.820312 515.929688 L 247.511719 515.761719 L 247.46875 515.8125 C 247.425781 515.859375 247.359375 515.871094 247.304688 515.839844 L 246.875 515.59375 C 246.820312 515.570312 246.789062 515.511719 246.792969 515.445312 C 246.851562 514.625 247.144531 513.929688 247.667969 513.363281 C 247.710938 513.316406 247.78125 513.300781 247.835938 513.335938 L 248.339844 513.652344 C 248.398438 513.691406 248.425781 513.765625 248.402344 513.832031 L 248.394531 513.847656 C 248.480469 513.914062 248.574219 513.957031 248.675781 513.984375 C 248.808594 514.019531 248.953125 514.023438 249.117188 514 C 249.273438 513.933594 249.429688 513.902344 249.578125 513.910156 C 249.738281 513.914062 249.890625 513.960938 250.035156 514.046875 C 250.039062 514.046875 250.042969 514.050781 250.046875 514.050781 L 250.152344 514.121094 L 250.261719 514.050781 C 250.265625 514.050781 250.269531 514.046875 250.273438 514.046875 C 250.417969 513.960938 250.570312 513.914062 250.730469 513.910156 C 250.878906 513.902344 251.035156 513.933594 251.191406 514 C 251.355469 514.023438 251.5 514.019531 251.632812 513.984375 C 251.734375 513.957031 251.828125 513.914062 251.910156 513.847656 L 251.90625 513.832031 C 251.882812 513.765625 251.90625 513.691406 251.964844 513.652344 L 252.472656 513.335938 C 252.527344 513.300781 252.597656 513.316406 252.640625 513.363281 Z M 248.992188 511.949219 C 248.996094 511.953125 248.996094 511.957031 249 511.960938 C 249.011719 511.980469 249.023438 512.003906 249.042969 512.023438 C 249.042969 512.023438 249.046875 512.027344 249.046875 512.027344 C 249.09375 512.078125 249.152344 512.109375 249.210938 512.121094 C 249.273438 512.136719 249.339844 512.128906 249.398438 512.101562 C 249.515625 512.046875 249.609375 512.050781 249.691406 512.097656 C 249.769531 512.140625 249.824219 512.214844 249.863281 512.320312 C 249.882812 512.363281 249.910156 512.40625 249.945312 512.4375 C 249.949219 512.441406 249.953125 512.445312 249.957031 512.449219 C 249.964844 512.457031 249.972656 512.464844 249.984375 512.472656 C 250.03125 512.507812 250.09375 512.527344 250.15625 512.527344 C 250.222656 512.527344 250.28125 512.507812 250.332031 512.472656 C 250.339844 512.464844 250.351562 512.457031 250.359375 512.449219 C 250.363281 512.445312 250.367188 512.441406 250.371094 512.4375 C 250.40625 512.40625 250.433594 512.363281 250.449219 512.320312 C 250.492188 512.214844 250.546875 512.140625 250.621094 512.097656 C 250.707031 512.050781 250.800781 512.046875 250.914062 512.101562 C 250.972656 512.128906 251.039062 512.136719 251.101562 512.121094 C 251.164062 512.109375 251.21875 512.078125 251.265625 512.027344 C 251.3125 511.980469 251.339844 511.917969 251.351562 511.855469 C 251.367188 511.789062 251.359375 511.71875 251.335938 511.65625 C 251.300781 511.550781 251.289062 511.457031 251.316406 511.367188 C 251.34375 511.269531 251.410156 511.195312 251.527344 511.144531 C 251.585938 511.121094 251.636719 511.074219 251.671875 511.015625 C 251.707031 510.960938 251.726562 510.894531 251.726562 510.824219 C 251.726562 510.75 251.707031 510.683594 251.671875 510.628906 C 251.636719 510.574219 251.589844 510.53125 251.53125 510.503906 L 251.527344 510.503906 C 251.410156 510.453125 251.34375 510.378906 251.316406 510.28125 C 251.289062 510.191406 251.300781 510.09375 251.335938 509.992188 C 251.359375 509.925781 251.367188 509.859375 251.351562 509.792969 C 251.339844 509.730469 251.3125 509.667969 251.265625 509.617188 C 251.21875 509.570312 251.164062 509.535156 251.101562 509.523438 C 251.039062 509.511719 250.972656 509.519531 250.914062 509.546875 C 250.800781 509.597656 250.707031 509.597656 250.621094 509.550781 C 250.546875 509.507812 250.492188 509.429688 250.449219 509.328125 C 250.425781 509.265625 250.382812 509.214844 250.332031 509.175781 C 250.28125 509.140625 250.222656 509.121094 250.15625 509.121094 C 250.09375 509.121094 250.03125 509.140625 249.984375 509.175781 C 249.933594 509.214844 249.890625 509.265625 249.863281 509.328125 C 249.824219 509.429688 249.769531 509.507812 249.691406 509.550781 C 249.609375 509.597656 249.515625 509.597656 249.398438 509.546875 C 249.339844 509.519531 249.273438 509.511719 249.210938 509.523438 C 249.152344 509.535156 249.09375 509.570312 249.046875 509.617188 C 249.003906 509.667969 248.972656 509.730469 248.960938 509.792969 C 248.949219 509.859375 248.953125 509.925781 248.976562 509.992188 C 249.015625 510.09375 249.027344 510.191406 249 510.28125 C 248.972656 510.378906 248.90625 510.453125 248.789062 510.503906 C 248.730469 510.527344 248.679688 510.574219 248.644531 510.628906 C 248.609375 510.683594 248.589844 510.75 248.589844 510.824219 C 248.589844 510.894531 248.609375 510.960938 248.644531 511.015625 C 248.675781 511.074219 248.726562 511.117188 248.78125 511.140625 L 248.789062 511.144531 C 248.90625 511.195312 248.972656 511.269531 249 511.367188 C 249.027344 511.457031 249.015625 511.550781 248.976562 511.65625 C 248.953125 511.71875 248.949219 511.789062 248.960938 511.855469 C 248.96875 511.886719 248.976562 511.917969 248.992188 511.949219 Z M 248.898438 512.28125 L 248.515625 513.003906 L 248.84375 512.972656 L 248.972656 512.730469 C 249.011719 512.660156 249.09375 512.632812 249.160156 512.675781 C 249.226562 512.714844 249.25 512.804688 249.210938 512.878906 L 249.082031 513.117188 L 249.226562 513.449219 L 249.691406 512.574219 C 249.660156 512.535156 249.632812 512.488281 249.613281 512.4375 C 249.597656 512.394531 249.582031 512.367188 249.566406 512.359375 C 249.558594 512.355469 249.539062 512.359375 249.507812 512.375 C 249.398438 512.425781 249.277344 512.4375 249.160156 512.414062 C 249.066406 512.394531 248.976562 512.351562 248.898438 512.28125 Z M 249.90625 512.761719 C 249.984375 512.804688 250.066406 512.824219 250.15625 512.824219 C 250.246094 512.824219 250.332031 512.804688 250.410156 512.761719 L 250.921875 513.726562 C 250.941406 513.765625 250.96875 513.792969 251 513.808594 C 251.03125 513.828125 251.066406 513.839844 251.105469 513.835938 C 251.140625 513.835938 251.175781 513.824219 251.207031 513.800781 C 251.238281 513.78125 251.261719 513.75 251.277344 513.710938 L 251.46875 513.269531 L 251.914062 513.3125 C 251.953125 513.316406 251.988281 513.308594 252.019531 513.289062 C 252.054688 513.273438 252.082031 513.246094 252.101562 513.210938 C 252.121094 513.175781 252.132812 513.140625 252.132812 513.097656 C 252.132812 513.066406 252.125 513.03125 252.113281 513 C 252.109375 512.996094 252.109375 512.988281 252.105469 512.984375 L 251.59375 512.019531 C 251.605469 511.984375 251.613281 511.949219 251.621094 511.914062 C 251.644531 511.792969 251.636719 511.664062 251.59375 511.546875 C 251.578125 511.503906 251.570312 511.472656 251.574219 511.457031 C 251.578125 511.445312 251.59375 511.433594 251.628906 511.421875 C 251.738281 511.371094 251.832031 511.289062 251.898438 511.183594 C 251.964844 511.082031 252 510.957031 252 510.824219 C 252 510.691406 251.964844 510.566406 251.898438 510.464844 C 251.835938 510.359375 251.742188 510.277344 251.636719 510.230469 C 251.632812 510.230469 251.628906 510.226562 251.628906 510.226562 C 251.59375 510.210938 251.578125 510.199219 251.574219 510.191406 C 251.570312 510.171875 251.578125 510.140625 251.59375 510.097656 C 251.636719 509.984375 251.644531 509.855469 251.621094 509.734375 C 251.597656 509.613281 251.546875 509.5 251.460938 509.410156 C 251.375 509.316406 251.265625 509.253906 251.152344 509.230469 C 251.039062 509.207031 250.917969 509.222656 250.808594 509.273438 C 250.773438 509.289062 250.753906 509.292969 250.746094 509.289062 C 250.734375 509.277344 250.71875 509.25 250.699219 509.210938 C 250.65625 509.09375 250.578125 508.996094 250.480469 508.929688 C 250.386719 508.859375 250.277344 508.820312 250.15625 508.820312 C 250.039062 508.820312 249.925781 508.859375 249.832031 508.929688 C 249.738281 508.996094 249.660156 509.09375 249.613281 509.210938 C 249.597656 509.25 249.582031 509.277344 249.566406 509.289062 C 249.558594 509.292969 249.539062 509.289062 249.507812 509.273438 C 249.398438 509.222656 249.277344 509.207031 249.160156 509.230469 C 249.046875 509.253906 248.941406 509.316406 248.855469 509.410156 C 248.769531 509.5 248.714844 509.613281 248.695312 509.734375 C 248.671875 509.855469 248.679688 509.984375 248.722656 510.097656 C 248.738281 510.140625 248.746094 510.171875 248.738281 510.191406 C 248.738281 510.199219 248.71875 510.210938 248.6875 510.226562 C 248.578125 510.273438 248.484375 510.359375 248.417969 510.464844 C 248.351562 510.566406 248.3125 510.691406 248.3125 510.824219 C 248.3125 510.957031 248.351562 511.082031 248.417969 511.183594 C 248.480469 511.285156 248.574219 511.367188 248.679688 511.417969 C 248.683594 511.417969 248.683594 511.417969 248.6875 511.421875 C 248.71875 511.433594 248.738281 511.445312 248.738281 511.457031 C 248.746094 511.472656 248.738281 511.503906 248.722656 511.546875 C 248.679688 511.664062 248.671875 511.792969 248.695312 511.914062 C 248.699219 511.949219 248.710938 511.984375 248.722656 512.019531 L 248.210938 512.984375 C 248.191406 513.019531 248.179688 513.058594 248.183594 513.097656 C 248.183594 513.136719 248.195312 513.175781 248.214844 513.210938 C 248.234375 513.246094 248.261719 513.273438 248.292969 513.289062 C 248.328125 513.308594 248.363281 513.316406 248.398438 513.3125 L 248.847656 513.269531 L 249.039062 513.710938 C 249.054688 513.75 249.078125 513.777344 249.109375 513.800781 C 249.136719 513.824219 249.171875 513.835938 249.210938 513.835938 C 249.25 513.839844 249.285156 513.828125 249.316406 513.808594 C 249.347656 513.792969 249.375 513.765625 249.394531 513.726562 Z M 250.625 512.574219 L 251.089844 513.449219 L 251.230469 513.117188 L 251.105469 512.878906 C 251.066406 512.804688 251.089844 512.714844 251.15625 512.675781 C 251.21875 512.632812 251.304688 512.660156 251.339844 512.730469 L 251.46875 512.972656 L 251.800781 513.003906 L 251.414062 512.28125 C 251.339844 512.351562 251.25 512.394531 251.152344 512.414062 C 251.039062 512.4375 250.917969 512.425781 250.808594 512.375 C 250.773438 512.359375 250.753906 512.355469 250.746094 512.359375 C 250.734375 512.367188 250.71875 512.394531 250.699219 512.4375 C 250.679688 512.488281 250.65625 512.535156 250.625 512.574219 Z M 250.15625 509.609375 C 250.464844 509.609375 250.746094 509.746094 250.949219 509.964844 C 251.152344 510.183594 251.277344 510.488281 251.277344 510.824219 C 251.277344 511.160156 251.152344 511.460938 250.949219 511.683594 C 250.746094 511.902344 250.464844 512.039062 250.15625 512.039062 C 249.847656 512.039062 249.570312 511.902344 249.367188 511.683594 C 249.164062 511.460938 249.039062 511.160156 249.039062 510.824219 C 249.039062 510.488281 249.164062 510.183594 249.367188 509.964844 C 249.570312 509.746094 249.847656 509.609375 250.15625 509.609375 Z M 250.753906 510.175781 C 250.90625 510.339844 251 510.570312 251 510.824219 C 251 511.078125 250.90625 511.304688 250.753906 511.472656 C 250.601562 511.636719 250.390625 511.738281 250.15625 511.738281 C 249.925781 511.738281 249.714844 511.636719 249.5625 511.472656 C 249.410156 511.304688 249.3125 511.078125 249.3125 510.824219 C 249.3125 510.570312 249.410156 510.339844 249.5625 510.175781 C 249.714844 510.011719 249.925781 509.90625 250.15625 509.90625 C 250.390625 509.90625 250.601562 510.011719 250.753906 510.175781 Z M 249.730469 510.90625 C 249.679688 510.84375 249.6875 510.75 249.746094 510.695312 C 249.804688 510.640625 249.890625 510.648438 249.9375 510.710938 L 250.070312 510.878906 L 250.371094 510.441406 C 250.417969 510.378906 250.503906 510.363281 250.5625 510.414062 C 250.625 510.464844 250.636719 510.558594 250.589844 510.621094 L 250.183594 511.203125 C 250.179688 511.210938 250.171875 511.21875 250.164062 511.226562 C 250.105469 511.28125 250.019531 511.273438 249.972656 511.210938 Z M 252.957031 515.515625 L 252.964844 515.527344 L 253.234375 515.375 C 253.199219 515.035156 253.125 514.71875 253 514.429688 C 252.882812 514.148438 252.722656 513.890625 252.515625 513.652344 L 252.222656 513.835938 C 252.441406 514.03125 252.613281 514.265625 252.738281 514.542969 C 252.863281 514.824219 252.9375 515.152344 252.957031 515.515625 Z M 250.976562 515.054688 L 251.882812 515.695312 L 252.019531 515.789062 L 252.679688 515.488281 C 252.660156 515.179688 252.59375 514.90625 252.488281 514.671875 C 252.390625 514.445312 252.25 514.25 252.074219 514.089844 C 251.960938 514.175781 251.835938 514.238281 251.695312 514.273438 C 251.527344 514.320312 251.339844 514.324219 251.136719 514.289062 C 251.125 514.289062 251.113281 514.285156 251.101562 514.28125 C 250.976562 514.226562 250.855469 514.203125 250.738281 514.207031 C 250.625 514.210938 250.511719 514.246094 250.402344 514.308594 L 250.226562 514.421875 L 250.222656 514.425781 L 249.472656 514.914062 L 249.304688 515.027344 C 249.304688 515.035156 249.304688 515.042969 249.304688 515.050781 L 249.304688 515.058594 C 249.304688 515.066406 249.304688 515.070312 249.308594 515.074219 C 249.3125 515.101562 249.332031 515.132812 249.363281 515.160156 C 249.363281 515.160156 249.367188 515.164062 249.367188 515.164062 C 249.386719 515.179688 249.40625 515.195312 249.429688 515.210938 C 249.496094 515.226562 249.558594 515.230469 249.621094 515.21875 C 249.6875 515.210938 249.75 515.183594 249.8125 515.144531 L 249.820312 515.140625 C 250.019531 515.015625 250.210938 514.945312 250.398438 514.925781 L 250.402344 514.925781 C 250.597656 514.90625 250.78125 514.945312 250.957031 515.039062 C 250.964844 515.042969 250.972656 515.050781 250.976562 515.054688 Z M 251.15625 515.535156 L 250.832031 515.304688 C 250.703125 515.234375 250.566406 515.207031 250.425781 515.222656 C 250.277344 515.234375 250.121094 515.292969 249.957031 515.398438 L 249.953125 515.398438 C 249.859375 515.460938 249.761719 515.5 249.660156 515.515625 C 249.558594 515.53125 249.453125 515.523438 249.347656 515.496094 C 249.339844 515.492188 249.328125 515.488281 249.316406 515.480469 C 249.269531 515.453125 249.226562 515.421875 249.191406 515.390625 C 249.1875 515.390625 249.1875 515.386719 249.183594 515.382812 C 249.109375 515.316406 249.0625 515.238281 249.042969 515.152344 C 249.039062 515.144531 249.039062 515.136719 249.035156 515.125 L 249.035156 515.117188 C 249.023438 515.054688 249.027344 514.992188 249.042969 514.929688 L 249.046875 514.925781 L 249.046875 514.914062 L 249.050781 514.910156 L 249.050781 514.902344 L 249.054688 514.898438 L 249.054688 514.886719 L 249.058594 514.882812 L 249.058594 514.875 L 249.0625 514.875 L 249.0625 514.863281 L 249.066406 514.863281 L 249.066406 514.855469 L 249.070312 514.855469 L 249.070312 514.851562 L 249.074219 514.847656 L 249.074219 514.84375 L 249.078125 514.839844 L 249.078125 514.835938 L 249.082031 514.835938 L 249.082031 514.832031 L 249.085938 514.832031 L 249.085938 514.828125 L 249.089844 514.828125 L 249.089844 514.824219 L 249.09375 514.824219 L 249.09375 514.820312 L 249.097656 514.816406 L 249.101562 514.816406 L 249.101562 514.8125 L 249.105469 514.8125 L 249.105469 514.808594 L 249.109375 514.808594 L 249.109375 514.804688 L 249.113281 514.804688 L 249.117188 514.800781 L 249.886719 514.296875 C 249.785156 514.242188 249.675781 514.210938 249.570312 514.207031 C 249.453125 514.203125 249.332031 514.226562 249.207031 514.28125 C 249.195312 514.285156 249.183594 514.289062 249.171875 514.289062 C 248.96875 514.324219 248.78125 514.320312 248.609375 514.273438 C 248.472656 514.238281 248.347656 514.175781 248.234375 514.089844 C 248.058594 514.25 247.917969 514.445312 247.816406 514.671875 C 247.710938 514.910156 247.648438 515.183594 247.628906 515.492188 L 247.941406 515.664062 L 248.199219 515.800781 L 248.199219 515.804688 C 248.210938 515.808594 248.222656 515.816406 248.234375 515.828125 L 248.414062 516.015625 L 248.453125 515.9375 C 248.453125 515.929688 248.457031 515.925781 248.460938 515.921875 L 248.46875 515.90625 L 248.46875 515.902344 L 248.472656 515.902344 L 248.472656 515.898438 L 248.476562 515.894531 L 248.476562 515.890625 L 248.480469 515.890625 L 248.480469 515.886719 L 248.484375 515.882812 L 248.484375 515.878906 L 248.488281 515.878906 L 248.488281 515.875 L 248.496094 515.867188 L 248.496094 515.863281 L 248.5 515.863281 C 248.554688 515.789062 248.625 515.742188 248.703125 515.71875 C 248.804688 515.6875 248.914062 515.695312 249.007812 515.753906 C 249.015625 515.753906 249.019531 515.757812 249.027344 515.761719 C 249.113281 515.820312 249.175781 515.90625 249.207031 516.003906 C 249.300781 515.980469 249.40625 515.992188 249.5 516.050781 C 249.589844 516.105469 249.65625 516.195312 249.6875 516.292969 C 249.777344 516.273438 249.871094 516.285156 249.957031 516.335938 L 249.957031 516.339844 C 250.042969 516.390625 250.105469 516.476562 250.132812 516.570312 C 250.226562 516.550781 250.324219 516.566406 250.414062 516.621094 C 250.46875 516.652344 250.511719 516.695312 250.546875 516.746094 L 250.851562 516.960938 C 250.855469 516.960938 250.859375 516.960938 250.859375 516.964844 C 250.875 516.972656 250.886719 516.984375 250.894531 516.992188 L 250.984375 517.054688 C 250.988281 517.054688 250.992188 517.058594 250.996094 517.0625 C 251.019531 517.074219 251.042969 517.078125 251.066406 517.074219 C 251.089844 517.066406 251.109375 517.054688 251.125 517.03125 C 251.128906 517.027344 251.128906 517.023438 251.132812 517.019531 C 251.144531 516.996094 251.148438 516.96875 251.140625 516.945312 C 251.136719 516.917969 251.121094 516.894531 251.097656 516.875 L 251 516.808594 L 250.863281 516.710938 C 250.859375 516.710938 250.855469 516.707031 250.855469 516.707031 C 250.796875 516.664062 250.730469 516.621094 250.664062 516.574219 C 250.640625 516.558594 250.726562 516.617188 250.5 516.460938 C 250.433594 516.414062 250.417969 516.324219 250.457031 516.253906 C 250.496094 516.1875 250.582031 516.164062 250.644531 516.210938 C 250.761719 516.289062 250.675781 516.230469 250.8125 516.324219 C 250.898438 516.382812 250.988281 516.445312 251.113281 516.53125 L 251.117188 516.539062 L 251.132812 516.546875 L 251.148438 516.558594 L 251.28125 516.652344 L 251.289062 516.65625 C 251.320312 516.675781 251.355469 516.679688 251.386719 516.671875 C 251.421875 516.664062 251.453125 516.640625 251.476562 516.605469 C 251.496094 516.570312 251.5 516.53125 251.492188 516.492188 C 251.484375 516.453125 251.464844 516.417969 251.433594 516.398438 L 251.433594 516.394531 L 251.433594 516.398438 L 251.253906 516.269531 C 251.25 516.269531 251.246094 516.269531 251.246094 516.265625 L 251.191406 516.230469 C 251.183594 516.222656 251.179688 516.21875 251.175781 516.214844 L 251.164062 516.207031 L 250.988281 516.085938 C 250.921875 516.039062 250.90625 515.949219 250.945312 515.878906 C 250.988281 515.8125 251.070312 515.789062 251.136719 515.835938 L 251.316406 515.960938 C 251.320312 515.960938 251.320312 515.964844 251.324219 515.964844 L 251.367188 515.996094 C 251.371094 516 251.375 516 251.375 516.003906 C 251.386719 516.007812 251.390625 516.011719 251.394531 516.015625 L 251.40625 516.023438 L 251.582031 516.144531 L 251.582031 516.148438 L 251.648438 516.195312 C 251.679688 516.214844 251.71875 516.222656 251.753906 516.214844 C 251.789062 516.207031 251.820312 516.183594 251.839844 516.148438 L 251.84375 516.144531 C 251.855469 516.121094 251.863281 516.097656 251.863281 516.074219 C 251.863281 516.058594 251.863281 516.046875 251.859375 516.03125 Z M 248.566406 516.328125 L 248.515625 516.421875 C 248.496094 516.460938 248.492188 516.5 248.503906 516.539062 C 248.511719 516.574219 248.535156 516.609375 248.566406 516.628906 L 248.570312 516.628906 C 248.601562 516.648438 248.640625 516.652344 248.675781 516.640625 C 248.703125 516.632812 248.726562 516.613281 248.746094 516.589844 L 248.816406 516.453125 C 248.820312 516.445312 248.824219 516.441406 248.828125 516.433594 C 248.828125 516.429688 248.832031 516.425781 248.832031 516.421875 L 248.9375 516.222656 C 248.957031 516.1875 248.960938 516.144531 248.949219 516.109375 C 248.941406 516.070312 248.917969 516.039062 248.890625 516.019531 C 248.886719 516.019531 248.882812 516.015625 248.878906 516.015625 C 248.855469 516 248.828125 515.996094 248.804688 516 L 248.800781 516 C 248.789062 516 248.78125 516.003906 248.769531 516.007812 L 248.761719 516.007812 L 248.761719 516.011719 L 248.753906 516.011719 L 248.753906 516.015625 L 248.75 516.015625 C 248.734375 516.027344 248.71875 516.039062 248.707031 516.050781 L 248.707031 516.054688 L 248.703125 516.058594 L 248.703125 516.0625 L 248.699219 516.066406 L 248.699219 516.070312 L 248.695312 516.070312 L 248.695312 516.074219 Z M 249.175781 516.367188 L 248.996094 516.714844 C 248.992188 516.726562 248.984375 516.738281 248.976562 516.75 L 248.875 516.945312 C 248.859375 516.980469 248.855469 517.023438 248.863281 517.058594 C 248.875 517.09375 248.894531 517.128906 248.925781 517.148438 C 248.929688 517.148438 248.929688 517.152344 248.933594 517.152344 C 248.964844 517.171875 249.003906 517.175781 249.035156 517.164062 C 249.070312 517.152344 249.101562 517.128906 249.117188 517.09375 L 249.222656 516.890625 C 249.226562 516.882812 249.230469 516.878906 249.234375 516.875 L 249.234375 516.871094 L 249.238281 516.863281 L 249.320312 516.707031 L 249.414062 516.523438 C 249.417969 516.519531 249.417969 516.515625 249.421875 516.511719 C 249.4375 516.476562 249.441406 516.4375 249.429688 516.402344 C 249.421875 516.363281 249.402344 516.332031 249.371094 516.3125 C 249.367188 516.3125 249.363281 516.308594 249.359375 516.308594 C 249.328125 516.289062 249.292969 516.285156 249.261719 516.296875 C 249.226562 516.308594 249.195312 516.332031 249.175781 516.367188 Z M 247.351562 515.515625 C 247.371094 515.152344 247.445312 514.824219 247.570312 514.542969 C 247.695312 514.265625 247.867188 514.03125 248.085938 513.835938 L 247.792969 513.652344 C 247.378906 514.128906 247.140625 514.703125 247.074219 515.375 L 247.34375 515.527344 Z M 249.5625 516.847656 L 249.558594 516.851562 L 249.476562 517.007812 L 249.394531 517.171875 C 249.378906 517.199219 249.378906 517.234375 249.386719 517.265625 C 249.390625 517.292969 249.410156 517.320312 249.433594 517.335938 C 249.4375 517.335938 249.441406 517.339844 249.441406 517.339844 C 249.46875 517.355469 249.5 517.355469 249.523438 517.347656 C 249.554688 517.339844 249.578125 517.320312 249.59375 517.289062 L 249.6875 517.105469 C 249.691406 517.101562 249.695312 517.09375 249.699219 517.089844 L 249.703125 517.082031 L 249.851562 516.792969 L 249.867188 516.765625 C 249.882812 516.738281 249.882812 516.703125 249.875 516.671875 C 249.867188 516.644531 249.851562 516.617188 249.828125 516.601562 C 249.824219 516.597656 249.820312 516.597656 249.816406 516.59375 C 249.792969 516.582031 249.761719 516.578125 249.734375 516.585938 C 249.707031 516.59375 249.683594 516.617188 249.667969 516.644531 L 249.574219 516.828125 C 249.570312 516.835938 249.566406 516.839844 249.5625 516.847656 Z M 250.089844 516.9375 L 249.941406 517.226562 L 249.910156 517.285156 C 249.894531 517.320312 249.890625 517.363281 249.898438 517.402344 C 249.910156 517.4375 249.933594 517.472656 249.964844 517.492188 C 250 517.511719 250.035156 517.515625 250.070312 517.503906 C 250.105469 517.492188 250.136719 517.46875 250.152344 517.433594 L 250.222656 517.296875 L 250.226562 517.292969 L 250.335938 517.085938 L 250.335938 517.078125 L 250.339844 517.078125 L 250.339844 517.074219 C 250.339844 517.070312 250.34375 517.066406 250.34375 517.0625 L 250.34375 517.058594 C 250.34375 517.058594 250.347656 517.054688 250.347656 517.050781 C 250.347656 517.046875 250.347656 517.042969 250.347656 517.039062 C 250.351562 517.023438 250.351562 517.007812 250.351562 516.992188 L 250.351562 516.988281 C 250.347656 516.980469 250.347656 516.976562 250.347656 516.96875 C 250.335938 516.933594 250.3125 516.898438 250.28125 516.878906 C 250.246094 516.859375 250.210938 516.855469 250.175781 516.867188 C 250.140625 516.875 250.109375 516.902344 250.089844 516.9375 Z M 250.574219 517.230469 L 250.519531 517.335938 L 250.605469 517.398438 C 250.613281 517.402344 250.625 517.410156 250.636719 517.410156 C 250.648438 517.414062 250.664062 517.414062 250.679688 517.410156 C 250.703125 517.40625 250.726562 517.390625 250.742188 517.363281 L 250.742188 517.359375 L 250.746094 517.355469 C 250.757812 517.332031 250.761719 517.308594 250.753906 517.28125 C 250.75 517.261719 250.742188 517.246094 250.730469 517.230469 C 250.722656 517.226562 250.714844 517.21875 250.710938 517.214844 L 250.707031 517.210938 L 250.609375 517.140625 L 250.609375 517.144531 L 250.605469 517.144531 L 250.605469 517.15625 L 250.601562 517.15625 L 250.601562 517.167969 L 250.597656 517.171875 L 250.597656 517.179688 L 250.59375 517.179688 L 250.59375 517.1875 L 250.589844 517.195312 L 250.589844 517.199219 L 250.585938 517.199219 L 250.585938 517.207031 L 250.582031 517.207031 L 250.582031 517.210938 L 250.578125 517.222656 L 250.574219 517.226562 Z M 250.574219 517.230469 " fill-opacity="1" fill-rule="evenodd"/></g><path fill="#000000" d="M 295.019531 359.035156 C 288.425781 359.035156 281.980469 357.128906 276.414062 353.46875 C 268.796875 348.339844 263.523438 340.285156 261.914062 331.203125 C 260.300781 322.121094 262.644531 312.746094 268.214844 305.421875 L 303.222656 258.984375 C 311.71875 247.707031 323.730469 239.355469 337.207031 235.546875 C 368.113281 226.613281 410.300781 220.753906 435.9375 243.605469 C 442.382812 249.316406 452.195312 251.074219 462.449219 252.980469 C 470.359375 254.445312 478.710938 255.910156 486.472656 259.277344 C 490.28125 261.035156 494.09375 262.792969 497.753906 264.550781 C 497.902344 264.550781 497.902344 264.699219 498.046875 264.699219 C 502.882812 267.042969 507.863281 269.679688 512.695312 272.460938 C 519.433594 276.269531 527.636719 277.148438 535.109375 275.097656 C 535.253906 275.097656 535.253906 275.097656 535.402344 275.097656 C 536.574219 274.804688 537.746094 274.367188 538.917969 273.78125 L 560.449219 264.257812 C 564.84375 262.355469 570.117188 264.257812 572.023438 268.652344 C 573.925781 273.046875 572.023438 278.320312 567.628906 280.226562 L 546.09375 289.746094 C 544.042969 290.625 541.992188 291.359375 539.941406 291.945312 C 539.792969 291.945312 539.792969 291.945312 539.648438 291.945312 C 527.78125 295.3125 514.746094 293.703125 504.050781 287.695312 C 499.511719 285.207031 494.96875 282.714844 490.574219 280.519531 C 490.429688 280.519531 490.429688 280.371094 490.28125 280.371094 C 486.765625 278.613281 483.105469 277.003906 479.441406 275.390625 C 473.582031 272.753906 466.699219 271.582031 459.375 270.265625 C 447.070312 268.066406 434.324219 265.722656 424.21875 256.640625 C 403.5625 238.183594 363.867188 245.949219 342.039062 252.394531 C 332.226562 255.175781 323.4375 261.328125 317.136719 269.53125 L 282.128906 315.96875 C 279.492188 319.484375 278.464844 323.730469 279.199219 328.125 C 279.929688 332.519531 282.421875 336.183594 286.082031 338.671875 C 288.71875 340.429688 291.796875 341.308594 295.019531 341.308594 C 298.828125 341.308594 302.488281 339.992188 305.417969 337.5 L 317.429688 327.394531 C 337.792969 310.109375 362.402344 297.511719 388.914062 290.773438 L 389.5 290.625 C 389.792969 290.480469 390.085938 290.480469 390.378906 290.332031 C 390.378906 290.332031 390.527344 290.332031 390.527344 290.332031 C 413.085938 284.472656 419.96875 278.027344 420.410156 275.539062 C 421.289062 270.703125 425.828125 267.628906 430.515625 268.359375 C 435.351562 269.238281 438.425781 273.78125 437.695312 278.46875 C 435.496094 290.917969 421.433594 300.441406 394.773438 307.324219 C 394.628906 307.324219 394.628906 307.324219 394.480469 307.324219 L 394.042969 307.617188 C 393.75 307.765625 393.457031 307.765625 393.164062 307.910156 C 369.433594 313.917969 347.167969 325.339844 328.855469 340.871094 L 316.84375 350.976562 C 310.695312 356.105469 303.074219 359.035156 295.019531 359.035156 Z M 295.019531 359.035156 " fill-opacity="1" fill-rule="nonzero"/><path fill="#000000" d="M 529.539062 495.847656 C 521.628906 495.847656 514.160156 492.773438 508.445312 487.355469 C 508.445312 487.355469 508.445312 487.355469 508.300781 487.207031 C 508.152344 487.058594 508.152344 487.058594 508.007812 486.914062 L 423.191406 402.539062 C 419.824219 399.167969 419.675781 393.601562 423.191406 390.085938 C 426.5625 386.570312 432.128906 386.570312 435.644531 390.085938 L 520.3125 474.316406 C 520.3125 474.316406 520.3125 474.316406 520.457031 474.460938 C 520.457031 474.460938 520.605469 474.609375 520.605469 474.609375 C 522.949219 476.953125 526.171875 478.269531 529.539062 478.269531 C 532.324219 478.269531 534.960938 477.390625 537.304688 475.78125 C 540.234375 473.582031 542.136719 470.214844 542.429688 466.550781 C 542.722656 462.890625 541.40625 459.375 538.769531 456.59375 L 441.648438 360.058594 C 441.503906 359.914062 441.355469 359.914062 441.355469 359.765625 L 386.570312 305.273438 C 383.054688 301.90625 383.054688 296.339844 386.570312 292.824219 C 389.941406 289.308594 395.507812 289.308594 399.023438 292.824219 L 453.515625 347.023438 C 453.660156 347.167969 453.808594 347.167969 453.808594 347.316406 L 551.222656 444.285156 C 557.519531 450.585938 560.742188 459.082031 560.011719 467.871094 C 559.425781 476.660156 555.03125 484.714844 547.851562 489.988281 C 542.429688 493.800781 536.132812 495.847656 529.539062 495.847656 Z M 529.539062 495.847656 " fill-opacity="1" fill-rule="nonzero"/><path fill="#000000" d="M 491.308594 526.171875 C 483.984375 526.171875 476.511719 523.679688 470.652344 519.285156 C 469.480469 518.40625 468.164062 517.382812 467.136719 516.210938 L 394.628906 444.140625 C 391.257812 440.769531 391.113281 435.203125 394.628906 431.6875 C 397.996094 428.171875 403.5625 428.171875 407.078125 431.6875 L 479.441406 503.613281 C 480.027344 504.199219 480.613281 504.636719 481.199219 505.222656 C 484.128906 507.421875 487.644531 508.59375 491.308594 508.59375 C 495.410156 508.59375 499.511719 507.128906 502.585938 504.34375 C 508.007812 499.511719 509.617188 491.453125 506.542969 484.863281 C 504.492188 480.46875 506.25 475.195312 510.644531 473.144531 C 515.039062 471.09375 520.3125 472.851562 522.363281 477.246094 C 528.808594 490.722656 525.585938 507.273438 514.304688 517.382812 C 508.007812 522.949219 499.804688 526.171875 491.308594 526.171875 Z M 491.308594 526.171875 " fill-opacity="1" fill-rule="nonzero"/><path fill="#000000" d="M 456.152344 551.660156 C 448.535156 551.660156 441.210938 548.878906 435.496094 543.75 C 435.351562 543.605469 435.351562 543.605469 435.203125 543.457031 L 383.054688 496.289062 C 382.910156 496.140625 382.910156 496.140625 382.761719 495.996094 C 379.394531 492.625 379.394531 487.058594 382.761719 483.542969 C 386.132812 480.175781 391.550781 480.175781 394.921875 483.398438 L 446.628906 530.125 C 446.921875 530.273438 447.070312 530.566406 447.214844 530.710938 L 447.363281 530.859375 C 449.707031 532.910156 452.78125 534.082031 456.003906 534.082031 C 459.226562 534.082031 462.304688 532.910156 464.792969 530.710938 C 469.042969 526.902344 470.214844 520.898438 467.871094 515.769531 C 465.820312 511.375 467.722656 506.101562 472.117188 504.050781 C 476.511719 502 481.785156 503.90625 483.835938 508.300781 C 489.402344 520.457031 486.472656 534.667969 476.511719 543.75 C 470.945312 549.023438 463.621094 551.660156 456.152344 551.660156 Z M 456.152344 551.660156 " fill-opacity="1" fill-rule="nonzero"/><path fill="#000000" d="M 420.554688 574.65625 C 412.9375 574.65625 405.613281 571.875 399.902344 566.746094 L 360.351562 531.003906 C 356.6875 527.78125 356.542969 522.214844 359.765625 518.554688 C 362.988281 514.890625 368.554688 514.746094 372.214844 517.96875 L 411.765625 553.710938 C 414.109375 555.90625 417.332031 557.078125 420.554688 557.078125 C 423.78125 557.078125 426.855469 555.90625 429.34375 553.710938 C 433.152344 550.34375 434.472656 545.070312 433.007812 540.234375 C 432.570312 539.207031 432.421875 538.183594 432.421875 537.011719 C 432.421875 532.175781 436.378906 528.222656 441.210938 528.222656 C 445.019531 528.222656 448.242188 530.566406 449.5625 534.082031 C 453.660156 545.652344 450.292969 558.542969 441.210938 566.746094 C 435.351562 571.875 428.027344 574.65625 420.554688 574.65625 Z M 420.554688 574.65625 " fill-opacity="1" fill-rule="nonzero"/><path fill="#000000" d="M 223.679688 285.9375 C 206.980469 285.9375 190.28125 282.859375 174.609375 276.855469 C 170.066406 275.097656 167.722656 270.117188 169.480469 265.578125 C 171.238281 261.035156 176.21875 258.691406 180.761719 260.449219 C 199.21875 267.480469 219.140625 269.824219 238.621094 267.335938 C 238.621094 267.335938 238.769531 267.335938 238.769531 267.335938 C 245.507812 266.453125 252.101562 264.988281 258.542969 263.085938 C 259.425781 262.792969 260.300781 262.648438 261.179688 262.648438 C 266.015625 262.648438 269.96875 266.601562 269.96875 271.4375 C 269.96875 275.539062 267.1875 278.90625 263.378906 279.933594 C 256.054688 282.128906 248.582031 283.742188 240.820312 284.765625 C 240.820312 284.765625 240.671875 284.765625 240.671875 284.765625 C 235.105469 285.644531 229.394531 285.9375 223.679688 285.9375 Z M 223.679688 285.9375 " fill-opacity="1" fill-rule="nonzero"/><path fill="#000000" d="M 546.238281 460.546875 C 542.578125 460.546875 539.207031 458.347656 538.035156 454.6875 C 536.425781 450.144531 538.769531 445.019531 543.308594 443.40625 C 543.894531 443.261719 599.707031 422.898438 628.710938 389.0625 C 631.933594 385.398438 637.351562 384.960938 641.160156 388.183594 C 644.824219 391.40625 645.261719 396.824219 642.039062 400.632812 C 609.960938 437.988281 551.804688 459.082031 549.316406 459.960938 C 548.144531 460.398438 547.265625 460.546875 546.238281 460.546875 Z M 546.238281 460.546875 " fill-opacity="1" fill-rule="nonzero"/><path fill="#000000" d="M 674.558594 405.027344 C 648.484375 405.027344 623.144531 391.550781 609.226562 367.527344 L 562.792969 287.546875 C 552.683594 270.117188 549.902344 249.753906 555.175781 230.125 C 560.449219 210.644531 572.898438 194.238281 590.476562 184.277344 C 594.726562 181.933594 600 183.25 602.488281 187.5 L 715.867188 382.761719 C 717.039062 384.8125 717.332031 387.15625 716.746094 389.5 C 716.160156 391.699219 714.695312 393.75 712.644531 394.921875 L 712.058594 395.214844 C 700.195312 401.804688 687.304688 405.027344 674.558594 405.027344 Z M 591.941406 204.347656 C 582.273438 211.964844 575.390625 222.507812 572.167969 234.667969 C 568.210938 249.609375 570.265625 265.28125 578.027344 278.613281 L 624.460938 358.59375 C 638.964844 383.640625 669.726562 393.75 695.945312 383.347656 Z M 591.941406 204.347656 " fill-opacity="1" fill-rule="nonzero"/><path fill="#000000" d="M 86.71875 427.585938 C 80.859375 427.585938 75 426.417969 69.433594 423.777344 L 38.085938 409.277344 C 36.035156 408.25 34.277344 406.492188 33.542969 404.296875 C 32.8125 402.097656 32.8125 399.609375 33.835938 397.558594 L 129.34375 193.066406 C 131.394531 188.671875 136.667969 186.765625 141.0625 188.820312 L 172.117188 203.175781 C 182.226562 207.863281 189.84375 216.066406 193.652344 226.464844 C 197.460938 236.867188 197.019531 248.144531 192.332031 258.25 L 124.511719 403.710938 C 117.332031 418.796875 102.394531 427.585938 86.71875 427.585938 Z M 53.613281 397.121094 L 76.902344 407.8125 C 88.769531 413.234375 102.980469 408.105469 108.542969 396.238281 L 176.367188 250.78125 C 179.003906 245.070312 179.296875 238.476562 177.097656 232.472656 C 174.902344 226.464844 170.507812 221.632812 164.648438 218.996094 L 141.503906 208.300781 Z M 53.613281 397.121094 " fill-opacity="1" fill-rule="nonzero"/><path fill="#000000" d="M 195.996094 483.546875 C 189.988281 483.546875 183.984375 481.933594 178.710938 478.417969 L 173 474.757812 C 159.082031 465.671875 154.394531 447.949219 162.011719 433.300781 C 162.453125 432.570312 162.890625 431.691406 163.476562 430.664062 L 206.980469 364.015625 C 216.503906 349.367188 236.425781 345.117188 251.21875 354.640625 C 262.355469 361.816406 268.945312 373.976562 268.945312 387.011719 C 268.945312 394.484375 266.75 401.808594 262.644531 408.105469 L 222.804688 469.042969 C 216.648438 478.417969 206.394531 483.546875 195.996094 483.546875 Z M 233.789062 367.238281 C 229.101562 367.238281 224.414062 369.582031 221.628906 373.683594 L 178.125 440.332031 C 177.832031 440.769531 177.683594 441.066406 177.394531 441.503906 C 173.878906 448.09375 176.074219 456.003906 182.226562 460.109375 L 187.9375 463.769531 C 194.679688 468.015625 203.613281 466.261719 207.863281 459.667969 L 247.707031 398.730469 C 249.902344 395.363281 251.074219 391.40625 251.074219 387.304688 C 251.074219 380.128906 247.414062 373.535156 241.40625 369.582031 C 239.207031 367.96875 236.425781 367.238281 233.789062 367.238281 Z M 233.789062 367.238281 " fill-opacity="1" fill-rule="nonzero"/><path fill="#000000" d="M 221.628906 538.328125 C 215.039062 538.328125 208.445312 536.570312 202.441406 532.617188 C 194.53125 527.492188 189.109375 519.582031 187.058594 510.351562 C 185.15625 501.125 186.914062 491.746094 192.039062 483.835938 L 249.753906 395.507812 C 260.300781 379.246094 282.273438 374.5625 298.679688 385.253906 C 303.367188 388.183594 307.03125 392.140625 309.8125 396.824219 C 313.035156 402.246094 314.792969 408.398438 314.792969 414.84375 C 314.792969 421.582031 312.742188 428.320312 309.082031 434.03125 L 251.21875 522.507812 C 244.335938 532.765625 233.058594 538.328125 221.628906 538.328125 Z M 279.34375 397.265625 C 273.484375 397.265625 267.773438 400.050781 264.402344 405.324219 L 262.5 408.253906 L 206.691406 493.652344 C 204.050781 497.609375 203.175781 502.292969 204.199219 506.835938 C 205.226562 511.378906 207.863281 515.332031 211.964844 517.96875 C 220.167969 523.242188 231.152344 521.046875 236.574219 512.988281 L 294.289062 424.511719 C 296.191406 421.582031 297.21875 418.359375 297.21875 414.992188 C 297.21875 411.769531 296.339844 408.691406 294.726562 406.054688 C 293.261719 403.710938 291.359375 401.660156 289.160156 400.195312 C 286.082031 398.144531 282.714844 397.265625 279.34375 397.265625 Z M 279.34375 397.265625 " fill-opacity="1" fill-rule="nonzero"/><path fill="#000000" d="M 264.695312 569.53125 C 258.105469 569.53125 251.511719 567.773438 245.507812 563.816406 C 237.597656 558.691406 232.175781 550.78125 230.125 541.550781 C 228.222656 532.324219 229.980469 522.949219 235.105469 515.039062 L 236.570312 512.839844 L 294.433594 424.363281 C 304.980469 408.105469 326.953125 403.417969 343.359375 413.964844 C 353.464844 420.554688 359.472656 431.542969 359.472656 443.554688 C 359.472656 450.4375 357.421875 457.03125 353.757812 462.742188 L 294.433594 553.5625 C 287.695312 563.964844 276.269531 569.53125 264.695312 569.53125 Z M 324.023438 426.121094 C 318.164062 426.121094 312.449219 428.90625 309.082031 434.179688 L 249.902344 524.851562 C 247.265625 528.808594 246.386719 533.496094 247.414062 538.035156 C 248.4375 542.722656 251.074219 546.679688 255.175781 549.167969 C 263.378906 554.441406 274.511719 552.097656 279.785156 544.042969 L 338.964844 453.367188 C 340.871094 450.4375 341.894531 447.214844 341.894531 443.847656 C 341.894531 437.839844 338.820312 432.277344 333.839844 429.050781 C 330.613281 427 327.246094 426.121094 324.023438 426.121094 Z M 324.023438 426.121094 " fill-opacity="1" fill-rule="nonzero"/><path fill="#000000" d="M 301.90625 609.667969 C 295.3125 609.667969 288.722656 607.910156 282.714844 603.957031 C 274.804688 598.828125 269.238281 590.917969 267.332031 581.691406 C 265.429688 572.460938 267.1875 563.085938 272.3125 555.175781 L 338.964844 453.222656 C 349.65625 436.960938 371.484375 432.277344 387.890625 442.820312 C 397.996094 449.265625 404.003906 460.398438 404.003906 472.410156 C 404.003906 479.152344 402.097656 485.890625 398.289062 491.601562 L 373.679688 529.25 L 331.640625 593.703125 C 324.753906 604.101562 313.476562 609.667969 301.90625 609.667969 Z M 368.554688 454.832031 C 362.695312 454.832031 356.980469 457.617188 353.613281 462.890625 L 286.960938 564.84375 C 284.324219 568.800781 283.445312 573.484375 284.472656 578.027344 C 285.496094 582.714844 288.132812 586.667969 292.234375 589.160156 C 300.441406 594.433594 311.570312 592.089844 316.84375 583.886719 L 383.496094 481.933594 C 385.398438 479.003906 386.425781 475.78125 386.425781 472.410156 C 386.425781 466.40625 383.347656 460.839844 378.367188 457.617188 C 375.292969 455.859375 371.921875 454.832031 368.554688 454.832031 Z M 368.554688 454.832031 " fill-opacity="1" fill-rule="nonzero"/><path fill="#000000" d="M 169.773438 446.191406 C 166.113281 446.191406 162.742188 443.996094 161.570312 440.332031 C 156.738281 426.855469 129.636719 413.527344 113.816406 408.398438 C 109.277344 406.933594 106.640625 401.953125 108.25 397.265625 C 109.714844 392.726562 114.695312 390.089844 119.382812 391.699219 C 124.363281 393.3125 168.894531 408.546875 178.269531 434.472656 C 179.882812 439.015625 177.539062 444.140625 172.996094 445.753906 C 171.679688 446.042969 170.652344 446.191406 169.773438 446.191406 Z M 169.773438 446.191406 " fill-opacity="1" fill-rule="nonzero"/><path fill="#000000" d="M 447.363281 362.253906 C 442.527344 362.253906 438.574219 358.300781 438.574219 353.464844 C 438.574219 348.632812 442.527344 344.675781 447.363281 344.675781 C 452.195312 344.675781 456.152344 348.632812 456.152344 353.464844 C 456.152344 358.300781 452.195312 362.253906 447.363281 362.253906 Z M 447.363281 362.253906 " fill-opacity="1" fill-rule="nonzero"/><path fill="#000000" d="M 239.792969 284.914062 C 234.960938 284.914062 231.003906 280.957031 231.003906 276.125 C 231.003906 271.289062 234.960938 267.335938 239.792969 267.335938 C 244.628906 267.335938 248.582031 271.289062 248.582031 276.125 C 248.582031 280.957031 244.628906 284.914062 239.792969 284.914062 Z M 239.792969 284.914062 " fill-opacity="1" fill-rule="nonzero"/><path fill="#000000" d="M 289.011719 301.171875 C 287.109375 301.171875 285.351562 300.585938 283.738281 299.414062 L 255.90625 278.613281 C 251.953125 275.683594 251.21875 270.265625 254.148438 266.308594 C 257.078125 262.355469 262.5 261.621094 266.453125 264.550781 L 294.285156 285.351562 C 298.242188 288.28125 298.972656 293.703125 296.042969 297.65625 C 294.285156 300 291.652344 301.171875 289.011719 301.171875 Z M 289.011719 301.171875 " fill-opacity="1" fill-rule="nonzero"/><path fill="#000000" d="M 469.921875 183.105469 C 468.457031 183.105469 466.84375 182.667969 465.378906 181.933594 C 461.277344 179.445312 459.8125 174.023438 462.304688 169.921875 L 491.601562 120.851562 C 494.089844 116.75 499.511719 115.285156 503.613281 117.773438 C 507.714844 120.265625 509.179688 125.683594 506.6875 129.785156 L 477.390625 178.859375 C 475.78125 181.640625 472.851562 183.105469 469.921875 183.105469 Z M 469.921875 183.105469 " fill-opacity="1" fill-rule="nonzero"/><path fill="#000000" d="M 366.355469 184.277344 C 361.523438 184.277344 357.566406 180.324219 357.566406 175.488281 L 357.566406 124.367188 C 357.566406 119.53125 361.523438 115.578125 366.355469 115.578125 C 371.191406 115.578125 375.144531 119.53125 375.144531 124.367188 L 375.144531 175.488281 C 375.144531 180.324219 371.191406 184.277344 366.355469 184.277344 Z M 366.355469 184.277344 " fill-opacity="1" fill-rule="nonzero"/><path fill="#000000" d="M 263.230469 183.105469 C 260.300781 183.105469 257.371094 181.640625 255.761719 178.859375 L 226.023438 129.933594 C 223.535156 125.832031 224.851562 120.410156 228.953125 117.921875 C 233.054688 115.429688 238.476562 116.75 240.964844 120.851562 L 270.703125 169.777344 C 273.191406 173.878906 271.875 179.296875 267.773438 181.789062 C 266.308594 182.667969 264.695312 183.105469 263.230469 183.105469 Z M 263.230469 183.105469 " fill-opacity="1" fill-rule="nonzero"/><path fill="#000000" d="M 375 750 C 274.804688 750 180.613281 711.035156 109.863281 640.136719 C 38.964844 569.238281 0 475.195312 0 375 C 0 274.804688 38.964844 180.617188 109.863281 109.863281 C 180.761719 39.113281 274.804688 0 375 0 C 475.195312 0 569.382812 38.964844 640.136719 109.863281 C 711.035156 180.761719 750 274.804688 750 375 C 750 475.195312 711.035156 569.386719 640.136719 640.136719 C 569.382812 711.035156 475.195312 750 375 750 Z M 375 17.578125 C 177.976562 17.578125 17.578125 177.980469 17.578125 375 C 17.578125 572.019531 177.976562 732.421875 375 732.421875 C 572.019531 732.421875 732.421875 572.019531 732.421875 375 C 732.421875 177.980469 572.019531 17.578125 375 17.578125 Z M 375 17.578125 " fill-opacity="1" fill-rule="nonzero"/><path fill="#000000" d="M 92.140625 390.820312 C 81.007812 390.820312 71.921875 381.738281 71.921875 370.605469 C 71.921875 359.472656 81.003906 350.390625 92.140625 350.390625 C 103.273438 350.390625 112.355469 359.472656 112.355469 370.605469 C 112.207031 381.738281 103.269531 390.820312 92.140625 390.820312 Z M 92.140625 367.96875 C 90.675781 367.96875 89.5 369.140625 89.5 370.605469 C 89.5 372.070312 90.675781 373.242188 92.140625 373.242188 C 93.605469 373.242188 94.777344 372.070312 94.777344 370.605469 C 94.777344 369.140625 93.605469 367.96875 92.140625 367.96875 Z M 92.140625 367.96875 " fill-opacity="1" fill-rule="nonzero"/><path fill="#000000" d="M 595.898438 280.371094 C 584.765625 280.371094 575.683594 271.289062 575.683594 260.15625 C 575.683594 249.023438 584.765625 239.941406 595.898438 239.941406 C 607.03125 239.941406 616.113281 249.023438 616.113281 260.15625 C 616.113281 271.289062 607.03125 280.371094 595.898438 280.371094 Z M 595.898438 257.664062 C 594.433594 257.664062 593.261719 258.839844 593.261719 260.304688 C 593.261719 261.769531 594.433594 262.941406 595.898438 262.941406 C 597.363281 262.941406 598.535156 261.769531 598.535156 260.304688 C 598.535156 258.839844 597.214844 257.664062 595.898438 257.664062 Z M 595.898438 257.664062 " fill-opacity="1" fill-rule="nonzero"/></svg>