<svg xmlns="http://www.w3.org/2000/svg" xmlns:xlink="http://www.w3.org/1999/xlink" width="1000" zoomAndPan="magnify" viewBox="0 0 750 374.999991" height="500" preserveAspectRatio="xMidYMid meet" version="1.0"><defs><g/><clipPath id="6ceb406dac"><path d="M 0 84.617188 L 228 84.617188 L 228 311.867188 L 0 311.867188 Z M 0 84.617188 " clip-rule="nonzero"/></clipPath><clipPath id="3e766970e7"><path d="M 255.464844 141.804688 L 699.75 141.804688 L 699.75 254.304688 L 255.464844 254.304688 Z M 255.464844 141.804688 " clip-rule="nonzero"/></clipPath><clipPath id="98c67e0377"><path d="M 272.714844 141.804688 L 682.164062 141.804688 C 686.738281 141.804688 691.125 143.621094 694.359375 146.855469 C 697.59375 150.089844 699.414062 154.476562 699.414062 159.054688 L 699.414062 237.054688 C 699.414062 241.628906 697.59375 246.015625 694.359375 249.25 C 691.125 252.484375 686.738281 254.304688 682.164062 254.304688 L 272.714844 254.304688 C 268.136719 254.304688 263.75 252.484375 260.515625 249.25 C 257.28125 246.015625 255.464844 241.628906 255.464844 237.054688 L 255.464844 159.054688 C 255.464844 154.476562 257.28125 150.089844 260.515625 146.855469 C 263.75 143.621094 268.136719 141.804688 272.714844 141.804688 Z M 272.714844 141.804688 " clip-rule="nonzero"/></clipPath><clipPath id="bad6aab736"><path d="M 0.464844 0.804688 L 444.601562 0.804688 L 444.601562 113.304688 L 0.464844 113.304688 Z M 0.464844 0.804688 " clip-rule="nonzero"/></clipPath><clipPath id="793e1d760e"><path d="M 17.714844 0.804688 L 427.164062 0.804688 C 431.738281 0.804688 436.125 2.621094 439.359375 5.855469 C 442.59375 9.089844 444.414062 13.476562 444.414062 18.054688 L 444.414062 96.054688 C 444.414062 100.628906 442.59375 105.015625 439.359375 108.25 C 436.125 111.484375 431.738281 113.304688 427.164062 113.304688 L 17.714844 113.304688 C 13.136719 113.304688 8.75 111.484375 5.515625 108.25 C 2.28125 105.015625 0.464844 100.628906 0.464844 96.054688 L 0.464844 18.054688 C 0.464844 13.476562 2.28125 9.089844 5.515625 5.855469 C 8.75 2.621094 13.136719 0.804688 17.714844 0.804688 Z M 17.714844 0.804688 " clip-rule="nonzero"/></clipPath><clipPath id="965804fb05"><rect x="0" width="445" y="0" height="114"/></clipPath><clipPath id="5c98b14cde"><rect x="0" width="440" y="0" height="109"/></clipPath></defs><path fill="#185408" d="M 172.5625 115.175781 L 663.773438 115.175781 C 711.140625 115.175781 749.597656 153.628906 749.597656 201 C 749.597656 248.367188 711.144531 286.828125 663.773438 286.828125 L 172.5625 286.828125 Z M 172.5625 115.175781 " fill-opacity="1" fill-rule="nonzero"/><g clip-path="url(#6ceb406dac)"><path fill="#ffffff" d="M 227.261719 198.054688 C 227.261719 199.910156 227.214844 201.765625 227.125 203.617188 C 227.035156 205.472656 226.898438 207.324219 226.714844 209.171875 C 226.53125 211.019531 226.304688 212.859375 226.035156 214.699219 C 225.761719 216.535156 225.445312 218.363281 225.082031 220.183594 C 224.71875 222.003906 224.3125 223.816406 223.863281 225.617188 C 223.410156 227.417969 222.914062 229.207031 222.375 230.980469 C 221.835938 232.757812 221.253906 234.519531 220.628906 236.269531 C 220.003906 238.015625 219.335938 239.75 218.625 241.464844 C 217.914062 243.179688 217.164062 244.875 216.371094 246.554688 C 215.578125 248.230469 214.742188 249.890625 213.867188 251.527344 C 212.992188 253.164062 212.078125 254.777344 211.121094 256.371094 C 210.167969 257.964844 209.175781 259.53125 208.144531 261.074219 C 207.113281 262.617188 206.042969 264.136719 204.9375 265.628906 C 203.832031 267.117188 202.691406 268.582031 201.511719 270.015625 C 200.335938 271.453125 199.121094 272.855469 197.875 274.234375 C 196.628906 275.609375 195.347656 276.953125 194.035156 278.265625 C 192.722656 279.578125 191.378906 280.859375 190.003906 282.105469 C 188.628906 283.351562 187.222656 284.5625 185.789062 285.742188 C 184.351562 286.917969 182.890625 288.0625 181.398438 289.167969 C 179.90625 290.273438 178.390625 291.339844 176.847656 292.371094 C 175.300781 293.402344 173.734375 294.398438 172.140625 295.351562 C 170.550781 296.304688 168.933594 297.21875 167.296875 298.097656 C 165.660156 298.972656 164.003906 299.804688 162.324219 300.597656 C 160.644531 301.394531 158.949219 302.144531 157.234375 302.855469 C 155.519531 303.566406 153.789062 304.234375 152.039062 304.859375 C 150.292969 305.484375 148.53125 306.066406 146.753906 306.605469 C 144.976562 307.144531 143.1875 307.640625 141.386719 308.089844 C 139.585938 308.542969 137.773438 308.949219 135.953125 309.3125 C 134.132812 309.671875 132.304688 309.988281 130.46875 310.261719 C 128.632812 310.535156 126.789062 310.761719 124.941406 310.945312 C 123.09375 311.125 121.246094 311.261719 119.390625 311.355469 C 117.535156 311.445312 115.679688 311.492188 113.824219 311.492188 C 111.96875 311.492188 110.113281 311.445312 108.257812 311.355469 C 106.402344 311.261719 104.550781 311.125 102.703125 310.945312 C 100.859375 310.761719 99.015625 310.535156 97.179688 310.261719 C 95.34375 309.988281 93.515625 309.671875 91.691406 309.3125 C 89.871094 308.949219 88.0625 308.542969 86.261719 308.089844 C 84.460938 307.640625 82.671875 307.144531 80.894531 306.605469 C 79.117188 306.066406 77.355469 305.484375 75.609375 304.859375 C 73.859375 304.234375 72.128906 303.566406 70.414062 302.855469 C 68.699219 302.144531 67 301.394531 65.324219 300.597656 C 63.644531 299.804688 61.988281 298.972656 60.351562 298.097656 C 58.710938 297.21875 57.097656 296.304688 55.503906 295.351562 C 53.914062 294.398438 52.34375 293.402344 50.800781 292.371094 C 49.257812 291.339844 47.742188 290.273438 46.25 289.167969 C 44.757812 288.0625 43.296875 286.917969 41.859375 285.742188 C 40.425781 284.5625 39.019531 283.351562 37.644531 282.105469 C 36.269531 280.859375 34.925781 279.578125 33.613281 278.265625 C 32.296875 276.953125 31.019531 275.609375 29.773438 274.234375 C 28.527344 272.855469 27.3125 271.453125 26.136719 270.015625 C 24.957031 268.582031 23.816406 267.117188 22.710938 265.628906 C 21.605469 264.136719 20.535156 262.617188 19.503906 261.074219 C 18.472656 259.53125 17.480469 257.964844 16.523438 256.371094 C 15.570312 254.777344 14.65625 253.164062 13.78125 251.527344 C 12.90625 249.890625 12.070312 248.230469 11.277344 246.554688 C 10.484375 244.875 9.730469 243.179688 9.019531 241.464844 C 8.3125 239.75 7.644531 238.015625 7.015625 236.269531 C 6.390625 234.519531 5.808594 232.757812 5.269531 230.980469 C 4.730469 229.207031 4.238281 227.417969 3.785156 225.617188 C 3.335938 223.816406 2.929688 222.003906 2.566406 220.183594 C 2.203125 218.363281 1.886719 216.535156 1.613281 214.699219 C 1.339844 212.859375 1.113281 211.019531 0.933594 209.171875 C 0.75 207.324219 0.613281 205.472656 0.523438 203.617188 C 0.433594 201.765625 0.386719 199.910156 0.386719 198.054688 C 0.386719 196.195312 0.433594 194.339844 0.523438 192.488281 C 0.613281 190.632812 0.75 188.78125 0.933594 186.933594 C 1.113281 185.085938 1.339844 183.246094 1.613281 181.40625 C 1.886719 179.570312 2.203125 177.742188 2.566406 175.921875 C 2.929688 174.101562 3.335938 172.289062 3.785156 170.488281 C 4.238281 168.6875 4.730469 166.898438 5.269531 165.125 C 5.808594 163.347656 6.390625 161.585938 7.015625 159.835938 C 7.644531 158.089844 8.3125 156.359375 9.019531 154.640625 C 9.730469 152.925781 10.484375 151.230469 11.277344 149.550781 C 12.070312 147.875 12.90625 146.214844 13.78125 144.578125 C 14.65625 142.941406 15.570312 141.328125 16.523438 139.734375 C 17.480469 138.140625 18.472656 136.574219 19.503906 135.03125 C 20.535156 133.488281 21.605469 131.96875 22.710938 130.476562 C 23.816406 128.988281 24.957031 127.523438 26.136719 126.089844 C 27.3125 124.652344 28.527344 123.25 29.773438 121.871094 C 31.019531 120.496094 32.296875 119.152344 33.613281 117.839844 C 34.925781 116.527344 36.269531 115.246094 37.644531 114 C 39.019531 112.753906 40.425781 111.542969 41.859375 110.363281 C 43.296875 109.1875 44.757812 108.046875 46.25 106.9375 C 47.742188 105.832031 49.257812 104.765625 50.800781 103.734375 C 52.34375 102.703125 53.914062 101.707031 55.503906 100.753906 C 57.097656 99.800781 58.710938 98.886719 60.351562 98.011719 C 61.988281 97.136719 63.644531 96.300781 65.324219 95.507812 C 67 94.714844 68.699219 93.960938 70.414062 93.25 C 72.128906 92.539062 73.859375 91.871094 75.609375 91.246094 C 77.355469 90.621094 79.117188 90.039062 80.894531 89.5 C 82.671875 88.960938 84.460938 88.464844 86.261719 88.015625 C 88.0625 87.5625 89.871094 87.15625 91.691406 86.796875 C 93.515625 86.433594 95.34375 86.117188 97.179688 85.84375 C 99.015625 85.570312 100.859375 85.34375 102.703125 85.160156 C 104.550781 84.980469 106.402344 84.84375 108.257812 84.753906 C 110.113281 84.660156 111.96875 84.617188 113.824219 84.617188 C 115.679688 84.617188 117.535156 84.660156 119.390625 84.753906 C 121.246094 84.84375 123.09375 84.980469 124.941406 85.160156 C 126.789062 85.34375 128.632812 85.570312 130.46875 85.84375 C 132.304688 86.117188 134.132812 86.433594 135.953125 86.796875 C 137.773438 87.15625 139.585938 87.5625 141.386719 88.015625 C 143.1875 88.464844 144.976562 88.960938 146.753906 89.5 C 148.53125 90.039062 150.292969 90.621094 152.039062 91.246094 C 153.789062 91.871094 155.519531 92.539062 157.234375 93.25 C 158.949219 93.960938 160.644531 94.714844 162.324219 95.507812 C 164.003906 96.300781 165.660156 97.136719 167.296875 98.011719 C 168.933594 98.886719 170.550781 99.800781 172.140625 100.753906 C 173.734375 101.707031 175.300781 102.703125 176.847656 103.734375 C 178.390625 104.765625 179.90625 105.832031 181.398438 106.9375 C 182.890625 108.046875 184.351562 109.1875 185.789062 110.363281 C 187.222656 111.542969 188.628906 112.753906 190.003906 114 C 191.378906 115.246094 192.722656 116.527344 194.035156 117.839844 C 195.347656 119.152344 196.628906 120.496094 197.875 121.871094 C 199.121094 123.25 200.335938 124.652344 201.511719 126.089844 C 202.691406 127.523438 203.832031 128.988281 204.9375 130.476562 C 206.042969 131.96875 207.113281 133.488281 208.144531 135.03125 C 209.175781 136.574219 210.167969 138.140625 211.121094 139.734375 C 212.078125 141.328125 212.992188 142.941406 213.867188 144.578125 C 214.742188 146.214844 215.578125 147.875 216.371094 149.550781 C 217.164062 151.230469 217.914062 152.925781 218.625 154.640625 C 219.335938 156.359375 220.003906 158.089844 220.628906 159.835938 C 221.253906 161.585938 221.835938 163.347656 222.375 165.125 C 222.914062 166.898438 223.410156 168.6875 223.863281 170.488281 C 224.3125 172.289062 224.71875 174.101562 225.082031 175.921875 C 225.445312 177.742188 225.761719 179.570312 226.035156 181.40625 C 226.304688 183.246094 226.53125 185.085938 226.714844 186.933594 C 226.898438 188.78125 227.035156 190.632812 227.125 192.488281 C 227.214844 194.339844 227.261719 196.195312 227.261719 198.054688 Z M 227.261719 198.054688 " fill-opacity="1" fill-rule="nonzero"/></g><path fill="#ffffff" d="M 291.886719 227.640625 L 260.566406 227.640625 L 260.566406 176.742188 L 270.222656 176.742188 L 270.222656 219.324219 L 291.886719 219.324219 Z M 291.886719 227.640625 " fill-opacity="1" fill-rule="nonzero"/><path fill="#ffffff" d="M 331.714844 227.640625 L 298.636719 227.640625 L 298.636719 176.742188 L 331.375 176.742188 L 331.375 184.3125 L 307.808594 184.3125 L 307.808594 198.109375 L 326.75 198.109375 L 326.75 205.488281 L 307.808594 205.488281 L 307.808594 219.734375 L 331.710938 219.734375 L 331.710938 227.640625 Z M 331.714844 227.640625 " fill-opacity="1" fill-rule="nonzero"/><path fill="#ffffff" d="M 379.550781 227.640625 L 369.742188 227.640625 L 365.679688 215.523438 L 346.105469 215.523438 L 342.113281 227.640625 L 334.28125 227.640625 L 351.171875 176.742188 L 362.46875 176.742188 L 379.546875 227.640625 Z M 363.222656 208.175781 L 355.800781 185.46875 L 348.378906 208.175781 Z M 363.222656 208.175781 " fill-opacity="1" fill-rule="nonzero"/><path fill="#ffffff" d="M 425.34375 227.640625 L 415.648438 227.640625 L 407.742188 206.722656 L 394.839844 206.722656 L 394.839844 227.640625 L 385.667969 227.640625 L 385.667969 176.742188 L 407.742188 176.742188 C 413.878906 176.742188 418.394531 178.128906 421.277344 180.902344 C 424.160156 183.671875 425.601562 187.257812 425.601562 191.65625 C 425.601562 198.199219 422.546875 202.695312 416.429688 205.15625 L 425.339844 227.640625 Z M 394.84375 199.378906 L 406.253906 199.378906 C 409.558594 199.378906 412.019531 198.683594 413.632812 197.289062 C 415.25 195.898438 416.058594 193.984375 416.058594 191.546875 C 416.058594 189.308594 415.261719 187.5 413.671875 186.121094 C 412.082031 184.738281 409.855469 184.050781 406.996094 184.050781 L 394.839844 184.050781 L 394.839844 199.375 Z M 394.84375 199.378906 " fill-opacity="1" fill-rule="nonzero"/><path fill="#ffffff" d="M 473.1875 227.640625 L 464.277344 227.640625 L 444.960938 195.128906 C 444.664062 194.632812 444.179688 193.820312 443.503906 192.703125 C 443.207031 192.207031 442.746094 191.421875 442.125 190.355469 L 442.125 227.644531 L 434.742188 227.644531 L 434.742188 176.746094 L 444.886719 176.746094 L 462.707031 206.726562 C 462.859375 206.976562 463.941406 208.804688 465.953125 212.207031 L 465.953125 176.746094 L 473.1875 176.746094 L 473.1875 227.644531 Z M 473.1875 227.640625 " fill-opacity="1" fill-rule="nonzero"/><path fill="#ffffff" d="M 553.394531 227.640625 L 544.039062 227.640625 L 544.039062 183.082031 L 529.941406 227.640625 L 525.132812 227.640625 L 510.960938 183.082031 L 510.960938 227.640625 L 503.464844 227.640625 L 503.464844 176.742188 L 517.820312 176.742188 L 528.484375 209.519531 L 538.964844 176.742188 L 553.394531 176.742188 Z M 553.394531 227.640625 " fill-opacity="1" fill-rule="nonzero"/><path fill="#ffffff" d="M 583.375 228.425781 C 576.613281 228.425781 571.347656 225.890625 567.585938 220.820312 C 563.816406 215.75 561.933594 209.484375 561.933594 202.023438 C 561.933594 194.566406 563.9375 188.417969 567.9375 183.433594 C 571.941406 178.453125 577.222656 175.960938 583.785156 175.960938 C 590.347656 175.960938 595.625 178.453125 599.460938 183.433594 C 603.304688 188.417969 605.226562 194.65625 605.226562 202.136719 C 605.226562 209.992188 603.230469 216.335938 599.238281 221.171875 C 595.25 226.007812 589.960938 228.421875 583.375 228.421875 Z M 583.449219 221.042969 C 586.753906 221.042969 589.550781 219.675781 591.839844 216.941406 C 594.125 214.203125 595.273438 209.246094 595.273438 202.0625 C 595.273438 196.222656 594.324219 191.640625 592.4375 188.320312 C 590.546875 185 587.613281 183.34375 583.640625 183.34375 C 575.785156 183.34375 571.855469 189.671875 571.855469 202.324219 C 571.855469 208.464844 572.855469 213.117188 574.855469 216.289062 C 576.855469 219.460938 579.71875 221.042969 583.449219 221.042969 Z M 583.449219 221.042969 " fill-opacity="1" fill-rule="nonzero"/><path fill="#ffffff" d="M 653.441406 227.640625 L 643.742188 227.640625 L 635.835938 206.722656 L 622.9375 206.722656 L 622.9375 227.640625 L 613.765625 227.640625 L 613.765625 176.742188 L 635.835938 176.742188 C 641.976562 176.742188 646.492188 178.128906 649.371094 180.902344 C 652.257812 183.671875 653.695312 187.257812 653.695312 191.65625 C 653.695312 198.199219 650.640625 202.695312 644.523438 205.15625 L 653.4375 227.640625 Z M 622.9375 199.378906 L 634.34375 199.378906 C 637.648438 199.378906 640.109375 198.683594 641.726562 197.289062 C 643.339844 195.898438 644.148438 193.984375 644.148438 191.546875 C 644.148438 189.308594 643.351562 187.5 641.761719 186.121094 C 640.171875 184.738281 637.949219 184.050781 635.089844 184.050781 L 622.933594 184.050781 L 622.933594 199.375 Z M 622.9375 199.378906 " fill-opacity="1" fill-rule="nonzero"/><path fill="#ffffff" d="M 695.910156 227.640625 L 662.835938 227.640625 L 662.835938 176.742188 L 695.574219 176.742188 L 695.574219 184.3125 L 672.007812 184.3125 L 672.007812 198.109375 L 690.949219 198.109375 L 690.949219 205.488281 L 672.007812 205.488281 L 672.007812 219.734375 L 695.90625 219.734375 L 695.90625 227.640625 Z M 695.910156 227.640625 " fill-opacity="1" fill-rule="nonzero"/><path fill="#185408" d="M 58.78125 148.910156 L 81.949219 148.910156 L 132.171875 199.167969 L 81.949219 249.140625 L 58.78125 249.140625 L 108.839844 199.167969 Z M 95.476562 146.964844 L 118.644531 146.964844 L 168.867188 197.222656 L 118.644531 247.195312 L 95.476562 247.195312 L 145.535156 197.222656 Z M 95.476562 146.964844 " fill-opacity="1" fill-rule="nonzero"/><g clip-path="url(#3e766970e7)"><g clip-path="url(#98c67e0377)"><g transform="matrix(1, 0, 0, 1, 255, 141)"><g clip-path="url(#965804fb05)"><g clip-path="url(#bad6aab736)"><g clip-path="url(#793e1d760e)"><path fill="#185408" d="M 0.464844 0.804688 L 444.3125 0.804688 L 444.3125 113.304688 L 0.464844 113.304688 Z M 0.464844 0.804688 " fill-opacity="1" fill-rule="nonzero"/></g></g></g></g></g></g><g transform="matrix(1, 0, 0, 1, 248, 143)"><g clip-path="url(#5c98b14cde)"><g fill="#ffffff" fill-opacity="1"><g transform="translate(0.323616, 85.028972)"><g><path d="M 79.15625 -62.25 L 40.375 0 L 19.75 0 L 5.875 -62.25 L 27.390625 -62.25 L 35.125 -25.96875 L 57.625 -62.25 Z M 79.15625 -62.25 "/></g></g></g><g fill="#ffffff" fill-opacity="1"><g transform="translate(68.883139, 85.028972)"><g><path d="M 30.0625 -46.421875 L 28.640625 -39.125 L 54.96875 -39.125 L 51.9375 -24.015625 L 25.53125 -24.015625 L 23.921875 -15.828125 L 55.140625 -15.828125 L 51.9375 0 L 0.171875 0 L 12.625 -62.25 L 63.234375 -62.25 L 60.03125 -46.421875 Z M 30.0625 -46.421875 "/></g></g></g><g fill="#ffffff" fill-opacity="1"><g transform="translate(128.728358, 85.028972)"><g><path d="M 66.4375 -41.796875 C 66.4375 -36.285156 64.96875 -31.46875 62.03125 -27.34375 C 59.09375 -23.226562 54.957031 -20.160156 49.625 -18.140625 L 60.03125 0 L 38.25 0 L 29.4375 -15.65625 L 24.28125 -15.65625 L 21.171875 0 L 0.171875 0 L 12.625 -62.25 L 40.5625 -62.25 C 48.738281 -62.25 55.09375 -60.457031 59.625 -56.875 C 64.164062 -53.289062 66.4375 -48.265625 66.4375 -41.796875 Z M 45.1875 -39.75 C 45.1875 -43.957031 42.578125 -46.0625 37.359375 -46.0625 L 30.328125 -46.0625 L 27.390625 -31.484375 L 36.015625 -31.484375 C 38.921875 -31.484375 41.175781 -32.207031 42.78125 -33.65625 C 44.382812 -35.113281 45.1875 -37.144531 45.1875 -39.75 Z M 45.1875 -39.75 "/></g></g></g><g fill="#ffffff" fill-opacity="1"><g transform="translate(194.976036, 85.028972)"><g/></g></g><g fill="#ffffff" fill-opacity="1"><g transform="translate(221.65296, 85.028972)"><g><path d="M 87.15625 -62.25 L 74.890625 0 L 55.765625 0 L 61.28125 -28.375 L 43.75 -5.609375 L 34.5 -5.609375 L 24.90625 -28.015625 L 19.296875 0 L 0.171875 0 L 12.625 -62.25 L 29.703125 -62.25 L 43.21875 -29.171875 L 69.28125 -62.25 Z M 87.15625 -62.25 "/></g></g></g><g fill="#ffffff" fill-opacity="1"><g transform="translate(306.485544, 85.028972)"><g><path d="M 45.53125 -10.84375 L 21.796875 -10.84375 L 15.5625 0 L -6.578125 0 L 33.078125 -62.25 L 53.71875 -62.25 L 68.484375 0 L 47.578125 0 Z M 42.59375 -25.96875 L 39.578125 -41.890625 L 30.421875 -25.96875 Z M 42.59375 -25.96875 "/></g></g></g><g fill="#ffffff" fill-opacity="1"><g transform="translate(378.157545, 85.028972)"><g><path d="M 24.90625 1.421875 C 19.507812 1.421875 14.4375 0.84375 9.6875 -0.3125 C 4.945312 -1.46875 1.035156 -2.992188 -2.046875 -4.890625 L 6.046875 -20.359375 C 12.742188 -16.503906 19.738281 -14.578125 27.03125 -14.578125 C 29.707031 -14.578125 31.753906 -14.90625 33.171875 -15.5625 C 34.597656 -16.21875 35.3125 -17.109375 35.3125 -18.234375 C 35.3125 -19.296875 34.582031 -20.15625 33.125 -20.8125 C 31.675781 -21.46875 29.378906 -22.179688 26.234375 -22.953125 C 22.085938 -24.015625 18.648438 -25.09375 15.921875 -26.1875 C 13.191406 -27.289062 10.800781 -28.984375 8.75 -31.265625 C 6.707031 -33.546875 5.6875 -36.550781 5.6875 -40.28125 C 5.6875 -44.96875 6.945312 -49.070312 9.46875 -52.59375 C 11.988281 -56.125 15.617188 -58.851562 20.359375 -60.78125 C 25.109375 -62.707031 30.710938 -63.671875 37.171875 -63.671875 C 41.796875 -63.671875 46.109375 -63.210938 50.109375 -62.296875 C 54.117188 -61.378906 57.578125 -60.0625 60.484375 -58.34375 L 52.921875 -43.046875 C 50.484375 -44.585938 47.796875 -45.742188 44.859375 -46.515625 C 41.929688 -47.285156 38.925781 -47.671875 35.84375 -47.671875 C 32.9375 -47.671875 30.679688 -47.253906 29.078125 -46.421875 C 27.484375 -45.597656 26.6875 -44.617188 26.6875 -43.484375 C 26.6875 -42.359375 27.410156 -41.46875 28.859375 -40.8125 C 30.316406 -40.164062 32.703125 -39.457031 36.015625 -38.6875 C 40.046875 -37.738281 43.441406 -36.726562 46.203125 -35.65625 C 48.960938 -34.59375 51.347656 -32.929688 53.359375 -30.671875 C 55.378906 -28.421875 56.390625 -25.460938 56.390625 -21.796875 C 56.390625 -17.171875 55.113281 -13.109375 52.5625 -9.609375 C 50.007812 -6.109375 46.359375 -3.394531 41.609375 -1.46875 C 36.867188 0.457031 31.300781 1.421875 24.90625 1.421875 Z M 24.90625 1.421875 "/></g></g></g></g></g></svg>