<svg xmlns="http://www.w3.org/2000/svg" xmlns:xlink="http://www.w3.org/1999/xlink" width="1000" zoomAndPan="magnify" viewBox="0 0 750 149.999998" height="200" preserveAspectRatio="xMidYMid meet" version="1.0"><defs><g/><clipPath id="b075e0cca5"><path d="M 0 0.585938 L 750 0.585938 L 750 150 L 0 150 Z M 0 0.585938 " clip-rule="nonzero"/></clipPath><clipPath id="715d00c146"><path d="M 30.75 0.585938 L 719.25 0.585938 C 736.234375 0.585938 750 14.351562 750 31.335938 L 750 119.25 C 750 136.234375 736.234375 150 719.25 150 L 30.75 150 C 13.765625 150 0 136.234375 0 119.25 L 0 31.335938 C 0 14.351562 13.765625 0.585938 30.75 0.585938 Z M 30.75 0.585938 " clip-rule="nonzero"/></clipPath><clipPath id="466d6fe5be"><path d="M 0 0.585938 L 750 0.585938 L 750 150 L 0 150 Z M 0 0.585938 " clip-rule="nonzero"/></clipPath><clipPath id="c5697dcd83"><path d="M 30.75 0.585938 L 719.25 0.585938 C 736.234375 0.585938 750 14.351562 750 31.335938 L 750 119.25 C 750 136.234375 736.234375 150 719.25 150 L 30.75 150 C 13.765625 150 0 136.234375 0 119.25 L 0 31.335938 C 0 14.351562 13.765625 0.585938 30.75 0.585938 Z M 30.75 0.585938 " clip-rule="nonzero"/></clipPath><clipPath id="bf8c2b33c5"><rect x="0" width="750" y="0" height="150"/></clipPath><clipPath id="dfced18a1d"><rect x="0" width="572" y="0" height="110"/></clipPath></defs><rect x="-75" width="900" fill="#ffffff" y="-15" height="179.999997" fill-opacity="1"/><rect x="-75" width="900" fill="#ffffff" y="-15" height="179.999997" fill-opacity="1"/><g clip-path="url(#b075e0cca5)"><g clip-path="url(#715d00c146)"><g transform="matrix(1, 0, 0, 1, 0, -0.00000000000000755)"><g clip-path="url(#bf8c2b33c5)"><g clip-path="url(#466d6fe5be)"><g clip-path="url(#c5697dcd83)"><path fill="#3cb5fe" d="M 0 0.585938 L 749.996094 0.585938 L 749.996094 150 L 0 150 Z M 0 0.585938 " fill-opacity="1" fill-rule="nonzero"/></g></g></g></g></g></g><g transform="matrix(1, 0, 0, 1, 96, 30)"><g clip-path="url(#dfced18a1d)"><g fill="#ffffff" fill-opacity="1"><g transform="translate(0.0485456, 87.475598)"><g><path d="M 54.625 -20.4375 L 57.109375 0.109375 L 2.15625 0.109375 L 2.921875 -86.734375 L 26.0625 -85.328125 L 24.875 -20.765625 Z M 54.625 -20.4375 "/></g></g></g><g fill="#ffffff" fill-opacity="1"><g transform="translate(58.233936, 87.475598)"><g><path d="M 63.484375 -76.6875 L 65.109375 -0.21875 L 42.609375 0.21875 L 41.96875 -26.71875 L 24.765625 -25.640625 L 23.03125 -0.328125 L 2.15625 0.109375 L 5.515625 -79.28125 L 9.734375 -84.359375 L 56.890625 -86.421875 Z M 41.859375 -43.15625 L 41.3125 -64.671875 L 27.03125 -63.484375 L 25.953125 -44.234375 Z M 41.859375 -43.15625 "/></g></g></g><g fill="#ffffff" fill-opacity="1"><g transform="translate(124.422526, 87.475598)"><g><path d="M 58.078125 -49.96875 L 63.375 -38.609375 L 62.625 -6.484375 L 55.8125 -0.4375 L 6.265625 0 L 2.15625 -8.546875 L 4.21875 -29.53125 L 22.828125 -29.421875 L 24.328125 -19.796875 L 40.890625 -20.109375 L 41.421875 -33.75 L 8 -37.53125 L 3.140625 -43.046875 L 3.671875 -79.28125 L 7.890625 -84.359375 L 47.59375 -86.421875 L 61.546875 -82.421875 L 62.515625 -61.96875 L 58.515625 -58.515625 L 43.375 -57.75 L 40.671875 -66.515625 L 26.28125 -65.328125 L 25.09375 -52.890625 Z M 58.078125 -49.96875 "/></g></g></g><g fill="#ffffff" fill-opacity="1"><g transform="translate(189.962246, 87.475598)"><g/></g></g><g fill="#ffffff" fill-opacity="1"><g transform="translate(222.407651, 87.475598)"><g><path d="M 56.671875 -42.828125 L 62.296875 -36.765625 L 61.75 -7.140625 L 53.96875 -1.078125 L 2.15625 0.21875 L 2.921875 -86.09375 L 52.125 -83.609375 L 58.40625 -75.59375 L 59.703125 -46.609375 Z M 38.9375 -51.15625 L 38.28125 -67.171875 L 23.6875 -69.4375 L 24.015625 -53.328125 Z M 41.3125 -35.046875 L 24.234375 -37.859375 L 24.125 -17.40625 L 40.5625 -20.015625 Z M 41.3125 -35.046875 "/></g></g></g><g fill="#ffffff" fill-opacity="1"><g transform="translate(285.784319, 87.475598)"><g><path d="M 58.9375 -24.125 L 53.328125 -23.46875 L 60.890625 -8 L 59.046875 -4.328125 L 42.390625 0 L 30.390625 -21.953125 L 25.09375 -21.734375 L 24.125 -2.15625 L 2.15625 -0.328125 L 2.15625 -86.734375 L 58.84375 -83.28125 L 63.0625 -79.0625 L 63.15625 -31.359375 Z M 40.34375 -42.296875 L 40.453125 -66.515625 L 26.171875 -67.921875 L 25.640625 -41.203125 Z M 40.34375 -42.296875 "/></g></g></g><g fill="#ffffff" fill-opacity="1"><g transform="translate(350.026173, 87.475598)"><g><path d="M 2.8125 -85.328125 L 26.28125 -86.09375 L 23.359375 -2.15625 L 2.15625 0.109375 Z M 2.8125 -85.328125 "/></g></g></g><g fill="#ffffff" fill-opacity="1"><g transform="translate(376.306878, 87.475598)"><g><path d="M 58.078125 -49.96875 L 63.375 -38.609375 L 62.625 -6.484375 L 55.8125 -0.4375 L 6.265625 0 L 2.15625 -8.546875 L 4.21875 -29.53125 L 22.828125 -29.421875 L 24.328125 -19.796875 L 40.890625 -20.109375 L 41.421875 -33.75 L 8 -37.53125 L 3.140625 -43.046875 L 3.671875 -79.28125 L 7.890625 -84.359375 L 47.59375 -86.421875 L 61.546875 -82.421875 L 62.515625 -61.96875 L 58.515625 -58.515625 L 43.375 -57.75 L 40.671875 -66.515625 L 26.28125 -65.328125 L 25.09375 -52.890625 Z M 58.078125 -49.96875 "/></g></g></g><g fill="#ffffff" fill-opacity="1"><g transform="translate(439.683496, 87.475598)"><g><path d="M 63.484375 -76.6875 L 65.109375 -0.21875 L 42.609375 0.21875 L 41.96875 -26.71875 L 24.765625 -25.640625 L 23.03125 -0.328125 L 2.15625 0.109375 L 5.515625 -79.28125 L 9.734375 -84.359375 L 56.890625 -86.421875 Z M 41.859375 -43.15625 L 41.3125 -64.671875 L 27.03125 -63.484375 L 25.953125 -44.234375 Z M 41.859375 -43.15625 "/></g></g></g><g fill="#ffffff" fill-opacity="1"><g transform="translate(505.872074, 87.475598)"><g><path d="M 58.078125 -49.96875 L 63.375 -38.609375 L 62.625 -6.484375 L 55.8125 -0.4375 L 6.265625 0 L 2.15625 -8.546875 L 4.21875 -29.53125 L 22.828125 -29.421875 L 24.328125 -19.796875 L 40.890625 -20.109375 L 41.421875 -33.75 L 8 -37.53125 L 3.140625 -43.046875 L 3.671875 -79.28125 L 7.890625 -84.359375 L 47.59375 -86.421875 L 61.546875 -82.421875 L 62.515625 -61.96875 L 58.515625 -58.515625 L 43.375 -57.75 L 40.671875 -66.515625 L 26.28125 -65.328125 L 25.09375 -52.890625 Z M 58.078125 -49.96875 "/></g></g></g></g></g></svg>