<svg xmlns="http://www.w3.org/2000/svg" xmlns:xlink="http://www.w3.org/1999/xlink" width="1000" zoomAndPan="magnify" viewBox="0 0 750 149.999998" height="200" preserveAspectRatio="xMidYMid meet" version="1.0"><defs><g/><clipPath id="4ac2c767c2"><path d="M 30.75 0 L 719.25 0 C 727.40625 0 735.226562 3.238281 740.992188 9.007812 C 746.761719 14.773438 750 22.59375 750 30.75 L 750 119.25 C 750 127.40625 746.761719 135.226562 740.992188 140.992188 C 735.226562 146.761719 727.40625 150 719.25 150 L 30.75 150 C 22.59375 150 14.773438 146.761719 9.007812 140.992188 C 3.238281 135.226562 0 127.40625 0 119.25 L 0 30.75 C 0 22.59375 3.238281 14.773438 9.007812 9.007812 C 14.773438 3.238281 22.59375 0 30.75 0 Z M 30.75 0 " clip-rule="nonzero"/></clipPath><clipPath id="b787ce3f58"><path d="M 0 0 L 750 0 L 750 150 L 0 150 Z M 0 0 " clip-rule="nonzero"/></clipPath><clipPath id="f45a470a18"><path d="M 30.75 0 L 719.25 0 C 727.40625 0 735.226562 3.238281 740.992188 9.007812 C 746.761719 14.773438 750 22.59375 750 30.75 L 750 119.25 C 750 127.40625 746.761719 135.226562 740.992188 140.992188 C 735.226562 146.761719 727.40625 150 719.25 150 L 30.75 150 C 22.59375 150 14.773438 146.761719 9.007812 140.992188 C 3.238281 135.226562 0 127.40625 0 119.25 L 0 30.75 C 0 22.59375 3.238281 14.773438 9.007812 9.007812 C 14.773438 3.238281 22.59375 0 30.75 0 Z M 30.75 0 " clip-rule="nonzero"/></clipPath><clipPath id="b508393343"><rect x="0" width="750" y="0" height="150"/></clipPath><clipPath id="cb1f22b5ea"><path d="M 2 0.160156 L 56 0.160156 L 56 76 L 2 76 Z M 2 0.160156 " clip-rule="nonzero"/></clipPath><clipPath id="8a901c44d6"><path d="M 58 0.160156 L 104 0.160156 L 104 75 L 58 75 Z M 58 0.160156 " clip-rule="nonzero"/></clipPath><clipPath id="4c96ce6b26"><path d="M 105 0.160156 L 159 0.160156 L 159 76 L 105 76 Z M 105 0.160156 " clip-rule="nonzero"/></clipPath><clipPath id="4e0a797b99"><path d="M 161 0.160156 L 207 0.160156 L 207 75 L 161 75 Z M 161 0.160156 " clip-rule="nonzero"/></clipPath><clipPath id="a43549ba05"><path d="M 238 0.160156 L 286 0.160156 L 286 76 L 238 76 Z M 238 0.160156 " clip-rule="nonzero"/></clipPath><clipPath id="671dfb4320"><path d="M 288 0.160156 L 343 0.160156 L 343 76 L 288 76 Z M 288 0.160156 " clip-rule="nonzero"/></clipPath><clipPath id="366b344aa7"><path d="M 345 0.160156 L 398 0.160156 L 398 76 L 345 76 Z M 345 0.160156 " clip-rule="nonzero"/></clipPath><clipPath id="fd927ce9a3"><path d="M 483 0.160156 L 537 0.160156 L 537 76 L 483 76 Z M 483 0.160156 " clip-rule="nonzero"/></clipPath><clipPath id="e4ec7398cf"><path d="M 561 0.160156 L 615 0.160156 L 615 76 L 561 76 Z M 561 0.160156 " clip-rule="nonzero"/></clipPath><clipPath id="6e3948c2c7"><path d="M 616 0.160156 L 671 0.160156 L 671 76 L 616 76 Z M 616 0.160156 " clip-rule="nonzero"/></clipPath><clipPath id="4123e5c592"><path d="M 673 0.160156 L 726 0.160156 L 726 76 L 673 76 Z M 673 0.160156 " clip-rule="nonzero"/></clipPath><clipPath id="94546eb466"><rect x="0" width="741" y="0" height="95"/></clipPath></defs><g clip-path="url(#4ac2c767c2)"><g transform="matrix(1, 0, 0, 1, 0, -0.000000000000007527)"><g clip-path="url(#b508393343)"><g clip-path="url(#b787ce3f58)"><g clip-path="url(#f45a470a18)"><rect x="-165" width="1080" fill="#3899d5" height="215.999996" y="-32.999999" fill-opacity="1"/></g></g></g></g></g><g transform="matrix(1, 0, 0, 1, 9, 32)"><g clip-path="url(#94546eb466)"><g clip-path="url(#cb1f22b5ea)"><g fill="#ffffff" fill-opacity="1"><g transform="translate(0.805616, 75.156823)"><g><path d="M 49.953125 -42.96875 L 54.5 -33.203125 L 53.859375 -5.578125 L 48 -0.375 L 5.390625 0 L 1.859375 -7.34375 L 3.625 -25.390625 L 19.625 -25.296875 L 20.921875 -17.015625 L 35.15625 -17.296875 L 35.625 -29.015625 L 6.890625 -32.28125 L 2.703125 -37.015625 L 3.15625 -68.1875 L 6.796875 -72.546875 L 40.921875 -74.3125 L 52.921875 -70.875 L 53.765625 -53.296875 L 50.328125 -50.328125 L 37.296875 -49.671875 L 34.96875 -57.203125 L 22.609375 -56.1875 L 21.578125 -45.484375 Z M 49.953125 -42.96875 "/></g></g></g></g><g clip-path="url(#8a901c44d6)"><g fill="#ffffff" fill-opacity="1"><g transform="translate(56.244644, 75.156823)"><g><path d="M 45.859375 -16.828125 L 46.875 -0.1875 L 1.859375 -0.1875 L 1.859375 -74.59375 L 45.390625 -73.203125 L 44.828125 -56.1875 L 20.921875 -56.453125 L 20.921875 -47.15625 L 36.375 -46.234375 L 36.375 -30.046875 L 20.828125 -30.96875 L 20.75 -18.234375 Z M 45.859375 -16.828125 "/></g></g></g></g><g clip-path="url(#4c96ce6b26)"><g fill="#ffffff" fill-opacity="1"><g transform="translate(104.056154, 75.156823)"><g><path d="M 47.625 -70.6875 L 54.6875 -61.296875 L 53.109375 -9.484375 L 45.859375 -0.9375 L 1.859375 0.09375 L 2.421875 -74.40625 Z M 21.484375 -56.375 L 22.234375 -15.0625 L 35.15625 -17.953125 L 35.8125 -52.28125 Z M 21.484375 -56.375 "/></g></g></g></g><g clip-path="url(#4e0a797b99)"><g fill="#ffffff" fill-opacity="1"><g transform="translate(159.681229, 75.156823)"><g><path d="M 45.859375 -16.828125 L 46.875 -0.1875 L 1.859375 -0.1875 L 1.859375 -74.59375 L 45.390625 -73.203125 L 44.828125 -56.1875 L 20.921875 -56.453125 L 20.921875 -47.15625 L 36.375 -46.234375 L 36.375 -30.046875 L 20.828125 -30.96875 L 20.75 -18.234375 Z M 45.859375 -16.828125 "/></g></g></g></g><g fill="#ffffff" fill-opacity="1"><g transform="translate(208.422949, 75.156823)"><g/></g></g><g clip-path="url(#a43549ba05)"><g fill="#ffffff" fill-opacity="1"><g transform="translate(236.328527, 75.156823)"><g><path d="M 46.96875 -17.578125 L 49.109375 0.09375 L 1.859375 0.09375 L 2.515625 -74.59375 L 22.421875 -73.390625 L 21.390625 -17.859375 Z M 46.96875 -17.578125 "/></g></g></g></g><g clip-path="url(#671dfb4320)"><g fill="#ffffff" fill-opacity="1"><g transform="translate(286.372487, 75.156823)"><g><path d="M 54.59375 -65.953125 L 56 -0.1875 L 36.640625 0.1875 L 36.09375 -22.96875 L 21.296875 -22.046875 L 19.8125 -0.28125 L 1.859375 0.09375 L 4.75 -68.1875 L 8.375 -72.546875 L 48.921875 -74.3125 Z M 36 -37.109375 L 35.53125 -55.625 L 23.25 -54.59375 L 22.328125 -38.046875 Z M 36 -37.109375 "/></g></g></g></g><g clip-path="url(#366b344aa7)"><g fill="#ffffff" fill-opacity="1"><g transform="translate(343.299793, 75.156823)"><g><path d="M 49.953125 -42.96875 L 54.5 -33.203125 L 53.859375 -5.578125 L 48 -0.375 L 5.390625 0 L 1.859375 -7.34375 L 3.625 -25.390625 L 19.625 -25.296875 L 20.921875 -17.015625 L 35.15625 -17.296875 L 35.625 -29.015625 L 6.890625 -32.28125 L 2.703125 -37.015625 L 3.15625 -68.1875 L 6.796875 -72.546875 L 40.921875 -74.3125 L 52.921875 -70.875 L 53.765625 -53.296875 L 50.328125 -50.328125 L 37.296875 -49.671875 L 34.96875 -57.203125 L 22.609375 -56.1875 L 21.578125 -45.484375 Z M 49.953125 -42.96875 "/></g></g></g></g><g fill="#ffffff" fill-opacity="1"><g transform="translate(399.669041, 75.156823)"><g/></g></g><g fill="#ffffff" fill-opacity="1"><g transform="translate(427.574636, 75.156823)"><g><path d="M 48.734375 -36.828125 L 53.578125 -31.625 L 53.109375 -6.140625 L 46.421875 -0.9375 L 1.859375 0.1875 L 2.515625 -74.046875 L 44.828125 -71.90625 L 50.234375 -65.015625 L 51.34375 -40.09375 Z M 33.484375 -44 L 32.921875 -57.765625 L 20.375 -59.71875 L 20.65625 -45.859375 Z M 35.53125 -30.140625 L 20.828125 -32.5625 L 20.75 -14.96875 L 34.875 -17.203125 Z M 35.53125 -30.140625 "/></g></g></g><g clip-path="url(#fd927ce9a3)"><g fill="#ffffff" fill-opacity="1"><g transform="translate(482.083445, 75.156823)"><g><path d="M 50.6875 -20.75 L 45.859375 -20.1875 L 52.375 -6.890625 L 50.78125 -3.71875 L 36.46875 0 L 26.140625 -18.875 L 21.578125 -18.703125 L 20.75 -1.859375 L 1.859375 -0.28125 L 1.859375 -74.59375 L 50.59375 -71.625 L 54.234375 -68 L 54.328125 -26.96875 Z M 34.6875 -36.375 L 34.78125 -57.203125 L 22.515625 -58.40625 L 22.046875 -35.4375 Z M 34.6875 -36.375 "/></g></g></g></g><g fill="#ffffff" fill-opacity="1"><g transform="translate(537.336472, 75.156823)"><g><path d="M 2.421875 -73.390625 L 22.609375 -74.046875 L 20.09375 -1.859375 L 1.859375 0.09375 Z M 2.421875 -73.390625 "/></g></g></g><g clip-path="url(#e4ec7398cf)"><g fill="#ffffff" fill-opacity="1"><g transform="translate(559.939904, 75.156823)"><g><path d="M 49.953125 -42.96875 L 54.5 -33.203125 L 53.859375 -5.578125 L 48 -0.375 L 5.390625 0 L 1.859375 -7.34375 L 3.625 -25.390625 L 19.625 -25.296875 L 20.921875 -17.015625 L 35.15625 -17.296875 L 35.625 -29.015625 L 6.890625 -32.28125 L 2.703125 -37.015625 L 3.15625 -68.1875 L 6.796875 -72.546875 L 40.921875 -74.3125 L 52.921875 -70.875 L 53.765625 -53.296875 L 50.328125 -50.328125 L 37.296875 -49.671875 L 34.96875 -57.203125 L 22.609375 -56.1875 L 21.578125 -45.484375 Z M 49.953125 -42.96875 "/></g></g></g></g><g clip-path="url(#6e3948c2c7)"><g fill="#ffffff" fill-opacity="1"><g transform="translate(614.448748, 75.156823)"><g><path d="M 54.59375 -65.953125 L 56 -0.1875 L 36.640625 0.1875 L 36.09375 -22.96875 L 21.296875 -22.046875 L 19.8125 -0.28125 L 1.859375 0.09375 L 4.75 -68.1875 L 8.375 -72.546875 L 48.921875 -74.3125 Z M 36 -37.109375 L 35.53125 -55.625 L 23.25 -54.59375 L 22.328125 -38.046875 Z M 36 -37.109375 "/></g></g></g></g><g clip-path="url(#4123e5c592)"><g fill="#ffffff" fill-opacity="1"><g transform="translate(671.376055, 75.156823)"><g><path d="M 49.953125 -42.96875 L 54.5 -33.203125 L 53.859375 -5.578125 L 48 -0.375 L 5.390625 0 L 1.859375 -7.34375 L 3.625 -25.390625 L 19.625 -25.296875 L 20.921875 -17.015625 L 35.15625 -17.296875 L 35.625 -29.015625 L 6.890625 -32.28125 L 2.703125 -37.015625 L 3.15625 -68.1875 L 6.796875 -72.546875 L 40.921875 -74.3125 L 52.921875 -70.875 L 53.765625 -53.296875 L 50.328125 -50.328125 L 37.296875 -49.671875 L 34.96875 -57.203125 L 22.609375 -56.1875 L 21.578125 -45.484375 Z M 49.953125 -42.96875 "/></g></g></g></g><g fill="#ffffff" fill-opacity="1"><g transform="translate(727.746387, 75.156823)"><g/></g></g></g></g></svg>