<svg xmlns="http://www.w3.org/2000/svg" xmlns:xlink="http://www.w3.org/1999/xlink" width="1000" zoomAndPan="magnify" viewBox="0 0 750 149.999998" height="200" preserveAspectRatio="xMidYMid meet" version="1.0"><defs><g/><clipPath id="7dd0f2890b"><path d="M 19.640625 0 L 735 0 L 735 150 L 19.640625 150 Z M 19.640625 0 " clip-rule="nonzero"/></clipPath><clipPath id="5a24167981"><path d="M 50.390625 0 L 704.25 0 C 712.40625 0 720.226562 3.238281 725.992188 9.007812 C 731.761719 14.773438 735 22.59375 735 30.75 L 735 119.25 C 735 127.40625 731.761719 135.226562 725.992188 140.992188 C 720.226562 146.761719 712.40625 150 704.25 150 L 50.390625 150 C 42.234375 150 34.414062 146.761719 28.644531 140.992188 C 22.878906 135.226562 19.640625 127.40625 19.640625 119.25 L 19.640625 30.75 C 19.640625 22.59375 22.878906 14.773438 28.644531 9.007812 C 34.414062 3.238281 42.234375 0 50.390625 0 Z M 50.390625 0 " clip-rule="nonzero"/></clipPath><clipPath id="07308b5261"><path d="M 0.640625 0 L 716 0 L 716 150 L 0.640625 150 Z M 0.640625 0 " clip-rule="nonzero"/></clipPath><clipPath id="651b21b917"><path d="M 31.390625 0 L 685.25 0 C 693.40625 0 701.226562 3.238281 706.992188 9.007812 C 712.761719 14.773438 716 22.59375 716 30.75 L 716 119.25 C 716 127.40625 712.761719 135.226562 706.992188 140.992188 C 701.226562 146.761719 693.40625 150 685.25 150 L 31.390625 150 C 23.234375 150 15.414062 146.761719 9.644531 140.992188 C 3.878906 135.226562 0.640625 127.40625 0.640625 119.25 L 0.640625 30.75 C 0.640625 22.59375 3.878906 14.773438 9.644531 9.007812 C 15.414062 3.238281 23.234375 0 31.390625 0 Z M 31.390625 0 " clip-rule="nonzero"/></clipPath><clipPath id="b7adab87fb"><rect x="0" width="716" y="0" height="150"/></clipPath><clipPath id="afff35a66f"><path d="M 2 0.121094 L 59 0.121094 L 59 90 L 2 90 Z M 2 0.121094 " clip-rule="nonzero"/></clipPath><clipPath id="37f7980147"><path d="M 62 0.121094 L 125 0.121094 L 125 90 L 62 90 Z M 62 0.121094 " clip-rule="nonzero"/></clipPath><clipPath id="d8a834bdc8"><path d="M 128 0.121094 L 192 0.121094 L 192 90 L 128 90 Z M 128 0.121094 " clip-rule="nonzero"/></clipPath><clipPath id="e8f57abbe3"><path d="M 393 0.121094 L 457 0.121094 L 457 90 L 393 90 Z M 393 0.121094 " clip-rule="nonzero"/></clipPath><clipPath id="28f38780f9"><path d="M 459 0.121094 L 523 0.121094 L 523 90 L 459 90 Z M 459 0.121094 " clip-rule="nonzero"/></clipPath><clipPath id="e4bd00eb2a"><rect x="0" width="626" y="0" height="113"/></clipPath></defs><rect x="-75" width="900" fill="#ffffff" y="-15" height="179.999997" fill-opacity="1"/><rect x="-75" width="900" fill="#ffffff" y="-15" height="179.999997" fill-opacity="1"/><g clip-path="url(#7dd0f2890b)"><g clip-path="url(#5a24167981)"><g transform="matrix(1, 0, 0, 1, 19, -0.000000000000007527)"><g clip-path="url(#b7adab87fb)"><g clip-path="url(#07308b5261)"><g clip-path="url(#651b21b917)"><path fill="#066b05" d="M 0.640625 0 L 716.070312 0 L 716.070312 150 L 0.640625 150 Z M 0.640625 0 " fill-opacity="1" fill-rule="nonzero"/></g></g></g></g></g></g><g transform="matrix(1, 0, 0, 1, 121, 27)"><g clip-path="url(#e4bd00eb2a)"><g clip-path="url(#afff35a66f)"><g fill="#ffffff" fill-opacity="1"><g transform="translate(0.253092, 89.734527)"><g><path d="M 56.125 -21 L 58.6875 0.109375 L 2.21875 0.109375 L 3 -89.140625 L 26.78125 -87.6875 L 25.5625 -21.34375 Z M 56.125 -21 "/></g></g></g></g><g clip-path="url(#37f7980147)"><g fill="#ffffff" fill-opacity="1"><g transform="translate(60.042821, 89.734527)"><g><path d="M 59.6875 -88.90625 L 64.90625 -83.25 L 64.125 -8.109375 L 60.015625 -0.21875 L 10.109375 0.109375 L 2.78125 -4.21875 L 2.21875 -83.015625 L 5.78125 -88.578125 Z M 25.5625 -70.234375 L 26.234375 -18.890625 L 41.234375 -17.890625 L 41.453125 -68.90625 Z M 25.5625 -70.234375 "/></g></g></g></g><g clip-path="url(#d8a834bdc8)"><g fill="#ffffff" fill-opacity="1"><g transform="translate(126.056009, 89.734527)"><g><path d="M 59.6875 -51.34375 L 65.125 -39.671875 L 64.34375 -6.671875 L 57.34375 -0.4375 L 6.453125 0 L 2.21875 -8.78125 L 4.328125 -30.34375 L 23.453125 -30.234375 L 25 -20.34375 L 42.015625 -20.671875 L 42.5625 -34.671875 L 8.21875 -38.5625 L 3.21875 -44.234375 L 3.78125 -81.46875 L 8.109375 -86.6875 L 48.90625 -88.796875 L 63.234375 -84.6875 L 64.234375 -63.6875 L 60.125 -60.125 L 44.5625 -59.34375 L 41.78125 -68.34375 L 27 -67.125 L 25.78125 -54.34375 Z M 59.6875 -51.34375 "/></g></g></g></g><g fill="#ffffff" fill-opacity="1"><g transform="translate(193.402837, 89.734527)"><g/></g></g><g fill="#ffffff" fill-opacity="1"><g transform="translate(226.742842, 89.734527)"><g><path d="M 64.796875 -80.90625 L 64.90625 -28.5625 L 60.234375 -23.125 L 25.78125 -22 L 24.78125 -1.5625 L 2.21875 0.328125 L 2.21875 -88.578125 L 60.453125 -85.25 Z M 41.5625 -67.6875 L 26.890625 -69.125 L 26.34375 -42.015625 L 41.453125 -43.125 Z M 41.5625 -67.6875 "/></g></g></g><g fill="#ffffff" fill-opacity="1"><g transform="translate(292.75603, 89.734527)"><g><path d="M 2.890625 -87.6875 L 27 -88.46875 L 24 -2.21875 L 2.21875 0.109375 Z M 2.890625 -87.6875 "/></g></g></g><g fill="#ffffff" fill-opacity="1"><g transform="translate(320.872742, 89.734527)"><g><path d="M 44.671875 -87.359375 L 69.578125 -88.46875 L 66.34375 -0.890625 L 46.453125 -0.109375 L 26 -43.453125 L 24.453125 -2.21875 L 2.21875 0 L 2.890625 -88.359375 L 26.890625 -88.359375 L 44.453125 -51.234375 Z M 44.671875 -87.359375 "/></g></g></g><g clip-path="url(#e8f57abbe3)"><g fill="#ffffff" fill-opacity="1"><g transform="translate(391.553546, 89.734527)"><g><path d="M 59.6875 -88.90625 L 64.90625 -83.25 L 64.125 -8.109375 L 60.015625 -0.21875 L 10.109375 0.109375 L 2.78125 -4.21875 L 2.21875 -83.015625 L 5.78125 -88.578125 Z M 25.5625 -70.234375 L 26.234375 -18.890625 L 41.234375 -17.890625 L 41.453125 -68.90625 Z M 25.5625 -70.234375 "/></g></g></g></g><g clip-path="url(#28f38780f9)"><g fill="#ffffff" fill-opacity="1"><g transform="translate(457.566735, 89.734527)"><g><path d="M 59.6875 -51.34375 L 65.125 -39.671875 L 64.34375 -6.671875 L 57.34375 -0.4375 L 6.453125 0 L 2.21875 -8.78125 L 4.328125 -30.34375 L 23.453125 -30.234375 L 25 -20.34375 L 42.015625 -20.671875 L 42.5625 -34.671875 L 8.21875 -38.5625 L 3.21875 -44.234375 L 3.78125 -81.46875 L 8.109375 -86.6875 L 48.90625 -88.796875 L 63.234375 -84.6875 L 64.234375 -63.6875 L 60.125 -60.125 L 44.5625 -59.34375 L 41.78125 -68.34375 L 27 -67.125 L 25.78125 -54.34375 Z M 59.6875 -51.34375 "/></g></g></g></g><g fill="#ffffff" fill-opacity="1"><g transform="translate(524.917026, 89.734527)"><g/></g></g><g fill="#ffffff" fill-opacity="1"><g transform="translate(558.257041, 89.734527)"><g/></g></g><g fill="#ffffff" fill-opacity="1"><g transform="translate(591.597055, 89.734527)"><g/></g></g></g></g></svg>