<svg xmlns="http://www.w3.org/2000/svg" xmlns:xlink="http://www.w3.org/1999/xlink" width="1000" zoomAndPan="magnify" viewBox="0 0 750 149.999998" height="200" preserveAspectRatio="xMidYMid meet" version="1.0"><defs><g/><clipPath id="8fbe7bcf71"><path d="M 30.75 0 L 719.25 0 C 727.40625 0 735.226562 3.238281 740.992188 9.007812 C 746.761719 14.773438 750 22.59375 750 30.75 L 750 119.25 C 750 127.40625 746.761719 135.226562 740.992188 140.992188 C 735.226562 146.761719 727.40625 150 719.25 150 L 30.75 150 C 22.59375 150 14.773438 146.761719 9.007812 140.992188 C 3.238281 135.226562 0 127.40625 0 119.25 L 0 30.75 C 0 22.59375 3.238281 14.773438 9.007812 9.007812 C 14.773438 3.238281 22.59375 0 30.75 0 Z M 30.75 0 " clip-rule="nonzero"/></clipPath><clipPath id="15ce078b76"><path d="M 0 0 L 750 0 L 750 150 L 0 150 Z M 0 0 " clip-rule="nonzero"/></clipPath><clipPath id="62e0028229"><path d="M 30.75 0 L 719.25 0 C 727.40625 0 735.226562 3.238281 740.992188 9.007812 C 746.761719 14.773438 750 22.59375 750 30.75 L 750 119.25 C 750 127.40625 746.761719 135.226562 740.992188 140.992188 C 735.226562 146.761719 727.40625 150 719.25 150 L 30.75 150 C 22.59375 150 14.773438 146.761719 9.007812 140.992188 C 3.238281 135.226562 0 127.40625 0 119.25 L 0 30.75 C 0 22.59375 3.238281 14.773438 9.007812 9.007812 C 14.773438 3.238281 22.59375 0 30.75 0 Z M 30.75 0 " clip-rule="nonzero"/></clipPath><clipPath id="82bd63f5be"><rect x="0" width="750" y="0" height="150"/></clipPath><clipPath id="70460982c3"><path d="M 2 0.160156 L 56 0.160156 L 56 76 L 2 76 Z M 2 0.160156 " clip-rule="nonzero"/></clipPath><clipPath id="6fcc8b7666"><path d="M 58 0.160156 L 104 0.160156 L 104 75 L 58 75 Z M 58 0.160156 " clip-rule="nonzero"/></clipPath><clipPath id="4f5a2c0358"><path d="M 106 0.160156 L 159 0.160156 L 159 76 L 106 76 Z M 106 0.160156 " clip-rule="nonzero"/></clipPath><clipPath id="5f94cc7f3c"><path d="M 161 0.160156 L 207 0.160156 L 207 75 L 161 75 Z M 161 0.160156 " clip-rule="nonzero"/></clipPath><clipPath id="ac3c27ab57"><path d="M 238 0.160156 L 286 0.160156 L 286 76 L 238 76 Z M 238 0.160156 " clip-rule="nonzero"/></clipPath><clipPath id="352a685ecb"><path d="M 288 0.160156 L 341 0.160156 L 341 76 L 288 76 Z M 288 0.160156 " clip-rule="nonzero"/></clipPath><clipPath id="56c629f36c"><path d="M 343 0.160156 L 397 0.160156 L 397 76 L 343 76 Z M 343 0.160156 " clip-rule="nonzero"/></clipPath><clipPath id="4841a3947e"><path d="M 565 0.160156 L 619 0.160156 L 619 76 L 565 76 Z M 565 0.160156 " clip-rule="nonzero"/></clipPath><clipPath id="ab6a6f6063"><path d="M 621 0.160156 L 674 0.160156 L 674 76 L 621 76 Z M 621 0.160156 " clip-rule="nonzero"/></clipPath><clipPath id="89482c8cd5"><rect x="0" width="704" y="0" height="95"/></clipPath></defs><g clip-path="url(#8fbe7bcf71)"><g transform="matrix(1, 0, 0, 1, 0, -0.000000000000007527)"><g clip-path="url(#82bd63f5be)"><g clip-path="url(#15ce078b76)"><g clip-path="url(#62e0028229)"><rect x="-165" width="1080" fill="#066b05" height="215.999996" y="-32.999999" fill-opacity="1"/></g></g></g></g></g><g transform="matrix(1, 0, 0, 1, 34, 32)"><g clip-path="url(#89482c8cd5)"><g clip-path="url(#70460982c3)"><g fill="#ffffff" fill-opacity="1"><g transform="translate(0.940666, 75.156823)"><g><path d="M 49.953125 -42.96875 L 54.5 -33.203125 L 53.859375 -5.578125 L 48 -0.375 L 5.390625 0 L 1.859375 -7.34375 L 3.625 -25.390625 L 19.625 -25.296875 L 20.921875 -17.015625 L 35.15625 -17.296875 L 35.625 -29.015625 L 6.890625 -32.28125 L 2.703125 -37.015625 L 3.15625 -68.1875 L 6.796875 -72.546875 L 40.921875 -74.3125 L 52.921875 -70.875 L 53.765625 -53.296875 L 50.328125 -50.328125 L 37.296875 -49.671875 L 34.96875 -57.203125 L 22.609375 -56.1875 L 21.578125 -45.484375 Z M 49.953125 -42.96875 "/></g></g></g></g><g clip-path="url(#6fcc8b7666)"><g fill="#ffffff" fill-opacity="1"><g transform="translate(56.379694, 75.156823)"><g><path d="M 45.859375 -16.828125 L 46.875 -0.1875 L 1.859375 -0.1875 L 1.859375 -74.59375 L 45.390625 -73.203125 L 44.828125 -56.1875 L 20.921875 -56.453125 L 20.921875 -47.15625 L 36.375 -46.234375 L 36.375 -30.046875 L 20.828125 -30.96875 L 20.75 -18.234375 Z M 45.859375 -16.828125 "/></g></g></g></g><g clip-path="url(#4f5a2c0358)"><g fill="#ffffff" fill-opacity="1"><g transform="translate(104.191204, 75.156823)"><g><path d="M 47.625 -70.6875 L 54.6875 -61.296875 L 53.109375 -9.484375 L 45.859375 -0.9375 L 1.859375 0.09375 L 2.421875 -74.40625 Z M 21.484375 -56.375 L 22.234375 -15.0625 L 35.15625 -17.953125 L 35.8125 -52.28125 Z M 21.484375 -56.375 "/></g></g></g></g><g clip-path="url(#5f94cc7f3c)"><g fill="#ffffff" fill-opacity="1"><g transform="translate(159.816279, 75.156823)"><g><path d="M 45.859375 -16.828125 L 46.875 -0.1875 L 1.859375 -0.1875 L 1.859375 -74.59375 L 45.390625 -73.203125 L 44.828125 -56.1875 L 20.921875 -56.453125 L 20.921875 -47.15625 L 36.375 -46.234375 L 36.375 -30.046875 L 20.828125 -30.96875 L 20.75 -18.234375 Z M 45.859375 -16.828125 "/></g></g></g></g><g fill="#ffffff" fill-opacity="1"><g transform="translate(208.558, 75.156823)"><g/></g></g><g clip-path="url(#ac3c27ab57)"><g fill="#ffffff" fill-opacity="1"><g transform="translate(236.463577, 75.156823)"><g><path d="M 46.96875 -17.578125 L 49.109375 0.09375 L 1.859375 0.09375 L 2.515625 -74.59375 L 22.421875 -73.390625 L 21.390625 -17.859375 Z M 46.96875 -17.578125 "/></g></g></g></g><g clip-path="url(#352a685ecb)"><g fill="#ffffff" fill-opacity="1"><g transform="translate(286.507537, 75.156823)"><g><path d="M 49.953125 -74.40625 L 54.328125 -69.671875 L 53.671875 -6.796875 L 50.234375 -0.1875 L 8.46875 0.09375 L 2.328125 -3.53125 L 1.859375 -69.484375 L 4.84375 -74.140625 Z M 21.390625 -58.78125 L 21.953125 -15.8125 L 34.515625 -14.96875 L 34.6875 -57.671875 Z M 21.390625 -58.78125 "/></g></g></g></g><g clip-path="url(#56c629f36c)"><g fill="#ffffff" fill-opacity="1"><g transform="translate(341.760529, 75.156823)"><g><path d="M 49.953125 -42.96875 L 54.5 -33.203125 L 53.859375 -5.578125 L 48 -0.375 L 5.390625 0 L 1.859375 -7.34375 L 3.625 -25.390625 L 19.625 -25.296875 L 20.921875 -17.015625 L 35.15625 -17.296875 L 35.625 -29.015625 L 6.890625 -32.28125 L 2.703125 -37.015625 L 3.15625 -68.1875 L 6.796875 -72.546875 L 40.921875 -74.3125 L 52.921875 -70.875 L 53.765625 -53.296875 L 50.328125 -50.328125 L 37.296875 -49.671875 L 34.96875 -57.203125 L 22.609375 -56.1875 L 21.578125 -45.484375 Z M 49.953125 -42.96875 "/></g></g></g></g><g fill="#ffffff" fill-opacity="1"><g transform="translate(398.129777, 75.156823)"><g/></g></g><g fill="#ffffff" fill-opacity="1"><g transform="translate(426.035337, 75.156823)"><g><path d="M 54.234375 -67.71875 L 54.328125 -23.90625 L 50.421875 -19.34375 L 21.578125 -18.421875 L 20.75 -1.296875 L 1.859375 0.28125 L 1.859375 -74.140625 L 50.59375 -71.34375 Z M 34.78125 -56.640625 L 22.515625 -57.859375 L 22.046875 -35.15625 L 34.6875 -36.09375 Z M 34.78125 -56.640625 "/></g></g></g><g fill="#ffffff" fill-opacity="1"><g transform="translate(481.288329, 75.156823)"><g><path d="M 2.421875 -73.390625 L 22.609375 -74.046875 L 20.09375 -1.859375 L 1.859375 0.09375 Z M 2.421875 -73.390625 "/></g></g></g><g fill="#ffffff" fill-opacity="1"><g transform="translate(504.821997, 75.156823)"><g><path d="M 37.390625 -73.109375 L 58.234375 -74.046875 L 55.53125 -0.75 L 38.875 -0.09375 L 21.765625 -36.375 L 20.46875 -1.859375 L 1.859375 0 L 2.421875 -73.953125 L 22.515625 -73.953125 L 37.203125 -42.875 Z M 37.390625 -73.109375 "/></g></g></g><g clip-path="url(#4841a3947e)"><g fill="#ffffff" fill-opacity="1"><g transform="translate(563.98178, 75.156823)"><g><path d="M 49.953125 -74.40625 L 54.328125 -69.671875 L 53.671875 -6.796875 L 50.234375 -0.1875 L 8.46875 0.09375 L 2.328125 -3.53125 L 1.859375 -69.484375 L 4.84375 -74.140625 Z M 21.390625 -58.78125 L 21.953125 -15.8125 L 34.515625 -14.96875 L 34.6875 -57.671875 Z M 21.390625 -58.78125 "/></g></g></g></g><g clip-path="url(#ab6a6f6063)"><g fill="#ffffff" fill-opacity="1"><g transform="translate(619.234737, 75.156823)"><g><path d="M 49.953125 -42.96875 L 54.5 -33.203125 L 53.859375 -5.578125 L 48 -0.375 L 5.390625 0 L 1.859375 -7.34375 L 3.625 -25.390625 L 19.625 -25.296875 L 20.921875 -17.015625 L 35.15625 -17.296875 L 35.625 -29.015625 L 6.890625 -32.28125 L 2.703125 -37.015625 L 3.15625 -68.1875 L 6.796875 -72.546875 L 40.921875 -74.3125 L 52.921875 -70.875 L 53.765625 -53.296875 L 50.328125 -50.328125 L 37.296875 -49.671875 L 34.96875 -57.203125 L 22.609375 -56.1875 L 21.578125 -45.484375 Z M 49.953125 -42.96875 "/></g></g></g></g><g fill="#ffffff" fill-opacity="1"><g transform="translate(675.608209, 75.156823)"><g/></g></g></g></g></svg>