<svg xmlns="http://www.w3.org/2000/svg" xmlns:xlink="http://www.w3.org/1999/xlink" width="1000" zoomAndPan="magnify" viewBox="0 0 750 149.999998" height="200" preserveAspectRatio="xMidYMid meet" version="1.0"><defs><g/><clipPath id="7cccfe58e5"><rect x="0" width="460" y="0" height="99"/></clipPath></defs><path fill="#57b236" d="M 163.992188 67.316406 L 151.96875 67.371094 C 143.164062 67.507812 134.359375 67.789062 125.714844 68.222656 C 118.722656 68.535156 115.277344 69.679688 114.65625 69.902344 L 114.570312 69.9375 C 113.089844 70.5 111.675781 71.195312 110.328125 72.023438 C 108.976562 72.851562 107.714844 73.792969 106.539062 74.851562 C 105.363281 75.914062 104.292969 77.070312 103.332031 78.328125 C 102.367188 79.585938 101.53125 80.921875 100.816406 82.335938 C 93.378906 97.433594 88.378906 108.730469 84.59375 118.976562 C 82.644531 124.171875 83.335938 129.984375 86.542969 135.296875 C 90.285156 141.515625 97.066406 146.214844 104.246094 147.5625 C 104.394531 147.589844 104.558594 147.613281 104.707031 147.632812 C 109.285156 148.140625 114.199219 148.414062 114.699219 148.441406 C 131.046875 149.480469 147.574219 150.015625 163.992188 150.015625 C 180.410156 150.015625 196.949219 149.492188 213.285156 148.441406 C 213.785156 148.414062 218.699219 148.128906 223.277344 147.632812 C 223.4375 147.613281 223.59375 147.589844 223.742188 147.5625 C 230.917969 146.214844 237.699219 141.515625 241.445312 135.296875 C 244.652344 129.96875 245.34375 124.171875 243.390625 118.972656 C 239.617188 108.730469 234.605469 97.433594 227.171875 82.335938 C 226.457031 80.921875 225.617188 79.585938 224.65625 78.328125 C 223.691406 77.070312 222.625 75.914062 221.449219 74.851562 C 220.273438 73.792969 219.007812 72.851562 217.660156 72.023438 C 216.308594 71.195312 214.894531 70.5 213.414062 69.9375 L 213.328125 69.902344 C 212.699219 69.679688 209.261719 68.535156 202.269531 68.222656 C 193.632812 67.789062 184.808594 67.507812 176.019531 67.371094 Z M 163.992188 67.316406 " fill-opacity="1" fill-rule="nonzero"/><path fill="#99badc" d="M 188.039062 102.234375 L 223.253906 147.632812 C 223.40625 147.613281 223.566406 147.589844 223.714844 147.5625 C 230.902344 146.214844 237.695312 141.515625 241.449219 135.296875 C 244.65625 129.96875 245.347656 124.171875 243.394531 118.976562 C 239.621094 108.730469 234.589844 97.433594 227.152344 82.335938 C 226.433594 80.921875 225.589844 79.585938 224.625 78.328125 C 223.660156 77.066406 222.585938 75.910156 221.40625 74.847656 C 220.226562 73.789062 218.960938 72.847656 217.605469 72.019531 C 216.253906 71.195312 214.835938 70.5 213.351562 69.9375 Z M 188.039062 102.234375 " fill-opacity="1" fill-rule="nonzero"/><path fill="#4193d2" d="M 185.703125 101.664062 L 145.613281 149.703125 C 151.789062 149.847656 157.957031 149.921875 164.121094 149.921875 C 180.566406 149.921875 197.132812 149.398438 213.480469 148.347656 C 213.984375 148.324219 218.90625 148.035156 223.492188 147.539062 Z M 185.703125 101.664062 " fill-opacity="1" fill-rule="nonzero"/><path fill="#dd4247" d="M 165.511719 11.796875 C 158.253906 4.402344 149.058594 0.0117188 139.371094 0.0273438 L 139.105469 0.0273438 C 119.425781 0.347656 101.949219 18.714844 101.460938 38.324219 C 101.382812 42.6875 102.125 46.90625 103.683594 50.980469 L 103.707031 51.046875 C 103.800781 51.675781 111.773438 69.554688 136.570312 96.140625 C 136.660156 96.257812 136.75 96.371094 136.851562 96.480469 C 137.003906 96.652344 137.175781 96.804688 137.363281 96.941406 C 137.546875 97.082031 137.746094 97.195312 137.957031 97.292969 C 138.164062 97.390625 138.382812 97.464844 138.609375 97.515625 C 138.832031 97.566406 139.0625 97.597656 139.292969 97.601562 C 139.523438 97.605469 139.753906 97.585938 139.980469 97.546875 C 140.207031 97.503906 140.429688 97.4375 140.640625 97.351562 C 140.855469 97.265625 141.058594 97.15625 141.25 97.027344 C 141.441406 96.898438 141.621094 96.75 141.78125 96.585938 C 151.371094 86.964844 159.859375 76.449219 167.246094 65.046875 C 172.589844 56.695312 174.917969 51.339844 175.011719 51.109375 L 175.0625 50.980469 C 176.609375 46.945312 177.351562 42.761719 177.289062 38.4375 C 177.148438 28.660156 172.816406 19.253906 165.511719 11.796875 Z M 165.511719 11.796875 " fill-opacity="1" fill-rule="nonzero"/><path fill="#ffffff" d="M 191.253906 101.035156 L 226.871094 146.828125 C 225.917969 147.132812 224.953125 147.375 223.96875 147.5625 C 223.820312 147.589844 223.65625 147.613281 223.507812 147.632812 C 221.148438 147.894531 218.707031 148.09375 216.816406 148.230469 L 185.6875 108.203125 Z M 191.253906 101.035156 " fill-opacity="1" fill-rule="nonzero"/><path fill="#fca84c" d="M 191.253906 101.042969 L 214.925781 70.613281 L 214.992188 70.53125 C 214.542969 70.320312 214.085938 70.128906 213.621094 69.957031 L 213.53125 69.921875 C 213.007812 69.734375 210.449219 68.886719 205.429688 68.441406 L 204.941406 69.105469 L 142.261719 149.703125 C 145.921875 149.800781 149.578125 149.878906 153.238281 149.929688 L 185.6875 108.214844 Z M 191.253906 101.042969 " fill-opacity="1" fill-rule="nonzero"/><path fill="#ba2525" d="M 139.46875 53.5 C 131.1875 53.5 124.4375 46.769531 124.484375 38.542969 C 124.527344 30.316406 131.296875 23.46875 139.46875 23.460938 C 147.644531 23.453125 154.402344 30.324219 154.457031 38.558594 C 154.515625 46.792969 147.757812 53.488281 139.46875 53.5 Z M 139.46875 53.5 " fill-opacity="1" fill-rule="nonzero"/><g transform="matrix(1, 0, 0, 1, 255, 36)"><g clip-path="url(#7cccfe58e5)"><g fill="#000000" fill-opacity="1"><g transform="translate(1.199736, 66.986935)"><g><path d="M 0.652344 -64.09375 L 19.902344 0 L 36.066406 0 L 55.40625 -64.09375 L 42.792969 -64.09375 L 29.523438 -18.3125 L 16.632812 -64.09375 Z M 0.652344 -64.09375 "/></g></g></g><g fill="#000000" fill-opacity="1"><g transform="translate(57.259313, 66.986935)"><g><path d="M 5.792969 -64.09375 L 5.792969 0 L 51.574219 0 L 51.574219 -12.425781 L 20.742188 -12.425781 L 20.742188 -26.628906 L 45.035156 -26.628906 L 45.035156 -38.679688 L 20.742188 -38.679688 L 20.742188 -51.667969 L 51.574219 -51.667969 L 51.574219 -64.09375 Z M 5.792969 -64.09375 "/></g></g></g><g fill="#000000" fill-opacity="1"><g transform="translate(111.450227, 66.986935)"><g><path d="M 6.074219 -64.09375 L 6.074219 0 L 21.023438 0 L 21.023438 -25.320312 L 31.953125 -25.320312 L 41.765625 0 L 58.394531 0 L 46.53125 -28.308594 C 53.535156 -30.925781 57.648438 -37.464844 57.648438 -44.847656 C 57.648438 -52.882812 53.257812 -59.328125 47.183594 -62.039062 C 44.007812 -63.441406 40.644531 -64.09375 33.824219 -64.09375 Z M 33.167969 -52.695312 C 39.988281 -52.695312 42.136719 -48.210938 42.136719 -44.941406 C 42.136719 -40.644531 39.429688 -36.34375 33.449219 -36.34375 L 21.023438 -36.34375 L 21.023438 -52.695312 Z M 33.167969 -52.695312 "/></g></g></g><g fill="#000000" fill-opacity="1"><g transform="translate(173.115759, 66.986935)"><g/></g></g><g fill="#000000" fill-opacity="1"><g transform="translate(201.145533, 66.986935)"><g><path d="M 5.886719 -64.09375 L 5.886719 0 L 18.5 0 L 18.5 -52.230469 L 18.6875 -52.230469 L 34.289062 0 L 44.566406 0 L 60.449219 -52.230469 L 60.824219 -52.230469 L 60.824219 0 L 75.773438 0 L 75.773438 -64.09375 L 52.320312 -64.09375 L 40.550781 -25.695312 L 29.335938 -64.09375 Z M 5.886719 -64.09375 "/></g></g></g><g fill="#000000" fill-opacity="1"><g transform="translate(283.366222, 66.986935)"><g><path d="M 21.210938 -64.09375 L 0.5625 0 L 13.734375 0 L 17.753906 -13.175781 L 38.496094 -13.175781 L 42.417969 0 L 58.582031 0 L 38.496094 -64.09375 Z M 28.214844 -47.371094 L 35.039062 -24.945312 L 21.394531 -24.945312 Z M 28.214844 -47.371094 "/></g></g></g><g fill="#000000" fill-opacity="1"><g transform="translate(343.163091, 66.986935)"><g><path d="M 5.792969 -64.09375 L 5.792969 0 L 20.742188 0 L 20.742188 -23.730469 L 33.824219 -23.730469 C 39.335938 -23.730469 43.632812 -24.480469 48.117188 -27.84375 C 52.695312 -31.300781 55.5 -37.652344 55.5 -44.472656 C 55.5 -52.695312 50.546875 -60.171875 42.417969 -62.785156 C 39.800781 -63.628906 36.71875 -64.09375 30.738281 -64.09375 Z M 20.742188 -52.414062 L 30.644531 -52.414062 C 38.496094 -52.414062 40.363281 -47.652344 40.363281 -43.914062 C 40.363281 -39.429688 37.558594 -35.410156 31.019531 -35.410156 L 20.742188 -35.410156 Z M 20.742188 -52.414062 "/></g></g></g><g fill="#000000" fill-opacity="1"><g transform="translate(401.091301, 66.986935)"><g><path d="M 26.722656 -65.027344 C 12.707031 -65.027344 3.644531 -56.433594 3.644531 -44.753906 C 3.644531 -39.335938 5.230469 -35.597656 8.410156 -32.328125 C 11.585938 -29.058594 18.125 -26.535156 27.9375 -24.667969 C 34.945312 -23.265625 37.464844 -21.210938 37.464844 -17.84375 C 37.464844 -13.453125 33.355469 -10.929688 27.375 -10.929688 C 20.179688 -10.929688 15.695312 -13.921875 14.109375 -19.996094 L 0.28125 -16.816406 C 2.804688 -5.699219 12.332031 0.933594 26.160156 0.933594 C 48.773438 0.933594 52.695312 -13.921875 52.695312 -20.367188 C 52.695312 -28.871094 47.652344 -33.542969 43.820312 -35.785156 C 39.617188 -38.308594 32.792969 -39.988281 26.160156 -41.203125 C 21.023438 -42.136719 18.3125 -44.195312 18.3125 -47.371094 C 18.3125 -51.199219 21.300781 -53.351562 27.1875 -53.351562 C 32.886719 -53.351562 36.34375 -51.292969 38.214844 -45.78125 L 50.921875 -49.988281 C 47.558594 -59.703125 39.707031 -65.027344 26.722656 -65.027344 Z M 26.722656 -65.027344 "/></g></g></g></g></g></svg>