<svg xmlns="http://www.w3.org/2000/svg" xmlns:xlink="http://www.w3.org/1999/xlink" width="2000" zoomAndPan="magnify" viewBox="0 0 1500 374.999991" height="500" preserveAspectRatio="xMidYMid meet" version="1.0"><defs><g/></defs><g fill="#043d01" fill-opacity="1"><g transform="translate(467.995739, 119.274525)"><g><path d="M 72.25 -82.078125 C 72.988281 -86.691406 74.1875 -90.242188 75.84375 -92.734375 C 77.507812 -95.234375 79.957031 -96.484375 83.1875 -96.484375 C 84.851562 -96.484375 86.445312 -96.34375 87.96875 -96.0625 C 89.488281 -95.789062 90.894531 -95.285156 92.1875 -94.546875 C 94.863281 -92.972656 96.476562 -90.523438 97.03125 -87.203125 C 97.40625 -85.359375 97.0625 -82.195312 96 -77.71875 C 94.9375 -73.25 93.273438 -68.015625 91.015625 -62.015625 C 88.753906 -56.015625 85.960938 -49.757812 82.640625 -43.25 C 79.316406 -36.75 75.554688 -30.472656 71.359375 -24.421875 C 67.160156 -18.378906 62.59375 -13.070312 57.65625 -8.5 C 52.71875 -3.9375 47.523438 -0.6875 42.078125 1.25 C 39.128906 2.445312 35.757812 3.046875 31.96875 3.046875 C 29.476562 3.046875 27.5625 2.859375 26.21875 2.484375 C 24.882812 2.117188 23.914062 1.3125 23.3125 0.0625 C 22.71875 -1.175781 22.144531 -3.085938 21.59375 -5.671875 C 21.59375 -11.117188 21.316406 -17.023438 20.765625 -23.390625 C 20.210938 -29.753906 19.539062 -36.144531 18.75 -42.5625 C 17.96875 -48.976562 17.117188 -54.910156 16.203125 -60.359375 C 15.273438 -65.242188 14.1875 -69.207031 12.9375 -72.25 C 11.695312 -75.300781 10.546875 -77.976562 9.484375 -80.28125 C 8.421875 -82.59375 7.707031 -85.039062 7.34375 -87.625 C 7.0625 -89.28125 7.632812 -90.847656 9.0625 -92.328125 C 10.5 -93.804688 12.367188 -95.097656 14.671875 -96.203125 C 16.984375 -97.304688 19.359375 -98.179688 21.796875 -98.828125 C 24.242188 -99.472656 26.34375 -99.796875 28.09375 -99.796875 C 31.601562 -99.796875 33.957031 -98.296875 35.15625 -95.296875 C 36.351562 -92.296875 37.597656 -87.566406 38.890625 -81.109375 C 39.265625 -77.703125 39.75 -73.484375 40.34375 -68.453125 C 40.945312 -63.421875 41.523438 -57.953125 42.078125 -52.046875 C 42.628906 -46.140625 43.066406 -40.160156 43.390625 -34.109375 C 43.710938 -28.066406 43.828125 -22.28125 43.734375 -16.75 C 51.023438 -25.144531 57.046875 -35.085938 61.796875 -46.578125 C 66.554688 -58.066406 70.039062 -69.898438 72.25 -82.078125 Z M 72.25 -82.078125 "/></g></g></g><g fill="#043d01" fill-opacity="1"><g transform="translate(577.617783, 119.274525)"><g><path d="M 59.796875 -46.78125 C 60.253906 -44.476562 59.582031 -42.359375 57.78125 -40.421875 C 55.988281 -38.484375 53.335938 -37.515625 49.828125 -37.515625 C 47.984375 -37.515625 46 -37.929688 43.875 -38.765625 C 37.695312 -37.285156 33.175781 -34.929688 30.3125 -31.703125 C 27.445312 -28.472656 26.429688 -24.640625 27.265625 -20.203125 C 27.816406 -17.160156 29.613281 -14.347656 32.65625 -11.765625 C 35.707031 -9.179688 40.1875 -7.890625 46.09375 -7.890625 C 50.519531 -7.890625 54.507812 -8.582031 58.0625 -9.96875 C 61.613281 -11.351562 64.84375 -13.101562 67.75 -15.21875 C 70.664062 -17.34375 73.414062 -19.582031 76 -21.9375 C 78.582031 -24.289062 81.117188 -26.457031 83.609375 -28.4375 C 86.097656 -30.425781 88.726562 -31.972656 91.5 -33.078125 C 92.414062 -32.984375 93.21875 -32.726562 93.90625 -32.3125 C 94.601562 -31.90625 95.046875 -31.238281 95.234375 -30.3125 C 95.691406 -29.476562 95.273438 -27.90625 93.984375 -25.59375 C 92.691406 -23.289062 90.707031 -20.59375 88.03125 -17.5 C 85.351562 -14.414062 82.097656 -11.28125 78.265625 -8.09375 C 74.441406 -4.914062 70.195312 -2.015625 65.53125 0.609375 C 60.875 3.242188 55.9375 5.253906 50.71875 6.640625 C 45.507812 8.023438 40.1875 8.441406 34.75 7.890625 C 30.59375 7.890625 26.273438 7.472656 21.796875 6.640625 C 17.328125 5.816406 13.109375 4.429688 9.140625 2.484375 C 5.171875 0.546875 1.78125 -1.988281 -1.03125 -5.125 C -3.851562 -8.257812 -5.675781 -12.132812 -6.5 -16.75 C -7.425781 -22.101562 -6.828125 -26.691406 -4.703125 -30.515625 C -2.578125 -34.347656 0.671875 -37.578125 5.046875 -40.203125 C 9.429688 -42.835938 14.484375 -44.984375 20.203125 -46.640625 C 17.898438 -48.765625 15.546875 -51.070312 13.140625 -53.5625 C 10.742188 -56.0625 9.269531 -58.648438 8.71875 -61.328125 C 8.070312 -64.828125 8.488281 -68.648438 9.96875 -72.796875 C 11.445312 -76.953125 14.097656 -80.875 17.921875 -84.5625 C 21.753906 -88.257812 26.832031 -91.285156 33.15625 -93.640625 C 39.476562 -95.992188 47.207031 -97.171875 56.34375 -97.171875 C 61.414062 -96.984375 66.210938 -96.082031 70.734375 -94.46875 C 75.253906 -92.851562 79.035156 -90.820312 82.078125 -88.375 C 85.128906 -85.9375 86.882812 -83.285156 87.34375 -80.421875 C 87.988281 -76.910156 87.429688 -73.65625 85.671875 -70.65625 C 83.921875 -67.664062 81.289062 -65.242188 77.78125 -63.390625 C 74.28125 -61.546875 70.175781 -60.625 65.46875 -60.625 C 62.238281 -60.625 59.378906 -61.242188 56.890625 -62.484375 C 54.398438 -63.734375 52.96875 -65.191406 52.59375 -66.859375 C 52.507812 -67.960938 53.390625 -69.253906 55.234375 -70.734375 C 56.429688 -71.660156 57.695312 -72.488281 59.03125 -73.21875 C 60.375 -73.957031 61.503906 -74.742188 62.421875 -75.578125 C 63.347656 -76.410156 63.71875 -77.332031 63.53125 -78.34375 C 63.257812 -79.914062 62.242188 -81.113281 60.484375 -81.9375 C 58.734375 -82.769531 56.9375 -83.1875 55.09375 -83.1875 C 51.40625 -83.1875 48.128906 -82.21875 45.265625 -80.28125 C 42.398438 -78.34375 40.226562 -75.941406 38.75 -73.078125 C 37.28125 -70.222656 36.773438 -67.363281 37.234375 -64.5 C 37.691406 -61.738281 38.820312 -59.269531 40.625 -57.09375 C 42.425781 -54.925781 45.265625 -53.101562 49.140625 -51.625 C 52.179688 -50.707031 54.625 -50.132812 56.46875 -49.90625 C 58.320312 -49.675781 59.429688 -48.632812 59.796875 -46.78125 Z M 59.796875 -46.78125 "/></g></g></g><g fill="#043d01" fill-opacity="1"><g transform="translate(673.952437, 119.274525)"><g><path d="M 47.34375 -103.671875 C 54.445312 -103.671875 60.582031 -102.5625 65.75 -100.34375 C 70.914062 -98.132812 75.207031 -95.320312 78.625 -91.90625 C 82.039062 -88.5 84.578125 -84.972656 86.234375 -81.328125 C 87.898438 -77.679688 88.734375 -74.378906 88.734375 -71.421875 C 88.734375 -66.441406 87.234375 -61.734375 84.234375 -57.296875 C 81.234375 -52.867188 77.3125 -48.992188 72.46875 -45.671875 C 67.625 -42.359375 62.335938 -39.820312 56.609375 -38.0625 C 58.921875 -36.40625 61.207031 -34.144531 63.46875 -31.28125 C 65.726562 -28.425781 67.894531 -25.519531 69.96875 -22.5625 C 72.050781 -19.613281 73.941406 -17.125 75.640625 -15.09375 C 77.347656 -13.0625 78.757812 -12.046875 79.875 -12.046875 C 80.789062 -12.046875 81.753906 -12.597656 82.765625 -13.703125 C 83.785156 -14.804688 84.894531 -16.097656 86.09375 -17.578125 C 87.289062 -19.054688 88.675781 -20.347656 90.25 -21.453125 C 91.820312 -22.554688 93.625 -23.109375 95.65625 -23.109375 C 96.664062 -23.109375 97.351562 -22.898438 97.71875 -22.484375 C 98.09375 -22.078125 98.375 -21.550781 98.5625 -20.90625 C 98.925781 -18.875 98.507812 -16.40625 97.3125 -13.5 C 96.113281 -10.59375 94.222656 -7.753906 91.640625 -4.984375 C 89.054688 -2.210938 85.894531 0.113281 82.15625 2 C 78.414062 3.894531 74.191406 4.84375 69.484375 4.84375 C 64.316406 4.84375 60.441406 3.921875 57.859375 2.078125 C 55.273438 0.234375 53.109375 -2.671875 51.359375 -6.640625 C 48.953125 -11.347656 46.847656 -15.707031 45.046875 -19.71875 C 43.253906 -23.738281 41.226562 -27.15625 38.96875 -29.96875 C 36.707031 -32.78125 33.6875 -34.648438 29.90625 -35.578125 C 27.6875 -35.941406 25.769531 -36.863281 24.15625 -38.34375 C 22.539062 -39.820312 21.382812 -41.4375 20.6875 -43.1875 C 20 -44.9375 19.929688 -46.457031 20.484375 -47.75 C 21.035156 -49.039062 22.421875 -49.6875 24.640625 -49.6875 C 27.222656 -49.6875 29.367188 -49.546875 31.078125 -49.265625 C 32.785156 -48.992188 34.398438 -48.71875 35.921875 -48.4375 C 37.441406 -48.164062 39.265625 -48.03125 41.390625 -48.03125 C 45.171875 -48.03125 48.609375 -48.769531 51.703125 -50.25 C 54.796875 -51.726562 57.285156 -53.6875 59.171875 -56.125 C 61.066406 -58.570312 62.015625 -61.226562 62.015625 -64.09375 C 62.015625 -66.207031 61.578125 -68.578125 60.703125 -71.203125 C 59.828125 -73.835938 58.210938 -76.125 55.859375 -78.0625 C 53.503906 -80.007812 50.066406 -80.984375 45.546875 -80.984375 C 43.421875 -80.984375 41.4375 -80.796875 39.59375 -80.421875 C 36.632812 -79.960938 33.65625 -79.316406 30.65625 -78.484375 C 27.65625 -77.648438 24.679688 -77.003906 21.734375 -76.546875 C 20.441406 -76.359375 19.148438 -76.171875 17.859375 -75.984375 C 16.566406 -75.804688 15.273438 -75.71875 13.984375 -75.71875 C 11.304688 -75.71875 9.039062 -76.289062 7.1875 -77.4375 C 5.34375 -78.59375 3.9375 -79.957031 2.96875 -81.53125 C 2 -83.101562 1.515625 -84.535156 1.515625 -85.828125 C 1.515625 -88.585938 2.875 -91.078125 5.59375 -93.296875 C 8.320312 -95.515625 11.898438 -97.382812 16.328125 -98.90625 C 20.765625 -100.425781 25.703125 -101.597656 31.140625 -102.421875 C 36.585938 -103.253906 41.988281 -103.671875 47.34375 -103.671875 Z M 26.71875 -84.859375 C 28.375 -84.859375 30.265625 -84.375 32.390625 -83.40625 C 34.515625 -82.4375 36.472656 -81.164062 38.265625 -79.59375 C 40.066406 -78.019531 41.203125 -76.3125 41.671875 -74.46875 C 41.847656 -73.632812 41.660156 -72.476562 41.109375 -71 C 40.554688 -69.53125 40.003906 -68.054688 39.453125 -66.578125 C 37.046875 -61.046875 34.96875 -54.882812 33.21875 -48.09375 C 31.46875 -41.3125 30.128906 -34.460938 29.203125 -27.546875 C 28.285156 -20.628906 27.828125 -14.078125 27.828125 -7.890625 C 28.097656 -5.023438 28.28125 -2.578125 28.375 -0.546875 C 28.46875 1.472656 28.078125 3.0625 27.203125 4.21875 C 26.328125 5.375 24.550781 5.953125 21.875 5.953125 C 16.976562 5.953125 13.332031 4.148438 10.9375 0.546875 C 9.363281 -2.304688 8.207031 -5.972656 7.46875 -10.453125 C 6.738281 -14.929688 6.328125 -19.796875 6.234375 -25.046875 C 6.140625 -30.304688 6.300781 -35.613281 6.71875 -40.96875 C 7.132812 -46.320312 7.734375 -51.351562 8.515625 -56.0625 C 9.296875 -60.769531 10.148438 -64.738281 11.078125 -67.96875 C 12.921875 -73.6875 14.925781 -77.929688 17.09375 -80.703125 C 19.257812 -83.472656 22.46875 -84.859375 26.71875 -84.859375 Z M 26.71875 -84.859375 "/></g></g></g><g fill="#043d01" fill-opacity="1"><g transform="translate(467.995739, 312.774512)"><g><path d="M 87.203125 -50.9375 C 86.367188 -39.5 85.125 -30.25 83.46875 -23.1875 C 81.8125 -16.125 79.597656 -10.609375 76.828125 -6.640625 C 73.410156 -1.753906 68.957031 1.304688 63.46875 2.546875 C 57.976562 3.796875 51.265625 4.421875 43.328125 4.421875 C 36.492188 4.421875 30.492188 3.035156 25.328125 0.265625 C 20.160156 -2.492188 15.9375 -6.226562 12.65625 -10.9375 C 9.382812 -15.644531 7.195312 -20.90625 6.09375 -26.71875 C 5.164062 -32.4375 4.703125 -38.363281 4.703125 -44.5 C 4.703125 -50.632812 5.09375 -56.65625 5.875 -62.5625 C 6.664062 -68.46875 7.796875 -73.957031 9.265625 -79.03125 C 10.742188 -84.113281 12.453125 -88.5 14.390625 -92.1875 C 16.328125 -95.875 18.453125 -98.457031 20.765625 -99.9375 C 22.328125 -100.957031 23.800781 -101.46875 25.1875 -101.46875 C 27.5 -101.46875 30.0625 -100.910156 32.875 -99.796875 C 35.6875 -98.691406 38.175781 -97.257812 40.34375 -95.5 C 42.519531 -93.75 43.789062 -91.859375 44.15625 -89.828125 C 44.34375 -88.816406 44.34375 -87.894531 44.15625 -87.0625 C 43.96875 -86.238281 43.460938 -85.363281 42.640625 -84.4375 C 42.265625 -84.070312 41.5 -82.457031 40.34375 -79.59375 C 39.195312 -76.726562 37.953125 -73.128906 36.609375 -68.796875 C 35.273438 -64.460938 34.050781 -59.734375 32.9375 -54.609375 C 31.832031 -49.484375 31.09375 -44.425781 30.71875 -39.4375 C 30.351562 -34.457031 30.539062 -29.941406 31.28125 -25.890625 C 31.925781 -22.097656 33.445312 -19.046875 35.84375 -16.734375 C 38.25 -14.429688 41.296875 -13.28125 44.984375 -13.28125 C 48.304688 -13.28125 51.03125 -16.050781 53.15625 -21.59375 C 54.164062 -24.269531 54.992188 -27.429688 55.640625 -31.078125 C 56.285156 -34.722656 56.75 -38.804688 57.03125 -43.328125 C 57.769531 -55.140625 59.15625 -65.378906 61.1875 -74.046875 C 63.21875 -82.722656 65.914062 -89.460938 69.28125 -94.265625 C 72.644531 -99.066406 76.632812 -101.46875 81.25 -101.46875 C 82.269531 -101.46875 83.953125 -101.003906 86.296875 -100.078125 C 88.648438 -99.148438 90.9375 -97.8125 93.15625 -96.0625 C 95.375 -94.3125 96.757812 -92.144531 97.3125 -89.5625 C 97.5 -88.539062 97.128906 -86.644531 96.203125 -83.875 C 95.273438 -81.113281 94.164062 -77.835938 92.875 -74.046875 C 91.582031 -70.265625 90.382812 -66.34375 89.28125 -62.28125 C 88.175781 -58.226562 87.484375 -54.445312 87.203125 -50.9375 Z M 87.203125 -50.9375 "/></g></g></g><g fill="#043d01" fill-opacity="1"><g transform="translate(577.617783, 312.774512)"><g><path d="M 35.15625 -39.3125 C 31.28125 -40.050781 28.1875 -40.742188 25.875 -41.390625 C 23.570312 -42.035156 22.421875 -43.695312 22.421875 -46.375 C 22.421875 -47.851562 22.953125 -49.144531 24.015625 -50.25 C 25.078125 -51.351562 26.53125 -51.90625 28.375 -51.90625 C 30.125 -51.90625 31.875 -51.742188 33.625 -51.421875 C 35.382812 -51.097656 37.1875 -51.03125 39.03125 -51.21875 C 42.632812 -51.21875 46.140625 -51.835938 49.546875 -53.078125 C 52.960938 -54.328125 55.753906 -56.289062 57.921875 -58.96875 C 60.097656 -61.644531 61.1875 -65.195312 61.1875 -69.625 C 61.1875 -73.40625 60.054688 -76.242188 57.796875 -78.140625 C 55.535156 -80.035156 51.035156 -80.984375 44.296875 -80.984375 C 43.003906 -80.890625 41.6875 -80.769531 40.34375 -80.625 C 39.007812 -80.488281 37.695312 -80.28125 36.40625 -80 C 32.34375 -79.269531 28.347656 -78.375 24.421875 -77.3125 C 20.503906 -76.25 16.609375 -75.71875 12.734375 -75.71875 C 10.054688 -75.71875 7.796875 -76.289062 5.953125 -77.4375 C 4.109375 -78.59375 2.675781 -79.957031 1.65625 -81.53125 C 0.738281 -83.007812 0.28125 -84.441406 0.28125 -85.828125 C 0.28125 -88.585938 1.640625 -91.144531 4.359375 -93.5 C 7.078125 -95.851562 10.648438 -97.882812 15.078125 -99.59375 C 19.515625 -101.300781 24.453125 -102.640625 29.890625 -103.609375 C 35.335938 -104.578125 40.738281 -105.0625 46.09375 -105.0625 C 55.6875 -105.0625 63.503906 -103.628906 69.546875 -100.765625 C 75.597656 -97.910156 80.078125 -94.265625 82.984375 -89.828125 C 85.890625 -85.398438 87.34375 -80.878906 87.34375 -76.265625 C 87.34375 -70.910156 85.796875 -65.671875 82.703125 -60.546875 C 79.609375 -55.429688 75.019531 -50.753906 68.9375 -46.515625 C 73.726562 -44.015625 77.273438 -41.566406 79.578125 -39.171875 C 81.890625 -36.773438 83.414062 -34.398438 84.15625 -32.046875 C 84.894531 -29.691406 85.265625 -27.222656 85.265625 -24.640625 C 85.265625 -19.285156 83.488281 -14.578125 79.9375 -10.515625 C 76.382812 -6.453125 71.46875 -3.269531 65.1875 -0.96875 C 58.914062 1.332031 51.582031 2.484375 43.1875 2.484375 C 33.5 2.484375 26.347656 1.835938 21.734375 0.546875 C 17.117188 -0.742188 14.8125 -3.140625 14.8125 -6.640625 C 14.8125 -8.765625 15.59375 -10.722656 17.15625 -12.515625 C 18.726562 -14.316406 20.671875 -15.21875 22.984375 -15.21875 C 24.828125 -15.21875 27.0625 -14.664062 29.6875 -13.5625 C 32.320312 -12.457031 34.789062 -11.71875 37.09375 -11.34375 C 38.9375 -11.070312 40.828125 -10.9375 42.765625 -10.9375 C 44.796875 -10.9375 47.035156 -11.210938 49.484375 -11.765625 C 51.929688 -12.316406 54.03125 -13.46875 55.78125 -15.21875 C 57.53125 -16.976562 58.40625 -19.566406 58.40625 -22.984375 C 58.40625 -25.566406 57.738281 -27.914062 56.40625 -30.03125 C 55.070312 -32.15625 52.742188 -34 49.421875 -35.5625 C 46.097656 -37.132812 41.34375 -38.382812 35.15625 -39.3125 Z M 28.796875 -86.921875 C 30.546875 -86.921875 32.503906 -86.414062 34.671875 -85.40625 C 36.835938 -84.394531 38.84375 -83.078125 40.6875 -81.453125 C 42.539062 -79.835938 43.695312 -78.109375 44.15625 -76.265625 C 44.34375 -75.441406 44.15625 -74.265625 43.59375 -72.734375 C 43.039062 -71.210938 42.441406 -69.710938 41.796875 -68.234375 C 39.210938 -62.609375 37.046875 -56.3125 35.296875 -49.34375 C 33.546875 -42.375 32.207031 -35.335938 31.28125 -28.234375 C 30.363281 -21.128906 29.90625 -14.441406 29.90625 -8.171875 C 30.175781 -5.304688 30.359375 -2.8125 30.453125 -0.6875 C 30.546875 1.425781 30.15625 3.0625 29.28125 4.21875 C 28.40625 5.375 26.582031 5.953125 23.8125 5.953125 C 18.644531 5.953125 14.90625 4.109375 12.59375 0.421875 C 10.9375 -2.535156 9.710938 -6.296875 8.921875 -10.859375 C 8.140625 -15.429688 7.703125 -20.414062 7.609375 -25.8125 C 7.515625 -31.207031 7.695312 -36.628906 8.15625 -42.078125 C 8.625 -47.523438 9.25 -52.644531 10.03125 -57.4375 C 10.820312 -62.238281 11.722656 -66.300781 12.734375 -69.625 C 14.484375 -75.4375 16.488281 -79.769531 18.75 -82.625 C 21.007812 -85.488281 24.359375 -86.921875 28.796875 -86.921875 Z M 28.796875 -86.921875 "/></g></g></g><g fill="#043d01" fill-opacity="1"><g transform="translate(683.917997, 312.774512)"><g><path d="M 26.859375 -100.625 C 28.703125 -100.625 30.773438 -100.070312 33.078125 -98.96875 C 35.390625 -97.863281 37.488281 -96.410156 39.375 -94.609375 C 41.269531 -92.804688 42.445312 -90.847656 42.90625 -88.734375 C 43.09375 -87.804688 42.910156 -86.488281 42.359375 -84.78125 C 41.804688 -83.070312 41.160156 -81.390625 40.421875 -79.734375 C 37.835938 -73.453125 35.597656 -66.4375 33.703125 -58.6875 C 31.816406 -50.9375 30.390625 -43.09375 29.421875 -35.15625 C 28.453125 -27.21875 27.96875 -19.742188 27.96875 -12.734375 C 28.238281 -9.597656 28.421875 -6.851562 28.515625 -4.5 C 28.609375 -2.144531 28.210938 -0.320312 27.328125 0.96875 C 26.453125 2.257812 24.539062 2.90625 21.59375 2.90625 C 16.144531 2.90625 12.175781 0.875 9.6875 -3.1875 C 8.03125 -6.507812 6.785156 -10.707031 5.953125 -15.78125 C 5.117188 -20.851562 4.65625 -26.390625 4.5625 -32.390625 C 4.46875 -38.390625 4.648438 -44.429688 5.109375 -50.515625 C 5.578125 -56.609375 6.226562 -62.332031 7.0625 -67.6875 C 7.894531 -73.039062 8.863281 -77.5625 9.96875 -81.25 C 11.8125 -87.800781 13.910156 -92.664062 16.265625 -95.84375 C 18.617188 -99.03125 22.148438 -100.625 26.859375 -100.625 Z M 26.859375 -100.625 "/></g></g></g><g fill="#043d01" fill-opacity="1"><g transform="translate(737.345468, 312.774512)"><g><path d="M 94.125 -79.734375 C 94.863281 -75.304688 94.445312 -71.429688 92.875 -68.109375 C 91.3125 -64.785156 89.28125 -62.222656 86.78125 -60.421875 C 84.289062 -58.617188 81.988281 -57.71875 79.875 -57.71875 C 78.019531 -57.71875 75.867188 -58.175781 73.421875 -59.09375 C 70.984375 -60.019531 68.609375 -61.222656 66.296875 -62.703125 C 63.992188 -64.179688 62.195312 -65.773438 60.90625 -67.484375 C 59.613281 -69.191406 59.195312 -70.894531 59.65625 -72.59375 C 60.125 -74.300781 61.878906 -75.757812 64.921875 -76.96875 C 66.484375 -77.976562 67.84375 -79.101562 69 -80.34375 C 70.15625 -81.59375 70.550781 -83.234375 70.1875 -85.265625 C 70 -86.285156 69.441406 -86.929688 68.515625 -87.203125 C 67.597656 -87.484375 66.492188 -87.625 65.203125 -87.625 C 60.398438 -87.625 56.101562 -86.332031 52.3125 -83.75 C 48.53125 -81.164062 45.328125 -77.75 42.703125 -73.5 C 40.078125 -69.257812 38.023438 -64.597656 36.546875 -59.515625 C 35.066406 -54.441406 34.140625 -49.34375 33.765625 -44.21875 C 33.398438 -39.101562 33.585938 -34.375 34.328125 -30.03125 C 34.972656 -26.34375 36.425781 -22.929688 38.6875 -19.796875 C 40.945312 -16.660156 43.851562 -14.144531 47.40625 -12.25 C 50.957031 -10.351562 54.992188 -9.40625 59.515625 -9.40625 C 65.609375 -9.40625 71.332031 -10.789062 76.6875 -13.5625 C 82.039062 -16.332031 87.347656 -20.207031 92.609375 -25.1875 C 93.429688 -25.832031 94.210938 -26.847656 94.953125 -28.234375 C 95.691406 -29.617188 96.382812 -30.890625 97.03125 -32.046875 C 97.675781 -33.203125 98.09375 -33.78125 98.28125 -33.78125 C 99.570312 -33.78125 100.425781 -33.523438 100.84375 -33.015625 C 101.257812 -32.503906 101.695312 -31.46875 102.15625 -29.90625 C 102.519531 -27.875 102.378906 -25.726562 101.734375 -23.46875 C 101.085938 -21.207031 100.070312 -18.875 98.6875 -16.46875 C 96.289062 -12.59375 92.898438 -8.898438 88.515625 -5.390625 C 84.140625 -1.890625 79 0.960938 73.09375 3.171875 C 67.1875 5.390625 60.675781 6.5 53.5625 6.5 C 42.675781 6.5 33.609375 4.859375 26.359375 1.578125 C 19.117188 -1.691406 13.488281 -6.28125 9.46875 -12.1875 C 5.457031 -18.09375 2.765625 -25.007812 1.390625 -32.9375 C 0.273438 -39.3125 0.546875 -45.726562 2.203125 -52.1875 C 3.867188 -58.644531 6.660156 -64.828125 10.578125 -70.734375 C 14.503906 -76.640625 19.328125 -81.898438 25.046875 -86.515625 C 30.773438 -91.128906 37.191406 -94.773438 44.296875 -97.453125 C 51.398438 -100.128906 58.875 -101.46875 66.71875 -101.46875 C 73.550781 -101.46875 79.457031 -99.828125 84.4375 -96.546875 C 89.414062 -93.273438 92.644531 -87.671875 94.125 -79.734375 Z M 94.125 -79.734375 "/></g></g></g><g fill="#043d01" fill-opacity="1"><g transform="translate(845.721834, 312.774512)"><g><path d="M 106.3125 -24.078125 C 107.050781 -24.910156 107.785156 -25.765625 108.515625 -26.640625 C 109.253906 -27.523438 109.992188 -28.378906 110.734375 -29.203125 C 112.023438 -29.203125 113.222656 -28.898438 114.328125 -28.296875 C 115.441406 -27.703125 116.179688 -26.851562 116.546875 -25.75 C 116.085938 -23.4375 115.050781 -20.921875 113.4375 -18.203125 C 111.820312 -15.484375 109.742188 -12.785156 107.203125 -10.109375 C 104.671875 -7.429688 101.832031 -5.050781 98.6875 -2.96875 C 95.550781 -0.894531 92.234375 0.597656 88.734375 1.515625 C 86.703125 2.160156 84.347656 2.484375 81.671875 2.484375 C 78.992188 2.484375 76.59375 1.90625 74.46875 0.75 C 72.34375 -0.394531 70.539062 -2.488281 69.0625 -5.53125 C 67.59375 -8.582031 66.394531 -12.921875 65.46875 -18.546875 C 62.789062 -18.359375 60.019531 -18.242188 57.15625 -18.203125 C 54.300781 -18.160156 51.398438 -18.140625 48.453125 -18.140625 C 45.585938 -18.222656 42.609375 -18.359375 39.515625 -18.546875 C 36.421875 -18.734375 33.398438 -19.054688 30.453125 -19.515625 C 28.328125 -15.359375 26.800781 -11.847656 25.875 -8.984375 C 24.957031 -6.128906 24.148438 -3.800781 23.453125 -2 C 22.765625 -0.207031 21.75 1.078125 20.40625 1.859375 C 19.070312 2.648438 16.929688 3.046875 13.984375 3.046875 C 11.953125 3.046875 9.875 2.769531 7.75 2.21875 C 5.625 1.570312 3.800781 0.601562 2.28125 -0.6875 C 0.757812 -1.976562 -0.140625 -3.734375 -0.421875 -5.953125 C -1.066406 -11.117188 1.5625 -18.734375 7.46875 -28.796875 C 5.90625 -29.898438 4.753906 -31.394531 4.015625 -33.28125 C 3.273438 -35.175781 2.925781 -37.160156 2.96875 -39.234375 C 3.019531 -41.316406 3.414062 -43.1875 4.15625 -44.84375 C 4.894531 -46.507812 5.957031 -47.664062 7.34375 -48.3125 C 8.351562 -48.769531 9.734375 -48.46875 11.484375 -47.40625 C 13.242188 -46.34375 15.320312 -45.398438 17.71875 -44.578125 C 20.488281 -48.546875 23.695312 -52.953125 27.34375 -57.796875 C 30.988281 -62.640625 34.910156 -67.390625 39.109375 -72.046875 C 43.304688 -76.703125 47.6875 -80.875 52.25 -84.5625 C 56.820312 -88.257812 61.460938 -90.941406 66.171875 -92.609375 C 66.992188 -96.753906 67.957031 -99.65625 69.0625 -101.3125 C 70.175781 -102.976562 71.796875 -103.8125 73.921875 -103.8125 C 75.210938 -103.8125 76.640625 -103.765625 78.203125 -103.671875 C 79.773438 -103.585938 81.390625 -103.359375 83.046875 -102.984375 C 86.648438 -102.242188 89.1875 -100.765625 90.65625 -98.546875 C 92.132812 -96.335938 92.875 -94.21875 92.875 -92.1875 C 92.789062 -90.15625 92.585938 -88.445312 92.265625 -87.0625 C 91.941406 -85.675781 91.546875 -83.925781 91.078125 -81.8125 C 90.617188 -79.957031 90.226562 -77.347656 89.90625 -73.984375 C 89.582031 -70.617188 89.328125 -66.859375 89.140625 -62.703125 C 88.867188 -58.273438 88.660156 -53.660156 88.515625 -48.859375 C 88.378906 -44.066406 88.332031 -39.453125 88.375 -35.015625 C 88.425781 -30.585938 88.519531 -26.710938 88.65625 -23.390625 C 88.789062 -20.066406 89 -17.710938 89.28125 -16.328125 C 89.5625 -14.765625 89.976562 -13.726562 90.53125 -13.21875 C 91.082031 -12.707031 91.585938 -12.453125 92.046875 -12.453125 C 93.890625 -12.453125 95.960938 -13.5625 98.265625 -15.78125 C 100.578125 -18 103.257812 -20.765625 106.3125 -24.078125 Z M 41.9375 -38.625 C 43.96875 -38.34375 46 -38.109375 48.03125 -37.921875 C 50.0625 -37.742188 52 -37.609375 53.84375 -37.515625 C 55.875 -37.328125 57.695312 -37.1875 59.3125 -37.09375 C 60.925781 -37 62.519531 -36.953125 64.09375 -36.953125 C 63.8125 -41.941406 63.625 -46.945312 63.53125 -51.96875 C 63.4375 -57 63.4375 -61.867188 63.53125 -66.578125 C 59.46875 -62.429688 56.351562 -59.085938 54.1875 -56.546875 C 52.019531 -54.003906 50.335938 -51.859375 49.140625 -50.109375 C 47.941406 -48.359375 46.859375 -46.628906 45.890625 -44.921875 C 44.921875 -43.210938 43.601562 -41.113281 41.9375 -38.625 Z M 41.9375 -38.625 "/></g></g></g><g fill="#043d01" fill-opacity="1"><g transform="translate(968.216043, 312.774512)"><g><path d="M 94.125 -79.734375 C 94.863281 -75.304688 94.445312 -71.429688 92.875 -68.109375 C 91.3125 -64.785156 89.28125 -62.222656 86.78125 -60.421875 C 84.289062 -58.617188 81.988281 -57.71875 79.875 -57.71875 C 78.019531 -57.71875 75.867188 -58.175781 73.421875 -59.09375 C 70.984375 -60.019531 68.609375 -61.222656 66.296875 -62.703125 C 63.992188 -64.179688 62.195312 -65.773438 60.90625 -67.484375 C 59.613281 -69.191406 59.195312 -70.894531 59.65625 -72.59375 C 60.125 -74.300781 61.878906 -75.757812 64.921875 -76.96875 C 66.484375 -77.976562 67.84375 -79.101562 69 -80.34375 C 70.15625 -81.59375 70.550781 -83.234375 70.1875 -85.265625 C 70 -86.285156 69.441406 -86.929688 68.515625 -87.203125 C 67.597656 -87.484375 66.492188 -87.625 65.203125 -87.625 C 60.398438 -87.625 56.101562 -86.332031 52.3125 -83.75 C 48.53125 -81.164062 45.328125 -77.75 42.703125 -73.5 C 40.078125 -69.257812 38.023438 -64.597656 36.546875 -59.515625 C 35.066406 -54.441406 34.140625 -49.34375 33.765625 -44.21875 C 33.398438 -39.101562 33.585938 -34.375 34.328125 -30.03125 C 34.972656 -26.34375 36.425781 -22.929688 38.6875 -19.796875 C 40.945312 -16.660156 43.851562 -14.144531 47.40625 -12.25 C 50.957031 -10.351562 54.992188 -9.40625 59.515625 -9.40625 C 65.609375 -9.40625 71.332031 -10.789062 76.6875 -13.5625 C 82.039062 -16.332031 87.347656 -20.207031 92.609375 -25.1875 C 93.429688 -25.832031 94.210938 -26.847656 94.953125 -28.234375 C 95.691406 -29.617188 96.382812 -30.890625 97.03125 -32.046875 C 97.675781 -33.203125 98.09375 -33.78125 98.28125 -33.78125 C 99.570312 -33.78125 100.425781 -33.523438 100.84375 -33.015625 C 101.257812 -32.503906 101.695312 -31.46875 102.15625 -29.90625 C 102.519531 -27.875 102.378906 -25.726562 101.734375 -23.46875 C 101.085938 -21.207031 100.070312 -18.875 98.6875 -16.46875 C 96.289062 -12.59375 92.898438 -8.898438 88.515625 -5.390625 C 84.140625 -1.890625 79 0.960938 73.09375 3.171875 C 67.1875 5.390625 60.675781 6.5 53.5625 6.5 C 42.675781 6.5 33.609375 4.859375 26.359375 1.578125 C 19.117188 -1.691406 13.488281 -6.28125 9.46875 -12.1875 C 5.457031 -18.09375 2.765625 -25.007812 1.390625 -32.9375 C 0.273438 -39.3125 0.546875 -45.726562 2.203125 -52.1875 C 3.867188 -58.644531 6.660156 -64.828125 10.578125 -70.734375 C 14.503906 -76.640625 19.328125 -81.898438 25.046875 -86.515625 C 30.773438 -91.128906 37.191406 -94.773438 44.296875 -97.453125 C 51.398438 -100.128906 58.875 -101.46875 66.71875 -101.46875 C 73.550781 -101.46875 79.457031 -99.828125 84.4375 -96.546875 C 89.414062 -93.273438 92.644531 -87.671875 94.125 -79.734375 Z M 94.125 -79.734375 "/></g></g></g><g fill="#043d01" fill-opacity="1"><g transform="translate(1076.592364, 312.774512)"><g><path d="M 26.859375 -100.625 C 28.703125 -100.625 30.773438 -100.070312 33.078125 -98.96875 C 35.390625 -97.863281 37.488281 -96.410156 39.375 -94.609375 C 41.269531 -92.804688 42.445312 -90.847656 42.90625 -88.734375 C 43.09375 -87.804688 42.910156 -86.488281 42.359375 -84.78125 C 41.804688 -83.070312 41.160156 -81.390625 40.421875 -79.734375 C 37.835938 -73.453125 35.597656 -66.4375 33.703125 -58.6875 C 31.816406 -50.9375 30.390625 -43.09375 29.421875 -35.15625 C 28.453125 -27.21875 27.96875 -19.742188 27.96875 -12.734375 C 28.238281 -9.597656 28.421875 -6.851562 28.515625 -4.5 C 28.609375 -2.144531 28.210938 -0.320312 27.328125 0.96875 C 26.453125 2.257812 24.539062 2.90625 21.59375 2.90625 C 16.144531 2.90625 12.175781 0.875 9.6875 -3.1875 C 8.03125 -6.507812 6.785156 -10.707031 5.953125 -15.78125 C 5.117188 -20.851562 4.65625 -26.390625 4.5625 -32.390625 C 4.46875 -38.390625 4.648438 -44.429688 5.109375 -50.515625 C 5.578125 -56.609375 6.226562 -62.332031 7.0625 -67.6875 C 7.894531 -73.039062 8.863281 -77.5625 9.96875 -81.25 C 11.8125 -87.800781 13.910156 -92.664062 16.265625 -95.84375 C 18.617188 -99.03125 22.148438 -100.625 26.859375 -100.625 Z M 26.859375 -100.625 "/></g></g></g><g fill="#043d01" fill-opacity="1"><g transform="translate(1130.019881, 312.774512)"><g><path d="M 72.8125 -50.796875 C 73.175781 -51.722656 73.472656 -53.175781 73.703125 -55.15625 C 73.941406 -57.144531 74.035156 -59.40625 73.984375 -61.9375 C 73.941406 -64.476562 73.734375 -66.898438 73.359375 -69.203125 C 72.898438 -71.703125 72.1875 -73.875 71.21875 -75.71875 C 70.25 -77.5625 68.84375 -78.484375 67 -78.484375 C 66.070312 -78.484375 65.582031 -77.5625 65.53125 -75.71875 C 65.488281 -73.875 65.703125 -71.703125 66.171875 -69.203125 C 66.628906 -66.804688 67.226562 -64.242188 67.96875 -61.515625 C 68.707031 -58.796875 69.515625 -56.421875 70.390625 -54.390625 C 71.265625 -52.367188 72.070312 -51.171875 72.8125 -50.796875 Z M 71.5625 -99.9375 C 75.34375 -98.832031 78.988281 -96.914062 82.5 -94.1875 C 86.007812 -91.46875 89.144531 -87.6875 91.90625 -82.84375 C 94.675781 -78 96.753906 -71.835938 98.140625 -64.359375 C 99.066406 -59.015625 99.296875 -53.78125 98.828125 -48.65625 C 98.367188 -43.53125 97.078125 -37.96875 94.953125 -31.96875 C 96.242188 -31.238281 97.234375 -30.6875 97.921875 -30.3125 C 98.617188 -29.945312 99.382812 -29.71875 100.21875 -29.625 C 101.050781 -29.53125 102.25 -29.484375 103.8125 -29.484375 C 105.382812 -29.484375 106.5625 -29.597656 107.34375 -29.828125 C 108.125 -30.054688 109.347656 -30.171875 111.015625 -30.171875 C 113.234375 -30.171875 115.03125 -29.363281 116.40625 -27.75 C 117.789062 -26.132812 118.671875 -24.3125 119.046875 -22.28125 C 119.410156 -20.34375 118.804688 -18.773438 117.234375 -17.578125 C 115.671875 -16.378906 113.664062 -15.476562 111.21875 -14.875 C 108.769531 -14.28125 106.347656 -13.984375 103.953125 -13.984375 C 101.003906 -13.984375 97.84375 -14.234375 94.46875 -14.734375 C 91.101562 -15.242188 88.265625 -16.144531 85.953125 -17.4375 C 81.160156 -11.53125 75.8125 -6.773438 69.90625 -3.171875 C 64 0.421875 57.90625 3.023438 51.625 4.640625 C 45.351562 6.253906 39.265625 7.0625 33.359375 7.0625 C 28.554688 7.0625 23.800781 6.320312 19.09375 4.84375 C 14.394531 3.363281 9.988281 1.242188 5.875 -1.515625 C 1.769531 -4.285156 -1.660156 -7.703125 -4.421875 -11.765625 C -7.191406 -15.828125 -9.039062 -20.394531 -9.96875 -25.46875 C -11.257812 -33.03125 -11.050781 -40.363281 -9.34375 -47.46875 C -7.632812 -54.582031 -4.863281 -61.226562 -1.03125 -67.40625 C 2.789062 -73.59375 7.265625 -79.015625 12.390625 -83.671875 C 17.515625 -88.335938 22.84375 -91.984375 28.375 -94.609375 C 33.914062 -97.242188 39.175781 -98.5625 44.15625 -98.5625 C 47.195312 -98.5625 49.753906 -97.867188 51.828125 -96.484375 C 53.910156 -95.097656 55.046875 -93.757812 55.234375 -92.46875 C 55.503906 -90.894531 54.90625 -89.367188 53.4375 -87.890625 C 52.050781 -86.515625 49.832031 -85.59375 46.78125 -85.125 C 43.28125 -84.664062 39.867188 -83.210938 36.546875 -80.765625 C 33.222656 -78.316406 30.175781 -75.128906 27.40625 -71.203125 C 24.632812 -67.285156 22.328125 -62.90625 20.484375 -58.0625 C 18.640625 -53.21875 17.367188 -48.164062 16.671875 -42.90625 C 15.984375 -37.644531 16.101562 -32.476562 17.03125 -27.40625 C 17.769531 -22.976562 19.242188 -19.378906 21.453125 -16.609375 C 23.671875 -13.835938 26.253906 -11.828125 29.203125 -10.578125 C 32.160156 -9.335938 35.160156 -8.71875 38.203125 -8.71875 C 42.171875 -8.71875 45.863281 -9.753906 49.28125 -11.828125 C 52.695312 -13.910156 55.8125 -16.566406 58.625 -19.796875 C 61.4375 -23.023438 63.765625 -26.4375 65.609375 -30.03125 C 61.179688 -34.925781 57.535156 -40.488281 54.671875 -46.71875 C 51.816406 -52.945312 49.832031 -59.148438 48.71875 -65.328125 C 48.164062 -68.566406 47.726562 -72.050781 47.40625 -75.78125 C 47.082031 -79.519531 47.148438 -83.140625 47.609375 -86.640625 C 48.078125 -90.148438 49.140625 -93.175781 50.796875 -95.71875 C 52.460938 -98.257812 54.957031 -99.988281 58.28125 -100.90625 C 61.601562 -101.832031 66.03125 -101.507812 71.5625 -99.9375 Z M 95.09375 -129.015625 C 95.644531 -126.242188 95.179688 -123.632812 93.703125 -121.1875 C 92.234375 -118.738281 90.132812 -116.546875 87.40625 -114.609375 C 84.6875 -112.671875 81.734375 -111.078125 78.546875 -109.828125 C 75.367188 -108.585938 72.300781 -107.738281 69.34375 -107.28125 C 68.789062 -107.1875 67.820312 -107 66.4375 -106.71875 C 65.050781 -106.445312 63.757812 -106.398438 62.5625 -106.578125 C 61.363281 -106.765625 60.628906 -107.410156 60.359375 -108.515625 C 60.078125 -109.992188 60.488281 -111.492188 61.59375 -113.015625 C 62.707031 -114.546875 64.09375 -116.070312 65.75 -117.59375 C 67.40625 -119.113281 69.0625 -120.632812 70.71875 -122.15625 C 72.382812 -123.675781 73.632812 -125.175781 74.46875 -126.65625 C 75.019531 -127.757812 75.476562 -128.703125 75.84375 -129.484375 C 76.21875 -130.273438 76.632812 -130.992188 77.09375 -131.640625 C 77.738281 -132.378906 78.613281 -132.957031 79.71875 -133.375 C 80.832031 -133.789062 82.632812 -134 85.125 -134 C 86.320312 -134 87.679688 -133.789062 89.203125 -133.375 C 90.734375 -132.957031 92.070312 -132.378906 93.21875 -131.640625 C 94.375 -130.898438 95 -130.023438 95.09375 -129.015625 Z M 95.09375 -129.015625 "/></g></g></g><g fill="#043d01" fill-opacity="1"><g transform="translate(1255.420706, 312.774512)"><g><path d="M 78.203125 5.671875 C 71.554688 5.671875 64.378906 0.53125 56.671875 -9.75 C 48.972656 -20.039062 41.429688 -36.078125 34.046875 -57.859375 C 32.484375 -50.941406 31.238281 -43.8125 30.3125 -36.46875 C 29.394531 -29.132812 28.9375 -22.007812 28.9375 -15.09375 C 28.9375 -11.582031 29.164062 -8.441406 29.625 -5.671875 C 30.082031 -2.898438 30.3125 -0.640625 30.3125 1.109375 C 30.3125 2.671875 29.921875 3.820312 29.140625 4.5625 C 28.359375 5.300781 26.859375 5.671875 24.640625 5.671875 C 20.671875 5.671875 17.367188 4.632812 14.734375 2.5625 C 12.109375 0.488281 10.378906 -3.222656 9.546875 -8.578125 C 7.984375 -18.453125 7.203125 -28.878906 7.203125 -39.859375 C 7.203125 -51.953125 7.867188 -62.359375 9.203125 -71.078125 C 10.546875 -79.796875 12.691406 -86.53125 15.640625 -91.28125 C 18.597656 -96.039062 22.472656 -98.421875 27.265625 -98.421875 C 27.453125 -98.421875 28.164062 -98.300781 29.40625 -98.0625 C 30.65625 -97.832031 32.109375 -97.441406 33.765625 -96.890625 C 35.429688 -96.335938 36.957031 -95.578125 38.34375 -94.609375 C 39.726562 -93.640625 40.648438 -92.414062 41.109375 -90.9375 C 42.773438 -84.476562 44.34375 -78.960938 45.8125 -74.390625 C 47.289062 -69.828125 48.789062 -65.722656 50.3125 -62.078125 C 51.832031 -58.429688 53.539062 -54.765625 55.4375 -51.078125 C 57.332031 -47.390625 59.523438 -43.097656 62.015625 -38.203125 C 62.929688 -50.296875 64.289062 -60.863281 66.09375 -69.90625 C 67.894531 -78.945312 70.335938 -85.957031 73.421875 -90.9375 C 76.515625 -95.925781 80.367188 -98.421875 84.984375 -98.421875 C 85.453125 -98.421875 86.46875 -98.164062 88.03125 -97.65625 C 89.601562 -97.144531 91.3125 -96.359375 93.15625 -95.296875 C 95 -94.242188 96.613281 -92.953125 98 -91.421875 C 99.382812 -89.898438 100.078125 -88.171875 100.078125 -86.234375 C 100.078125 -84.578125 99.59375 -82.039062 98.625 -78.625 C 97.65625 -75.207031 96.5 -71.304688 95.15625 -66.921875 C 93.820312 -62.546875 92.53125 -58.003906 91.28125 -53.296875 C 90.039062 -48.585938 89.144531 -44.109375 88.59375 -39.859375 C 87.945312 -34.785156 87.484375 -29.78125 87.203125 -24.84375 C 86.929688 -19.90625 86.796875 -15.039062 86.796875 -10.25 C 86.796875 -9.226562 86.835938 -8.300781 86.921875 -7.46875 C 87.015625 -6.644531 87.0625 -5.816406 87.0625 -4.984375 C 87.0625 -1.566406 86.460938 1.0625 85.265625 2.90625 C 84.066406 4.75 81.710938 5.671875 78.203125 5.671875 Z M 78.203125 5.671875 "/></g></g></g><path fill="#1976d2" d="M 380.410156 213.777344 L 368.410156 174.765625 C 368.074219 173.667969 367.699219 172.585938 367.277344 171.515625 C 366.855469 170.449219 366.394531 169.398438 365.890625 168.367188 C 365.382812 167.335938 364.839844 166.324219 364.253906 165.335938 C 363.667969 164.347656 363.042969 163.386719 362.382812 162.449219 C 361.71875 161.511719 361.019531 160.601562 360.285156 159.71875 C 359.550781 158.835938 358.78125 157.984375 357.976562 157.164062 C 357.171875 156.34375 356.339844 155.558594 355.472656 154.804688 C 354.605469 154.050781 353.710938 153.332031 352.785156 152.648438 C 351.863281 151.96875 350.914062 151.324219 349.9375 150.71875 C 348.960938 150.109375 347.964844 149.542969 346.941406 149.019531 C 345.921875 148.492188 344.882812 148.007812 343.820312 147.5625 C 342.761719 147.121094 341.6875 146.722656 340.59375 146.363281 C 339.503906 146.007812 338.398438 145.695312 337.28125 145.425781 C 336.164062 145.15625 335.039062 144.933594 333.90625 144.753906 C 332.769531 144.574219 331.632812 144.441406 330.484375 144.355469 C 329.339844 144.269531 328.195312 144.226562 327.046875 144.230469 L 90.011719 144.230469 C 88.863281 144.226562 87.714844 144.269531 86.570312 144.355469 C 85.425781 144.445312 84.285156 144.578125 83.152344 144.753906 C 82.015625 144.933594 80.890625 145.15625 79.773438 145.425781 C 78.65625 145.695312 77.550781 146.007812 76.460938 146.367188 C 75.367188 146.722656 74.292969 147.125 73.234375 147.566406 C 72.171875 148.007812 71.132812 148.496094 70.113281 149.019531 C 69.089844 149.546875 68.09375 150.113281 67.117188 150.71875 C 66.140625 151.324219 65.191406 151.96875 64.265625 152.652344 C 63.34375 153.335938 62.449219 154.054688 61.582031 154.808594 C 60.714844 155.5625 59.878906 156.347656 59.074219 157.167969 C 58.273438 157.988281 57.503906 158.839844 56.765625 159.722656 C 56.03125 160.605469 55.332031 161.515625 54.671875 162.453125 C 54.007812 163.390625 53.382812 164.355469 52.796875 165.34375 C 52.210938 166.332031 51.667969 167.339844 51.164062 168.371094 C 50.65625 169.402344 50.195312 170.453125 49.773438 171.523438 C 49.351562 172.589844 48.976562 173.675781 48.640625 174.773438 L 42.296875 195.414062 C 42.058594 196.1875 41.886719 196.96875 41.78125 197.769531 C 41.679688 198.566406 41.640625 199.371094 41.667969 200.175781 C 41.699219 200.980469 41.796875 201.777344 41.957031 202.566406 C 42.121094 203.355469 42.347656 204.125 42.640625 204.875 C 42.933594 205.625 43.285156 206.347656 43.699219 207.039062 C 44.109375 207.730469 44.578125 208.382812 45.101562 208.996094 C 45.621094 209.613281 46.191406 210.175781 46.808594 210.695312 C 47.425781 211.214844 48.082031 211.675781 48.777344 212.085938 L 260.308594 336.492188 C 261.011719 336.90625 261.742188 337.253906 262.503906 337.546875 C 263.265625 337.835938 264.046875 338.058594 264.84375 338.214844 C 265.644531 338.371094 266.449219 338.460938 267.265625 338.480469 C 268.078125 338.5 268.886719 338.453125 269.695312 338.335938 C 270.5 338.21875 271.289062 338.035156 272.066406 337.785156 C 272.839844 337.53125 273.585938 337.21875 274.308594 336.839844 C 275.03125 336.460938 275.714844 336.027344 276.363281 335.535156 C 277.011719 335.039062 277.613281 334.496094 278.167969 333.898438 L 377.164062 227.855469 C 378.03125 226.925781 378.761719 225.902344 379.355469 224.785156 C 379.953125 223.664062 380.390625 222.484375 380.675781 221.25 C 380.960938 220.015625 381.082031 218.761719 381.035156 217.496094 C 380.992188 216.226562 380.785156 214.988281 380.410156 213.777344 Z M 380.410156 213.777344 " fill-opacity="1" fill-rule="nonzero"/><path fill="#689f38" d="M 120 220.515625 L 63.40625 187.226562 C 62.9375 186.949219 62.457031 186.703125 61.960938 186.480469 C 61.464844 186.261719 60.957031 186.070312 60.441406 185.90625 C 59.921875 185.742188 59.398438 185.605469 58.867188 185.503906 C 58.332031 185.398438 57.796875 185.324219 57.253906 185.28125 C 56.714844 185.238281 56.171875 185.222656 55.628906 185.242188 C 55.085938 185.257812 54.546875 185.304688 54.007812 185.382812 C 53.472656 185.460938 52.941406 185.570312 52.417969 185.710938 C 51.890625 185.847656 51.375 186.015625 50.871094 186.210938 C 50.363281 186.40625 49.871094 186.632812 49.390625 186.882812 C 48.910156 187.136719 48.445312 187.414062 47.996094 187.71875 C 47.546875 188.023438 47.113281 188.351562 46.703125 188.707031 C 46.289062 189.058594 45.898438 189.433594 45.53125 189.832031 C 45.160156 190.226562 44.8125 190.644531 44.492188 191.082031 C 44.167969 191.519531 43.871094 191.972656 43.597656 192.441406 C 43.328125 192.910156 43.082031 193.394531 42.867188 193.890625 C 42.648438 194.390625 42.460938 194.898438 42.300781 195.417969 L 13.710938 288.320312 C 13.492188 289.035156 13.328125 289.761719 13.21875 290.5 C 13.113281 291.238281 13.0625 291.980469 13.074219 292.726562 C 13.082031 293.472656 13.148438 294.214844 13.269531 294.953125 C 13.394531 295.6875 13.574219 296.410156 13.808594 297.117188 C 14.046875 297.828125 14.335938 298.511719 14.675781 299.175781 C 15.019531 299.839844 15.410156 300.472656 15.851562 301.074219 C 16.292969 301.679688 16.777344 302.242188 17.304688 302.769531 C 17.835938 303.296875 18.402344 303.78125 19.003906 304.222656 C 19.609375 304.660156 20.242188 305.050781 20.90625 305.390625 C 21.570312 305.734375 22.257812 306.019531 22.964844 306.253906 C 23.675781 306.488281 24.398438 306.667969 25.132812 306.789062 C 25.871094 306.910156 26.613281 306.976562 27.359375 306.984375 C 28.105469 306.992188 28.847656 306.941406 29.589844 306.832031 C 30.328125 306.722656 31.054688 306.558594 31.765625 306.335938 C 32.480469 306.117188 33.171875 305.839844 33.839844 305.511719 C 34.511719 305.183594 35.152344 304.804688 35.765625 304.378906 L 120.949219 244.761719 C 121.441406 244.417969 121.910156 244.042969 122.359375 243.640625 C 122.804688 243.234375 123.222656 242.804688 123.613281 242.351562 C 124.007812 241.894531 124.367188 241.414062 124.703125 240.914062 C 125.035156 240.414062 125.332031 239.894531 125.601562 239.355469 C 125.867188 238.816406 126.101562 238.261719 126.296875 237.695312 C 126.496094 237.125 126.660156 236.546875 126.785156 235.960938 C 126.910156 235.371094 127 234.777344 127.050781 234.179688 C 127.101562 233.582031 127.117188 232.980469 127.09375 232.378906 C 127.070312 231.777344 127.007812 231.179688 126.910156 230.589844 C 126.8125 229.996094 126.675781 229.410156 126.503906 228.832031 C 126.332031 228.257812 126.125 227.695312 125.886719 227.144531 C 125.644531 226.59375 125.367188 226.058594 125.058594 225.542969 C 124.75 225.027344 124.410156 224.53125 124.039062 224.058594 C 123.667969 223.585938 123.269531 223.136719 122.84375 222.710938 C 122.417969 222.289062 121.964844 221.890625 121.488281 221.523438 C 121.015625 221.15625 120.515625 220.820312 120 220.515625 Z M 120 220.515625 " fill-opacity="1" fill-rule="nonzero"/><path fill="#689f38" d="M 412.792969 319.003906 L 380.40625 213.777344 C 380.21875 213.175781 379.996094 212.585938 379.734375 212.015625 C 379.472656 211.441406 379.175781 210.886719 378.839844 210.355469 C 378.507812 209.820312 378.136719 209.3125 377.738281 208.828125 C 377.335938 208.339844 376.90625 207.882812 376.445312 207.453125 C 375.984375 207.027344 375.496094 206.628906 374.984375 206.265625 C 374.472656 205.898438 373.9375 205.570312 373.378906 205.273438 C 372.824219 204.976562 372.25 204.722656 371.660156 204.5 C 371.070312 204.28125 370.46875 204.101562 369.855469 203.957031 C 369.242188 203.816406 368.621094 203.71875 367.996094 203.65625 C 367.367188 203.597656 366.738281 203.578125 366.109375 203.601562 C 365.480469 203.621094 364.855469 203.6875 364.234375 203.789062 C 363.613281 203.894531 363 204.039062 362.398438 204.222656 C 361.796875 204.40625 361.210938 204.628906 360.636719 204.890625 C 360.0625 205.152344 359.511719 205.449219 358.976562 205.785156 C 358.441406 206.117188 357.933594 206.484375 357.445312 206.886719 C 356.960938 207.285156 356.503906 207.714844 356.074219 208.175781 L 222.988281 350.738281 C 222.03125 351.765625 221.242188 352.910156 220.617188 354.167969 C 219.992188 355.425781 219.558594 356.746094 219.320312 358.132812 C 219.082031 359.515625 219.046875 360.90625 219.214844 362.300781 C 219.382812 363.695312 219.75 365.035156 220.308594 366.324219 C 220.867188 367.613281 221.601562 368.796875 222.507812 369.871094 C 223.410156 370.945312 224.453125 371.867188 225.625 372.636719 C 226.800781 373.40625 228.0625 373.992188 229.40625 374.394531 C 230.753906 374.796875 232.128906 375 233.535156 375 L 371.429688 375 C 372.273438 375 373.117188 374.976562 373.957031 374.925781 C 374.800781 374.878906 375.636719 374.804688 376.476562 374.707031 C 377.3125 374.605469 378.144531 374.484375 378.976562 374.335938 C 379.804688 374.191406 380.632812 374.019531 381.453125 373.824219 C 382.273438 373.628906 383.085938 373.410156 383.890625 373.167969 C 384.699219 372.925781 385.5 372.660156 386.289062 372.371094 C 387.082031 372.082031 387.867188 371.769531 388.640625 371.433594 C 389.414062 371.097656 390.175781 370.742188 390.929688 370.359375 C 391.679688 369.980469 392.421875 369.578125 393.152344 369.15625 C 393.878906 368.734375 394.59375 368.289062 395.300781 367.824219 C 396.003906 367.359375 396.691406 366.875 397.367188 366.371094 C 398.039062 365.863281 398.699219 365.339844 399.34375 364.796875 C 399.988281 364.253906 400.617188 363.691406 401.226562 363.113281 C 401.839844 362.53125 402.433594 361.933594 403.007812 361.320312 C 403.585938 360.703125 404.144531 360.074219 404.683594 359.425781 C 405.222656 358.777344 405.742188 358.113281 406.242188 357.4375 C 406.746094 356.757812 407.226562 356.066406 407.683594 355.359375 C 408.144531 354.65625 408.585938 353.9375 409.003906 353.203125 C 409.421875 352.472656 409.820312 351.730469 410.191406 350.972656 C 410.566406 350.21875 410.921875 349.453125 411.25 348.679688 C 411.582031 347.902344 411.886719 347.121094 412.171875 346.324219 C 412.457031 345.53125 412.71875 344.730469 412.957031 343.921875 C 413.191406 343.113281 413.40625 342.300781 413.597656 341.476562 C 413.785156 340.65625 413.953125 339.832031 414.09375 339 C 414.234375 338.167969 414.351562 337.335938 414.445312 336.496094 C 414.539062 335.660156 414.605469 334.820312 414.648438 333.980469 C 414.695312 333.136719 414.710938 332.292969 414.707031 331.453125 C 414.703125 330.609375 414.671875 329.765625 414.617188 328.925781 C 414.5625 328.085938 414.484375 327.246094 414.378906 326.410156 C 414.277344 325.574219 414.148438 324.742188 413.996094 323.914062 C 413.84375 323.082031 413.667969 322.257812 413.464844 321.441406 C 413.265625 320.621094 413.042969 319.808594 412.792969 319.003906 Z M 412.792969 319.003906 " fill-opacity="1" fill-rule="nonzero"/><path fill="#1976d2" d="M 274.933594 311.632812 L 119.992188 220.515625 C 118.800781 219.8125 117.535156 219.296875 116.195312 218.957031 C 114.851562 218.621094 113.492188 218.480469 112.109375 218.535156 C 110.730469 218.589844 109.382812 218.835938 108.074219 219.277344 C 106.765625 219.71875 105.542969 220.335938 104.410156 221.128906 L 19.226562 280.742188 C 17.910156 281.664062 16.78125 282.773438 15.835938 284.070312 C 14.890625 285.371094 14.183594 286.785156 13.710938 288.320312 L 4.265625 319 C 4.015625 319.804688 3.792969 320.617188 3.589844 321.433594 C 3.390625 322.253906 3.214844 323.078125 3.0625 323.90625 C 2.910156 324.734375 2.78125 325.566406 2.675781 326.40625 C 2.574219 327.242188 2.492188 328.078125 2.4375 328.921875 C 2.382812 329.761719 2.355469 330.605469 2.347656 331.445312 C 2.34375 332.289062 2.363281 333.132812 2.40625 333.972656 C 2.449219 334.816406 2.519531 335.65625 2.609375 336.492188 C 2.703125 337.332031 2.820312 338.164062 2.960938 338.996094 C 3.105469 339.828125 3.269531 340.652344 3.460938 341.472656 C 3.648438 342.292969 3.863281 343.109375 4.101562 343.917969 C 4.335938 344.726562 4.597656 345.527344 4.882812 346.320312 C 5.167969 347.113281 5.472656 347.898438 5.804688 348.675781 C 6.132812 349.449219 6.488281 350.214844 6.863281 350.972656 C 7.238281 351.726562 7.632812 352.46875 8.050781 353.199219 C 8.46875 353.933594 8.910156 354.652344 9.371094 355.359375 C 9.828125 356.0625 10.3125 356.757812 10.8125 357.433594 C 11.3125 358.113281 11.832031 358.773438 12.371094 359.421875 C 12.910156 360.070312 13.46875 360.703125 14.046875 361.316406 C 14.621094 361.929688 15.214844 362.527344 15.828125 363.109375 C 16.4375 363.691406 17.066406 364.25 17.710938 364.796875 C 18.355469 365.339844 19.015625 365.863281 19.691406 366.367188 C 20.363281 366.875 21.054688 367.359375 21.757812 367.824219 C 22.460938 368.289062 23.175781 368.734375 23.90625 369.15625 C 24.632812 369.578125 25.375 369.980469 26.128906 370.359375 C 26.878906 370.738281 27.644531 371.097656 28.417969 371.433594 C 29.191406 371.765625 29.972656 372.078125 30.765625 372.367188 C 31.558594 372.660156 32.355469 372.925781 33.164062 373.167969 C 33.972656 373.410156 34.785156 373.628906 35.605469 373.824219 C 36.425781 374.019531 37.25 374.191406 38.082031 374.335938 C 38.910156 374.484375 39.746094 374.605469 40.582031 374.703125 C 41.417969 374.804688 42.257812 374.878906 43.101562 374.925781 C 43.941406 374.976562 44.785156 375 45.625 375 L 233.535156 375 C 235.535156 375 237.453125 374.601562 239.285156 373.804688 C 241.117188 373.007812 242.71875 371.878906 244.082031 370.414062 L 278.167969 333.898438 C 278.535156 333.507812 278.878906 333.09375 279.199219 332.660156 C 279.523438 332.230469 279.820312 331.78125 280.089844 331.316406 C 280.359375 330.851562 280.605469 330.371094 280.824219 329.878906 C 281.039062 329.386719 281.230469 328.882812 281.390625 328.371094 C 281.550781 327.855469 281.683594 327.335938 281.785156 326.804688 C 281.886719 326.277344 281.960938 325.746094 282.003906 325.207031 C 282.046875 324.671875 282.058594 324.132812 282.042969 323.597656 C 282.023438 323.058594 281.976562 322.523438 281.902344 321.988281 C 281.824219 321.457031 281.714844 320.929688 281.578125 320.410156 C 281.441406 319.886719 281.277344 319.375 281.085938 318.875 C 280.890625 318.371094 280.667969 317.882812 280.421875 317.402344 C 280.171875 316.925781 279.898438 316.464844 279.597656 316.015625 C 279.296875 315.570312 278.972656 315.140625 278.625 314.730469 C 278.273438 314.320312 277.90625 313.929688 277.511719 313.5625 C 277.121094 313.195312 276.707031 312.847656 276.277344 312.523438 C 275.847656 312.203125 275.398438 311.902344 274.933594 311.632812 Z M 274.933594 311.632812 " fill-opacity="1" fill-rule="nonzero"/><path fill="#ffb300" d="M 382.796875 221.683594 L 239.691406 375 L 200.304688 375 L 244.738281 327.402344 L 113.316406 250.097656 L 2.375 327.691406 C 2.65625 324.734375 3.28125 321.847656 4.253906 319.039062 L 15.214844 283.558594 L 86.050781 233.941406 L 39.019531 206.25 L 47.675781 177.980469 L 264.9375 305.769531 L 371.113281 192.117188 C 371.683594 191.417969 372.355469 190.839844 373.132812 190.382812 Z M 382.796875 221.683594 " fill-opacity="1" fill-rule="nonzero"/><path fill="#f44336" d="M 278.949219 30.140625 C 276.546875 27.78125 274.027344 25.546875 271.398438 23.441406 C 268.769531 21.332031 266.039062 19.367188 263.210938 17.535156 C 260.382812 15.707031 257.46875 14.023438 254.46875 12.488281 C 251.46875 10.953125 248.398438 9.574219 245.261719 8.351562 C 242.121094 7.125 238.929688 6.0625 235.683594 5.164062 C 232.433594 4.261719 229.152344 3.527344 225.828125 2.960938 C 222.507812 2.390625 219.167969 1.992188 215.804688 1.761719 C 212.445312 1.53125 209.078125 1.472656 205.710938 1.585938 C 204.105469 1.644531 202.503906 1.738281 200.902344 1.875 C 199.300781 2.007812 197.707031 2.179688 196.113281 2.390625 C 194.519531 2.601562 192.933594 2.847656 191.355469 3.132812 C 189.773438 3.417969 188.199219 3.738281 186.636719 4.097656 C 185.070312 4.457031 183.515625 4.851562 181.96875 5.285156 C 180.421875 5.71875 178.886719 6.1875 177.359375 6.691406 C 175.835938 7.199219 174.324219 7.738281 172.824219 8.316406 C 171.328125 8.894531 169.84375 9.503906 168.371094 10.152344 C 166.902344 10.800781 165.449219 11.480469 164.011719 12.195312 C 162.574219 12.914062 161.152344 13.660156 159.75 14.445312 C 158.347656 15.226562 156.964844 16.042969 155.601562 16.890625 C 154.238281 17.738281 152.894531 18.621094 151.574219 19.53125 C 150.25 20.441406 148.953125 21.386719 147.675781 22.359375 C 146.398438 23.332031 145.144531 24.335938 143.914062 25.367188 C 142.683594 26.398438 141.476562 27.460938 140.296875 28.550781 C 139.117188 29.640625 137.964844 30.757812 136.835938 31.898438 C 135.710938 33.042969 134.609375 34.214844 133.539062 35.410156 C 132.46875 36.605469 131.425781 37.828125 130.410156 39.070312 C 129.398438 40.316406 128.414062 41.585938 127.457031 42.878906 C 126.503906 44.167969 125.582031 45.480469 124.691406 46.816406 C 123.796875 48.152344 122.9375 49.507812 122.109375 50.886719 C 121.28125 52.261719 120.488281 53.65625 119.726562 55.070312 C 118.964844 56.484375 118.238281 57.914062 117.542969 59.363281 C 116.847656 60.808594 116.1875 62.273438 115.5625 63.753906 C 114.9375 65.230469 114.351562 66.726562 113.796875 68.230469 C 113.242188 69.738281 112.722656 71.257812 112.242188 72.789062 C 111.757812 74.320312 111.3125 75.863281 110.902344 77.417969 C 110.492188 78.96875 110.121094 80.53125 109.785156 82.101562 C 109.449219 83.671875 109.152344 85.25 108.890625 86.832031 C 108.628906 88.417969 108.40625 90.007812 108.21875 91.601562 C 108.035156 93.195312 107.886719 94.796875 107.777344 96.398438 C 107.664062 98 107.59375 99.601562 107.558594 101.207031 C 107.46875 106.679688 107.824219 112.125 108.632812 117.539062 C 109.445312 122.953125 110.691406 128.265625 112.382812 133.472656 C 114.070312 138.679688 116.175781 143.714844 118.695312 148.570312 C 121.21875 153.429688 124.121094 158.050781 127.410156 162.429688 C 129.226562 165.15625 174.703125 228.375 189.234375 248.507812 C 189.765625 249.242188 190.335938 249.945312 190.949219 250.609375 C 191.5625 251.277344 192.210938 251.90625 192.898438 252.496094 C 193.585938 253.085938 194.304688 253.636719 195.054688 254.140625 C 195.804688 254.648438 196.585938 255.105469 197.390625 255.519531 C 198.195312 255.933594 199.023438 256.300781 199.871094 256.617188 C 200.71875 256.933594 201.582031 257.199219 202.460938 257.414062 C 203.34375 257.628906 204.230469 257.792969 205.128906 257.902344 C 206.027344 258.011719 206.929688 258.070312 207.835938 258.074219 C 208.742188 258.078125 209.644531 258.027344 210.542969 257.925781 C 211.445312 257.824219 212.335938 257.667969 213.214844 257.460938 C 214.097656 257.253906 214.964844 256.996094 215.816406 256.6875 C 216.667969 256.375 217.496094 256.019531 218.304688 255.613281 C 219.113281 255.203125 219.898438 254.75 220.652344 254.253906 C 221.40625 253.753906 222.132812 253.210938 222.824219 252.625 C 223.515625 252.042969 224.167969 251.417969 224.789062 250.757812 C 225.40625 250.097656 225.984375 249.402344 226.519531 248.671875 C 227.074219 247.941406 287.074219 165.917969 289.410156 162.941406 C 292.632812 158.597656 295.492188 154.027344 297.988281 149.226562 C 300.484375 144.429688 302.589844 139.464844 304.296875 134.332031 C 306.003906 129.199219 307.292969 123.960938 308.167969 118.625 C 309.042969 113.285156 309.492188 107.914062 309.511719 102.503906 C 309.523438 99.136719 309.367188 95.78125 309.039062 92.429688 C 308.710938 89.078125 308.214844 85.753906 307.554688 82.453125 C 306.890625 79.15625 306.0625 75.894531 305.074219 72.679688 C 304.082031 69.460938 302.929688 66.304688 301.621094 63.203125 C 300.3125 60.101562 298.847656 57.074219 297.234375 54.121094 C 295.621094 51.167969 293.859375 48.304688 291.957031 45.527344 C 290.050781 42.75 288.011719 40.078125 285.839844 37.507812 C 283.667969 34.9375 281.371094 32.480469 278.949219 30.140625 Z M 278.949219 30.140625 " fill-opacity="1" fill-rule="nonzero"/><path fill="#eeeeee" d="M 251.808594 103.847656 C 251.808594 105.261719 251.738281 106.675781 251.597656 108.085938 C 251.460938 109.496094 251.253906 110.898438 250.976562 112.289062 C 250.699219 113.675781 250.355469 115.050781 249.945312 116.40625 C 249.53125 117.761719 249.054688 119.09375 248.511719 120.40625 C 247.972656 121.714844 247.367188 122.992188 246.699219 124.242188 C 246.027344 125.492188 245.300781 126.707031 244.515625 127.886719 C 243.726562 129.0625 242.882812 130.199219 241.984375 131.296875 C 241.085938 132.390625 240.132812 133.441406 239.132812 134.441406 C 238.128906 135.445312 237.082031 136.394531 235.984375 137.292969 C 234.890625 138.191406 233.75 139.035156 232.574219 139.824219 C 231.394531 140.609375 230.179688 141.339844 228.929688 142.007812 C 227.679688 142.675781 226.398438 143.28125 225.089844 143.820312 C 223.78125 144.363281 222.449219 144.839844 221.09375 145.253906 C 219.734375 145.664062 218.363281 146.007812 216.972656 146.285156 C 215.582031 146.558594 214.179688 146.769531 212.769531 146.90625 C 211.359375 147.046875 209.945312 147.117188 208.527344 147.117188 C 207.109375 147.117188 205.695312 147.046875 204.285156 146.90625 C 202.875 146.769531 201.476562 146.558594 200.085938 146.285156 C 198.695312 146.007812 197.320312 145.664062 195.964844 145.253906 C 194.609375 144.839844 193.277344 144.363281 191.964844 143.820312 C 190.65625 143.28125 189.378906 142.675781 188.128906 142.007812 C 186.878906 141.339844 185.664062 140.609375 184.484375 139.824219 C 183.304688 139.035156 182.167969 138.191406 181.074219 137.292969 C 179.976562 136.394531 178.929688 135.445312 177.925781 134.441406 C 176.921875 133.441406 175.972656 132.390625 175.074219 131.296875 C 174.175781 130.199219 173.332031 129.0625 172.542969 127.886719 C 171.757812 126.707031 171.027344 125.492188 170.359375 124.242188 C 169.691406 122.992188 169.085938 121.714844 168.542969 120.40625 C 168 119.09375 167.523438 117.761719 167.113281 116.40625 C 166.703125 115.050781 166.359375 113.675781 166.082031 112.289062 C 165.804688 110.898438 165.597656 109.496094 165.457031 108.085938 C 165.320312 106.675781 165.25 105.261719 165.25 103.847656 C 165.25 102.429688 165.320312 101.015625 165.457031 99.605469 C 165.597656 98.195312 165.804688 96.792969 166.082031 95.40625 C 166.359375 94.015625 166.703125 92.640625 167.113281 91.285156 C 167.523438 89.929688 168 88.597656 168.542969 87.289062 C 169.085938 85.976562 169.691406 84.699219 170.359375 83.449219 C 171.027344 82.199219 171.757812 80.984375 172.542969 79.808594 C 173.332031 78.628906 174.175781 77.492188 175.074219 76.394531 C 175.972656 75.300781 176.921875 74.253906 177.925781 73.25 C 178.929688 72.25 179.976562 71.296875 181.074219 70.398438 C 182.167969 69.5 183.304688 68.65625 184.484375 67.867188 C 185.664062 67.082031 186.878906 66.355469 188.128906 65.6875 C 189.378906 65.019531 190.65625 64.414062 191.964844 63.871094 C 193.277344 63.328125 194.609375 62.851562 195.964844 62.441406 C 197.320312 62.027344 198.695312 61.683594 200.085938 61.410156 C 201.476562 61.132812 202.875 60.925781 204.285156 60.785156 C 205.695312 60.644531 207.109375 60.578125 208.527344 60.578125 C 209.945312 60.578125 211.359375 60.644531 212.769531 60.785156 C 214.179688 60.925781 215.582031 61.132812 216.972656 61.410156 C 218.363281 61.683594 219.734375 62.027344 221.09375 62.441406 C 222.449219 62.851562 223.78125 63.328125 225.089844 63.871094 C 226.398438 64.414062 227.679688 65.019531 228.929688 65.6875 C 230.179688 66.355469 231.394531 67.082031 232.574219 67.867188 C 233.75 68.65625 234.890625 69.5 235.984375 70.398438 C 237.082031 71.296875 238.128906 72.25 239.132812 73.25 C 240.132812 74.253906 241.085938 75.300781 241.984375 76.394531 C 242.882812 77.492188 243.726562 78.628906 244.515625 79.808594 C 245.300781 80.984375 246.027344 82.199219 246.699219 83.449219 C 247.367188 84.699219 247.972656 85.976562 248.511719 87.289062 C 249.054688 88.597656 249.53125 89.929688 249.945312 91.285156 C 250.355469 92.640625 250.699219 94.015625 250.976562 95.40625 C 251.253906 96.792969 251.460938 98.195312 251.597656 99.605469 C 251.738281 101.015625 251.808594 102.429688 251.808594 103.847656 Z M 251.808594 103.847656 " fill-opacity="1" fill-rule="nonzero"/></svg>