<svg xmlns="http://www.w3.org/2000/svg" xmlns:xlink="http://www.w3.org/1999/xlink" width="1000" zoomAndPan="magnify" viewBox="0 0 750 299.999988" height="400" preserveAspectRatio="xMidYMid meet" version="1.0"><defs><g/><clipPath id="c3a17f4d9e"><path d="M 2 66 L 475 66 L 475 242 L 2 242 Z M 2 66 " clip-rule="nonzero"/></clipPath><clipPath id="da566f37c1"><path d="M 474.675781 215.917969 L 11.144531 241.726562 L 2.804688 91.957031 L 466.335938 66.148438 Z M 474.675781 215.917969 " clip-rule="nonzero"/></clipPath><clipPath id="72d5fd8624"><path d="M 7 21 L 435 21 L 435 168 L 7 168 Z M 7 21 " clip-rule="nonzero"/></clipPath><clipPath id="fa166602aa"><path d="M 472.675781 149.917969 L 9.144531 175.726562 L 0.804688 25.957031 L 464.335938 0.148438 Z M 472.675781 149.917969 " clip-rule="nonzero"/></clipPath><clipPath id="94692c3d50"><path d="M 464.320312 -0.191406 L 0.785156 25.617188 L 9.125 175.386719 L 472.65625 149.578125 Z M 464.320312 -0.191406 " clip-rule="nonzero"/></clipPath><clipPath id="e07f2b04aa"><path d="M 464.324219 -0.148438 L 0.480469 25.679688 L 8.832031 175.699219 L 472.675781 149.871094 Z M 464.324219 -0.148438 " clip-rule="nonzero"/></clipPath><clipPath id="1efe9d014a"><path d="M 16 12 L 471 12 L 471 136 L 16 136 Z M 16 12 " clip-rule="nonzero"/></clipPath><clipPath id="e63450c9dc"><path d="M 472.675781 149.917969 L 9.144531 175.726562 L 0.804688 25.957031 L 464.335938 0.148438 Z M 472.675781 149.917969 " clip-rule="nonzero"/></clipPath><clipPath id="9d9e8f9039"><path d="M 464.320312 -0.191406 L 0.785156 25.617188 L 9.125 175.386719 L 472.65625 149.578125 Z M 464.320312 -0.191406 " clip-rule="nonzero"/></clipPath><clipPath id="a05bbedadf"><path d="M 464.324219 -0.148438 L 0.480469 25.679688 L 8.832031 175.699219 L 472.675781 149.871094 Z M 464.324219 -0.148438 " clip-rule="nonzero"/></clipPath><clipPath id="0cfac0d2fd"><rect x="0" width="473" y="0" height="176"/></clipPath><clipPath id="46eff1e678"><rect x="0" width="444" y="0" height="174"/></clipPath></defs><g clip-path="url(#c3a17f4d9e)"><g clip-path="url(#da566f37c1)"><g transform="matrix(1, 0, 0, 1, 2, 66)"><g clip-path="url(#0cfac0d2fd)"><g clip-path="url(#72d5fd8624)"><g clip-path="url(#fa166602aa)"><g clip-path="url(#94692c3d50)"><g clip-path="url(#e07f2b04aa)"><path fill="#deff15" d="M 61.507812 90.597656 C 244.925781 -64.15625 493.636719 88.375 421.832031 104.882812 C 393.222656 111.460938 337.339844 87.625 280.867188 80.773438 C 218.910156 73.257812 133.882812 67.171875 145.285156 98.21875 C 151.683594 115.628906 168.390625 126.433594 170.40625 157.488281 C 171.644531 176.53125 134.28125 162.523438 100.980469 161.53125 C 56.949219 160.207031 7.910156 165.203125 7.367188 149.335938 C 6.511719 124.472656 68.816406 -32.402344 61.507812 90.597656 " fill-opacity="1" fill-rule="nonzero"/></g></g></g></g><g clip-path="url(#1efe9d014a)"><g clip-path="url(#e63450c9dc)"><g clip-path="url(#9d9e8f9039)"><g clip-path="url(#a05bbedadf)"><path fill="#003e0a" d="M 130.96875 112.269531 C 130.414062 111.425781 129.851562 110.359375 129.109375 109.394531 C 124.953125 103.890625 120.65625 98.441406 116.628906 92.84375 C 115.136719 90.765625 113.605469 90.402344 111.285156 90.800781 C 101.753906 92.664062 92.222656 94.382812 82.550781 96.207031 C 82.648438 94.601562 84.035156 94.0625 84.957031 93.230469 C 106.632812 74.777344 130.925781 61.21875 158.253906 52.863281 C 185.179688 44.667969 212.722656 40.839844 240.792969 40.015625 C 284.015625 38.707031 326.378906 44.007812 367.648438 56.984375 C 392.203125 64.699219 415.914062 74.519531 438.035156 87.882812 C 447.429688 93.550781 456.027344 100.40625 464.3125 107.5625 C 465.136719 108.300781 465.960938 109.171875 466.90625 109.625 C 467.660156 109.996094 468.953125 110.148438 469.570312 109.753906 C 470.144531 109.351562 470.351562 108.109375 470.304688 107.238281 C 470.257812 106.414062 469.753906 105.625 469.433594 104.8125 C 466.710938 98.726562 464.078125 92.636719 461.175781 86.648438 C 460.347656 84.949219 458.976562 83.421875 457.617188 82.078125 C 442.566406 67.136719 424.558594 56.761719 405.40625 48.0625 C 366.015625 30.164062 324.761719 19.160156 281.726562 14.859375 C 251.234375 11.785156 220.75 12.105469 190.441406 16.414062 C 162.632812 20.347656 135.699219 27.578125 110.429688 40.039062 C 90.386719 49.914062 72.691406 63.285156 56.285156 78.417969 C 53.492188 81.003906 50.707031 83.636719 47.304688 86.816406 C 47.4375 85.105469 47.46875 84.007812 47.640625 82.945312 C 48.910156 76.085938 50.085938 69.179688 51.632812 62.351562 C 52.144531 60.070312 51.652344 58.632812 49.96875 57.214844 C 44.292969 52.480469 38.699219 47.617188 33.023438 42.882812 C 30.1875 40.519531 27.976562 41.148438 27.214844 44.808594 C 25.996094 50.933594 25.148438 57.175781 24.113281 63.324219 C 21.5625 78.414062 19.144531 93.554688 16.40625 108.613281 C 15.84375 111.667969 16.199219 113.898438 18.390625 116.207031 C 23.460938 121.613281 28.351562 127.121094 33.121094 132.8125 C 35.238281 135.359375 37.425781 135.964844 40.496094 135.113281 C 46.914062 133.378906 53.335938 131.730469 59.816406 130.273438 C 79.160156 125.9375 98.46875 121.75 117.816406 117.460938 C 121.078125 116.726562 124.28125 115.8125 127.496094 115.039062 C 129 114.765625 130.34375 114.230469 130.96875 112.269531 " fill-opacity="1" fill-rule="nonzero"/></g></g></g></g></g></g></g></g><g transform="matrix(1, 0, 0, 1, 306, 126)"><g clip-path="url(#46eff1e678)"><g fill="#003e0a" fill-opacity="1"><g transform="translate(16.407479, 165.546449)"><g><path d="M 44.421875 -26.890625 C 45.441406 -26.585938 46.441406 -26.132812 47.421875 -25.53125 C 48.410156 -24.9375 49.207031 -24.128906 49.8125 -23.109375 C 50.425781 -22.097656 50.625 -20.851562 50.40625 -19.375 C 50.226562 -17.445312 49.378906 -15.867188 47.859375 -14.640625 C 46.347656 -13.421875 44.609375 -12.867188 42.640625 -12.984375 C 41.179688 -13.078125 39.738281 -13.332031 38.3125 -13.75 C 36.882812 -14.175781 35.460938 -14.617188 34.046875 -15.078125 C 32.148438 -15.710938 30.238281 -16.375 28.3125 -17.0625 C 26.394531 -17.757812 24.515625 -18.429688 22.671875 -19.078125 C 21.679688 -19.441406 20.707031 -19.796875 19.75 -20.140625 C 18.789062 -20.492188 17.820312 -20.851562 16.84375 -21.21875 C 16.519531 -21.332031 16.207031 -21.425781 15.90625 -21.5 C 15.601562 -21.570312 15.273438 -21.664062 14.921875 -21.78125 C 14.441406 -21.851562 14.015625 -21.960938 13.640625 -22.109375 L 12.296875 -22.4375 L 12.859375 -17.578125 C 12.941406 -16.335938 13.046875 -15.128906 13.171875 -13.953125 C 13.304688 -12.773438 13.425781 -11.625 13.53125 -10.5 C 13.675781 -8.414062 13.34375 -6.71875 12.53125 -5.40625 C 11.71875 -4.101562 10.507812 -3.304688 8.90625 -3.015625 C 7.300781 -2.753906 5.867188 -3.097656 4.609375 -4.046875 C 3.359375 -4.992188 2.445312 -6.4375 1.875 -8.375 C -2.226562 -22.789062 -4.414062 -38.984375 -4.6875 -56.953125 C -4.726562 -59.410156 -4.21875 -61.113281 -3.15625 -62.0625 C -2.625 -62.519531 -1.945312 -62.832031 -1.125 -63 C -0.132812 -63.207031 1.0625 -63.226562 2.46875 -63.0625 C 3.0625 -62.957031 3.660156 -63.035156 4.265625 -63.296875 C 4.867188 -63.566406 5.300781 -63.78125 5.5625 -63.9375 C 11.007812 -67.46875 17.359375 -69.125 24.609375 -68.90625 C 32.316406 -68.65625 37.742188 -64.9375 40.890625 -57.75 C 43.773438 -51.195312 42.710938 -44.972656 37.703125 -39.078125 C 37.085938 -38.441406 36.445312 -37.796875 35.78125 -37.140625 C 35.113281 -36.484375 34.394531 -35.789062 33.625 -35.0625 C 33.289062 -34.757812 32.929688 -34.425781 32.546875 -34.0625 C 32.171875 -33.695312 31.789062 -33.332031 31.40625 -32.96875 L 30.328125 -31.984375 L 31.71875 -31.484375 C 32.394531 -31.234375 33.070312 -30.972656 33.75 -30.703125 C 34.425781 -30.441406 35.078125 -30.207031 35.703125 -30 C 37.191406 -29.394531 38.644531 -28.835938 40.0625 -28.328125 C 41.488281 -27.816406 42.941406 -27.335938 44.421875 -26.890625 Z M 10.546875 -39.671875 C 17.160156 -42.003906 22.609375 -45.410156 26.890625 -49.890625 C 28.347656 -51.453125 28.789062 -53.03125 28.21875 -54.625 C 27.695312 -56.113281 26.492188 -56.984375 24.609375 -57.234375 C 18.742188 -57.910156 14 -56.390625 10.375 -52.671875 C 8.882812 -51.222656 8.15625 -49.710938 8.1875 -48.140625 C 8.226562 -46.578125 8.425781 -45.0625 8.78125 -43.59375 C 8.894531 -43.039062 9.003906 -42.503906 9.109375 -41.984375 C 9.222656 -41.460938 9.300781 -40.945312 9.34375 -40.4375 L 9.421875 -39.265625 Z M 10.546875 -39.671875 "/></g></g></g><g fill="#003e0a" fill-opacity="1"><g transform="translate(81.358944, 152.185661)"><g><path d="M 33.46875 -22.5 C 34.445312 -22.757812 35.546875 -22.828125 36.765625 -22.703125 C 37.992188 -22.578125 39.085938 -21.875 40.046875 -20.59375 C 41.535156 -18.613281 41.507812 -16.351562 39.96875 -13.8125 C 39.03125 -12.238281 37.828125 -10.867188 36.359375 -9.703125 C 30.035156 -4.859375 22.53125 -2.40625 13.84375 -2.34375 C 8.757812 -2.332031 4.921875 -4.859375 2.328125 -9.921875 C 0.703125 -13.128906 -0.378906 -16.460938 -0.921875 -19.921875 C -1.460938 -23.390625 -1.820312 -26.675781 -2 -29.78125 C -2.132812 -32.394531 -2.242188 -35.007812 -2.328125 -37.625 C -2.410156 -40.238281 -2.488281 -42.828125 -2.5625 -45.390625 C -2.59375 -46.640625 -2.628906 -47.875 -2.671875 -49.09375 C -2.722656 -50.3125 -2.757812 -51.546875 -2.78125 -52.796875 L -2.765625 -53.140625 C -2.796875 -53.484375 -2.816406 -53.835938 -2.828125 -54.203125 C -2.847656 -54.566406 -2.957031 -54.929688 -3.15625 -55.296875 C -4.363281 -58.191406 -3.53125 -60.847656 -0.65625 -63.265625 C -0.113281 -63.722656 0.4375 -64.15625 1 -64.5625 C 1.570312 -64.96875 2.179688 -65.289062 2.828125 -65.53125 L 6.25 -66.75 C 8.71875 -67.59375 11.21875 -68.460938 13.75 -69.359375 C 16.289062 -70.253906 18.835938 -71.019531 21.390625 -71.65625 C 21.597656 -71.707031 21.816406 -71.753906 22.046875 -71.796875 C 24.609375 -72.328125 26.84375 -72.015625 28.75 -70.859375 C 30.4375 -69.890625 31.5 -68.484375 31.9375 -66.640625 C 32.425781 -64.566406 32.003906 -62.675781 30.671875 -60.96875 C 29.335938 -59.257812 27.363281 -58.054688 24.75 -57.359375 C 23.070312 -56.890625 21.375 -56.507812 19.65625 -56.21875 C 17.945312 -55.925781 16.234375 -55.660156 14.515625 -55.421875 L 12.375 -55.046875 C 11.3125 -54.878906 10.476562 -54.722656 9.875 -54.578125 C 9.28125 -54.429688 8.828125 -54.125 8.515625 -53.65625 C 8.210938 -53.257812 8.09375 -52.75 8.15625 -52.125 C 8.226562 -51.507812 8.367188 -50.675781 8.578125 -49.625 C 8.796875 -48.59375 9.007812 -47.554688 9.21875 -46.515625 C 9.4375 -45.472656 9.65625 -44.429688 9.875 -43.390625 L 10.71875 -39.265625 L 11.75 -39.640625 C 12.332031 -39.878906 12.898438 -40.113281 13.453125 -40.34375 C 14.003906 -40.570312 14.566406 -40.832031 15.140625 -41.125 C 16.359375 -41.601562 17.5625 -42.078125 18.75 -42.546875 C 19.9375 -43.023438 21.125 -43.441406 22.3125 -43.796875 C 25.332031 -44.703125 28.21875 -45.125 30.96875 -45.0625 C 33.425781 -45.0625 34.988281 -43.867188 35.65625 -41.484375 C 36.050781 -40.128906 35.972656 -38.976562 35.421875 -38.03125 C 34.867188 -37.09375 34.25 -36.359375 33.5625 -35.828125 C 31.84375 -34.441406 30.09375 -33.476562 28.3125 -32.9375 C 26.59375 -32.414062 24.820312 -31.921875 23 -31.453125 C 21.175781 -30.992188 19.347656 -30.519531 17.515625 -30.03125 C 16.734375 -29.875 15.945312 -29.679688 15.15625 -29.453125 C 14.375 -29.234375 13.578125 -29.039062 12.765625 -28.875 L 11.953125 -28.625 L 12.125 -27.796875 C 12.207031 -27.410156 12.289062 -27.007812 12.375 -26.59375 C 12.457031 -26.1875 12.539062 -25.796875 12.625 -25.421875 C 12.851562 -24.265625 13.085938 -23.097656 13.328125 -21.921875 C 13.578125 -20.742188 13.847656 -19.582031 14.140625 -18.4375 C 14.210938 -18.050781 14.40625 -17.734375 14.71875 -17.484375 C 15.03125 -17.234375 15.289062 -17.046875 15.5 -16.921875 C 15.738281 -16.804688 16.039062 -16.679688 16.40625 -16.546875 C 16.78125 -16.421875 17.15625 -16.394531 17.53125 -16.46875 C 20.570312 -17.320312 23.890625 -18.441406 27.484375 -19.828125 C 27.972656 -19.984375 28.4375 -20.175781 28.875 -20.40625 C 29.320312 -20.632812 29.75 -20.851562 30.15625 -21.0625 C 30.726562 -21.351562 31.285156 -21.625 31.828125 -21.875 C 32.378906 -22.125 32.925781 -22.332031 33.46875 -22.5 Z M 33.46875 -22.5 "/></g></g></g><g fill="#003e0a" fill-opacity="1"><g transform="translate(137.502127, 140.636774)"><g><path d="M 40.046875 -28.90625 C 41.835938 -25.207031 42.25 -21.660156 41.28125 -18.265625 C 40.320312 -14.878906 38.160156 -12.207031 34.796875 -10.25 C 31.023438 -7.988281 26.3125 -6.15625 20.65625 -4.75 C 18.09375 -4.125 15.675781 -4.242188 13.40625 -5.109375 C 11.132812 -5.984375 9.265625 -6.957031 7.796875 -8.03125 C 6.160156 -9.25 5.015625 -10.675781 4.359375 -12.3125 C 3.710938 -13.945312 3.660156 -15.539062 4.203125 -17.09375 C 5.046875 -19.664062 6.976562 -21.257812 10 -21.875 C 10.832031 -22.039062 11.671875 -22.128906 12.515625 -22.140625 C 12.867188 -22.097656 13.242188 -22.070312 13.640625 -22.0625 C 14.046875 -22.0625 14.421875 -22.046875 14.765625 -22.015625 C 16.347656 -21.867188 17.9375 -21.816406 19.53125 -21.859375 C 21.125 -21.910156 22.71875 -22.351562 24.3125 -23.1875 L 26.859375 -24.5625 L 26.265625 -25.390625 C 25.203125 -26.953125 23.925781 -27.992188 22.4375 -28.515625 C 20.957031 -29.046875 19.460938 -29.378906 17.953125 -29.515625 C 11.941406 -30.054688 6.191406 -32.164062 0.703125 -35.84375 C -3.347656 -38.550781 -5.695312 -42.039062 -6.34375 -46.3125 C -6.988281 -50.53125 -5.828125 -54.457031 -2.859375 -58.09375 C 2.796875 -65.09375 10.140625 -68.460938 19.171875 -68.203125 C 23.203125 -68.117188 26.457031 -66.757812 28.9375 -64.125 C 29.90625 -63.007812 30.597656 -61.722656 31.015625 -60.265625 C 31.109375 -59.828125 31.15625 -59.320312 31.15625 -58.75 C 31.164062 -58.175781 31.003906 -57.71875 30.671875 -57.375 C 30.117188 -56.726562 29.097656 -56.539062 27.609375 -56.8125 C 25.828125 -57.132812 23.695312 -57.34375 21.21875 -57.4375 C 18.738281 -57.53125 16.242188 -57.003906 13.734375 -55.859375 C 12.535156 -55.316406 11.398438 -54.648438 10.328125 -53.859375 C 9.253906 -53.078125 8.289062 -52.285156 7.4375 -51.484375 C 6.414062 -50.578125 6.015625 -49.601562 6.234375 -48.5625 C 6.441406 -47.519531 7.164062 -46.753906 8.40625 -46.265625 L 10.453125 -45.5625 C 12.117188 -45 13.789062 -44.441406 15.46875 -43.890625 C 17.15625 -43.347656 18.863281 -42.914062 20.59375 -42.59375 C 30.09375 -40.882812 36.578125 -36.320312 40.046875 -28.90625 Z M 40.046875 -28.90625 "/></g></g></g><g fill="#003e0a" fill-opacity="1"><g transform="translate(194.550837, 128.901615)"><g><path d="M 33.46875 -22.5 C 34.445312 -22.757812 35.546875 -22.828125 36.765625 -22.703125 C 37.992188 -22.578125 39.085938 -21.875 40.046875 -20.59375 C 41.535156 -18.613281 41.507812 -16.351562 39.96875 -13.8125 C 39.03125 -12.238281 37.828125 -10.867188 36.359375 -9.703125 C 30.035156 -4.859375 22.53125 -2.40625 13.84375 -2.34375 C 8.757812 -2.332031 4.921875 -4.859375 2.328125 -9.921875 C 0.703125 -13.128906 -0.378906 -16.460938 -0.921875 -19.921875 C -1.460938 -23.390625 -1.820312 -26.675781 -2 -29.78125 C -2.132812 -32.394531 -2.242188 -35.007812 -2.328125 -37.625 C -2.410156 -40.238281 -2.488281 -42.828125 -2.5625 -45.390625 C -2.59375 -46.640625 -2.628906 -47.875 -2.671875 -49.09375 C -2.722656 -50.3125 -2.757812 -51.546875 -2.78125 -52.796875 L -2.765625 -53.140625 C -2.796875 -53.484375 -2.816406 -53.835938 -2.828125 -54.203125 C -2.847656 -54.566406 -2.957031 -54.929688 -3.15625 -55.296875 C -4.363281 -58.191406 -3.53125 -60.847656 -0.65625 -63.265625 C -0.113281 -63.722656 0.4375 -64.15625 1 -64.5625 C 1.570312 -64.96875 2.179688 -65.289062 2.828125 -65.53125 L 6.25 -66.75 C 8.71875 -67.59375 11.21875 -68.460938 13.75 -69.359375 C 16.289062 -70.253906 18.835938 -71.019531 21.390625 -71.65625 C 21.597656 -71.707031 21.816406 -71.753906 22.046875 -71.796875 C 24.609375 -72.328125 26.84375 -72.015625 28.75 -70.859375 C 30.4375 -69.890625 31.5 -68.484375 31.9375 -66.640625 C 32.425781 -64.566406 32.003906 -62.675781 30.671875 -60.96875 C 29.335938 -59.257812 27.363281 -58.054688 24.75 -57.359375 C 23.070312 -56.890625 21.375 -56.507812 19.65625 -56.21875 C 17.945312 -55.925781 16.234375 -55.660156 14.515625 -55.421875 L 12.375 -55.046875 C 11.3125 -54.878906 10.476562 -54.722656 9.875 -54.578125 C 9.28125 -54.429688 8.828125 -54.125 8.515625 -53.65625 C 8.210938 -53.257812 8.09375 -52.75 8.15625 -52.125 C 8.226562 -51.507812 8.367188 -50.675781 8.578125 -49.625 C 8.796875 -48.59375 9.007812 -47.554688 9.21875 -46.515625 C 9.4375 -45.472656 9.65625 -44.429688 9.875 -43.390625 L 10.71875 -39.265625 L 11.75 -39.640625 C 12.332031 -39.878906 12.898438 -40.113281 13.453125 -40.34375 C 14.003906 -40.570312 14.566406 -40.832031 15.140625 -41.125 C 16.359375 -41.601562 17.5625 -42.078125 18.75 -42.546875 C 19.9375 -43.023438 21.125 -43.441406 22.3125 -43.796875 C 25.332031 -44.703125 28.21875 -45.125 30.96875 -45.0625 C 33.425781 -45.0625 34.988281 -43.867188 35.65625 -41.484375 C 36.050781 -40.128906 35.972656 -38.976562 35.421875 -38.03125 C 34.867188 -37.09375 34.25 -36.359375 33.5625 -35.828125 C 31.84375 -34.441406 30.09375 -33.476562 28.3125 -32.9375 C 26.59375 -32.414062 24.820312 -31.921875 23 -31.453125 C 21.175781 -30.992188 19.347656 -30.519531 17.515625 -30.03125 C 16.734375 -29.875 15.945312 -29.679688 15.15625 -29.453125 C 14.375 -29.234375 13.578125 -29.039062 12.765625 -28.875 L 11.953125 -28.625 L 12.125 -27.796875 C 12.207031 -27.410156 12.289062 -27.007812 12.375 -26.59375 C 12.457031 -26.1875 12.539062 -25.796875 12.625 -25.421875 C 12.851562 -24.265625 13.085938 -23.097656 13.328125 -21.921875 C 13.578125 -20.742188 13.847656 -19.582031 14.140625 -18.4375 C 14.210938 -18.050781 14.40625 -17.734375 14.71875 -17.484375 C 15.03125 -17.234375 15.289062 -17.046875 15.5 -16.921875 C 15.738281 -16.804688 16.039062 -16.679688 16.40625 -16.546875 C 16.78125 -16.421875 17.15625 -16.394531 17.53125 -16.46875 C 20.570312 -17.320312 23.890625 -18.441406 27.484375 -19.828125 C 27.972656 -19.984375 28.4375 -20.175781 28.875 -20.40625 C 29.320312 -20.632812 29.75 -20.851562 30.15625 -21.0625 C 30.726562 -21.351562 31.285156 -21.625 31.828125 -21.875 C 32.378906 -22.125 32.925781 -22.332031 33.46875 -22.5 Z M 33.46875 -22.5 "/></g></g></g><g fill="#003e0a" fill-opacity="1"><g transform="translate(250.69402, 117.352728)"><g><path d="M 44.421875 -26.890625 C 45.441406 -26.585938 46.441406 -26.132812 47.421875 -25.53125 C 48.410156 -24.9375 49.207031 -24.128906 49.8125 -23.109375 C 50.425781 -22.097656 50.625 -20.851562 50.40625 -19.375 C 50.226562 -17.445312 49.378906 -15.867188 47.859375 -14.640625 C 46.347656 -13.421875 44.609375 -12.867188 42.640625 -12.984375 C 41.179688 -13.078125 39.738281 -13.332031 38.3125 -13.75 C 36.882812 -14.175781 35.460938 -14.617188 34.046875 -15.078125 C 32.148438 -15.710938 30.238281 -16.375 28.3125 -17.0625 C 26.394531 -17.757812 24.515625 -18.429688 22.671875 -19.078125 C 21.679688 -19.441406 20.707031 -19.796875 19.75 -20.140625 C 18.789062 -20.492188 17.820312 -20.851562 16.84375 -21.21875 C 16.519531 -21.332031 16.207031 -21.425781 15.90625 -21.5 C 15.601562 -21.570312 15.273438 -21.664062 14.921875 -21.78125 C 14.441406 -21.851562 14.015625 -21.960938 13.640625 -22.109375 L 12.296875 -22.4375 L 12.859375 -17.578125 C 12.941406 -16.335938 13.046875 -15.128906 13.171875 -13.953125 C 13.304688 -12.773438 13.425781 -11.625 13.53125 -10.5 C 13.675781 -8.414062 13.34375 -6.71875 12.53125 -5.40625 C 11.71875 -4.101562 10.507812 -3.304688 8.90625 -3.015625 C 7.300781 -2.753906 5.867188 -3.097656 4.609375 -4.046875 C 3.359375 -4.992188 2.445312 -6.4375 1.875 -8.375 C -2.226562 -22.789062 -4.414062 -38.984375 -4.6875 -56.953125 C -4.726562 -59.410156 -4.21875 -61.113281 -3.15625 -62.0625 C -2.625 -62.519531 -1.945312 -62.832031 -1.125 -63 C -0.132812 -63.207031 1.0625 -63.226562 2.46875 -63.0625 C 3.0625 -62.957031 3.660156 -63.035156 4.265625 -63.296875 C 4.867188 -63.566406 5.300781 -63.78125 5.5625 -63.9375 C 11.007812 -67.46875 17.359375 -69.125 24.609375 -68.90625 C 32.316406 -68.65625 37.742188 -64.9375 40.890625 -57.75 C 43.773438 -51.195312 42.710938 -44.972656 37.703125 -39.078125 C 37.085938 -38.441406 36.445312 -37.796875 35.78125 -37.140625 C 35.113281 -36.484375 34.394531 -35.789062 33.625 -35.0625 C 33.289062 -34.757812 32.929688 -34.425781 32.546875 -34.0625 C 32.171875 -33.695312 31.789062 -33.332031 31.40625 -32.96875 L 30.328125 -31.984375 L 31.71875 -31.484375 C 32.394531 -31.234375 33.070312 -30.972656 33.75 -30.703125 C 34.425781 -30.441406 35.078125 -30.207031 35.703125 -30 C 37.191406 -29.394531 38.644531 -28.835938 40.0625 -28.328125 C 41.488281 -27.816406 42.941406 -27.335938 44.421875 -26.890625 Z M 10.546875 -39.671875 C 17.160156 -42.003906 22.609375 -45.410156 26.890625 -49.890625 C 28.347656 -51.453125 28.789062 -53.03125 28.21875 -54.625 C 27.695312 -56.113281 26.492188 -56.984375 24.609375 -57.234375 C 18.742188 -57.910156 14 -56.390625 10.375 -52.671875 C 8.882812 -51.222656 8.15625 -49.710938 8.1875 -48.140625 C 8.226562 -46.578125 8.425781 -45.0625 8.78125 -43.59375 C 8.894531 -43.039062 9.003906 -42.503906 9.109375 -41.984375 C 9.222656 -41.460938 9.300781 -40.945312 9.34375 -40.4375 L 9.421875 -39.265625 Z M 10.546875 -39.671875 "/></g></g></g><g fill="#003e0a" fill-opacity="1"><g transform="translate(315.645476, 103.991942)"><g><path d="M 46.4375 -73.390625 C 47.925781 -72.785156 49 -71.789062 49.65625 -70.40625 C 50.3125 -69.019531 50.445312 -67.460938 50.0625 -65.734375 L 49.09375 -61.234375 C 47.539062 -53.773438 45.96875 -46.332031 44.375 -38.90625 C 42.789062 -31.488281 41.21875 -24.070312 39.65625 -16.65625 C 39.257812 -14.914062 38.800781 -13.503906 38.28125 -12.421875 C 37.207031 -10.140625 35.585938 -8.71875 33.421875 -8.15625 C 31.234375 -7.644531 29.1875 -8.113281 27.28125 -9.5625 C 25.75 -10.675781 24.203125 -12.242188 22.640625 -14.265625 C 21.453125 -15.859375 20.265625 -17.445312 19.078125 -19.03125 C 17.898438 -20.613281 16.71875 -22.203125 15.53125 -23.796875 C 14.332031 -25.429688 13.140625 -27.039062 11.953125 -28.625 C 10.773438 -30.21875 9.585938 -31.804688 8.390625 -33.390625 C 7.304688 -34.828125 6.222656 -36.234375 5.140625 -37.609375 C 4.054688 -38.984375 2.972656 -40.363281 1.890625 -41.75 C 0.898438 -42.914062 -0.0546875 -44.085938 -0.984375 -45.265625 C -1.910156 -46.453125 -2.84375 -47.660156 -3.78125 -48.890625 C -4.570312 -49.929688 -5.332031 -50.960938 -6.0625 -51.984375 C -6.789062 -53.015625 -7.40625 -54.078125 -7.90625 -55.171875 C -9.238281 -57.984375 -8.910156 -60.253906 -6.921875 -61.984375 C -6.234375 -62.535156 -5.453125 -62.898438 -4.578125 -63.078125 C -2.921875 -63.421875 -1.335938 -62.972656 0.171875 -61.734375 C 2.941406 -59.378906 5.679688 -57.035156 8.390625 -54.703125 C 11.097656 -52.378906 13.664062 -49.914062 16.09375 -47.3125 C 17.601562 -45.800781 19.03125 -44.210938 20.375 -42.546875 C 21.71875 -40.878906 23.066406 -39.125 24.421875 -37.28125 C 25.054688 -36.4375 25.703125 -35.59375 26.359375 -34.75 C 27.015625 -33.914062 27.6875 -33.085938 28.375 -32.265625 L 29.640625 -30.71875 L 30.484375 -35.359375 C 30.671875 -36.128906 30.832031 -36.875 30.96875 -37.59375 C 31.101562 -38.3125 31.242188 -39.03125 31.390625 -39.75 C 31.566406 -40.75 31.753906 -41.753906 31.953125 -42.765625 C 32.148438 -43.785156 32.34375 -44.804688 32.53125 -45.828125 C 33.007812 -48.492188 33.523438 -51.1875 34.078125 -53.90625 C 34.640625 -56.625 35.222656 -59.328125 35.828125 -62.015625 C 36.398438 -64.710938 37.351562 -67.429688 38.6875 -70.171875 C 39.457031 -71.691406 40.566406 -72.742188 42.015625 -73.328125 C 43.460938 -73.921875 44.9375 -73.941406 46.4375 -73.390625 Z M 46.4375 -73.390625 "/></g></g></g><g fill="#003e0a" fill-opacity="1"><g transform="translate(378.7032, 91.020705)"><g><path d="M 60.203125 -26.453125 C 60.328125 -26.085938 60.476562 -25.742188 60.65625 -25.421875 C 61.019531 -23.378906 60.921875 -21.585938 60.359375 -20.046875 C 59.796875 -18.503906 58.785156 -17.351562 57.328125 -16.59375 C 55.898438 -15.789062 54.410156 -15.539062 52.859375 -15.84375 C 51.304688 -16.15625 49.941406 -16.9375 48.765625 -18.1875 C 47.515625 -19.582031 46.316406 -21.394531 45.171875 -23.625 C 44.765625 -24.445312 44.210938 -25.160156 43.515625 -25.765625 C 42.828125 -26.367188 41.757812 -26.554688 40.3125 -26.328125 C 38.707031 -26.046875 37.101562 -25.765625 35.5 -25.484375 C 33.90625 -25.210938 32.304688 -24.941406 30.703125 -24.671875 C 28.597656 -24.359375 26.46875 -24.019531 24.3125 -23.65625 C 22.15625 -23.300781 20 -22.929688 17.84375 -22.546875 C 17.300781 -22.429688 16.742188 -22.070312 16.171875 -21.46875 C 15.609375 -20.875 15.210938 -20.300781 14.984375 -19.75 C 14.703125 -18.875 14.4375 -17.992188 14.1875 -17.109375 C 13.9375 -16.234375 13.707031 -15.375 13.5 -14.53125 C 13.269531 -13.675781 13.03125 -12.796875 12.78125 -11.890625 C 12.53125 -10.984375 12.238281 -10.09375 11.90625 -9.21875 C 10.675781 -5.488281 8.570312 -3.941406 5.59375 -4.578125 C 4.394531 -4.796875 3.316406 -5.488281 2.359375 -6.65625 C 1.410156 -7.832031 1.023438 -9.363281 1.203125 -11.25 C 1.898438 -17.613281 2.984375 -24.894531 4.453125 -33.09375 C 5.367188 -38.3125 6.660156 -44.238281 8.328125 -50.875 C 8.796875 -52.75 9.34375 -54.738281 9.96875 -56.84375 C 10.601562 -58.945312 11.335938 -61.03125 12.171875 -63.09375 C 13.054688 -65.15625 14.5625 -67.125 16.6875 -69 C 18.28125 -70.457031 19.894531 -71.351562 21.53125 -71.6875 C 24.4375 -72.289062 27.191406 -71.175781 29.796875 -68.34375 C 34.910156 -62.644531 40 -56.664062 45.0625 -50.40625 C 50.125 -44.15625 54.570312 -37.394531 58.40625 -30.125 C 58.769531 -29.445312 59.101562 -28.796875 59.40625 -28.171875 C 59.707031 -27.554688 59.972656 -26.984375 60.203125 -26.453125 Z M 19.859375 -37.453125 L 35.25 -40.625 L 22.71875 -56.84375 Z M 19.859375 -37.453125 "/></g></g></g></g></g></svg>