<svg xmlns="http://www.w3.org/2000/svg" xmlns:xlink="http://www.w3.org/1999/xlink" width="1000" zoomAndPan="magnify" viewBox="0 0 750 299.999988" height="400" preserveAspectRatio="xMidYMid meet" version="1.0"><defs><g/><clipPath id="a526597df3"><path d="M 292 20 L 750 20 L 750 280 L 292 280 Z M 292 20 " clip-rule="nonzero"/></clipPath><clipPath id="afa5f4a871"><path d="M 725.976562 279.101562 L 292.527344 161.007812 L 330.773438 20.625 L 764.222656 138.71875 Z M 725.976562 279.101562 " clip-rule="nonzero"/></clipPath><clipPath id="9c57128c36"><path d="M 48 57 L 442 57 L 442 241 L 48 241 Z M 48 57 " clip-rule="nonzero"/></clipPath><clipPath id="58a240eff9"><path d="M 433.976562 259.101562 L 0.527344 141.007812 L 38.773438 0.625 L 472.222656 118.71875 Z M 433.976562 259.101562 " clip-rule="nonzero"/></clipPath><clipPath id="b3a6b1e822"><path d="M 38.980469 0.890625 L 472.433594 118.984375 L 434.183594 259.367188 L 0.734375 141.273438 Z M 38.980469 0.890625 " clip-rule="nonzero"/></clipPath><clipPath id="7ecbf1e48b"><path d="M 38.96875 0.929688 L 472.164062 118.957031 L 433.992188 259.0625 L 0.796875 141.039062 Z M 38.96875 0.929688 " clip-rule="nonzero"/></clipPath><clipPath id="de171bf88b"><path d="M 11 49 L 444 49 L 444 216 L 11 216 Z M 11 49 " clip-rule="nonzero"/></clipPath><clipPath id="73544bdb31"><path d="M 433.976562 259.101562 L 0.527344 141.007812 L 38.773438 0.625 L 472.222656 118.71875 Z M 433.976562 259.101562 " clip-rule="nonzero"/></clipPath><clipPath id="883edb4ed2"><path d="M 38.980469 0.890625 L 472.433594 118.984375 L 434.183594 259.367188 L 0.734375 141.273438 Z M 38.980469 0.890625 " clip-rule="nonzero"/></clipPath><clipPath id="a28a6e663e"><path d="M 38.96875 0.929688 L 472.164062 118.957031 L 433.992188 259.0625 L 0.796875 141.039062 Z M 38.96875 0.929688 " clip-rule="nonzero"/></clipPath><clipPath id="115ec4379d"><rect x="0" width="458" y="0" height="260"/></clipPath><clipPath id="74180500e0"><rect x="0" width="503" y="0" height="298"/></clipPath></defs><g clip-path="url(#a526597df3)"><g clip-path="url(#afa5f4a871)"><g transform="matrix(1, 0, 0, 1, 292, 20)"><g clip-path="url(#115ec4379d)"><g clip-path="url(#9c57128c36)"><g clip-path="url(#58a240eff9)"><g clip-path="url(#b3a6b1e822)"><g clip-path="url(#7ecbf1e48b)"><path fill="#deff15" d="M 401.382812 167.996094 C 259.253906 -15.292969 -6.601562 78.683594 57.933594 108.777344 C 83.644531 120.769531 141.273438 109.515625 196.035156 114.4375 C 256.113281 119.839844 337.703125 131.246094 320.660156 158.289062 C 311.101562 173.457031 293.125 180.296875 284.957031 209.238281 C 279.941406 226.988281 318.082031 221.292969 349.757812 227.074219 C 391.640625 234.707031 436.984375 249.332031 440.699219 234.441406 C 446.527344 211.113281 419.296875 50.265625 401.382812 167.996094 " fill-opacity="1" fill-rule="nonzero"/></g></g></g></g><g clip-path="url(#de171bf88b)"><g clip-path="url(#73544bdb31)"><g clip-path="url(#883edb4ed2)"><g clip-path="url(#a28a6e663e)"><path fill="#003e0a" d="M 331.355469 174.460938 C 332.046875 173.777344 332.796875 172.882812 333.691406 172.117188 C 338.734375 167.757812 343.894531 163.472656 348.828125 158.992188 C 350.660156 157.332031 352.179688 157.296875 354.292969 158.140625 C 362.925781 161.824219 371.589844 165.375 380.359375 169.050781 C 380.59375 167.515625 379.390625 166.726562 378.6875 165.75 C 361.925781 143.933594 341.699219 126.21875 317.554688 112.808594 C 293.757812 99.625 268.503906 90.449219 242.136719 84.003906 C 201.546875 74.042969 160.4375 70.503906 118.8125 74.441406 C 94.046875 76.777344 69.652344 81.273438 46.050781 89.4375 C 36.023438 92.898438 26.515625 97.644531 17.238281 102.734375 C 16.3125 103.265625 15.355469 103.921875 14.375 104.160156 C 13.585938 104.359375 12.332031 104.242188 11.828125 103.746094 C 11.363281 103.25 11.421875 102.035156 11.644531 101.222656 C 11.855469 100.449219 12.488281 99.804688 12.953125 99.101562 C 16.757812 93.902344 20.476562 88.675781 24.425781 83.601562 C 25.554688 82.164062 27.15625 80.996094 28.714844 80 C 45.953125 68.914062 65.070312 62.742188 84.925781 58.386719 C 125.765625 49.421875 166.980469 47.34375 208.523438 51.964844 C 237.964844 55.214844 266.710938 61.667969 294.488281 71.859375 C 319.980469 81.1875 343.976562 93.460938 365.34375 110.335938 C 382.296875 123.714844 396.324219 139.925781 408.773438 157.539062 C 410.894531 160.546875 412.996094 163.597656 415.570312 167.289062 C 415.789062 165.644531 415.980469 164.601562 416.035156 163.5625 C 416.214844 156.824219 416.5 150.058594 416.417969 143.292969 C 416.390625 141.035156 417.148438 139.773438 419.027344 138.773438 C 425.347656 135.445312 431.613281 131.976562 437.933594 128.648438 C 441.09375 126.988281 443.054688 128.027344 443.039062 131.640625 C 442.953125 137.675781 442.492188 143.742188 442.230469 149.765625 C 441.597656 164.542969 440.824219 179.34375 440.375 194.128906 C 440.289062 197.128906 439.503906 199.164062 436.96875 200.90625 C 431.082031 204.992188 425.347656 209.210938 419.691406 213.625 C 417.179688 215.605469 414.984375 215.738281 412.257812 214.3125 C 406.539062 211.375 400.804688 208.523438 394.972656 205.839844 C 377.566406 197.835938 360.160156 189.980469 342.742188 182.019531 C 339.804688 180.671875 336.960938 179.15625 334.078125 177.78125 C 332.714844 177.21875 331.550781 176.441406 331.355469 174.460938 " fill-opacity="1" fill-rule="nonzero"/></g></g></g></g></g></g></g></g><g transform="matrix(1, 0, 0, 1, 0, 0)"><g clip-path="url(#74180500e0)"><g fill="#003e0a" fill-opacity="1"><g transform="translate(1.098121, 69.499148)"><g><path d="M 64.921875 -27.828125 C 64.847656 -25.710938 64.488281 -24.125 63.84375 -23.0625 C 58.625 -14.445312 53.84375 -6.832031 49.5 -0.21875 C 48.75 0.851562 47.878906 1.867188 46.890625 2.828125 C 45.910156 3.785156 44.910156 4.679688 43.890625 5.515625 C 39.421875 9.296875 34.488281 10.820312 29.09375 10.09375 C 23.664062 9.351562 19.273438 6.519531 15.921875 1.59375 C 10.847656 -5.882812 10.046875 -14.070312 13.515625 -22.96875 C 13.753906 -23.613281 14.023438 -24.25 14.328125 -24.875 C 14.628906 -25.5 14.921875 -26.125 15.203125 -26.75 C 15.335938 -27.0625 15.46875 -27.363281 15.59375 -27.65625 C 15.726562 -27.945312 15.851562 -28.226562 15.96875 -28.5 L 16.296875 -29.234375 L 16.03125 -29.359375 L 17.296875 -31.640625 C 18.160156 -33.242188 19.03125 -34.847656 19.90625 -36.453125 C 20.78125 -38.054688 21.671875 -39.644531 22.578125 -41.21875 C 22.910156 -41.832031 23.40625 -42.503906 24.0625 -43.234375 C 25.632812 -44.960938 27.390625 -45.476562 29.328125 -44.78125 C 30.253906 -44.414062 30.960938 -43.785156 31.453125 -42.890625 C 31.953125 -42.003906 32.113281 -41.007812 31.9375 -39.90625 C 31.726562 -38.101562 31.234375 -36.007812 30.453125 -33.625 C 29.898438 -32.03125 29.347656 -30.441406 28.796875 -28.859375 C 28.253906 -27.273438 27.710938 -25.6875 27.171875 -24.09375 C 26.847656 -23.101562 26.507812 -22.09375 26.15625 -21.0625 C 25.8125 -20.039062 25.460938 -19.019531 25.109375 -18 C 23.554688 -13.40625 24 -9.195312 26.4375 -5.375 C 28.019531 -2.882812 29.890625 -1.566406 32.046875 -1.421875 C 33.992188 -1.304688 35.769531 -2.210938 37.375 -4.140625 C 39 -6.117188 40.519531 -8.160156 41.9375 -10.265625 C 43.363281 -12.378906 44.734375 -14.488281 46.046875 -16.59375 L 46.734375 -17.59375 C 47.304688 -18.519531 47.859375 -19.46875 48.390625 -20.4375 C 48.929688 -21.414062 49.46875 -22.375 50 -23.3125 C 50.40625 -24.101562 50.84375 -24.914062 51.3125 -25.75 C 51.789062 -26.582031 52.257812 -27.382812 52.71875 -28.15625 C 53.695312 -29.78125 54.859375 -31.125 56.203125 -32.1875 C 57.941406 -33.570312 59.863281 -33.71875 61.96875 -32.625 C 63.988281 -31.601562 64.972656 -30.003906 64.921875 -27.828125 Z M 64.921875 -27.828125 "/></g></g></g><g fill="#003e0a" fill-opacity="1"><g transform="translate(56.045317, 93.911635)"><g><path d="M 51.3125 -0.125 C 49.769531 4.3125 46.847656 7.5625 42.546875 9.625 C 40.742188 10.539062 39.148438 11.039062 37.765625 11.125 C 26.640625 12.050781 17.640625 9.34375 10.765625 3 C 9.367188 1.6875 8.132812 -0.0664062 7.0625 -2.265625 C 6.113281 -4.148438 6.425781 -6.054688 8 -7.984375 C 8.976562 -9.265625 9.847656 -10.6875 10.609375 -12.25 C 11.890625 -15 13.164062 -17.75 14.4375 -20.5 C 15.707031 -23.25 16.972656 -25.988281 18.234375 -28.71875 C 19.265625 -30.90625 20.285156 -33.101562 21.296875 -35.3125 C 22.304688 -37.519531 23.320312 -39.710938 24.34375 -41.890625 L 24.453125 -42.171875 C 24.734375 -42.640625 24.9375 -43.179688 25.0625 -43.796875 C 25.195312 -44.410156 24.972656 -45.144531 24.390625 -46 C 24.054688 -46.46875 23.957031 -46.972656 24.09375 -47.515625 C 24.300781 -48.109375 24.726562 -48.53125 25.375 -48.78125 L 26.28125 -49.125 C 27.351562 -49.5 28.472656 -49.875 29.640625 -50.25 C 30.804688 -50.625 31.882812 -50.726562 32.875 -50.5625 C 38.6875 -49.582031 44.082031 -48.09375 49.0625 -46.09375 C 49.351562 -46.019531 49.65625 -45.910156 49.96875 -45.765625 C 55.945312 -43.109375 59.015625 -38.570312 59.171875 -32.15625 C 59.347656 -26.375 56.734375 -22.375 51.328125 -20.15625 C 51.066406 -20.039062 50.785156 -19.941406 50.484375 -19.859375 C 50.179688 -19.773438 49.859375 -19.710938 49.515625 -19.671875 C 49.328125 -19.640625 49.140625 -19.59375 48.953125 -19.53125 C 48.773438 -19.476562 48.597656 -19.441406 48.421875 -19.421875 L 47.34375 -19.171875 L 47.90625 -18.28125 C 48.082031 -17.925781 48.253906 -17.601562 48.421875 -17.3125 C 48.585938 -17.019531 48.742188 -16.742188 48.890625 -16.484375 C 49.179688 -15.921875 49.453125 -15.40625 49.703125 -14.9375 C 49.953125 -14.46875 50.1875 -14 50.40625 -13.53125 C 52.539062 -9.132812 52.84375 -4.664062 51.3125 -0.125 Z M 30.984375 -31.046875 L 30.59375 -30.171875 L 31.5625 -29.96875 C 32.050781 -29.863281 32.507812 -29.78125 32.9375 -29.71875 C 33.375 -29.664062 33.8125 -29.597656 34.25 -29.515625 C 35.238281 -29.285156 36.207031 -29.09375 37.15625 -28.9375 C 38.113281 -28.789062 39.066406 -28.691406 40.015625 -28.640625 C 41.535156 -28.554688 42.695312 -28.628906 43.5 -28.859375 C 44.3125 -29.097656 44.953125 -29.328125 45.421875 -29.546875 L 45.953125 -29.890625 C 46.460938 -30.253906 46.976562 -30.695312 47.5 -31.21875 C 48.019531 -31.738281 48.316406 -32.390625 48.390625 -33.171875 C 48.460938 -33.929688 48.1875 -34.695312 47.5625 -35.46875 C 46.882812 -36.25 45.789062 -37.109375 44.28125 -38.046875 C 43.53125 -38.441406 42.789062 -38.785156 42.0625 -39.078125 C 41.332031 -39.367188 40.425781 -39.617188 39.34375 -39.828125 C 38.257812 -40.046875 36.828125 -40.226562 35.046875 -40.375 L 34.421875 -40.40625 L 34.171875 -39.875 C 33.796875 -38.863281 33.492188 -38.015625 33.265625 -37.328125 C 33.035156 -36.648438 32.816406 -36.007812 32.609375 -35.40625 C 32.398438 -34.800781 32.175781 -34.175781 31.9375 -33.53125 C 31.695312 -32.882812 31.378906 -32.054688 30.984375 -31.046875 Z M 40.34375 -3.21875 C 41.632812 -5.289062 41.703125 -7.6875 40.546875 -10.40625 C 39.828125 -12.1875 38.859375 -13.613281 37.640625 -14.6875 C 36.429688 -15.757812 35.101562 -16.613281 33.65625 -17.25 C 32.21875 -17.894531 30.75 -18.46875 29.25 -18.96875 L 27.875 -19.5 C 27.40625 -19.65625 26.914062 -19.519531 26.40625 -19.09375 C 25.894531 -18.675781 25.550781 -18.320312 25.375 -18.03125 C 25.070312 -17.351562 24.765625 -16.664062 24.453125 -15.96875 C 24.148438 -15.28125 23.847656 -14.597656 23.546875 -13.921875 L 22.890625 -12.4375 L 22.625 -11.671875 C 22.539062 -11.484375 22.46875 -11.320312 22.40625 -11.1875 C 22.351562 -11.0625 22.296875 -10.929688 22.234375 -10.796875 C 21.953125 -10.171875 21.675781 -9.550781 21.40625 -8.9375 C 21.132812 -8.332031 20.835938 -7.722656 20.515625 -7.109375 C 19.648438 -5.398438 20.078125 -4.054688 21.796875 -3.078125 C 22.359375 -2.765625 22.910156 -2.488281 23.453125 -2.25 C 26.816406 -0.75 30.554688 -0.0820312 34.671875 -0.25 C 37.242188 -0.351562 39.132812 -1.34375 40.34375 -3.21875 Z M 40.34375 -3.21875 "/></g></g></g><g fill="#003e0a" fill-opacity="1"><g transform="translate(109.037358, 117.455466)"><g><path d="M 33.8125 -32.859375 C 32.007812 -27.953125 29.851562 -23.191406 27.34375 -18.578125 C 24.832031 -13.960938 22.28125 -9.453125 19.6875 -5.046875 L 17.5 -1.1875 C 16.9375 -0.300781 16.125 0.546875 15.0625 1.359375 C 13.164062 2.722656 11.316406 3.003906 9.515625 2.203125 C 7.847656 1.460938 6.925781 0.0351562 6.75 -2.078125 C 6.507812 -4.710938 6.90625 -7.367188 7.9375 -10.046875 C 8.582031 -11.847656 9.300781 -13.644531 10.09375 -15.4375 C 10.894531 -17.238281 11.707031 -19.003906 12.53125 -20.734375 C 12.851562 -21.460938 13.175781 -22.195312 13.5 -22.9375 C 13.832031 -23.675781 14.171875 -24.429688 14.515625 -25.203125 L 14.84375 -25.9375 L 14.578125 -26.0625 C 14.859375 -26.582031 15.132812 -27.117188 15.40625 -27.671875 C 15.675781 -28.222656 15.925781 -28.765625 16.15625 -29.296875 C 16.988281 -30.921875 17.820312 -32.554688 18.65625 -34.203125 C 19.5 -35.859375 20.367188 -37.507812 21.265625 -39.15625 C 22.390625 -41.1875 23.644531 -42.96875 25.03125 -44.5 C 26.019531 -45.519531 27.148438 -46.160156 28.421875 -46.421875 C 29.691406 -46.691406 30.925781 -46.535156 32.125 -45.953125 C 34.707031 -44.640625 35.835938 -42.578125 35.515625 -39.765625 C 35.273438 -37.660156 34.707031 -35.359375 33.8125 -32.859375 Z M 33.8125 -32.859375 "/></g></g></g><g fill="#003e0a" fill-opacity="1"><g transform="translate(135.466236, 129.19755)"><g><path d="M 55.96875 12.265625 C 56.382812 14.765625 55.578125 16.585938 53.546875 17.734375 C 51.210938 19.015625 49.128906 19.648438 47.296875 19.640625 C 41.492188 19.753906 35.648438 18.664062 29.765625 16.375 C 21.515625 11.957031 15.835938 6.097656 12.734375 -1.203125 C 8.566406 -10.972656 10.195312 -20.523438 17.625 -29.859375 C 23.1875 -36.921875 30.992188 -41.234375 41.046875 -42.796875 C 43.347656 -43.117188 45.613281 -43.117188 47.84375 -42.796875 C 50.070312 -42.484375 52.171875 -41.890625 54.140625 -41.015625 C 56.484375 -39.972656 58.578125 -38.597656 60.421875 -36.890625 C 62.273438 -35.179688 63.773438 -33.179688 64.921875 -30.890625 C 65.765625 -29.171875 66.210938 -27.519531 66.265625 -25.9375 C 66.253906 -24.488281 65.726562 -23.429688 64.6875 -22.765625 C 63.550781 -22.128906 62.300781 -22.222656 60.9375 -23.046875 C 59.945312 -23.609375 58.941406 -24.4375 57.921875 -25.53125 C 54.097656 -29.5 50.050781 -31.566406 45.78125 -31.734375 C 41.519531 -31.910156 36.738281 -30.207031 31.4375 -26.625 C 30.289062 -25.851562 29.28125 -24.9375 28.40625 -23.875 C 27.53125 -22.8125 26.785156 -21.820312 26.171875 -20.90625 C 24.140625 -18.039062 23.242188 -14.882812 23.484375 -11.4375 C 23.734375 -8 25.078125 -4.84375 27.515625 -1.96875 C 29.410156 0.3125 31.488281 2.078125 33.75 3.328125 C 36.019531 4.578125 38.335938 5.484375 40.703125 6.046875 C 43.066406 6.609375 45.390625 6.992188 47.671875 7.203125 C 48.316406 7.285156 49.035156 7.378906 49.828125 7.484375 C 50.617188 7.597656 51.351562 7.75 52.03125 7.9375 C 54.28125 8.664062 55.59375 10.109375 55.96875 12.265625 Z M 55.96875 12.265625 "/></g></g></g><g fill="#003e0a" fill-opacity="1"><g transform="translate(197.762126, 156.874988)"><g><path d="M 56.484375 11.859375 C 56.390625 12.203125 56.328125 12.519531 56.296875 12.8125 C 55.515625 14.46875 54.523438 15.703125 53.328125 16.515625 C 52.140625 17.328125 50.832031 17.632812 49.40625 17.4375 C 47.96875 17.28125 46.773438 16.691406 45.828125 15.671875 C 44.878906 14.660156 44.304688 13.410156 44.109375 11.921875 C 43.929688 10.273438 44 8.367188 44.3125 6.203125 C 44.445312 5.398438 44.421875 4.609375 44.234375 3.828125 C 44.054688 3.046875 43.390625 2.367188 42.234375 1.796875 C 40.941406 1.179688 39.65625 0.5625 38.375 -0.0625 C 37.09375 -0.6875 35.804688 -1.316406 34.515625 -1.953125 C 32.859375 -2.785156 31.164062 -3.625 29.4375 -4.46875 C 27.71875 -5.320312 25.988281 -6.160156 24.25 -6.984375 C 23.800781 -7.179688 23.222656 -7.207031 22.515625 -7.0625 C 21.804688 -6.925781 21.226562 -6.71875 20.78125 -6.4375 C 20.144531 -5.96875 19.507812 -5.476562 18.875 -4.96875 C 18.25 -4.46875 17.644531 -3.972656 17.0625 -3.484375 C 16.46875 -2.992188 15.847656 -2.484375 15.203125 -1.953125 C 14.566406 -1.429688 13.90625 -0.945312 13.21875 -0.5 C 10.4375 1.539062 8.140625 1.566406 6.328125 -0.421875 C 5.578125 -1.179688 5.160156 -2.222656 5.078125 -3.546875 C 4.992188 -4.878906 5.5 -6.160156 6.59375 -7.390625 C 10.34375 -11.597656 14.835938 -16.253906 20.078125 -21.359375 C 23.398438 -24.617188 27.351562 -28.191406 31.9375 -32.078125 C 33.226562 -33.160156 34.632812 -34.289062 36.15625 -35.46875 C 37.675781 -36.65625 39.265625 -37.773438 40.921875 -38.828125 C 42.597656 -39.847656 44.679688 -40.484375 47.171875 -40.734375 C 49.046875 -40.960938 50.65625 -40.78125 52 -40.1875 C 54.382812 -39.125 55.773438 -36.914062 56.171875 -33.5625 C 56.921875 -26.882812 57.503906 -20.019531 57.921875 -12.96875 C 58.335938 -5.925781 58.0625 1.175781 57.09375 8.34375 C 57.019531 9 56.929688 9.625 56.828125 10.21875 C 56.722656 10.820312 56.609375 11.367188 56.484375 11.859375 Z M 33.296875 -16.609375 L 45.90625 -11.015625 L 45.265625 -28.984375 Z M 33.296875 -16.609375 "/></g></g></g><g fill="#003e0a" fill-opacity="1"><g transform="translate(259.653489, 184.372698)"><g><path d="M 55.96875 12.265625 C 56.382812 14.765625 55.578125 16.585938 53.546875 17.734375 C 51.210938 19.015625 49.128906 19.648438 47.296875 19.640625 C 41.492188 19.753906 35.648438 18.664062 29.765625 16.375 C 21.515625 11.957031 15.835938 6.097656 12.734375 -1.203125 C 8.566406 -10.972656 10.195312 -20.523438 17.625 -29.859375 C 23.1875 -36.921875 30.992188 -41.234375 41.046875 -42.796875 C 43.347656 -43.117188 45.613281 -43.117188 47.84375 -42.796875 C 50.070312 -42.484375 52.171875 -41.890625 54.140625 -41.015625 C 56.484375 -39.972656 58.578125 -38.597656 60.421875 -36.890625 C 62.273438 -35.179688 63.773438 -33.179688 64.921875 -30.890625 C 65.765625 -29.171875 66.210938 -27.519531 66.265625 -25.9375 C 66.253906 -24.488281 65.726562 -23.429688 64.6875 -22.765625 C 63.550781 -22.128906 62.300781 -22.222656 60.9375 -23.046875 C 59.945312 -23.609375 58.941406 -24.4375 57.921875 -25.53125 C 54.097656 -29.5 50.050781 -31.566406 45.78125 -31.734375 C 41.519531 -31.910156 36.738281 -30.207031 31.4375 -26.625 C 30.289062 -25.851562 29.28125 -24.9375 28.40625 -23.875 C 27.53125 -22.8125 26.785156 -21.820312 26.171875 -20.90625 C 24.140625 -18.039062 23.242188 -14.882812 23.484375 -11.4375 C 23.734375 -8 25.078125 -4.84375 27.515625 -1.96875 C 29.410156 0.3125 31.488281 2.078125 33.75 3.328125 C 36.019531 4.578125 38.335938 5.484375 40.703125 6.046875 C 43.066406 6.609375 45.390625 6.992188 47.671875 7.203125 C 48.316406 7.285156 49.035156 7.378906 49.828125 7.484375 C 50.617188 7.597656 51.351562 7.75 52.03125 7.9375 C 54.28125 8.664062 55.59375 10.109375 55.96875 12.265625 Z M 55.96875 12.265625 "/></g></g></g><g fill="#003e0a" fill-opacity="1"><g transform="translate(321.949379, 212.050136)"><g><path d="M 33.8125 -32.859375 C 32.007812 -27.953125 29.851562 -23.191406 27.34375 -18.578125 C 24.832031 -13.960938 22.28125 -9.453125 19.6875 -5.046875 L 17.5 -1.1875 C 16.9375 -0.300781 16.125 0.546875 15.0625 1.359375 C 13.164062 2.722656 11.316406 3.003906 9.515625 2.203125 C 7.847656 1.460938 6.925781 0.0351562 6.75 -2.078125 C 6.507812 -4.710938 6.90625 -7.367188 7.9375 -10.046875 C 8.582031 -11.847656 9.300781 -13.644531 10.09375 -15.4375 C 10.894531 -17.238281 11.707031 -19.003906 12.53125 -20.734375 C 12.851562 -21.460938 13.175781 -22.195312 13.5 -22.9375 C 13.832031 -23.675781 14.171875 -24.429688 14.515625 -25.203125 L 14.84375 -25.9375 L 14.578125 -26.0625 C 14.859375 -26.582031 15.132812 -27.117188 15.40625 -27.671875 C 15.675781 -28.222656 15.925781 -28.765625 16.15625 -29.296875 C 16.988281 -30.921875 17.820312 -32.554688 18.65625 -34.203125 C 19.5 -35.859375 20.367188 -37.507812 21.265625 -39.15625 C 22.390625 -41.1875 23.644531 -42.96875 25.03125 -44.5 C 26.019531 -45.519531 27.148438 -46.160156 28.421875 -46.421875 C 29.691406 -46.691406 30.925781 -46.535156 32.125 -45.953125 C 34.707031 -44.640625 35.835938 -42.578125 35.515625 -39.765625 C 35.273438 -37.660156 34.707031 -35.359375 33.8125 -32.859375 Z M 33.8125 -32.859375 "/></g></g></g><g fill="#003e0a" fill-opacity="1"><g transform="translate(348.378256, 223.79222)"><g><path d="M 52.546875 -38.484375 C 56.410156 -35.578125 59.523438 -32.550781 61.890625 -29.40625 C 64.265625 -26.257812 65.664062 -22.707031 66.09375 -18.75 C 66.519531 -14.800781 65.753906 -10.1875 63.796875 -4.90625 C 62.472656 -2.550781 60.859375 -0.257812 58.953125 1.96875 C 57.046875 4.195312 54.679688 6 51.859375 7.375 C 50.703125 7.9375 49.53125 8.492188 48.34375 9.046875 C 47.15625 9.597656 45.972656 10.148438 44.796875 10.703125 C 41.253906 12.421875 37.78125 13.140625 34.375 12.859375 C 30.96875 12.578125 27.632812 11.445312 24.375 9.46875 C 23.8125 9.15625 23.285156 8.820312 22.796875 8.46875 C 22.304688 8.113281 21.8125 7.773438 21.3125 7.453125 C 18.21875 5.210938 15.875 2.726562 14.28125 0 C 12.6875 -2.71875 11.691406 -5.535156 11.296875 -8.453125 C 10.910156 -11.367188 10.984375 -14.242188 11.515625 -17.078125 C 12.046875 -19.921875 12.925781 -22.570312 14.15625 -25.03125 C 15.382812 -27.5 16.828125 -29.632812 18.484375 -31.4375 C 22.578125 -35.800781 27.082031 -38.800781 32 -40.4375 C 36.925781 -42.070312 42.363281 -42 48.3125 -40.21875 C 49.03125 -40 49.765625 -39.773438 50.515625 -39.546875 C 51.273438 -39.328125 51.953125 -38.972656 52.546875 -38.484375 Z M 44.046875 -5.375 C 45.078125 -6.101562 46.066406 -6.90625 47.015625 -7.78125 C 47.960938 -8.65625 48.914062 -9.488281 49.875 -10.28125 C 50.59375 -12.65625 50.78125 -14.671875 50.4375 -16.328125 C 50.101562 -17.992188 49.109375 -19.679688 47.453125 -21.390625 C 46.753906 -22.128906 46.066406 -22.859375 45.390625 -23.578125 C 44.722656 -24.304688 44.054688 -25.085938 43.390625 -25.921875 C 42.097656 -27.578125 40.773438 -28.554688 39.421875 -28.859375 C 38.078125 -29.171875 36.460938 -28.71875 34.578125 -27.5 C 32.023438 -25.894531 29.890625 -23.976562 28.171875 -21.75 C 26.460938 -19.519531 25.515625 -16.785156 25.328125 -13.546875 C 25.160156 -11.617188 25.476562 -9.859375 26.28125 -8.265625 C 27.082031 -6.679688 28.179688 -5.375 29.578125 -4.34375 C 30.984375 -3.3125 32.539062 -2.671875 34.25 -2.421875 C 35.96875 -2.171875 37.703125 -2.4375 39.453125 -3.21875 C 40.210938 -3.582031 41.007812 -3.914062 41.84375 -4.21875 C 42.675781 -4.519531 43.410156 -4.90625 44.046875 -5.375 Z M 52.40625 -43.484375 C 50.789062 -44.203125 49.898438 -45.132812 49.734375 -46.28125 C 49.578125 -47.425781 50.117188 -48.476562 51.359375 -49.4375 C 52.828125 -50.5625 54.332031 -51.628906 55.875 -52.640625 C 57.425781 -53.648438 58.984375 -54.640625 60.546875 -55.609375 C 61.640625 -56.253906 62.703125 -56.46875 63.734375 -56.25 C 64.773438 -56.03125 65.582031 -55.472656 66.15625 -54.578125 C 66.738281 -53.609375 66.894531 -52.613281 66.625 -51.59375 C 66.363281 -50.582031 65.671875 -49.71875 64.546875 -49 C 63.128906 -48.101562 61.726562 -47.238281 60.34375 -46.40625 C 58.957031 -45.570312 57.535156 -44.804688 56.078125 -44.109375 C 55.460938 -43.796875 54.796875 -43.625 54.078125 -43.59375 C 53.359375 -43.5625 52.800781 -43.523438 52.40625 -43.484375 Z M 52.40625 -43.484375 "/></g></g></g><g fill="#003e0a" fill-opacity="1"><g transform="translate(409.932539, 251.140169)"><g><path d="M 71.953125 -25.84375 C 71.617188 -24.375 71.113281 -22.878906 70.4375 -21.359375 L 67.859375 -15.875 C 65.867188 -11.644531 63.851562 -7.359375 61.8125 -3.015625 C 59.769531 1.328125 57.691406 5.632812 55.578125 9.90625 C 53.359375 14.53125 50.628906 16.976562 47.390625 17.25 C 44.253906 17.53125 41.207031 15.664062 38.25 11.65625 C 36.738281 9.59375 35.503906 7.363281 34.546875 4.96875 C 33.597656 2.582031 32.875 0.5 32.375 -1.28125 C 31.707031 -3.40625 31.140625 -5.582031 30.671875 -7.8125 C 30.210938 -10.039062 29.765625 -12.242188 29.328125 -14.421875 C 29.128906 -15.316406 28.941406 -16.203125 28.765625 -17.078125 C 28.597656 -17.960938 28.421875 -18.851562 28.234375 -19.75 L 28.171875 -20.34375 C 28.066406 -20.820312 27.941406 -21.320312 27.796875 -21.84375 C 27.648438 -22.363281 27.410156 -22.914062 27.078125 -23.5 L 26.296875 -24.890625 L 25.34375 -22.734375 C 25.226562 -22.460938 25.113281 -22.203125 25 -21.953125 C 24.894531 -21.710938 24.78125 -21.453125 24.65625 -21.171875 L 22.5 -16.890625 C 21.1875 -14.140625 19.847656 -11.351562 18.484375 -8.53125 C 17.128906 -5.71875 15.765625 -2.953125 14.390625 -0.234375 C 13.878906 0.773438 13.125 1.679688 12.125 2.484375 C 10.84375 3.578125 9.582031 3.878906 8.34375 3.390625 C 7.132812 2.960938 6.4375 1.925781 6.25 0.28125 C 6.007812 -1.125 6.070312 -2.359375 6.4375 -3.421875 C 8.726562 -10.867188 11.101562 -17.597656 13.5625 -23.609375 C 16.019531 -29.617188 18.703125 -35.238281 21.609375 -40.46875 C 22.066406 -41.382812 22.75 -42.257812 23.65625 -43.09375 C 25.207031 -44.613281 26.941406 -45.296875 28.859375 -45.140625 C 29.566406 -45.035156 30.210938 -44.851562 30.796875 -44.59375 C 31.878906 -44.113281 32.78125 -43.367188 33.5 -42.359375 C 34.59375 -40.910156 35.347656 -39.335938 35.765625 -37.640625 C 36.253906 -35.703125 36.726562 -33.738281 37.1875 -31.75 C 37.65625 -29.769531 38.113281 -27.820312 38.5625 -25.90625 C 38.820312 -24.8125 39.070312 -23.722656 39.3125 -22.640625 C 39.5625 -21.566406 39.828125 -20.484375 40.109375 -19.390625 C 40.554688 -17.472656 41.007812 -15.578125 41.46875 -13.703125 C 41.925781 -11.835938 42.367188 -9.945312 42.796875 -8.03125 L 44.203125 -2.296875 L 46.28125 -2.203125 L 46.875 -3.390625 C 47.039062 -3.648438 47.179688 -3.914062 47.296875 -4.1875 C 47.421875 -4.457031 47.566406 -4.710938 47.734375 -4.953125 C 48.191406 -5.992188 48.675781 -7.019531 49.1875 -8.03125 C 49.695312 -9.039062 50.175781 -10.0625 50.625 -11.09375 C 51.851562 -13.625 53.085938 -16.164062 54.328125 -18.71875 C 55.578125 -21.28125 56.828125 -23.851562 58.078125 -26.4375 C 59.097656 -28.351562 60.382812 -30.09375 61.9375 -31.65625 C 62.96875 -32.65625 64.148438 -33.234375 65.484375 -33.390625 C 66.828125 -33.546875 68.097656 -33.28125 69.296875 -32.59375 C 70.398438 -31.9375 71.195312 -30.984375 71.6875 -29.734375 C 72.1875 -28.492188 72.273438 -27.195312 71.953125 -25.84375 Z M 71.953125 -25.84375 "/></g></g></g></g></g></svg>