<svg xmlns="http://www.w3.org/2000/svg" xmlns:xlink="http://www.w3.org/1999/xlink" width="1000" zoomAndPan="magnify" viewBox="0 0 750 749.999995" height="1000" preserveAspectRatio="xMidYMid meet" version="1.0"><defs><clipPath id="027782287c"><path d="M 184 384 L 586 384 L 586 645.347656 L 184 645.347656 Z M 184 384 " clip-rule="nonzero"/></clipPath><clipPath id="17106161f2"><path d="M 11.539062 453 L 169 453 L 169 645.347656 L 11.539062 645.347656 Z M 11.539062 453 " clip-rule="nonzero"/></clipPath><clipPath id="7ec843859a"><path d="M 601 453 L 750 453 L 750 645.347656 L 601 645.347656 Z M 601 453 " clip-rule="nonzero"/></clipPath><clipPath id="6bb215666d"><path d="M 322.632812 439.796875 L 450.132812 439.796875 L 450.132812 567.296875 L 322.632812 567.296875 Z M 322.632812 439.796875 " clip-rule="nonzero"/></clipPath></defs><path fill="#ff0012" d="M 384.792969 366.789062 C 456.933594 366.789062 515.609375 308.078125 515.609375 235.972656 C 515.609375 163.871094 456.933594 105.160156 384.792969 105.160156 C 312.65625 105.160156 253.980469 163.871094 253.980469 235.972656 C 253.980469 308.078125 312.65625 366.789062 384.792969 366.789062 " fill-opacity="1" fill-rule="nonzero"/><path fill="#ff0012" d="M 611.539062 422.007812 C 665.226562 422.007812 708.933594 378.335938 708.933594 324.648438 C 708.933594 270.960938 665.226562 227.253906 611.539062 227.253906 C 557.851562 227.253906 514.144531 270.960938 514.144531 324.648438 C 514.144531 378.335938 557.851562 422.007812 611.539062 422.007812 " fill-opacity="1" fill-rule="nonzero"/><path fill="#ff0012" d="M 158.050781 422.007812 C 211.734375 422.007812 255.445312 378.335938 255.445312 324.648438 C 255.445312 270.960938 211.734375 227.253906 158.050781 227.253906 C 104.363281 227.253906 60.65625 270.960938 60.65625 324.648438 C 60.65625 378.335938 104.363281 422.007812 158.050781 422.007812 " fill-opacity="1" fill-rule="nonzero"/><g clip-path="url(#027782287c)"><path fill="#ff0012" d="M 534.027344 451.277344 C 533.574219 450.753906 533.085938 450.265625 532.632812 449.742188 C 527.886719 444.542969 522.863281 439.589844 517.597656 434.914062 C 517.109375 434.496094 516.65625 434.042969 516.167969 433.625 C 504.621094 423.542969 491.921875 414.753906 478.28125 407.496094 C 477.863281 407.253906 477.375 407.078125 476.957031 406.871094 C 470.957031 403.730469 464.816406 400.972656 458.503906 398.425781 C 456.621094 397.695312 454.703125 397.03125 452.746094 396.371094 C 447.722656 394.519531 442.632812 392.882812 437.433594 391.484375 C 435.097656 390.859375 432.722656 390.195312 430.351562 389.636719 C 425.15625 388.414062 419.886719 387.507812 414.550781 386.671875 C 412.28125 386.359375 410.085938 385.9375 407.78125 385.660156 C 400.246094 384.789062 392.574219 384.230469 384.792969 384.230469 C 376.980469 384.230469 369.339844 384.789062 361.769531 385.660156 C 359.503906 385.9375 357.269531 386.359375 355.003906 386.671875 C 349.703125 387.507812 344.398438 388.414062 339.234375 389.636719 C 336.828125 390.195312 334.492188 390.859375 332.121094 391.484375 C 326.921875 392.882812 321.828125 394.519531 316.804688 396.371094 C 314.886719 397.03125 312.933594 397.695312 311.050781 398.425781 C 304.734375 400.972656 298.5625 403.765625 292.597656 406.871094 C 292.144531 407.078125 291.691406 407.253906 291.269531 407.496094 C 277.632812 414.753906 264.933594 423.542969 253.386719 433.625 C 252.898438 434.042969 252.445312 434.496094 251.992188 434.914062 C 246.722656 439.589844 241.703125 444.542969 236.921875 449.742188 C 236.46875 450.265625 236.015625 450.753906 235.527344 451.277344 C 230.539062 456.859375 225.828125 462.683594 221.46875 468.789062 C 198.097656 501.578125 184.214844 541.589844 184.214844 584.8125 C 184.214844 618.472656 211.597656 645.859375 245.257812 645.859375 L 524.328125 645.859375 C 557.992188 645.859375 585.375 618.472656 585.375 584.8125 C 585.375 541.589844 571.457031 501.578125 548.121094 468.789062 C 543.757812 462.683594 539.015625 456.859375 534.027344 451.277344 " fill-opacity="1" fill-rule="nonzero"/></g><g clip-path="url(#17106161f2)"><path fill="#ff0012" d="M 158.050781 453.996094 C 76.316406 453.996094 9.792969 520.484375 9.792969 602.253906 C 9.792969 626.289062 29.363281 645.859375 53.398438 645.859375 L 150.027344 645.859375 C 138.65625 628.207031 131.886719 607.347656 131.886719 584.8125 C 131.886719 537.160156 145.386719 492.683594 168.375 454.625 C 164.957031 454.382812 161.539062 453.996094 158.050781 453.996094 " fill-opacity="1" fill-rule="nonzero"/></g><g clip-path="url(#7ec843859a)"><path fill="#ff0012" d="M 611.539062 453.996094 C 608.050781 453.996094 604.632812 454.382812 601.214844 454.625 C 624.203125 492.683594 637.703125 537.160156 637.703125 584.8125 C 637.703125 607.347656 630.933594 628.207031 619.5625 645.859375 L 716.191406 645.859375 C 740.222656 645.859375 759.792969 626.289062 759.792969 602.253906 C 759.792969 520.484375 693.269531 453.996094 611.539062 453.996094 " fill-opacity="1" fill-rule="nonzero"/></g><g clip-path="url(#6bb215666d)"><path fill="#ff0012" d="M 450.4375 503.699219 C 450.4375 504.742188 450.414062 505.789062 450.363281 506.832031 C 450.3125 507.878906 450.234375 508.921875 450.132812 509.960938 C 450.027344 511.003906 449.902344 512.039062 449.746094 513.074219 C 449.59375 514.109375 449.414062 515.140625 449.210938 516.164062 C 449.007812 517.191406 448.777344 518.210938 448.523438 519.226562 C 448.269531 520.238281 447.992188 521.246094 447.6875 522.25 C 447.382812 523.25 447.054688 524.242188 446.703125 525.226562 C 446.351562 526.210938 445.976562 527.1875 445.574219 528.152344 C 445.175781 529.117188 444.75 530.074219 444.304688 531.019531 C 443.855469 531.964844 443.386719 532.898438 442.894531 533.820312 C 442.402344 534.742188 441.886719 535.652344 441.347656 536.550781 C 440.808594 537.449219 440.25 538.332031 439.667969 539.199219 C 439.089844 540.070312 438.488281 540.925781 437.863281 541.765625 C 437.242188 542.605469 436.597656 543.429688 435.933594 544.238281 C 435.269531 545.046875 434.585938 545.835938 433.886719 546.613281 C 433.183594 547.386719 432.460938 548.144531 431.722656 548.882812 C 430.984375 549.625 430.226562 550.34375 429.449219 551.046875 C 428.675781 551.75 427.882812 552.433594 427.074219 553.09375 C 426.265625 553.757812 425.441406 554.402344 424.601562 555.023438 C 423.761719 555.648438 422.910156 556.25 422.039062 556.832031 C 421.167969 557.414062 420.285156 557.972656 419.390625 558.507812 C 418.492188 559.046875 417.582031 559.5625 416.660156 560.054688 C 415.738281 560.546875 414.804688 561.019531 413.859375 561.464844 C 412.914062 561.914062 411.957031 562.335938 410.992188 562.738281 C 410.023438 563.136719 409.050781 563.511719 408.066406 563.863281 C 407.082031 564.21875 406.085938 564.546875 405.085938 564.847656 C 404.085938 565.152344 403.078125 565.429688 402.0625 565.683594 C 401.050781 565.941406 400.027344 566.167969 399.003906 566.371094 C 397.976562 566.578125 396.949219 566.753906 395.914062 566.910156 C 394.878906 567.0625 393.839844 567.191406 392.800781 567.292969 C 391.757812 567.394531 390.71875 567.472656 389.671875 567.523438 C 388.628906 567.574219 387.582031 567.601562 386.535156 567.601562 C 385.492188 567.601562 384.445312 567.574219 383.402344 567.523438 C 382.355469 567.472656 381.3125 567.394531 380.273438 567.292969 C 379.234375 567.191406 378.195312 567.0625 377.160156 566.910156 C 376.125 566.753906 375.097656 566.578125 374.070312 566.371094 C 373.042969 566.167969 372.023438 565.941406 371.011719 565.6875 C 369.996094 565.429688 368.988281 565.152344 367.988281 564.847656 C 366.984375 564.546875 365.992188 564.21875 365.007812 563.863281 C 364.023438 563.511719 363.046875 563.136719 362.082031 562.738281 C 361.117188 562.335938 360.160156 561.914062 359.214844 561.464844 C 358.269531 561.019531 357.335938 560.546875 356.414062 560.054688 C 355.492188 559.5625 354.582031 559.046875 353.683594 558.507812 C 352.789062 557.972656 351.902344 557.414062 351.035156 556.832031 C 350.164062 556.25 349.308594 555.648438 348.46875 555.023438 C 347.628906 554.402344 346.804688 553.757812 345.996094 553.09375 C 345.1875 552.433594 344.398438 551.75 343.621094 551.046875 C 342.847656 550.34375 342.089844 549.625 341.351562 548.882812 C 340.613281 548.144531 339.890625 547.386719 339.1875 546.613281 C 338.484375 545.835938 337.804688 545.046875 337.140625 544.238281 C 336.476562 543.429688 335.832031 542.605469 335.210938 541.765625 C 334.585938 540.925781 333.984375 540.070312 333.402344 539.199219 C 332.824219 538.332031 332.261719 537.449219 331.726562 536.550781 C 331.1875 535.652344 330.671875 534.742188 330.179688 533.820312 C 329.6875 532.898438 329.21875 531.964844 328.769531 531.019531 C 328.324219 530.074219 327.898438 529.117188 327.5 528.152344 C 327.097656 527.1875 326.722656 526.210938 326.371094 525.226562 C 326.019531 524.242188 325.691406 523.25 325.386719 522.25 C 325.082031 521.246094 324.804688 520.238281 324.550781 519.226562 C 324.296875 518.210938 324.066406 517.191406 323.863281 516.164062 C 323.660156 515.140625 323.480469 514.109375 323.324219 513.074219 C 323.171875 512.039062 323.042969 511.003906 322.941406 509.960938 C 322.839844 508.921875 322.761719 507.878906 322.710938 506.832031 C 322.660156 505.789062 322.632812 504.742188 322.632812 503.699219 C 322.632812 502.652344 322.660156 501.605469 322.710938 500.5625 C 322.761719 499.519531 322.839844 498.476562 322.941406 497.433594 C 323.042969 496.394531 323.171875 495.355469 323.324219 494.320312 C 323.480469 493.289062 323.660156 492.257812 323.863281 491.230469 C 324.066406 490.207031 324.296875 489.1875 324.550781 488.171875 C 324.804688 487.15625 325.082031 486.148438 325.386719 485.148438 C 325.691406 484.148438 326.019531 483.15625 326.371094 482.171875 C 326.722656 481.1875 327.097656 480.210938 327.5 479.242188 C 327.898438 478.277344 328.324219 477.320312 328.769531 476.375 C 329.21875 475.429688 329.6875 474.496094 330.179688 473.574219 C 330.671875 472.652344 331.1875 471.742188 331.726562 470.847656 C 332.261719 469.949219 332.824219 469.066406 333.402344 468.195312 C 333.984375 467.328125 334.585938 466.472656 335.210938 465.632812 C 335.832031 464.792969 336.476562 463.96875 337.140625 463.160156 C 337.804688 462.351562 338.484375 461.558594 339.1875 460.785156 C 339.890625 460.007812 340.613281 459.253906 341.351562 458.511719 C 342.089844 457.773438 342.847656 457.050781 343.621094 456.351562 C 344.398438 455.648438 345.1875 454.964844 345.996094 454.300781 C 346.804688 453.636719 347.628906 452.996094 348.46875 452.371094 C 349.308594 451.75 350.164062 451.144531 351.035156 450.566406 C 351.902344 449.984375 352.789062 449.425781 353.683594 448.886719 C 354.582031 448.351562 355.492188 447.835938 356.414062 447.339844 C 357.335938 446.847656 358.269531 446.378906 359.214844 445.929688 C 360.160156 445.484375 361.117188 445.058594 362.082031 444.660156 C 363.046875 444.261719 364.023438 443.882812 365.007812 443.53125 C 365.992188 443.179688 366.984375 442.851562 367.988281 442.546875 C 368.988281 442.242188 369.996094 441.964844 371.011719 441.710938 C 372.023438 441.457031 373.042969 441.226562 374.070312 441.023438 C 375.097656 440.820312 376.125 440.640625 377.160156 440.488281 C 378.195312 440.335938 379.234375 440.207031 380.273438 440.105469 C 381.3125 440 382.355469 439.925781 383.402344 439.871094 C 384.445312 439.820312 385.492188 439.796875 386.535156 439.796875 C 387.582031 439.796875 388.628906 439.820312 389.671875 439.871094 C 390.71875 439.925781 391.757812 440 392.800781 440.105469 C 393.839844 440.207031 394.878906 440.335938 395.914062 440.488281 C 396.949219 440.640625 397.976562 440.820312 399.003906 441.023438 C 400.027344 441.226562 401.050781 441.457031 402.0625 441.710938 C 403.078125 441.964844 404.085938 442.242188 405.085938 442.546875 C 406.085938 442.851562 407.082031 443.179688 408.066406 443.53125 C 409.050781 443.882812 410.023438 444.261719 410.992188 444.660156 C 411.957031 445.058594 412.914062 445.484375 413.859375 445.929688 C 414.804688 446.378906 415.738281 446.847656 416.660156 447.339844 C 417.582031 447.835938 418.492188 448.351562 419.390625 448.886719 C 420.285156 449.425781 421.167969 449.984375 422.039062 450.566406 C 422.910156 451.144531 423.761719 451.75 424.601562 452.371094 C 425.441406 452.996094 426.265625 453.636719 427.074219 454.300781 C 427.882812 454.964844 428.675781 455.648438 429.449219 456.351562 C 430.226562 457.050781 430.984375 457.773438 431.722656 458.511719 C 432.460938 459.253906 433.183594 460.007812 433.886719 460.785156 C 434.585938 461.558594 435.269531 462.351562 435.933594 463.160156 C 436.597656 463.96875 437.242188 464.792969 437.863281 465.632812 C 438.488281 466.472656 439.089844 467.328125 439.667969 468.195312 C 440.25 469.066406 440.808594 469.949219 441.347656 470.847656 C 441.886719 471.742188 442.402344 472.652344 442.894531 473.574219 C 443.386719 474.496094 443.855469 475.429688 444.304688 476.375 C 444.75 477.320312 445.175781 478.277344 445.574219 479.242188 C 445.976562 480.210938 446.351562 481.1875 446.703125 482.171875 C 447.054688 483.15625 447.382812 484.148438 447.6875 485.148438 C 447.992188 486.148438 448.269531 487.15625 448.523438 488.171875 C 448.777344 489.1875 449.007812 490.207031 449.210938 491.230469 C 449.414062 492.257812 449.59375 493.289062 449.746094 494.320312 C 449.902344 495.355469 450.027344 496.394531 450.132812 497.433594 C 450.234375 498.476562 450.3125 499.519531 450.363281 500.5625 C 450.414062 501.605469 450.4375 502.652344 450.4375 503.699219 Z M 450.4375 503.699219 " fill-opacity="1" fill-rule="nonzero"/></g></svg>