<svg xmlns="http://www.w3.org/2000/svg" xmlns:xlink="http://www.w3.org/1999/xlink" width="1000" zoomAndPan="magnify" viewBox="0 0 750 749.999995" height="1000" preserveAspectRatio="xMidYMid meet" version="1.0"><defs><clipPath id="cada390379"><path d="M 176 470.855469 L 261.433594 470.855469 L 261.433594 561.605469 L 176 561.605469 Z M 176 470.855469 " clip-rule="nonzero"/></clipPath></defs><g clip-path="url(#cada390379)"><path fill="#000000" d="M 188.039062 470.875 C 187.679688 470.898438 187.351562 471.078125 187.144531 471.367188 C 185.789062 473.242188 184.445312 475.21875 183.710938 477.597656 C 182.863281 480.339844 182.847656 483.414062 182.824219 488.039062 C 182.824219 488.457031 182.824219 489.113281 182.820312 489.578125 C 180.417969 490.253906 178.835938 491.386719 178.835938 492.679688 L 178.835938 497.371094 C 178.835938 498.441406 179.921875 499.398438 181.660156 500.082031 L 181.660156 543.851562 C 180.207031 544.511719 178.898438 545.503906 177.984375 546.800781 C 176.429688 548.996094 175.933594 551.945312 176.671875 554.53125 C 177.261719 556.609375 178.632812 558.460938 180.417969 559.703125 C 182.207031 560.953125 184.421875 561.601562 186.617188 561.574219 C 189.535156 561.535156 192.425781 560.273438 194.46875 558.191406 L 242.898438 558.191406 C 244.941406 560.273438 247.835938 561.535156 250.75 561.574219 C 252.945312 561.601562 255.164062 560.953125 256.949219 559.710938 C 258.734375 558.464844 260.101562 556.613281 260.695312 554.535156 C 261.433594 551.949219 260.9375 549 259.382812 546.804688 C 258.464844 545.507812 257.160156 544.519531 255.703125 543.855469 L 255.703125 500.085938 C 257.441406 499.402344 258.53125 498.445312 258.53125 497.375 L 258.53125 492.683594 C 258.53125 491.394531 256.953125 490.257812 254.542969 489.582031 C 254.542969 489.117188 254.542969 488.460938 254.539062 488.046875 C 254.519531 483.417969 254.5 480.34375 253.65625 477.601562 C 252.917969 475.222656 251.574219 473.246094 250.222656 471.371094 C 250.011719 471.078125 249.6875 470.898438 249.328125 470.875 C 248.929688 470.859375 248.546875 471.042969 248.3125 471.367188 C 246.960938 473.246094 245.625 475.21875 244.890625 477.597656 C 244.042969 480.339844 244.023438 483.414062 244 488.039062 C 243.996094 488.46875 243.996094 489.144531 243.996094 489.628906 C 241.675781 490.308594 240.160156 491.417969 240.160156 492.679688 L 240.160156 497.371094 C 240.160156 498.441406 241.25 499.398438 242.984375 500.082031 L 242.984375 504.261719 C 238.859375 500.800781 234.273438 497 230.496094 494.246094 C 224.855469 490.132812 221.902344 489.058594 218.941406 488.980469 C 218.597656 488.972656 218.242188 488.980469 217.890625 488.996094 C 217.734375 489.003906 217.617188 489.019531 217.523438 489.027344 C 217.519531 489.027344 217.515625 489.027344 217.511719 489.027344 C 217.230469 489.046875 216.96875 489.09375 216.699219 489.136719 C 214.15625 489.527344 211.375 490.832031 206.691406 494.246094 C 202.972656 496.960938 198.464844 500.691406 194.378906 504.113281 L 194.378906 500.085938 C 196.113281 499.402344 197.203125 498.445312 197.203125 497.375 L 197.203125 492.683594 C 197.203125 491.421875 195.6875 490.3125 193.367188 489.632812 C 193.367188 489.152344 193.367188 488.472656 193.363281 488.046875 C 193.339844 483.417969 193.320312 480.34375 192.472656 477.601562 C 191.738281 475.222656 190.402344 473.25 189.050781 471.371094 C 188.820312 471.042969 188.4375 470.859375 188.039062 470.875 Z M 218.238281 499.925781 C 218.335938 499.921875 218.484375 499.921875 218.589844 499.925781 C 218.59375 499.925781 218.601562 499.925781 218.605469 499.925781 C 218.746094 499.925781 218.835938 499.921875 218.941406 499.925781 C 221.832031 500 224.679688 501.046875 230.300781 505.144531 C 234.128906 507.9375 238.816406 511.808594 242.984375 515.304688 L 242.984375 543.035156 L 239.121094 543.035156 C 238.382812 527.363281 229.453125 515.203125 218.683594 515.203125 C 207.914062 515.203125 198.980469 527.363281 198.242188 543.035156 L 194.378906 543.035156 L 194.378906 515.152344 C 198.503906 511.699219 203.105469 507.898438 206.878906 505.144531 C 211.515625 501.765625 214.296875 500.457031 216.71875 500.058594 C 216.988281 500.019531 217.363281 499.988281 217.570312 499.972656 C 217.574219 499.972656 217.582031 499.972656 217.585938 499.972656 C 217.710938 499.960938 218.082031 499.933594 218.238281 499.925781 Z M 188.039062 509.65625 C 188.144531 509.660156 188.242188 509.714844 188.308594 509.800781 C 189.414062 511.335938 190.472656 512.910156 191.042969 514.761719 C 191.703125 516.890625 191.726562 519.371094 191.746094 523.183594 C 191.753906 525.449219 191.761719 528.605469 191.769531 531.570312 C 191.769531 531.761719 191.613281 531.917969 191.417969 531.917969 L 184.628906 531.917969 C 184.4375 531.917969 184.277344 531.761719 184.273438 531.570312 C 184.28125 528.605469 184.289062 525.449219 184.300781 523.183594 C 184.320312 519.371094 184.34375 516.890625 185.003906 514.761719 C 185.578125 512.910156 186.628906 511.335938 187.738281 509.800781 C 187.804688 509.707031 187.917969 509.652344 188.039062 509.65625 Z M 249.449219 509.65625 C 249.558594 509.660156 249.65625 509.714844 249.71875 509.800781 C 250.824219 511.335938 251.878906 512.910156 252.453125 514.761719 C 253.109375 516.890625 253.136719 519.371094 253.15625 523.183594 C 253.167969 525.449219 253.171875 528.605469 253.179688 531.570312 C 253.179688 531.761719 253.019531 531.917969 252.828125 531.917969 L 246.042969 531.917969 C 245.847656 531.917969 245.6875 531.761719 245.6875 531.570312 C 245.695312 528.605469 245.699219 525.449219 245.710938 523.183594 C 245.730469 519.371094 245.753906 516.890625 246.417969 514.761719 C 246.988281 512.910156 248.042969 511.335938 249.148438 509.800781 C 249.214844 509.707031 249.328125 509.652344 249.449219 509.65625 Z M 249.449219 509.65625 " fill-opacity="1" fill-rule="nonzero"/></g><path fill="#ff0012" d="M 629.347656 120.652344 C 560.667969 51.96875 465.703125 11.269531 347.203125 -0.285156 L 344.304688 29.242188 C 455.808594 40.140625 544.628906 77.980469 608.324219 141.675781 C 672.019531 205.371094 709.859375 294.191406 720.757812 405.695312 L 750.285156 402.796875 C 738.730469 284.296875 698.03125 189.332031 629.347656 120.652344 " fill-opacity="1" fill-rule="nonzero"/><path fill="#ff0012" d="M 509.496094 407.359375 L 538.871094 403.183594 C 530.480469 344.472656 510.925781 299.40625 480.738281 269.261719 C 450.59375 239.074219 405.527344 219.519531 346.816406 211.128906 L 342.640625 240.503906 C 394.820312 247.964844 434.203125 264.699219 459.753906 290.246094 C 485.300781 315.796875 502.035156 355.179688 509.496094 407.359375 " fill-opacity="1" fill-rule="nonzero"/><path fill="#ff0012" d="M 346.933594 105.152344 L 343.570312 134.640625 C 425.429688 144.035156 489.511719 171.398438 534.078125 215.921875 C 578.601562 260.488281 605.964844 324.570312 615.359375 406.429688 L 644.847656 403.066406 C 634.683594 314.367188 604.457031 244.332031 555.0625 194.9375 C 505.667969 145.542969 435.632812 115.316406 346.933594 105.152344 " fill-opacity="1" fill-rule="nonzero"/><path fill="#ff0012" d="M 550.929688 509.898438 C 527.660156 486.589844 489.859375 486.589844 466.59375 509.898438 L 421.796875 554.652344 C 414.339844 562.113281 402.898438 563.621094 393.621094 558.558594 C 352.574219 536.21875 313.5 507.269531 278.136719 471.863281 C 242.730469 436.5 213.78125 397.425781 191.441406 356.378906 C 186.378906 347.101562 187.886719 335.660156 195.347656 328.203125 L 240.101562 283.40625 C 263.410156 260.140625 263.410156 222.339844 240.101562 199.070312 L 170.144531 129.078125 C 146.839844 105.769531 109.078125 105.769531 85.773438 129.078125 L 34.910156 179.941406 C 10.480469 204.328125 0.355469 239.65625 8.316406 273.242188 C 33.75 380.765625 90.449219 485.507812 177.449219 572.550781 C 264.492188 659.550781 369.234375 716.25 476.757812 741.683594 C 510.34375 749.644531 545.671875 739.519531 570.058594 715.089844 L 620.921875 664.226562 C 644.230469 640.921875 644.230469 603.160156 620.921875 579.855469 L 550.929688 509.898438 " fill-opacity="1" fill-rule="nonzero"/></svg>